<svg xmlns="http://www.w3.org/2000/svg" data-name="1" viewBox="0 0 713.54 587.15"><defs><linearGradient id="b" x1="227.98" x2="525.14" y1="514.52" y2="-63.4" gradientUnits="userSpaceOnUse"><stop offset="0" stop-color="#92fabd" class="stopColor92fabd svgShape"/><stop offset="1" stop-color="#ffffff" class="stopColorfff svgShape"/></linearGradient><linearGradient id="c" x1="383.14" x2="383.14" y1="442.02" y2="507.18" gradientUnits="userSpaceOnUse"><stop offset=".22" stop-color="#e0ccb4" class="stopColore0ccb4 svgShape"/><stop offset=".84" stop-color="#f6f0e8" class="stopColorf6f0e8 svgShape"/></linearGradient><clipPath id="a"><path fill="none" d="M582.16 533.23c60.14-45.78 117.48-91.51 76.92-148.18s-57-75.9-38.85-131S571 33.5 358.39 33.5 99.09 147 117.78 219.82s25.4 82.54-38.45 118.18-31.42 85.81 3.54 124.1 89.51 71.13 89.51 71.13Z"/></clipPath></defs><g data-name="61" fill="#000000" class="color000 svgShape"><path fill="#f6f0e8" d="M582.16 533.23c60.14-45.78 117.48-91.51 76.92-148.18s-57-75.9-38.85-131S571 33.5 358.39 33.5 99.09 147 117.78 219.82s25.4 82.54-38.45 118.18-31.42 85.81 3.54 124.1 89.51 71.13 89.51 71.13Z" class="colorf6f0e8 svgShape"/><ellipse cx="356.77" cy="542.03" fill="#f1eeee" rx="320.63" ry="13.01" class="colorf1eeee svgShape"/><g clip-path="url(#a)" fill="#000000" class="color000 svgShape"><path fill="#e8baa4" d="M599.95 432.14v-445.1h-26.61V432.4l26.61-.26z" class="colore8baa4 svgShape"/><path fill="#d0a692" d="M163.69 432.14v-445.1h31.16V432.4l-31.16-.26z" class="colord0a692 svgShape"/><path fill="#927566" d="M180.57-12.95h403.77V432.4H180.57z" class="color927566 svgShape"/><path fill="url(#b)" d="M191.59-4.25h381.75V432.4H191.59z"/><path fill="#69c892" d="M573.34-4.25v296.1a35.47 35.47 0 0 1-26.15-20.11c-1.72-3.92-2.77-8.26-5.58-11.5-2.49-2.88-6.09-4.51-9.31-6.54a41 41 0 0 1-18.41-38.58c-21.06-7.7-29.48-38.08-15.39-55.53a39.71 39.71 0 0 1-10.41-64.37c-12-3.17-19.61-16-19.94-28.38s5.22-24.23 12.13-34.53a36.75 36.75 0 0 1-19.71-13.7 40.37 40.37 0 0 1-8.06-21.34c0-.49-.06-1-.09-1.52Zm-382.92 0v188.06c18.2-5.21 32.36-18 32.07-31.43a4.15 4.15 0 0 1 .64-2.95c.85-1 2.56-1.55 4.13-2.07 19.46-6.5 29.2-23.83 21-37.43 24-7.4 36.31-28.6 26.16-45.07-1.07-1.73-2.38-3.58-1.74-5.41.52-1.47 2.19-2.6 3.75-3.69 22.19-15.56 31.05-39 23.9-60Z" class="color69c892 svgShape"/><path fill="#ffffff" d="M397.92-4.25 191.59 294.32v39.01L461.06-4.25h-63.14zM573.34.31l-381.75 381.1v33.16L573.34 94.32V.31z" opacity=".5" class="colorfff svgShape"/><path fill="#927566" d="M379.77-12.95h10.75v451.3h-10.75z" class="color927566 svgShape"/><path fill="url(#c)" d="m173.01 445.67 11.29 54.2h396.17l12.8-54.2H173.01z"/><path fill="#927566" d="M613.49 445.67H158.91a6.74 6.74 0 0 1-6.74-6.74 6.73 6.73 0 0 1 6.74-6.73h454.58a6.73 6.73 0 0 1 6.74 6.73 6.74 6.74 0 0 1-6.74 6.74Z" class="color927566 svgShape"/><path fill="#be9885" d="M613.49 432.2H423.74c5.79 4.34 11.46 8.8 16.87 13.47h172.88a6.74 6.74 0 1 0 0-13.47Z" class="colorbe9885 svgShape"/></g><ellipse cx="310.15" cy="544.77" fill="#c7bdaa" rx="190.52" ry="4.97" class="colorc7bdaa svgShape"/><path fill="#ffffff" d="M212.1 526.06h42.55a4.61 4.61 0 0 1 4.61 4.61v4.78a4.61 4.61 0 0 1-4.61 4.61H212.1v-14Z" transform="rotate(180 235.685 533.065)" class="colorfff svgShape"/><path fill="#ec7978" d="M215.91 524.91h44.66v1.15h-42.68c-3.2 0-5.79 3.14-5.79 7s2.59 7 5.79 7h42.68v1.15h-44.66c-3.73 0-6.75-3.65-6.75-8.16s3.02-8.14 6.75-8.14Z" class="colorec7978 svgShape"/><path fill="#ccc6c2" d="M255.72 529.09h-16.34a.25.25 0 0 1-.25-.25.25.25 0 0 1 .25-.25h16.34a.25.25 0 0 1 .24.25.25.25 0 0 1-.24.25Zm-1.58 4.22h-16.35a.25.25 0 0 1 0-.49h16.35a.25.25 0 0 1 0 .49Zm.86 3.79h-13.35a.25.25 0 1 1 0-.49H255a.25.25 0 1 1 0 .49Z" class="colorccc6c2 svgShape"/><path fill="#ebebeb" d="M188.54 526.06h42.55a4.61 4.61 0 0 1 4.61 4.61v4.78a4.61 4.61 0 0 1-4.61 4.61h-42.55v-14Z" transform="rotate(180 212.12 533.065)" class="colorebebeb svgShape"/><path fill="#d2524f" d="M192.34 524.91H237v1.15h-42.67c-3.2 0-5.79 3.14-5.79 7s2.59 7 5.79 7H237v1.15h-44.66c-3.72 0-6.74-3.65-6.74-8.16s3.02-8.14 6.74-8.14Z" class="colord2524f svgShape"/><path fill="#ccc6c2" d="M232.15 529.09h-33.56a.25.25 0 0 1-.25-.25.25.25 0 0 1 .25-.25h33.56a.25.25 0 0 1 .25.25.25.25 0 0 1-.25.25Zm-3.25 4.22h-33.56a.25.25 0 1 1 0-.49h33.56a.25.25 0 1 1 0 .49Zm1.84 3.79h-27.49a.25.25 0 0 1 0-.49h27.49a.25.25 0 1 1 0 .49Z" class="colorccc6c2 svgShape"/><path fill="#ffffff" d="M212.1 509.74h42.55a4.61 4.61 0 0 1 4.61 4.61v4.78a4.61 4.61 0 0 1-4.61 4.61H212.1v-14Z" transform="rotate(180 235.685 516.745)" class="colorfff svgShape"/><path fill="#ffc280" d="M215.91 508.59h44.66v1.15h-42.68c-3.2 0-5.79 3.14-5.79 7s2.59 7 5.79 7h42.68v1.16h-44.66c-3.73 0-6.75-3.66-6.75-8.16s3.02-8.15 6.75-8.15Z" class="colorffc280 svgShape"/><path fill="#ccc6c2" d="M255.72 512.77h-15.3a.25.25 0 1 1 0-.49h15.3a.25.25 0 0 1 0 .49Zm-1.48 4.23h-15.3a.25.25 0 1 1 0-.49h15.3a.25.25 0 0 1 0 .49Zm.84 3.78h-12.54a.25.25 0 0 1 0-.49h12.54a.25.25 0 0 1 0 .49Z" class="colorccc6c2 svgShape"/><path fill="#ebebeb" d="M188.54 509.74h42.55a4.61 4.61 0 0 1 4.61 4.61v4.78a4.61 4.61 0 0 1-4.61 4.61h-42.55v-14Z" transform="rotate(180 212.12 516.745)" class="colorebebeb svgShape"/><path fill="#f2a756" d="M192.34 508.59H237v1.15h-42.67c-3.2 0-5.79 3.14-5.79 7s2.59 7 5.79 7H237v1.16h-44.66c-3.72 0-6.74-3.66-6.74-8.16s3.02-8.15 6.74-8.15Z" class="colorf2a756 svgShape"/><path fill="#ccc6c2" d="M232.15 512.77h-33.56a.25.25 0 1 1 0-.49h33.56a.25.25 0 1 1 0 .49ZM228.9 517h-33.56a.25.25 0 1 1 0-.49h33.56a.25.25 0 1 1 0 .49Zm1.84 3.78h-27.49a.25.25 0 0 1 0-.49h27.49a.25.25 0 1 1 0 .49Z" class="colorccc6c2 svgShape"/><path fill="#ffffff" d="M212.1 492.4h42.55a4.61 4.61 0 0 1 4.61 4.61v4.78a4.61 4.61 0 0 1-4.61 4.61H212.1v-14Z" transform="rotate(180 235.685 499.41)" class="colorfff svgShape"/><path fill="#ec7978" d="M215.91 491.25h44.66v1.15h-42.68c-3.2 0-5.79 3.14-5.79 7s2.59 7 5.79 7h42.68v1.16h-44.66c-3.73 0-6.75-3.66-6.75-8.16s3.02-8.15 6.75-8.15Z" class="colorec7978 svgShape"/><path fill="#ccc6c2" d="M255.72 495.43h-16.34a.25.25 0 1 1 0-.49h16.34a.25.25 0 0 1 0 .49Zm-1.58 4.22h-16.35a.25.25 0 0 1 0-.49h16.35a.25.25 0 0 1 0 .49Zm.86 3.8h-13.35a.25.25 0 0 1-.25-.25.25.25 0 0 1 .25-.25H255a.25.25 0 0 1 .25.25.25.25 0 0 1-.25.25Z" class="colorccc6c2 svgShape"/><path fill="#ebebeb" d="M188.54 492.4h42.55a4.61 4.61 0 0 1 4.61 4.6v4.78a4.61 4.61 0 0 1-4.61 4.61h-42.55v-14Z" transform="rotate(180 212.12 499.41)" class="colorebebeb svgShape"/><path fill="#d2524f" d="M192.34 491.25H237v1.15h-42.67c-3.2 0-5.79 3.14-5.79 7s2.59 7 5.79 7H237v1.16h-44.66c-3.72 0-6.74-3.66-6.74-8.16s3.02-8.15 6.74-8.15Z" class="colord2524f svgShape"/><path fill="#ccc6c2" d="M232.15 495.43h-33.56a.25.25 0 1 1 0-.49h33.56a.25.25 0 1 1 0 .49Zm-3.25 4.22h-33.56a.25.25 0 1 1 0-.49h33.56a.25.25 0 1 1 0 .49Zm1.84 3.8h-27.49a.25.25 0 0 1-.24-.25.25.25 0 0 1 .24-.25h27.49a.25.25 0 0 1 .25.25.25.25 0 0 1-.25.25Z" class="colorccc6c2 svgShape"/><path fill="#ffffff" d="M212.1 476.08h42.55a4.61 4.61 0 0 1 4.61 4.61v4.78a4.61 4.61 0 0 1-4.61 4.61H212.1v-14Z" transform="rotate(180 235.685 483.09)" class="colorfff svgShape"/><path fill="#ffc280" d="M215.91 474.93h44.66v1.15h-42.68c-3.2 0-5.79 3.14-5.79 7s2.59 7 5.79 7h42.68v1.16h-44.66c-3.73 0-6.75-3.65-6.75-8.16s3.02-8.15 6.75-8.15Z" class="colorffc280 svgShape"/><path fill="#ccc6c2" d="M255.72 479.11h-15.3a.25.25 0 1 1 0-.49h15.3a.25.25 0 0 1 0 .49Zm-1.48 4.22h-15.3a.25.25 0 1 1 0-.49h15.3a.25.25 0 0 1 0 .49Zm.84 3.8h-12.54a.25.25 0 0 1 0-.49h12.54a.25.25 0 0 1 0 .49Z" class="colorccc6c2 svgShape"/><path fill="#ebebeb" d="M188.54 476.08h42.55a4.61 4.61 0 0 1 4.61 4.61v4.78a4.61 4.61 0 0 1-4.61 4.61h-42.55v-14Z" transform="rotate(180 212.12 483.09)" class="colorebebeb svgShape"/><path fill="#f2a756" d="M192.34 474.93H237v1.15h-42.67c-3.2 0-5.79 3.14-5.79 7s2.59 7 5.79 7H237v1.16h-44.66c-3.72 0-6.74-3.65-6.74-8.16s3.02-8.15 6.74-8.15Z" class="colorf2a756 svgShape"/><path fill="#ccc6c2" d="M232.15 479.11h-33.56a.25.25 0 1 1 0-.49h33.56a.25.25 0 1 1 0 .49Zm-3.25 4.22h-33.56a.25.25 0 1 1 0-.49h33.56a.25.25 0 1 1 0 .49Zm1.84 3.8h-27.49a.25.25 0 0 1 0-.49h27.49a.25.25 0 1 1 0 .49Z" class="colorccc6c2 svgShape"/><path fill="#45403b" d="M445.83 352.51a11.09 11.09 0 0 0-4.66 0 44.83 44.83 0 0 0-4.58 1.09 44.25 44.25 0 0 0-4.47 1.5c-1.47.56-2.9 1.2-4.33 1.88a32.94 32.94 0 0 1 4.2-2.21 41 41 0 0 1 4.47-1.61 38.87 38.87 0 0 1 4.65-1 9.67 9.67 0 0 1 4.72.35Zm-3.04 2.72a41.58 41.58 0 0 0-12.08 7.25 23.53 23.53 0 0 1 5.5-4.53 23.24 23.24 0 0 1 6.58-2.72Zm2.35 1.91a51.37 51.37 0 0 0-3.74 4.62 49 49 0 0 0-3.13 5.05 20.87 20.87 0 0 1 2.76-5.32 21.2 21.2 0 0 1 4.11-4.35Zm21.93-4.63a9.66 9.66 0 0 1 4.72-.31 38.87 38.87 0 0 1 4.65 1 41 41 0 0 1 4.47 1.61 32.94 32.94 0 0 1 4.2 2.21c-1.43-.68-2.87-1.32-4.33-1.88a44.25 44.25 0 0 0-4.47-1.5 44.83 44.83 0 0 0-4.58-1.09 11.09 11.09 0 0 0-4.66-.04Zm3.04 2.72a23.24 23.24 0 0 1 6.58 2.72 23.53 23.53 0 0 1 5.5 4.53 41.58 41.58 0 0 0-12.08-7.25Zm-2.35 1.91a21.58 21.58 0 0 1 6.87 9.67 50.76 50.76 0 0 0-3.13-5.05 51.37 51.37 0 0 0-3.74-4.62Z" class="color45403b svgShape"/><path fill="#4e4c4b" d="M521.19 362.32a38.42 38.42 0 0 1-7.19 17.39c-3.52 4.61-8.36 8-11.66 12.83-3.84 5.56-5.46 12.61-5.84 19.28a5.61 5.61 0 0 1-.59 2.72 1.79 1.79 0 0 1-2.4.72 39.78 39.78 0 0 1-.83-6.75 32.45 32.45 0 0 1 5.85-20.19c4.59-6.4 10.69-11.64 14-19a1.79 1.79 0 0 0 .13-.32 1.92 1.92 0 0 0 .11-.31 4.19 4.19 0 0 0 .14-.47c.13-.53.27-1.15.39-1.78 0-.27.09-.53.13-.78s.06-.33.08-.49c.19-1.25.33-2.4.4-3 0-.25.05-.39.05-.39.15 0 .78.15 1.62.29h.22a22.64 22.64 0 0 0 5.39.25Z" class="color4e4c4b svgShape"/><path fill="#4e4c4b" d="M466.42 362.32c8.18-4 12-13.12 8.1-21.28a21.77 21.77 0 0 0-4-16 34.92 34.92 0 0 1-3.82 7.44 17.37 17.37 0 0 0-8.14-2.66 13.11 13.11 0 0 0-7.76 2.15 37.85 37.85 0 0 1-3.32-6.57c0-.12-.09-.23-.13-.35 0 .15-.53.75-.62.87-.19.3-.38.6-.56.91-.37.62-.71 1.26-1 1.91a21.9 21.9 0 0 0-1.41 4 21.62 21.62 0 0 0-.05 10.27c-.52 2.05-.89 4.16-1.26 6.21a16.18 16.18 0 0 0 .38 8.71c1.44 3.73 4.47 5.65 8 6.44.41.1.84.18 1.28.25-.14 2-.1 4.07-.07 6 0 1 0 2 .07 2.92.18 8.41.61 16.83 1.35 25.24a71.56 71.56 0 0 0 1.42 9.56c0 .84.06 1.69.08 2.53.17 4.78.35 9.55.55 14.34a10.32 10.32 0 0 0-4.79.62 3.75 3.75 0 0 0-2.32 3.89c.53 2.55 4 3 6.58 2.8h.02c1.47-.06 9.84-.15 12.91-.17a121.13 121.13 0 0 0 13.69.14c5.53.31 12.38-.07 15.11-.08a5.68 5.68 0 0 0 2.89-.56 5.78 5.78 0 0 0 2.49-3.7c1.75-6.79-.44-13.95-3.67-20.1l.14.3-.14-.3c-.67-1.29-1.39-2.54-2.12-3.72a1.15 1.15 0 0 1-.15-.32 26.85 26.85 0 0 1-3.31-5.94c-8.34-12.47-20.91-20.98-26.42-35.75Z" class="color4e4c4b svgShape"/><path fill="#595655" d="M461.45 332.65a8.74 8.74 0 0 1 6.32 3 12.33 12.33 0 0 1 2.11 2.84 17.6 17.6 0 0 1 1.4 6.94 15.55 15.55 0 0 1-.51 3.59 15 15 0 0 1-.56 1.72c-.11.29-.23.58-.37.87-.06.12-.39.59-.36.71-.2-.82-.39-1.64-.59-2.47a14.35 14.35 0 0 1-1.35 4l-1.19-1.71a24.86 24.86 0 0 0-1 3.37 5 5 0 0 0-1.89-1.21l-.06 2.09-4.79-4.06c0 .7 0 1.4-.07 2.1a24.13 24.13 0 0 1-4.3-4.67c0 .7.05 1.4.07 2.1a16.17 16.17 0 0 1-1.45-2.8c-1.65-4.15-2.43-12.16 2-15a11.76 11.76 0 0 1 6.59-1.41Z" class="color595655 svgShape"/><path fill="#6f6c6a" d="M458.29 424.59c0 .78-.06 1.55-.1 2.33a3.24 3.24 0 0 0-3.6 5.19 5.22 5.22 0 0 1 .39.43h-.09c-2.61.16-6.05-.25-6.58-2.8a3.75 3.75 0 0 1 2.32-3.89 10.32 10.32 0 0 1 4.79-.62c-.2-4.79-.38-9.56-.55-14.34 0-.84-.05-1.69-.08-2.53a71.56 71.56 0 0 1-1.42-9.56c-.74-8.41-1.17-16.83-1.35-25.24a12.53 12.53 0 0 0 .29 1.82c.11.73.24 1.46.36 2.19a6.07 6.07 0 0 0 .26 1.12 5.42 5.42 0 0 1 .36 1.05c.19 1.3.2 2.65.3 4 .19 2.67.39 5.34.58 8 .14 1.79.27 3.58.4 5.36a26.42 26.42 0 0 0 1 6.27 9.05 9.05 0 0 0 3.63 5.06s-.66 2.17-.7 2.37c-.14.75-.13 1.53-.31 2.27a8.08 8.08 0 0 0 0 2.25c.06.93.1 1.86.13 2.8.04 2.13.05 4.3-.03 6.47Z" class="color6f6c6a svgShape"/><path fill="#595655" d="M467.37 390.62a22.83 22.83 0 0 0 6.17 4.55c3.15 1.63 9.18 3.6 10.78 7.13l-2.27-5c4.25 3 7.18 7.53 10 11.92a3.72 3.72 0 0 1-.2-1c-.08-.37-.17-.75-.26-1.12-.18-.72-.37-1.43-.57-2.14-2.86-9.82-9.71-17.4-16.44-24.92l-.25-.28a31.58 31.58 0 0 1-6.9-11.72 22.46 22.46 0 0 0 .82 7.34 18.81 18.81 0 0 1-3.42-7 17.26 17.26 0 0 0 .67 7.62 17.71 17.71 0 0 1-4-7.46c-.15 1.12-.3 2.25-.34 3.38s.16 2.14.23 3.22c.4 6.25 2.17 11.46 5.98 15.48Zm5.63 10.04c-2.8-1.13-6.37.4-7.91 3.17a10.32 10.32 0 0 0-1 5.78c.26 3.33 1.25 11.1 3.67 13.45-1.33-1.29-3.43-.27-4.73 1.05a5.46 5.46 0 0 0-1.88 4.27c.21 1.67 1.56 2.83 2.81 3.81-1.34-1.05-.13-3.88.87-4.74 2.07-1.79 4.07.62 6.16-.45-.61-2.9-1.5-5.88-1.82-8.83-1.13-10.44 16.6-2.35 15.72 5.24.54-4.64-1.15-9.24-3.45-13.19-1.87-3.28-4.73-8.07-8.44-9.56Z" class="color595655 svgShape"/><path fill="#4e4c4b" d="M522 350.86a63.57 63.57 0 0 1-.76 11.46 16.65 16.65 0 0 1-5.37-.12 12.06 12.06 0 0 1-1.81-.49.37.37 0 0 1 0-.11c.11-3.2-.24-6.94 1.41-9.84a8.61 8.61 0 0 1 3.35-3.06c1.54-.8 3.09-.6 3.18 2.16Z" class="color4e4c4b svgShape"/><path fill="#6f6c6a" d="M516.65 356.29c-.27 1.88-.5 3.81-.8 5.74v.17a34.24 34.24 0 0 1-3 10.54c-.3.59-.63 1.17-1 1.73a67.16 67.16 0 0 1-6.35 8 73.31 73.31 0 0 0-6.48 8.42 43.78 43.78 0 0 0-5.55 13.36 37.59 37.59 0 0 0-.73 4.22 32.45 32.45 0 0 1 5.85-20.19c4.59-6.4 10.69-11.64 14-19a2.69 2.69 0 0 0 .13-.32 1.92 1.92 0 0 0 .11-.31 4.19 4.19 0 0 0 .14-.47 15.25 15.25 0 0 0 .39-1.78c0-.27.09-.53.13-.78s.06-.33.08-.49a20.25 20.25 0 0 0 .4-3c0-.25.05-.39.05-.39a.37.37 0 0 1 0-.11c.11-3.2-.24-6.94 1.41-9.84a8.61 8.61 0 0 1 3.35-3.06 21.41 21.41 0 0 0-1.83 6Z" class="color6f6c6a svgShape"/><path fill="#635c56" d="M470.92 335.34c.12-.34.23-.67.35-1a25.14 25.14 0 0 0 1.84 4.42 19.76 19.76 0 0 0-1.23-9.5 14.41 14.41 0 0 0-1.15-2.45v1.28c0 .43-.09 1-.14 1.48a19.49 19.49 0 0 0-.09 3.74 9.3 9.3 0 0 0 .15 1c0 .17.06.33.1.5a2.09 2.09 0 0 1 .17.53Z" class="color635c56 svgShape"/><path fill="#6f6c6a" d="M450.74 364.36c-3.51-.79-6.54-2.71-8-6.44a16.18 16.18 0 0 1-.38-8.71c.37-2 .74-4.16 1.26-6.21a21.62 21.62 0 0 1 .05-10.27 21.9 21.9 0 0 1 1.41-4c.31-.65.65-1.29 1-1.91.18-.31.37-.61.56-.91.09-.12.62-.72.62-.87 0 .12.09.23.13.35-.31.8-.59 1.61-.86 2.43-.36 1.11-.68 2.22-.95 3.36s-.53 2.27-.73 3.43-.35 2.29-.47 3.45v.44a7.78 7.78 0 0 1 2.94-3 12 12 0 0 0-1.24 3.66c-1 4.55-1.79 9.16-2.35 13.8a10.25 10.25 0 0 1 1.83-2.26 16.69 16.69 0 0 0-.22 6.26l1.06-1.53a4.09 4.09 0 0 0 .64 2.65 39.26 39.26 0 0 0 3.7 6.28Z" class="color6f6c6a svgShape"/><path fill="#ba4745" d="M344.48 32.11h2.42v87.25h-2.42z" class="colorba4745 svgShape"/><path fill="#ba4745" d="m378.2 165-36.67.07-25.93.07s1.35-47.79 28-50.15a19.63 19.63 0 0 1 2-.1c28.76-.07 32.6 50.11 32.6 50.11Z" class="colorba4745 svgShape"/><path fill="#d26563" d="M359.34 159.48h16.81s-8.72-40.12-26.33-41.67a52 52 0 0 1 7.07 13.72 51.07 51.07 0 0 1 1.79 6.47 72.14 72.14 0 0 1 .66 21.48Z" class="colord26563 svgShape"/><path fill="#973937" d="m341.53 165.07-25.93.07s1.35-47.79 28-50.15a47.42 47.42 0 0 0-7.34 25c.02 8.68 2.11 17.06 5.27 25.08Z" class="color973937 svgShape"/><path fill="#5ebf4e" d="M136.44 405.67c0-14.53.17-29.42 5.25-43l-6.53 16.7-6.53-16.7c5.08 13.61 5.22 28.5 5.25 43s.09 29.39-4 43.37l5 .22h.66l4.95-.22c-4.14-13.98-4.09-28.81-4.05-43.37Z" class="color5ebf4e svgShape"/><path fill="#5ebf4e" d="M176.86 410.37a71.42 71.42 0 0 0-34.79 26.73 49.68 49.68 0 0 0-4.11 7.34c-.11.22-.2.45-.3.68-.47 1.1-2.13 7.68-2.62 7.88-.75.29.78-13.53.94-14.42a81.71 81.71 0 0 1 3.44-13.26c3.4-9.62 8.88-18.9 17.22-25.92 8.06-6.79 18.36-10.4 26.36-8.22a11.92 11.92 0 0 1 3.28 1.43 7.44 7.44 0 0 1 2.48 2.51c4.45 7.63-5.42 13-11.9 15.25Z" class="color5ebf4e svgShape"/><path fill="#4c9e3e" d="M176.86 410.37a71.42 71.42 0 0 0-34.79 26.73 49.68 49.68 0 0 0-4.11 7.34c.17-5 2.4-9.82 5.1-14.09 4.87-7.7 11.54-14.44 19.78-18.32 6.49-3.06 14-4.41 19.37-9.13a12 12 0 0 0 3.83-5.55 11.28 11.28 0 0 0 .29-4.29c0-.14 0-.3-.07-.45a7.44 7.44 0 0 1 2.48 2.51c4.47 7.63-5.4 13-11.88 15.25Z" class="color4c9e3e svgShape"/><path fill="#5ebf4e" d="M135.92 456.31c0 .49-.09.75-.2.71-.48-.2-2.15-6.78-2.63-7.88a50.08 50.08 0 0 0-4.4-8 71.42 71.42 0 0 0-34.8-26.74c-6.47-2.24-16.35-7.62-11.86-15.25a7 7 0 0 1 1.66-1.94 11.16 11.16 0 0 1 4.09-2c8-2.22 18.27 1.42 26.33 8.21 8.36 7 13.83 16.31 17.23 25.92a83.34 83.34 0 0 1 3.45 13.26c.13.79 1.21 10.85 1.13 13.71Z" class="color5ebf4e svgShape"/><path fill="#4c9e3e" d="M135.92 456.31c0 .49-.09.75-.2.71-.48-.2-2.15-6.78-2.63-7.88a50.08 50.08 0 0 0-4.4-8 71.42 71.42 0 0 0-34.8-26.74c-6.47-2.24-16.35-7.62-11.86-15.25a7 7 0 0 1 1.66-1.94l.08.14a15.27 15.27 0 0 0 4.6 5.31 45.06 45.06 0 0 0 7.23 3.93 95.59 95.59 0 0 1 21.06 13.2 54.57 54.57 0 0 1 15 19.63 62.28 62.28 0 0 1 4.26 16.89Z" class="color4c9e3e svgShape"/><path fill="#93e283" d="M186.41 368.53c-16 5.56-32.39 17.32-42.8 32.88a61.68 61.68 0 0 0-5.43 9.85c-.23.54-.68 2.09-1.18 3.8-.77 2.67-1.67 5.75-2 5.9-.92.36 1-16.65 1.15-17.74a102.31 102.31 0 0 1 4.23-16.31c4.19-11.83 10.92-23.25 21.2-31.89 9.91-8.34 22.6-12.84 32.39-10.11a13.24 13.24 0 0 1 5.5 2.9 8.6 8.6 0 0 1 1.58 1.95c5.47 9.39-6.67 16-14.64 18.77Z" class="color93e283 svgShape"/><path fill="#5ebf4e" d="M186.41 368.53c-16 5.56-32.39 17.32-42.8 32.88a61.68 61.68 0 0 0-5.43 9.85c-.23.54-.68 2.09-1.18 3.8a42.32 42.32 0 0 1 8-23.77c6-8.52 14.64-14.94 24-19.59 6.38-3.19 13.15-5.6 19.28-9.24a26.2 26.2 0 0 0 8.85-7.81 14.9 14.9 0 0 0 2-4.73c.16-.69.22-1.41.32-2.11a8.6 8.6 0 0 1 1.58 1.95c5.49 9.39-6.65 16-14.62 18.77Z" class="color5ebf4e svgShape"/><path fill="#93e283" d="M135.8 426c-.48-.2-1.89-5.42-2.73-8.2-.21-.7-.38-1.24-.5-1.51a60.47 60.47 0 0 0-5.43-9.84c-10.4-15.57-26.81-27.32-42.79-32.88-8-2.78-20.11-9.39-14.6-18.77a8.91 8.91 0 0 1 2-2.31 13.56 13.56 0 0 1 5.11-2.54c9.79-2.73 22.48 1.77 32.41 10.11 10.26 8.64 17 20.06 21.18 31.88a102.47 102.47 0 0 1 4.24 16.32c.15 1.06 2.03 18.07 1.11 17.74Z" class="color93e283 svgShape"/><path fill="#5ebf4e" d="M133.07 417.77c-.21-.7-.38-1.24-.5-1.51a60.47 60.47 0 0 0-5.43-9.84c-10.4-15.57-26.81-27.32-42.79-32.88-8-2.78-20.11-9.39-14.6-18.77a8.91 8.91 0 0 1 2-2.31 15.81 15.81 0 0 0 .67 1.5 14.37 14.37 0 0 0 2.18 2.91 27.18 27.18 0 0 0 6.4 4.72c8.06 4.55 17 7.38 25 12a56.16 56.16 0 0 1 21.14 20.81 45.18 45.18 0 0 1 5.93 23.37Z" class="color5ebf4e svgShape"/><path fill="#bef2b1" d="M164.89 335.38c-9.24 5.34-18.73 16.63-24.76 31.58-.68 1.71-1.32 3.45-1.9 5.25-.45 1.38-.86 2.78-1.23 4.19s-1.51 9.09-1.86 9.32c-.53.35.55-16 .66-17a153.17 153.17 0 0 1 2.45-15.72c2.42-11.36 6.31-22.33 12.25-30.62 5.57-7.77 12.64-12.07 18.23-9.91l.51.21a7.71 7.71 0 0 1 4.09 4.65c3.19 9.05-3.84 15.39-8.44 18.05Z" class="colorbef2b1 svgShape"/><path fill="#5ebf4e" d="M164.89 335.38c-9.24 5.34-18.73 16.63-24.76 31.58-.68 1.71-1.32 3.45-1.9 5.25a55 55 0 0 1 8-21.66c4.7-7.36 11.07-13.46 16.61-20.21 2.41-2.94 4.71-6.1 5.85-9.74a14.16 14.16 0 0 0 .5-6.43 8.62 8.62 0 0 0-.47-1.67l.51.21a7.71 7.71 0 0 1 4.09 4.65c3.2 9.02-3.83 15.36-8.43 18.02Z" class="color5ebf4e svgShape"/><path fill="#bef2b1" d="M135.63 390.52c-.35-.23-1.54-8-1.88-9.31l-.3-1.11a76.18 76.18 0 0 0-2.83-8.33c-6-15-15.5-26.24-24.75-31.58-4.6-2.67-11.63-9-8.44-18a8.32 8.32 0 0 1 1-2 7.39 7.39 0 0 1 3.13-2.7c5.66-2.62 13 1.7 18.73 9.71 5.94 8.29 9.84 19.26 12.25 30.6a151.72 151.72 0 0 1 2.46 15.7c.07 1.04 1.15 17.37.63 17.02Z" class="colorbef2b1 svgShape"/><path fill="#5ebf4e" d="M133.45 380.1a76.18 76.18 0 0 0-2.83-8.33c-6-15-15.5-26.24-24.75-31.58-4.6-2.67-11.63-9-8.44-18a8.32 8.32 0 0 1 1-2 21.85 21.85 0 0 0 1.76 4.3 30 30 0 0 0 5.42 6.81c4.77 4.54 10.52 8 15 12.82 5.47 5.86 8.78 13.46 10.65 21.26a100.91 100.91 0 0 1 2.19 14.72Z" class="color5ebf4e svgShape"/><path fill="#f9d88f" d="M154.09 458.31a87.76 87.76 0 0 0 5.85-13.13h-49.12a88.19 88.19 0 0 0 5.84 13.13c4.75 9-2.18 21.92-9.36 36.55C99 511.69 122.2 541 122.2 541h26.36s23.16-29.35 14.9-46.18c-7.18-14.59-14.11-27.48-9.37-36.51Z" class="colorf9d88f svgShape"/><path fill="#ffe7b8" d="M115.89 496.85c-1.81 8.75.67 18.41 5.84 25.58 1.37 1.9 3.65 4.15 6.14 2.73a5.58 5.58 0 0 0 1.95-2.43c3.11-5.85 5.79-12.8 5.68-19.77-.08-5.23-2.27-16.24-7.3-19.21-3.12-1.84-5.89-.57-7.88 2.26a31.2 31.2 0 0 0-4.43 10.84Z" class="colorffe7b8 svgShape"/><path fill="#f7c046" d="M163.46 494.86c-7.18-14.63-14.11-27.52-9.37-36.55a87.76 87.76 0 0 0 5.85-13.13h-14.85a87.76 87.76 0 0 1-5.85 13.13c-4.74 9 2.19 21.92 9.37 36.55 8.26 16.83-14.9 46.18-14.9 46.18h14.85s23.16-29.35 14.9-46.18Z" class="colorf7c046 svgShape"/><path fill="#ffffff" d="M152.34 373.46a37.84 37.84 0 0 1 6.12-8 45.6 45.6 0 0 1 17-10.89 38.21 38.21 0 0 1 9.86-2.19 94.88 94.88 0 0 0-9.27 3.64 71.42 71.42 0 0 0-8.63 4.73 72.43 72.43 0 0 0-7.92 5.84 93.13 93.13 0 0 0-7.16 6.87Zm-8.26-28.61a38.38 38.38 0 0 1 2.94-7.22 49.86 49.86 0 0 1 4.17-6.6 48.89 48.89 0 0 1 5.18-5.86 36.58 36.58 0 0 1 6.11-4.83l-5 5.9c-1.61 2-3.21 3.95-4.72 6s-3 4.1-4.43 6.2Zm-36.53-22.63a28.43 28.43 0 0 1 6.3 3.88 35.64 35.64 0 0 1 9.36 11.44 28 28 0 0 1 2.54 6.95c-1.28-2.11-2.54-4.16-3.89-6.15s-2.75-3.91-4.28-5.75-3.1-3.61-4.78-5.34-3.44-3.35-5.25-5.03ZM88.51 355.9a40.5 40.5 0 0 1 9.61 2.78 48.44 48.44 0 0 1 16.44 11.38 40.2 40.2 0 0 1 6 8c-2.29-2.42-4.61-4.73-7.06-6.9a82.33 82.33 0 0 0-7.68-6 80.29 80.29 0 0 0-8.34-5.08c-2.92-1.52-5.9-2.88-8.97-4.18Zm58.81 61.52a49.74 49.74 0 0 1 5.34-7.1 46.07 46.07 0 0 1 6.57-6.06 36.48 36.48 0 0 1 7.78-4.48 25.5 25.5 0 0 1 8.69-2 51.64 51.64 0 0 0-8 3.44 56.22 56.22 0 0 0-7.25 4.66c-2.32 1.71-4.5 3.61-6.67 5.56Zm-49.98-17.14a34.85 34.85 0 0 1 9 3.12 42.49 42.49 0 0 1 14.78 12.15 35.19 35.19 0 0 1 4.8 8.28 88.78 88.78 0 0 0-6-7.27 65.78 65.78 0 0 0-6.77-6.38 67.5 67.5 0 0 0-7.56-5.42 88.86 88.86 0 0 0-8.25-4.48Z" class="colorfff svgShape"/><path fill="#495352" d="M258.8 473.76h19.52v67.97H258.8z" transform="rotate(-15.46 268.59 507.787)" class="color495352 svgShape"/><path fill="#687675" d="M262.11 473.76H275v67.97h-12.89z" transform="rotate(-15.47 268.531 507.693)" class="color687675 svgShape"/><path fill="#9aadad" d="M258.31 479.71h8.2v11.62h-8.2z" transform="rotate(-15.46 262.319 485.44)" class="color9aadad svgShape"/><path fill="#ffffff" d="M356.91 323.35v9.94s-67.25 1-70.76 0-23.66-20.53-23.66-20.53l-5.33-39.2-2.41-17.78c4.95 2.5 24.14 32.39 38.92 53.81Z" class="colorfff svgShape"/><path fill="#ebe9e9" d="M356.91 327.68v5.61s-67.25 1-70.76 0-23.66-20.53-23.66-20.53l-5.33-39.2a7.08 7.08 0 0 1 3.81 3.31 55.86 55.86 0 0 1 2.46 6.39c.9 2.32 1.83 4.62 2.8 6.92A264.36 264.36 0 0 0 279.34 317a3.23 3.23 0 0 0 4.59 1.1q2.4-1.57 4.78-3.17c.52 4.79 6 7.11 10.74 8.21 18.76 4.31 38.18 4.55 57.46 4.54Z" class="colorebe9e9 svgShape"/><path fill="#ffffff" d="M276.9 367.71c-4.44 2.21-13.43 5.83-20.37 6.13-10 .43-37.75 14.85-48 24.39-.32-5.2.84-50.4-1.22-60.36s-15.49-69.36-15.49-74.55 25.43-12.57 25.43-12.57l3.73.28 23.86 1.77c2.66.68 5.33 1.37 8 2a5.73 5.73 0 0 1 4.1 3.85c3.22 7.66 6.27 15.4 9.58 23 5.08 11.69 4.74 19.53 1.81 31.54-.88 3.6.19 6.76-.34 10.11-1.21 7.58 10.29 42.68 11.59 42.68.36.02-.71.75-2.68 1.73Z" class="colorfff svgShape"/><path fill="#e3e1e1" d="M275.82 369.9a52.21 52.21 0 0 0-5.92.81 72.2 72.2 0 0 1-10.64 2.73 58.7 58.7 0 0 0-10.42 2 134.83 134.83 0 0 0-20.69 9.34c-2.88 1.53-19.88 9.84-19.66 13.42-.32-5.2.84-50.4-1.22-60.36s-15.49-69.36-15.49-74.55 25.43-12.57 25.43-12.57l3.73.28a3.8 3.8 0 0 1-.16 3.59c-1.19 2-3.35 3.38-4.86 5.12a20.06 20.06 0 0 0-4.42 9.15c-1.18 5.81-.23 11.83.87 17.66s2.37 11.6 5.35 16.65 8 9.23 13.81 9.8c3.33.32 6.64-.53 9.92-1.17a83.72 83.72 0 0 1 24.11-1.22c-4.37 4.43-10.71 6.25-16.83 7.48-4.9 1-9.91 1.71-14.57 3.61-1.67.69-3.22 1.62-4.88 2.34-1.18.52-2.74.95-3.56 2s-.41 3.05.32 4.23a10.07 10.07 0 0 0 4.56 3.55 28 28 0 0 0 14.14 2.47 28 28 0 0 0-5.75 3.17c.23-.17 1.69.36 2 .43 1 .23 2 .48 2.95.76q2.7.76 5.31 1.74a67.64 67.64 0 0 1 10.54 5.07 14.18 14.18 0 0 0 3.45 1.42 16.32 16.32 0 0 1 3.8 2l4.43 2.75a43.93 43.93 0 0 1 8.74 6.48 9 9 0 0 1 2.48 4c.92 4.21-2.96 5.3-6.87 5.82Z" class="colore3e1e1 svgShape"/><path fill="#ffbda5" d="M244.28 270.71c-1.19 1.78-13-7.86-20.64-14.37-3.72-3.17-6.43-5.59-6.43-5.59 2.27-.84 4.9-6.88 3.63-17.73-.13-1.14-.31-2.34-.53-3.59L224 232l15 10.82a11.84 11.84 0 0 0 3.22 7.76 13.06 13.06 0 0 0 2.54 2.22s1.29 15.26-.48 17.91Z" class="colorffbda5 svgShape"/><path fill="#f0a88e" d="M242.26 250.58a17.66 17.66 0 0 1-1.74 1.39 22.85 22.85 0 0 1-5.51 2.9 27.11 27.11 0 0 1-11.37 1.47c-3.72-3.17-6.43-5.59-6.43-5.59 2.27-.84 4.9-6.88 3.63-17.73a10.93 10.93 0 0 1 3.12-1l15.04 10.8a11.84 11.84 0 0 0 3.26 7.76Z" class="colorf0a88e svgShape"/><path fill="#ffbda5" d="M260.44 211c-.33 3.8-1.53 7.47-2.14 11.24-.39 2.4-.53 4.84-1 7.22-.18.82-.39 1.64-.62 2.45-.19.66-.51 1.28-.68 1.93a12.48 12.48 0 0 1-2 4l-4.87 7.09a14.67 14.67 0 0 1-4.33 4.66 9.13 9.13 0 0 1-6.07.83 15.77 15.77 0 0 1-1.92-.46c-9-2.79-16.3-11-20-19.33-.73-1.63-1.46-3.28-2.18-4.91a46.1 46.1 0 0 1-.86-1.9c-.1-.23-.14-.44-.22-.68a12.74 12.74 0 0 0-.72-1.49c-.34-.69-.66-1.38-1-2.08-2.41-5.41-4.5-11.62-3.45-17.65a22.28 22.28 0 0 1 2.75-7.37c6.94-12 24.36-19.85 36.22-13.36 10 5.43 14.07 18.57 13.09 29.81Z" class="colorffbda5 svgShape"/><path fill="#f0a88e" d="M238.73 250.4a15.77 15.77 0 0 1-1.92-.46c-9-2.79-16.3-11-20-19.33-.73-1.63-1.46-3.28-2.18-4.91a46.1 46.1 0 0 1-.86-1.9c-.1-.23-.14-.44-.22-.68a12.74 12.74 0 0 0-.72-1.49c-.34-.69-.66-1.38-1-2.08-2.41-5.41-4.5-11.62-3.45-17.65a22.28 22.28 0 0 1 2.75-7.37 26.09 26.09 0 0 1 3.06-2 20.7 20.7 0 0 1 11.7-3 12.58 12.58 0 0 1 8.21 3.93c.89 1 2 2.25 1.5 3.66-.54 1.6-2.1 3.08-3.1 4.4-1.33 1.78-2.66 3.54-4 5.3a14.2 14.2 0 0 0-2.81 5c-.53 2.23 0 4.57.1 6.87.07 2.83-.67 5.64-.71 8.47-.08 4.91 1.93 9.66 4.78 13.65a62.19 62.19 0 0 0 8.87 9.59Z" class="colorf0a88e svgShape"/><path fill="#f9d88f" d="M212.92 176.56a5 5 0 0 1-.78 1.93 3.89 3.89 0 0 1-1.86.74 28.15 28.15 0 0 1-4 .68 26.12 26.12 0 0 1-7.06-.3h-.11a1.68 1.68 0 0 0-1.38.13 1.64 1.64 0 0 0-.39 1.27c-.09 9.24.69 19-3.55 27.2a18.34 18.34 0 0 0-2.1-10.27 37.08 37.08 0 0 1-8.21 25.59 249.17 249.17 0 0 0-4.48-28.78c-1.38-6.38-3.29-17.16-1.09-25 1.5-5.36 4.93-9.36 11.76-9.64a35 35 0 0 1 14 2.78c6.1 2.58 10.9 7.04 9.25 13.67Z" class="colorf9d88f svgShape"/><path fill="#f7c046" d="m206.64 178.45-.33 1.46a26.12 26.12 0 0 1-7.06-.3h-.11a1.68 1.68 0 0 0-1.38.13 1.64 1.64 0 0 0-.39 1.27c-.09 9.24.69 19-3.55 27.2a18.34 18.34 0 0 0-2.1-10.27 37.08 37.08 0 0 1-8.21 25.59 249.17 249.17 0 0 0-4.51-28.78c-1.38-6.38-3.29-17.16-1.09-25v.46a28.21 28.21 0 0 0 .22 4.41 50.68 50.68 0 0 0 2.14 9.11c2.22 6.92 5.05 14 4.17 21.18a107 107 0 0 0 3.74-19.18 7.84 7.84 0 0 0 2.92 6.36c.7-5.11-1.39-11.07 1.91-15 2.84-3.41 8.28-3.21 12.29-1.3a2.46 2.46 0 0 1 1.35 1.14 2.68 2.68 0 0 1-.01 1.52Z" class="colorf7c046 svgShape"/><path fill="#ffe7b8" d="M192.05 174.1a12.72 12.72 0 0 1 2.55-2.1 11.47 11.47 0 0 1 4.83-1.79c1.8-.2 3.45.33 5.22.4a7.37 7.37 0 0 0-1.58-1.72c-.43-.36-1.62-1.44-2.24-1.38 2.43-.22 4.75.72 7 1.64-.63-.26-1.22-1.3-1.7-1.78a20.85 20.85 0 0 0-2.23-2 20.45 20.45 0 0 0-10.74-4.09 14.49 14.49 0 0 0-8.7 1.72c-2.59 1.56-4.45 4.57-3.94 7.43a6.09 6.09 0 0 1 3.48-3.38 14.66 14.66 0 0 1 4.86-.93 9.24 9.24 0 0 0-5.27 6 13.47 13.47 0 0 0 .25 7.9 13.2 13.2 0 0 1 11.72-10.51 8.77 8.77 0 0 0-3.51 4.59Z" class="colorffe7b8 svgShape"/><path fill="#d2524f" d="M214 168.55c-5 1.52-10.07 8.39-11.57 11.85-.91 2.11-.93 5.83 2.46 4.93a7.26 7.26 0 0 0 2.76-1.74l8.59-7.44c1.81-1.56 6.4-4.32 2.84-6.87a5.55 5.55 0 0 0-5.08-.73Z" class="colord2524f svgShape"/><path fill="#f9d88f" d="M265.12 199.2c-.77 4.65-3.07 8.65-4.89 13a17.89 17.89 0 0 0-2.38-8.91c-.29-.51-.79-1.09-1.39-1a5.29 5.29 0 0 1 .52 4.13c-1-2.37-3.58-3.71-5.94-5s-4.9-2.77-5.54-5.25a28.13 28.13 0 0 1-14.43 9.13 76.76 76.76 0 0 0 7.71-8.12 11.23 11.23 0 0 1-2.23 1.95 59.48 59.48 0 0 1-7.12 3.62 18.61 18.61 0 0 0-3.33 2c-1.73 1.35-2.68 3.13-3.88 4.9-.07.11-.14.22-.22.33a34 34 0 0 1-7.32 7.59 3.54 3.54 0 0 1-1.72.83 3.39 3.39 0 0 1-2.14-.83c-7-5.1-9.17-13.82-8.9-21.8.24-7.26 2-15.2 7.39-20.55a18.6 18.6 0 0 1 2.06-1.77 24.35 24.35 0 0 1 4.89-2.79c6.55-2.86 14.12-4.78 21.46-4.17a29 29 0 0 1 7.48 1.61c8.32 3 16.11 9.7 18.87 17.88a27.48 27.48 0 0 1 1.05 13.22Z" class="colorf9d88f svgShape"/><path fill="#ffe7b8" d="M234.35 189.07a18.83 18.83 0 0 0-7.49 4c2.19-4.88 9.41-5.27 12.47-9.66-2.42 1.42-5.39 1.36-8.18 1.68a28.12 28.12 0 0 0-13.06 5c4.56-5.69 10.63-11.14 17.92-11.24a25.76 25.76 0 0 0-21.24 4.35 40.25 40.25 0 0 1 6.74-6.25 13.81 13.81 0 0 1 8.64-2.64 26.49 26.49 0 0 0-18.75 5.07 37.5 37.5 0 0 1 9.93-7.38 16 16 0 0 1 5.61-1.94c1.6-.23 3.19.14 4.8.06a43 43 0 0 0 4.27-.85 19.28 19.28 0 0 1 9.4.6 13.17 13.17 0 0 0-5.07 1 18.34 18.34 0 0 1 11.12 2 9.69 9.69 0 0 0-9.73 1.54 23 23 0 0 1 13 3.45 13.25 13.25 0 0 0-11.45.2 13.73 13.73 0 0 1 12.65 7.58 9.93 9.93 0 0 0-9.86-3.8 12 12 0 0 1 7.36 3.78 36 36 0 0 1 4.92 6.85c-3-4.19-9.76-3.88-13.13-7.78-.89.59-1.8 1.15-2.74 1.66-.46.26-.94.51-1.42.75a15.15 15.15 0 0 1-1.46.56 46.19 46.19 0 0 1-5.25 1.41Z" class="colorffe7b8 svgShape"/><path fill="#f7c046" d="M222.22 209.71c-.07.11-.14.22-.22.33a34 34 0 0 1-7.32 7.59 3.54 3.54 0 0 1-1.72.83 3.39 3.39 0 0 1-2.14-.83c-7-5.1-9.17-13.82-8.9-21.8.24-7.26 2-15.2 7.39-20.55a31 31 0 0 0-.8 4.57 29.94 29.94 0 0 0 .43 8.91 30.38 30.38 0 0 0 10.09 17c1.31 1.13 2.84 2.24 3.19 3.95Z" class="colorf7c046 svgShape"/><path fill="#f0a88e" d="M207.44 210a3.67 3.67 0 0 0-1.46 2.69 8.52 8.52 0 0 0 .4 3.12 26.64 26.64 0 0 0 3.05 6.93c1.5 2.4 3.7 4.73 6.52 4.92a1.21 1.21 0 0 0 .73-.12 1.31 1.31 0 0 0 .47-.92 20.79 20.79 0 0 0-.8-10.68c-1.06-2.94-5.19-8.46-8.91-5.94Z" class="colorf0a88e svgShape"/><path fill="#b97457" d="M210.29 212.22c-.46-.24-1.07-.42-1.46-.08a1.37 1.37 0 0 0-.35.66 9 9 0 0 0 .52 5.77 13 13 0 0 0 4.77 5.85 2.73 2.73 0 0 1 0-1.36.93.93 0 0 1 1.06-.65c.18.06.38.2.54.09a.3.3 0 0 0 .13-.21c.22-.79-.42-1.52-1-2.11a1.74 1.74 0 0 1-.55-1 3.17 3.17 0 0 1 .09-.68 2.55 2.55 0 0 0-.84-2.1 7.51 7.51 0 0 0-2-1.24 2.31 2.31 0 0 1 1.85.16 7.44 7.44 0 0 1 1.53 1.16l-1.12-1.36c-.28-.34-.47-.74-.75-1.07a8.16 8.16 0 0 0-2.42-1.83Z" class="colorb97457 svgShape"/><path fill="#111116" d="M235.42 218c-.31 1.73-1.29 3-2.19 2.86s-1.39-1.7-1.09-3.44 1.28-3 2.19-2.85 1.39 1.64 1.09 3.43Zm17.9-.58c-.27 1.75-1.23 3-2.14 2.9s-1.42-1.67-1.15-3.41 1.23-3 2.14-2.9 1.42 1.67 1.15 3.41Z" class="color111116 svgShape"/><path fill="#f9d88f" d="M235.13 207.83a4 4 0 0 1 1.94.14 1.6 1.6 0 0 1 1.08 1.49c0 .06-2.75.23-3 .26-1 .1-2 .22-3.06.39a22.85 22.85 0 0 0-5.84 1.68c-.42.19-1.05.71-1.53.7.08-.23.42-.43.61-.58.51-.39 1.05-.76 1.59-1.11a18.74 18.74 0 0 1 4.57-2.21 19 19 0 0 1 3.64-.76Zm16.45.17a2.92 2.92 0 0 0-1.63.14 1.61 1.61 0 0 0-.9 1.49c0 .06 2.31.23 2.52.26.86.1 1.72.22 2.57.39a16.85 16.85 0 0 1 4.9 1.68c.35.19.88.71 1.29.7-.07-.23-.36-.43-.52-.58-.43-.39-.88-.75-1.33-1.11a14.62 14.62 0 0 0-3.84-2.2 13.6 13.6 0 0 0-3.06-.77Z" class="colorf9d88f svgShape"/><path fill="#d29075" d="M234.73 234.61a15.73 15.73 0 0 0 3.38 1.74 10.4 10.4 0 0 0 3.56.6 11.83 11.83 0 0 0 3.58-.55 8.32 8.32 0 0 0 3.24-1.87 5.52 5.52 0 0 1-2.78 2.95 9.11 9.11 0 0 1-4 1 8.41 8.41 0 0 1-4-1 7.57 7.57 0 0 1-2.98-2.87Zm4.76 5.18a10.61 10.61 0 0 1 1.81-.08 9.87 9.87 0 0 1 1.81.2 2.21 2.21 0 0 1-1.84.8 2.16 2.16 0 0 1-1.78-.92Zm2.73-8.72a33 33 0 0 1 2.72-2.1 3.38 3.38 0 0 0 1-1.09 1.69 1.69 0 0 0 .06-1.31 8.69 8.69 0 0 0-.62-1.5 14.68 14.68 0 0 1-.64-1.64 6.48 6.48 0 0 1-.22-3.49 10.36 10.36 0 0 0 1 3.22c.43 1 1.08 1.9 1.49 3.14a2.7 2.7 0 0 1-.19 2 3.7 3.7 0 0 1-1.41 1.3 25.53 25.53 0 0 1-3.19 1.47Z" class="colord29075 svgShape"/><path fill="#ffbda5" d="m282 348.69 1.95-.3c.62-.1 1.23-.18 1.85-.25a27.54 27.54 0 0 1 11.75 1.24 34.54 34.54 0 0 1 5.3 2.48 15.46 15.46 0 0 1 2.44 2.07l2.55 2.2c.31.26.66.62.56 1s-.44.52-.77.63a6.2 6.2 0 0 1-4.12-.12c-.05.89-1.08 1.42-2 1.35a8.86 8.86 0 0 1-2.33-.77c-.53-.2-.49.12-.72.52a1.18 1.18 0 0 1-.58.52 1.61 1.61 0 0 1-1.49-.39c-.64-.5-1-1.15-1.83-1.47a6.67 6.67 0 0 0-4.53.26c-1.27.43-2.45 1.09-3.7 1.57-3 1.15-6.71 1.07-9.17-1a6.17 6.17 0 0 1-2-5.35c.41-2.88 4.01-3.73 6.84-4.19Z" class="colorffbda5 svgShape"/><path fill="#ffffff" d="m279.4 348.38-1.4 8.13-.9 5.29s-53.51 2.91-64.65 1.22c-10.32-1.59-13.92-8.23-13.92-8.23s-22.39-90.19-3.12-95.44c4.47.22 8.32 9.51 11.12 18.76 2.19 7.18 3.73 14.36 4.46 17.24 1.65 6.6 6 40.52 6 40.52Z" class="colorfff svgShape"/><path fill="#ebe9e9" d="m277.86 357.53-.73 4.27s-53.51 2.91-64.65 1.22c-10.32-1.59-13.92-8.23-13.92-8.23s-22.39-90.19-3.12-95.44c4.47.22 8.32 9.51 11.12 18.76a11 11 0 0 0-2.26-3.33c-1.6-1.52-4.17-2.25-6.06-1.11-5.26 3.19-4.4 10-4.15 15.24.19 4 .43 8.13.76 12.22a223.87 223.87 0 0 0 3.15 25.05 105.93 105.93 0 0 0 6.86 22.82s0 .08 0 .11a39.27 39.27 0 0 1 7.48-8.28c-.27.22-.34 1.24-.39 1.57a9.72 9.72 0 0 0-.09 1.79 9 9 0 0 0 3.39 6.72c8 6.12 21.91 6.07 31.45 6.1 2.67-.01 31.16.52 31.16.52Z" class="colorebe9e9 svgShape"/><path fill="#da9880" d="m419.5 487.05 5.46 9.95 7.09-1.2 8.13.41-7.05-13.93-12.94 4.77h-.69z" class="colorda9880 svgShape"/><path fill="#835353" d="M434.67 483.69 422.32 489l-3 1.29-64.59-97.41s-68.13 34.12-75.1 36.01c-7.77 2.15-17.18 4.11-24.89.65-10.68-4.79-14.88-14.56-9.18-25.17 3.94-7.34 9.66-13.75 14.56-20.44l.49-.66c14.76-20.37 101.11-32.9 101.11-32.9s9.82-1 14 6.2 58.95 127.12 58.95 127.12Z" class="color835353 svgShape"/><path fill="#643b3a" d="m422.32 489-3 1.29-64.59-97.41s-68.13 34.12-75.1 36.01c-7.77 2.15-17.18 4.11-24.89.65-10.68-4.79-14.88-14.56-9.18-25.17 3.94-7.34 9.66-13.75 14.56-20.44a55 55 0 0 0 10.47 1.72c5.86.28 11.73.4 17.6.4a200.37 200.37 0 0 0 34.67-2.7 112.93 112.93 0 0 0 32.27-10.55c1.29-.67 2.56-1.36 3.81-2.09-.18 2.06-.37 4.12-.56 6.2l6-3.52c15.7 40.15 42.47 75.61 57.94 115.61Z" class="color643b3a svgShape"/><path fill="#ba4745" d="M481.66 516.87h-6.57c-5.2 0-59.06.61-59.25-1a17.4 17.4 0 0 1 .43-3.72c.14-1.25.31-2.49.43-3.72.26-2.57.57-5.13.89-7.68.24-2 .48-4 .7-6a2.25 2.25 0 0 1 .42-1.24 4 4 0 0 1 3.84-1.36c1.58.28 2.95 1.19 4.47 1.68.16.06.33.1.49.15a8.64 8.64 0 0 0 10.71-9.56 2.77 2.77 0 0 1 3.47-.39 3.41 3.41 0 0 1 1.28 1.1c1 1.53 1 3.54.7 5.38a14.88 14.88 0 0 0-.3 5.51 163.26 163.26 0 0 1 17 4.37c7 2.23 14.41 5.61 18.65 11.31a18.28 18.28 0 0 1 2.64 5.17Z" class="colorba4745 svgShape"/><path fill="#f16d6b" d="M479 511.78c-14.07-1-27.38-12-41.68-10.26.2 0 .71-1 .82-1.24.27-.42.51-.85.75-1.28a22 22 0 0 0 1.29-2.79 25 25 0 0 0 1.65-10.68c0-.47-.07-.95-.14-1.42a3.41 3.41 0 0 1 1.28 1.1c1 1.53 1 3.54.7 5.38a14.88 14.88 0 0 0-.3 5.51 163.26 163.26 0 0 1 17 4.37c7.03 2.23 14.39 5.61 18.63 11.31Z" class="colorf16d6b svgShape"/><path fill="#835353" d="m341.13 493.3-12 2.83-5.58 1.31L296.64 409s-22.76 17.58-28.64 21.72c-7 4.86-20.41 3.62-28.47 2.81-8.86-.89-18.7-3.6-23.59-11.73-4.38-7.26-11.23-20.41-5.35-28.52 3.43-4.75 10.75-9.06 20-12.9 30.32-12.63 81.14-20 81.14-20s9.83-1 14 6.2 15.4 126.72 15.4 126.72Z" class="color835353 svgShape"/><path fill="#643b3a" d="m329.12 496.13-5.58 1.31-26.9-88.44s-22.76 17.58-28.64 21.72c-7 4.86-20.41 3.62-28.47 2.81-8.86-.89-18.7-3.6-23.59-11.73-4.38-7.26-11.23-20.41-5.35-28.52 3.43-4.75 10.75-9.06 20-12.9-1.91 3.68-3.85 7.34-4 11.54-.84 22 26.28 25.28 41.46 18.56 8.61-3.82 16-9.84 23.29-15.8-.12 2.35-.24 4.68-.37 7q6.86-7 13.68-14a27.25 27.25 0 0 0-1 14.81q2.89-3.39 5.8-6.77c-.55 34.28 11.78 67.04 19.67 100.41Z" class="color643b3a svgShape"/><path fill="#da9880" d="m325.21 495 2.3 8.53 10.25.23 3.37-3.34-2.29-10.18-12.95 4.76h-.68z" class="colorda9880 svgShape"/><path fill="#ba4745" d="M368.64 524.1a1.47 1.47 0 0 1-.88.49c-7.74 2-45.68-.05-45.49-1.61l.87-7.59c.25-2.57.57-5.12.89-7.68.25-2 1-4.78.46-6.81-.39-1.35 1.83-1.44 2.63-1.26a5.18 5.18 0 0 1 2.47 1.37c.59.61.87 1.38 1.74 1.67a2.76 2.76 0 0 0 2-.12l.28-.14a1.93 1.93 0 0 0 .72-.67 3.38 3.38 0 0 0 .36-1 12.8 12.8 0 0 0 .41-2.81c0-.83-.33-1.62-.28-2.44.12-1.69 2-2.67 3.63-3a29.43 29.43 0 0 1 7.09-.35 1 1 0 0 1 .63.18.9.9 0 0 1 .2.48 25.7 25.7 0 0 1 .12 5.82 11.6 11.6 0 0 0 .39 3.47 5.59 5.59 0 0 0 1.16 2.29 4 4 0 0 0 .83.41c1.24.54 2.44 1.13 3.62 1.78a43.74 43.74 0 0 1 6.32 4.22 36.27 36.27 0 0 1 9.21 11c.16.31.32.62.47.93a1.43 1.43 0 0 1 .15 1.37Z" class="colorba4745 svgShape"/><path fill="#f16d6b" d="M368 521.81c-3.48 2.07-8.53 1.07-12.11-.1a33.78 33.78 0 0 1-11.83-7.17c-1.37-1.23-2.65-2.78-2.37-4.75s1.91-3.28 3.57-4.21a18.08 18.08 0 0 1 2.72-1.25 4 4 0 0 0 .83.41c1.24.54 2.44 1.13 3.62 1.78a43.74 43.74 0 0 1 6.32 4.22 36.27 36.27 0 0 1 9.25 11.07Z" class="colorf16d6b svgShape"/><path fill="#c3b6a6" d="m341.43 354.39-78 15.74a3.9 3.9 0 0 1-4.59-3.05l81.85-16.52Z" class="colorc3b6a6 svgShape"/><path fill="#9f9a94" d="m362.83 350.07-61.59 12.43-.77-3.83 65.41-13.19a3.9 3.9 0 0 1-3.05 4.59Z" class="color9f9a94 svgShape"/><path fill="#c4bfb7" d="m363.91 345.87-65.41 13.2.81-50.48a3 3 0 0 1 2.43-2.92l61-12.3a1.69 1.69 0 0 1 2 1.69Z" class="colorc4bfb7 svgShape"/><path fill="#9f9a94" d="m365.88 345.48-65.41 13.19.81-50.48a3 3 0 0 1 2.42-2.91l61-12.3a1.68 1.68 0 0 1 2 1.68Z" class="color9f9a94 svgShape"/><path fill="#ffffff" d="M342.27 319.38c-.69 3.82-3.33 6.7-5.9 6.42s-4.09-3.59-3.4-7.4 3.32-6.7 5.89-6.43 4.14 3.59 3.41 7.41Z" class="colorfff svgShape"/><path fill="#ffbda5" d="M369.45 319.22a9.46 9.46 0 0 0-1.81-5.33 9 9 0 0 0-.57-.77l-.3-.36s-.32-.27-.31-.32v.17c-.11.95-.17 1.89-.25 2.84 0 .3-.15.43-.36.47-.43.08-.86.07-1.29.14a5.13 5.13 0 0 0-2.23.91 2.46 2.46 0 0 0-1 1.65 2.65 2.65 0 0 0 .22 1.26c.06.15.11.29.16.44a.44.44 0 0 0 .08.15 1 1 0 0 0 .22.18c.1.07.3.26.42.26a1.51 1.51 0 0 0-1.07.42 1.6 1.6 0 0 0-.22.28 3.34 3.34 0 0 0-.22 2.73 2.36 2.36 0 0 0 1.45 1.45c-.37.09-.67.66-.74 1.25a3.26 3.26 0 0 0 .24 1.61c.21.52.55 1 1 1a2.9 2.9 0 0 0-.59 1.19 2.24 2.24 0 0 0 .08 1.37 1.2 1.2 0 0 0 .79.64 4.26 4.26 0 0 0 3.46-.29 2 2 0 0 0 .93-1c.22-.51.18-1.28-.15-1.45.44 0 .85-.55 1.14-1.14a3.76 3.76 0 0 0 .43-1.3 1.35 1.35 0 0 0-.32-1.17 4 4 0 0 0 1-2.54 3.26 3.26 0 0 0-.75-2.44 4.34 4.34 0 0 0 .33-.68 6.71 6.71 0 0 0 .22-.8 8.15 8.15 0 0 0 .01-.82Z" class="colorffbda5 svgShape"/><path fill="#4c9e3e" d="m595.88 463.08.82-.06a228.93 228.93 0 0 1 12.56-91.58c5.55-15.82 13.54-30.77 21.26-45.22 6.83-12.77 13.89-26 19.26-39.76l-.77-.3c-5.35 13.74-12.4 26.93-19.21 39.67-7.74 14.48-15.74 29.45-21.32 45.34a229.85 229.85 0 0 0-12.6 91.91Z" class="color4c9e3e svgShape"/><path fill="#4c9e3e" d="M647.5 272.87c-2.57 7.11 1.29 15 1.29 15s8-3.61 10.59-10.72 2-13.83-1.3-15-8.02 3.61-10.58 10.72Zm-22.89 31.35c4.38 6.16 13.08 7.49 13.08 7.49s1.59-8.65-2.79-14.81-10.24-9.51-13.08-7.49-1.59 8.65 2.79 14.81Zm31.11 5.55c-7.57-.27-13.47-6.78-13.47-6.78s6.38-6.06 14-5.78 13.61 3.3 13.48 6.77-6.43 6.07-14.01 5.79Zm-43.51 19.01c4.38 6.16 13.08 7.49 13.08 7.49s1.59-8.65-2.79-14.81-10.24-9.46-13.08-7.46-1.59 8.62 2.79 14.78Zm28.19 9.85c-7.57-.27-13.47-6.78-13.47-6.78s6.38-6.06 14-5.79 13.61 3.31 13.48 6.78-6.41 6.06-14.01 5.79Zm-44.29 25.31c5.44 5.24 14.24 4.94 14.24 4.94s0-8.79-5.48-14-11.82-7.45-14.24-4.94.03 8.76 5.48 14Zm29.83 3.25c-7.5 1.14-14.5-4.17-14.5-4.17s5.15-7.14 12.65-8.27 14 .74 14.49 4.17-5.15 7.14-12.64 8.27Zm-40.24 33.66c6.21 4.31 14.84 2.6 14.84 2.6s-1.44-8.67-7.65-13S580 385 578 387.87s1.48 8.68 7.7 12.98Zm29.83.83c-7.22 2.32-15-1.8-15-1.8s3.94-7.87 11.16-10.19 13.93-1.51 15 1.8-3.94 7.87-11.16 10.19Z" class="color4c9e3e svgShape"/><path fill="#5ebf4e" d="M648.83 284.22c2.31-1.46 5.93-4.28 7.39-8.33 2.53-7 1.34-11.73 0-12.21a1 1 0 0 0-.3 0c-1.7 0-5.25 3.28-7.48 9.45-1.44 4.03-.44 8.5.39 11.09Zm-14.17 24.25c.11-2.73-.14-7.31-2.64-10.82-3.34-4.7-7.2-7.15-9.29-7.15a1.09 1.09 0 0 0-.72.18c-.49.35-.82 1.61-.43 3.65a21.73 21.73 0 0 0 3.73 8.09c2.51 3.58 6.74 5.27 9.35 6.05Zm21.07-1.4c6.91 0 10.62-2.4 10.67-3.69a1.75 1.75 0 0 0-.56-1.08c-1.44-1.56-5.35-3.23-10.8-3.42h-.42c-4.15 0-8 2.19-10.1 3.72 2.1 1.75 5.89 4.31 10.19 4.46h1ZM622.26 333c.11-2.72-.15-7.3-2.64-10.81-3.34-4.7-7.2-7.15-9.29-7.15a1.09 1.09 0 0 0-.72.18c-.49.35-.82 1.61-.43 3.65a21.73 21.73 0 0 0 3.73 8.09c2.49 3.53 6.74 5.28 9.35 6.04Zm18.15 2.93c6.91 0 10.62-2.41 10.67-3.7a1.78 1.78 0 0 0-.56-1.08c-1.45-1.56-5.35-3.22-10.8-3.42h-.42c-4.15 0-7.95 2.19-10.1 3.73 2.1 1.74 5.89 4.3 10.19 4.46h1ZM606.85 366c-.39-2.69-1.49-7.15-4.59-10.14-3.85-3.7-7.73-5.36-9.86-5.36a1.84 1.84 0 0 0-1.27.36c-.42.43-.5 1.74.25 3.67a21.82 21.82 0 0 0 5.16 7.26c3.12 3.04 7.59 3.97 10.31 4.21Zm15.85-1.37a12.09 12.09 0 0 0 1.82-.13c7.07-1.07 11-4.35 10.8-5.78-.16-1.1-3-2.62-8-2.62a27 27 0 0 0-4 .3c-4.27.65-7.76 3.63-9.65 5.6a19.3 19.3 0 0 0 9 2.63Zm-27.35 36.44h1.35c-.81-2.6-2.61-6.83-6.15-9.27-3.37-2.34-7.09-3.79-9.72-3.79a2.63 2.63 0 0 0-2.07.63c-.34.49-.22 1.79.84 3.58a21.67 21.67 0 0 0 6.26 6.34 17 17 0 0 0 9.49 2.51Zm14.34-1.4a13.32 13.32 0 0 0 4.08-.61c6.81-2.19 10.18-6.05 9.74-7.43-.2-.64-1.72-1.59-5-1.59a23.76 23.76 0 0 0-7.16 1.22c-4.11 1.32-7.08 4.82-8.63 7.07a21 21 0 0 0 7 1.34Z" class="color5ebf4e svgShape"/><path fill="#4c9e3e" d="m583.11 453.53.82-.07c-.86-9.44-4.06-18.1-7.54-26.88a206.61 206.61 0 0 1-8.85-29.26c-3.81-16.33-5.09-33.22-6.33-49.56-1.09-14.44-2.22-29.37-5.09-43.88l-.81.16c2.86 14.46 4 29.37 5.08 43.78 1.24 16.37 2.52 33.3 6.35 49.69a206.48 206.48 0 0 0 8.88 29.37c3.46 8.73 6.64 17.33 7.49 26.65Z" class="color4c9e3e svgShape"/><path fill="#4c9e3e" d="M546.9 293.63c1.65 7.37 9.15 12 9.15 12s4.83-7.35 3.18-14.73-5.75-12.73-9.15-12-4.83 7.35-3.18 14.73Zm-2.49 38.74c7 2.84 15.06-.7 15.06-.7s-3.3-8.16-10.3-11-13.74-2.53-15.06.7 3.3 8.15 10.3 11Zm29.24-12.02c-6.54 3.84-15 1.52-15 1.52s2.13-8.54 8.67-12.38 13.26-4.51 15-1.51-2.13 8.54-8.67 12.37Zm-26.52 39.4c7 2.84 15.06-.7 15.06-.7s-3.3-8.16-10.3-11-13.74-2.54-15.06.7 3.3 8.15 10.3 11Zm29.08-6.83c-6.54 3.84-15 1.52-15 1.52s2.13-8.54 8.67-12.38 13.26-4.51 15-1.51-2.14 8.54-8.67 12.37Zm-23.8 45.13c7.41 1.5 14.67-3.47 14.67-3.47s-4.75-7.4-12.15-8.91-14 .06-14.67 3.47 4.74 7.41 12.15 8.91Zm26.92-13.26c-5.72 5-14.47 4.26-14.47 4.26s.52-8.79 6.23-13.76 12.2-6.89 14.47-4.26-.51 8.78-6.23 13.76Zm-15.89 50c7.55.29 13.92-5.78 13.92-5.78s-5.87-6.55-13.42-6.84-13.79 2.29-13.92 5.77 5.87 6.55 13.42 6.85Zm25.62-15.32c-4.85 5.83-13.6 6.52-13.6 6.52s-.9-8.75 3.94-14.58 10.94-8.75 13.61-6.52.89 8.75-3.95 14.58Z" class="color4c9e3e svgShape"/><path fill="#5ebf4e" d="M553.44 301.62c1.16-2.47 2.7-6.79 1.76-11-1.43-6.39-4.66-10.32-6.35-10.32a.55.55 0 0 0-.18 0c-1.36.3-3.13 4.85-1.51 12.1.94 4.23 4.17 7.49 6.28 9.22Zm-4.85 28.94a21.92 21.92 0 0 0 5.9-.87c-1.37-2.36-4-6.08-8-7.7a22.49 22.49 0 0 0-8.14-1.79c-2.43 0-3.8.66-4.05 1.28s.18 1.8 1.6 3.31a21.75 21.75 0 0 0 7.49 4.83 14 14 0 0 0 5.2.94Zm14.08-10.91a15.56 15.56 0 0 0 8-1.91c6.17-3.62 8.62-8.12 7.89-9.37-.29-.48-1.27-.78-2.57-.78a20.34 20.34 0 0 0-9.43 3.08c-3.75 2.2-5.87 6.25-6.89 8.78a23.72 23.72 0 0 0 3 .2Zm-11.36 38.29a21.77 21.77 0 0 0 5.89-.87c-1.36-2.36-4-6.08-8-7.7a22.49 22.49 0 0 0-8.14-1.79c-2.43 0-3.81.66-4.06 1.28-.52 1.29 2.21 5.34 9.1 8.14a14 14 0 0 0 5.21.94Zm13.92-5.72a15.56 15.56 0 0 0 8-1.91c6.17-3.62 8.61-8.12 7.89-9.37-.28-.48-1.27-.78-2.57-.78a20.34 20.34 0 0 0-9.43 3.08c-3.75 2.2-5.87 6.25-6.89 8.78a23.59 23.59 0 0 0 3 .2Zm-11.81 43.2a19.83 19.83 0 0 0 8.5-2.22c-1.78-2.07-5.1-5.23-9.31-6.09a25.68 25.68 0 0 0-5.06-.53c-4.47 0-6.83 1.36-7 2.28-.12.6.51 1.74 2.19 3a21.65 21.65 0 0 0 8.25 3.35 12.26 12.26 0 0 0 2.43.21Zm12.09-9.29c2.72-.16 7.23-.87 10.49-3.71 5.4-4.7 7-9.58 6-10.67a2.07 2.07 0 0 0-1.45-.42c-2 0-5.77 1.28-9.92 4.9-3.23 2.83-4.58 7.22-5.12 9.9Zm-3.41 45.76c4.15 0 7.91-2.19 10-3.72-2.08-1.76-5.87-4.35-10.17-4.52h-1.09c-6.83 0-10.5 2.4-10.55 3.68 0 .6.78 1.63 2.63 2.58a22 22 0 0 0 8.68 2Zm13.62-9.19c2.67-.6 7-2 9.76-5.35 4.58-5.5 5.34-10.57 4.23-11.49a1.32 1.32 0 0 0-.88-.24c-2 0-5.92 2-9.62 6.48-2.76 3.31-3.38 7.9-3.49 10.6Z" class="color5ebf4e svgShape"/><path fill="#ba4745" d="M604.14 456.22a93.35 93.35 0 0 0 6.17-13.83h-51.78a93.35 93.35 0 0 0 6.17 13.83c5 9.52-2.31 23.1-9.88 38.53-8.7 17.74 15.71 48.67 15.71 48.67h27.78s24.41-30.93 15.71-48.67c-7.57-15.43-14.87-29.01-9.88-38.53Z" class="colorba4745 svgShape"/><path fill="#d26563" d="M563.88 496.85c-1.91 9.22.71 19.4 6.15 26.95 1.45 2 3.85 4.38 6.48 2.88a5.93 5.93 0 0 0 2.06-2.56c3.27-6.17 6.09-13.48 6-20.84-.09-5.5-2.39-17.11-7.7-20.24-3.28-1.94-6.21-.6-8.3 2.38a32.71 32.71 0 0 0-4.69 11.43Z" class="colord26563 svgShape"/><path fill="#973937" d="M614 494.75c-7.57-15.43-14.87-29-9.88-38.53a93.35 93.35 0 0 0 6.17-13.83h-15.63a93.35 93.35 0 0 1-6.17 13.83c-5 9.52 2.31 23.1 9.88 38.53 8.7 17.74-15.71 48.67-15.71 48.67h15.65s24.41-30.93 15.69-48.67Z" class="color973937 svgShape"/></g></svg>