<svg xmlns="http://www.w3.org/2000/svg" xmlns:xlink="http://www.w3.org/1999/xlink" data-name="Livello 1" viewBox="0 0 8000 7000"><defs><linearGradient id="b" x1="571.22" x2="879.77" y1="3439.6" y2="3439.6" gradientTransform="rotate(45 725.488 3439.607)" gradientUnits="userSpaceOnUse"><stop offset="0" stop-color="#50d000" class="stopColor50d000 svgShape"/><stop offset="1" stop-color="#266a00" class="stopColor266a00 svgShape"/></linearGradient><linearGradient id="f" x1="610.82" x2="840.16" y1="3254.58" y2="3386.99" xlink:href="#b"/><linearGradient id="g" x1="628.73" x2="822.26" y1="3143.96" y2="3255.69" xlink:href="#b"/><linearGradient id="h" x1="651.71" x2="799.27" y1="3054.87" y2="3140.07" xlink:href="#b"/><linearGradient id="i" x1="979.18" x2="1287.73" y1="3672.51" y2="3672.51" gradientTransform="rotate(45 1133.455 3672.513)" xlink:href="#b"/><linearGradient id="j" x1="1018.78" x2="1248.12" y1="3487.48" y2="3619.89" gradientTransform="rotate(88.21 1133.412 3553.766)" xlink:href="#b"/><linearGradient id="k" x1="1036.69" x2="1230.21" y1="3376.86" y2="3488.6" xlink:href="#b"/><linearGradient id="l" x1="1059.67" x2="1207.23" y1="3287.78" y2="3372.98" xlink:href="#b"/><linearGradient id="m" x1="1414.22" x2="1722.77" y1="3935.79" y2="3935.79" gradientTransform="rotate(45 1568.496 3935.782)" xlink:href="#b"/><linearGradient id="n" x1="1453.82" x2="1683.16" y1="3750.76" y2="3883.17" gradientTransform="rotate(88.21 1568.46 3817.055)" xlink:href="#b"/><linearGradient id="o" x1="1471.73" x2="1665.26" y1="3640.14" y2="3751.87" xlink:href="#b"/><linearGradient id="p" x1="1494.71" x2="1642.28" y1="3551.06" y2="3636.25" xlink:href="#b"/><linearGradient id="q" x1="3849.62" x2="4158.17" y1="1384.23" y2="1384.23" gradientTransform="rotate(45 4003.894 1384.227)" xlink:href="#b"/><linearGradient id="r" x1="3889.23" x2="4118.57" y1="1199.2" y2="1331.61" gradientTransform="rotate(2.38 4006.861 1266.496)" xlink:href="#b"/><linearGradient id="s" x1="3907.13" x2="4100.66" y1="1088.58" y2="1200.31" xlink:href="#b"/><linearGradient id="t" x1="3930.12" x2="4077.68" y1="999.5" y2="1084.69" xlink:href="#b"/><linearGradient id="u" x1="4257.58" x2="4566.13" y1="1617.14" y2="1617.14" gradientTransform="rotate(45 4411.862 1617.133)" xlink:href="#b"/><linearGradient id="v" x1="4297.19" x2="4526.53" y1="1432.11" y2="1564.52" gradientTransform="rotate(87.96 4411.781 1498.165)" xlink:href="#b"/><linearGradient id="w" x1="4315.09" x2="4508.62" y1="1321.49" y2="1433.22" xlink:href="#b"/><linearGradient id="x" x1="4338.07" x2="4485.64" y1="1232.4" y2="1317.6" xlink:href="#b"/><linearGradient id="y" x1="4692.63" x2="5001.18" y1="1880.41" y2="1880.41" gradientTransform="rotate(45 4846.907 1880.415)" xlink:href="#b"/><linearGradient id="z" x1="4732.23" x2="4961.57" y1="1695.39" y2="1827.8" gradientTransform="rotate(87.96 4846.82 1761.43)" xlink:href="#b"/><linearGradient id="A" x1="4750.14" x2="4943.66" y1="1584.77" y2="1696.5" xlink:href="#b"/><linearGradient id="B" x1="4773.12" x2="4920.68" y1="1495.68" y2="1580.88" xlink:href="#b"/><linearGradient id="C" x1="5128.26" x2="5436.81" y1="2108.66" y2="2108.66" gradientTransform="rotate(45 5282.532 2108.666)" xlink:href="#b"/><linearGradient id="D" x1="5167.86" x2="5397.2" y1="1923.63" y2="2056.04" gradientTransform="rotate(88.21 5282.59 1989.95)" xlink:href="#b"/><linearGradient id="E" x1="5185.77" x2="5379.3" y1="1813.01" y2="1924.75" xlink:href="#b"/><linearGradient id="F" x1="5208.75" x2="5356.32" y1="1723.93" y2="1809.12" xlink:href="#b"/><linearGradient id="G" x1="5536.22" x2="5844.77" y1="2341.57" y2="2341.57" gradientTransform="rotate(45 5690.494 2341.56)" xlink:href="#b"/><linearGradient id="H" x1="5575.82" x2="5805.16" y1="2156.54" y2="2288.95" gradientTransform="rotate(2.04 5698.224 2225.978)" xlink:href="#b"/><linearGradient id="I" x1="5593.73" x2="5787.26" y1="2045.92" y2="2157.65" xlink:href="#b"/><linearGradient id="J" x1="5616.71" x2="5764.27" y1="1956.83" y2="2042.03" xlink:href="#b"/><linearGradient id="K" x1="5971.26" x2="6279.81" y1="2604.84" y2="2604.84" gradientTransform="rotate(45 6125.54 2604.841)" xlink:href="#b"/><linearGradient id="L" x1="6010.87" x2="6240.21" y1="2419.82" y2="2552.23" gradientTransform="rotate(2.04 6133.85 2489.592)" xlink:href="#b"/><linearGradient id="M" x1="6028.77" x2="6222.3" y1="2309.2" y2="2420.93" xlink:href="#b"/><linearGradient id="N" x1="6051.75" x2="6199.32" y1="2220.11" y2="2305.31" xlink:href="#b"/><radialGradient id="a" cx="3774.45" cy="4543.79" r="89.23" gradientTransform="rotate(88.09 3774.436 4544.01)" gradientUnits="userSpaceOnUse"><stop offset="0" stop-color="#dcdcdc" class="stopColordcdcdc svgShape"/><stop offset="1" stop-color="#848484" class="stopColor848484 svgShape"/></radialGradient><radialGradient id="c" cx="4408.31" cy="4178.79" r="89.23" gradientTransform="rotate(88.09 4408.317 4179.012)" xlink:href="#a"/><radialGradient id="d" cx="6039.13" cy="3248.72" r="89.23" gradientTransform="rotate(2.2 6037.432 3247.643)" xlink:href="#a"/><radialGradient id="e" cx="6672.99" cy="2883.72" r="89.23" gradientTransform="rotate(2.2 6670.994 2882.762)" xlink:href="#a"/></defs><polygon fill="#bc995c" points="288.56 3660.01 3978.05 5808.73 7709.47 3660.01 3999.01 1511.31 288.56 3660.01" class="colorbc995c svgShape"/><polygon fill="#6b4f2b" points="3978.05 6043.09 3978.05 5808.73 7709.47 3660.01 7709.47 3894.38 3978.05 6043.09" class="color6b4f2b svgShape"/><polygon fill="#8c6c3a" points="288.56 3894.38 288.56 3660.01 3978.05 5808.73 3978.05 6043.09 288.56 3894.38" class="color8c6c3a svgShape"/><polygon fill="#282828" points="7711.44 3661.91 3977.06 5808.79 3181.93 5343.84 6924.93 3202.11 7711.44 3661.91" class="color282828 svgShape"/><polygon fill="#e5e5e5" points="7426.71 3742.15 6980.09 4005.2 6904.99 3961.32 7350.5 3699.42 7426.71 3742.15" class="colore5e5e5 svgShape"/><polygon fill="#e5e5e5" points="7315.09 3670.32 6868.47 3933.36 6793.38 3889.47 7238.89 3627.58 7315.09 3670.32" class="colore5e5e5 svgShape"/><polygon fill="#e5e5e5" points="7197.18 3598.57 6750.57 3861.61 6675.47 3817.74 7120.98 3555.84 7197.18 3598.57" class="colore5e5e5 svgShape"/><polygon fill="#e5e5e5" points="7085.58 3526.73 6638.96 3789.77 6563.86 3745.9 7009.37 3483.99 7085.58 3526.73" class="colore5e5e5 svgShape"/><polygon fill="#e5e5e5" points="6969.6 3457.79 6522.99 3720.83 6447.89 3676.96 6893.4 3415.06 6969.6 3457.79" class="colore5e5e5 svgShape"/><polygon fill="#e5e5e5" points="6857.99 3385.95 6411.37 3648.99 6336.28 3605.12 6781.79 3343.22 6857.99 3385.95" class="colore5e5e5 svgShape"/><polygon fill="#e5e5e5" points="5974.56 4577.69 5527.94 4840.73 5452.85 4796.85 5898.35 4534.96 5974.56 4577.69" class="colore5e5e5 svgShape"/><polygon fill="#e5e5e5" points="5862.94 4505.84 5416.33 4768.88 5341.23 4725.01 5786.74 4463.11 5862.94 4505.84" class="colore5e5e5 svgShape"/><polygon fill="#e5e5e5" points="5745.04 4434.1 5298.42 4697.14 5223.32 4653.26 5668.84 4391.37 5745.04 4434.1" class="colore5e5e5 svgShape"/><polygon fill="#e5e5e5" points="5633.43 4362.26 5186.81 4625.3 5111.72 4581.43 5557.22 4319.52 5633.43 4362.26" class="colore5e5e5 svgShape"/><polygon fill="#e5e5e5" points="5517.46 4293.32 5070.84 4556.36 4995.74 4512.48 5441.25 4250.58 5517.46 4293.32" class="colore5e5e5 svgShape"/><polygon fill="#e5e5e5" points="6576.58 3859.65 6453.69 3932.52 6404.01 3903.49 6526.17 3831.38 6576.58 3859.65" class="colore5e5e5 svgShape"/><polygon fill="#e5e5e5" points="6404.01 3960.79 6281.11 4033.66 6231.43 4004.64 6353.59 3932.52 6404.01 3960.79" class="colore5e5e5 svgShape"/><polygon fill="#e5e5e5" points="6231.43 4061.93 6108.53 4134.81 6058.85 4105.78 6181.01 4033.66 6231.43 4061.93" class="colore5e5e5 svgShape"/><polygon fill="#e5e5e5" points="6058.85 4163.08 5935.95 4235.96 5886.28 4206.93 6008.44 4134.81 6058.85 4163.08" class="colore5e5e5 svgShape"/><polygon fill="#e5e5e5" points="5886.28 4264.23 5763.38 4337.1 5713.7 4308.08 5835.86 4235.96 5886.28 4264.23" class="colore5e5e5 svgShape"/><polygon fill="#e5e5e5" points="5170.53 4695.94 5047.64 4768.82 4997.95 4739.79 5120.12 4667.67 5170.53 4695.94" class="colore5e5e5 svgShape"/><polygon fill="#e5e5e5" points="4997.95 4797.09 4875.06 4869.97 4825.38 4840.93 4947.54 4768.82 4997.95 4797.09" class="colore5e5e5 svgShape"/><polygon fill="#e5e5e5" points="4825.38 4898.23 4702.48 4971.11 4652.81 4942.08 4774.96 4869.97 4825.38 4898.23" class="colore5e5e5 svgShape"/><polygon fill="#e5e5e5" points="4652.81 4999.38 4529.91 5072.26 4480.22 5043.23 4602.38 4971.11 4652.81 4999.38" class="colore5e5e5 svgShape"/><polygon fill="#e5e5e5" points="4480.22 5100.53 4357.33 5173.4 4307.65 5144.38 4429.81 5072.26 4480.22 5100.53" class="colore5e5e5 svgShape"/><polygon fill="#e5e5e5" points="5405.85 4221.48 4959.23 4484.52 4884.13 4440.65 5329.64 4178.75 5405.85 4221.48" class="colore5e5e5 svgShape"/><polygon fill="#e5e5e5" points="4579.2 5382.24 4132.58 5645.29 4057.48 5601.41 4502.99 5339.51 4579.2 5382.24" class="colore5e5e5 svgShape"/><polygon fill="#e5e5e5" points="4467.58 5310.4 4020.97 5573.44 3945.87 5529.57 4391.38 5267.67 4467.58 5310.4" class="colore5e5e5 svgShape"/><polygon fill="#e5e5e5" points="4349.68 5238.66 3903.07 5501.7 3827.97 5457.82 4273.48 5195.93 4349.68 5238.66" class="colore5e5e5 svgShape"/><polygon fill="#e5e5e5" points="4238.07 5166.82 3791.45 5429.86 3716.35 5385.99 4161.86 5124.09 4238.07 5166.82" class="colore5e5e5 svgShape"/><polygon fill="#e5e5e5" points="4122.1 5097.88 3675.48 5360.93 3600.38 5317.05 4045.89 5055.15 4122.1 5097.88" class="colore5e5e5 svgShape"/><polygon fill="#e5e5e5" points="4010.48 5026.03 3563.86 5289.08 3488.77 5245.2 3934.28 4983.31 4010.48 5026.03" class="colore5e5e5 svgShape"/><polygon fill="#282828" points="4073.97 1879.19 3044.82 2499.95 5180.81 3753.99 6260.8 3145.56 4073.97 1879.19" class="color282828 svgShape"/><polygon fill="#114f99" points="5701.05 2987.18 5701.05 2899.01 5510.81 3009.75 5510.81 3096.36 5701.05 2987.18" class="color114f99 svgShape"/><path fill="#3a3a3a" d="M5356.56 3003.15l-25.51-14.06 25.51-27s27.33-.44 32.06 0 8.66 8.19 9.41 14.17S5356.56 3003.15 5356.56 3003.15zM5113.51 2863.84l-25.5-14.06 25.5-27s27.34-.44 32.06 0 8.66 8.19 9.42 14.17S5113.51 2863.84 5113.51 2863.84z" class="color3a3a3a svgShape"/><polygon fill="#1d64cc" points="5510.81 3009.75 5436.18 2921.92 5625.72 2812.57 5701.05 2899.01 5510.81 3009.75" class="color1d64cc svgShape"/><polygon fill="#114f99" points="5436.18 2921.92 5398.16 2767.78 5587.71 2658.95 5625.72 2812.57 5436.18 2921.92" class="color114f99 svgShape"/><polygon fill="#323330" points="5451.61 2895.14 5421.34 2772.4 5572.28 2685.73 5602.55 2808.06 5451.61 2895.14" class="color323330 svgShape"/><path fill="#282828" d="M5371.26,3010.31l-15.76-16.83,28.24-16.88a24.67,24.67,0,0,1,3.31-2.15l.19-.12h0c9.25-4.9,21.73-4.06,35.43,3.76,28.3,16.17,51.46,56.5,51.46,89.62,0,14.41-4.38,25.11-11.66,31.25h0a24.75,24.75,0,0,1-6.16,3.79l-28.47,17.5-15.13-29.41C5389.7,3072.12,5372.1,3038.66,5371.26,3010.31Z" class="color282828 svgShape"/><path fill="#111010" d="M5442.82,3086.66c0-33.13-23.16-73.46-51.47-89.62s-51.46-2.61-51.46,30.11,23.16,73.06,51.46,89.62S5442.82,3119.79,5442.82,3086.66Z" class="color111010 svgShape"/><path fill="#666666" d="M5426.44,3077.23c0-22.59-15.79-50.09-35.09-61.1s-35.08-1.78-35.08,20.53,15.79,49.81,35.08,61.1S5426.44,3099.82,5426.44,3077.23Z" class="color666 svgShape"/><path fill="#282828" d="M5410.69 3068.16c0-12.45-8.7-27.6-19.34-33.67s-19.33-1-19.33 11.31 8.7 27.45 19.33 33.68S5410.69 3080.61 5410.69 3068.16zM5132.38 2867.74l-15.76-16.83 28.24-16.88a23.72 23.72 0 013.31-2.15l.19-.13 0 0c9.24-4.91 21.72-4.06 35.42 3.76 28.3 16.16 51.46 56.49 51.46 89.62 0 14.41-4.38 25.11-11.66 31.24h0a24.37 24.37 0 01-6.15 3.78L5189 2977.7l-15.12-29.41C5150.82 2929.55 5133.22 2896.09 5132.38 2867.74z" class="color282828 svgShape"/><path fill="#111010" d="M5203.94,2944.08c0-33.13-23.16-73.45-51.46-89.62s-51.46-2.61-51.46,30.12,23.15,73.06,51.46,89.62S5203.94,2977.21,5203.94,2944.08Z" class="color111010 svgShape"/><path fill="#666666" d="M5187.57,2934.66c0-22.59-15.79-50.09-35.09-61.11s-35.09-1.78-35.09,20.54,15.79,49.81,35.09,61.1S5187.57,2957.24,5187.57,2934.66Z" class="color666 svgShape"/><path fill="#282828" d="M5171.81,2925.59c0-12.45-8.7-27.6-19.33-33.67s-19.34-1-19.34,11.31,8.7,27.45,19.34,33.67S5171.81,2938,5171.81,2925.59Z" class="color282828 svgShape"/><path fill="#0e457c" d="M5057.09,2702.87l76.37-86.79,264.7,151.7,38,154.14,74.63,87.83v86.61l-53.19-30.58c-5.36-33.54-28.53-69.88-56.1-85.62s-50.84-6.11-56.13,21.08l-127.21-73.14c-3-35.37-27.44-75.87-57-92.73s-54.15-4.59-57,27.21l-47.13-27.1Z" class="color0e457c svgShape"/><polygon fill="#1d64cc" points="5587.71 2658.95 5321.62 2506.38 5133.46 2616.08 5398.16 2767.78 5587.71 2658.95" class="color1d64cc svgShape"/><polygon fill="#484946" points="5547.3 2700.07 5555.93 2834.95 5602.55 2808.06 5572.28 2685.73 5547.3 2700.07" class="color484946 svgShape"/><polygon fill="#484946" points="5507.35 2723.01 5513.2 2859.61 5490.52 2872.69 5484.08 2736.37 5507.35 2723.01" class="color484946 svgShape"/><polygon fill="#aaaaaa" points="5691.07 2945.41 5691.07 2969.9 5648.89 2994.3 5648.89 2969.17 5691.07 2945.41" class="coloraaa svgShape"/><polygon fill="#aaaaaa" points="5563.23 3015.71 5563.23 3040.2 5521.05 3064.6 5521.05 3039.47 5563.23 3015.71" class="coloraaa svgShape"/><polygon fill="#232323" points="5361.36 2906.16 5361.36 2919.76 5384.79 2933.32 5384.79 2919.35 5361.36 2906.16" class="color232323 svgShape"/><polygon fill="#333332" points="5641.24 2974.18 5641.24 2995.04 5570.62 3035.87 5570.62 3015.25 5641.24 2974.18" class="color333332 svgShape"/><polygon fill="#333332" points="5409.1 2902.13 5379.94 2783.41 5272.15 2723.01 5272.15 2820.38 5409.1 2902.13" class="color333332 svgShape"/><polygon fill="#484946" points="5302.33 2739.92 5325.98 2852.51 5272.15 2820.38 5272.15 2723.01 5302.33 2739.92" class="color484946 svgShape"/><polygon fill="#484946" points="5333.79 2757.55 5359.78 2872.69 5384.79 2887.62 5356.78 2770.43 5333.79 2757.55" class="color484946 svgShape"/><polygon fill="#bcb70c" points="5187.56 3283.73 5187.56 3195.56 4997.33 3306.3 4997.33 3392.91 5187.56 3283.73" class="colorbcb70c svgShape"/><path fill="#3a3a3a" d="M4843.07 3299.7l-25.5-14.06 25.5-27s27.34-.45 32.07 0 8.65 8.18 9.41 14.16S4843.07 3299.7 4843.07 3299.7zM4600 3160.39l-25.5-14.06 25.5-27s27.34-.44 32.07 0 8.66 8.19 9.41 14.17S4600 3160.39 4600 3160.39z" class="color3a3a3a svgShape"/><polygon fill="#e2e20c" points="4997.33 3306.3 4922.69 3218.47 5112.23 3109.12 5187.56 3195.56 4997.33 3306.3" class="colore2e20c svgShape"/><polygon fill="#bcb70c" points="4922.69 3218.47 4884.68 3064.34 5074.22 2955.51 5112.23 3109.12 4922.69 3218.47" class="colorbcb70c svgShape"/><polygon fill="#323330" points="4938.12 3191.69 4907.85 3068.95 5058.79 2982.28 5089.06 3104.61 4938.12 3191.69" class="color323330 svgShape"/><path fill="#282828" d="M4857.78,3306.86,4842,3290l28.24-16.88a25.68,25.68,0,0,1,3.31-2.15l.19-.12h0c9.24-4.9,21.73-4.06,35.42,3.77,28.31,16.16,51.46,56.49,51.46,89.62,0,14.4-4.38,25.1-11.66,31.24h0a24.94,24.94,0,0,1-6.16,3.79l-28.47,17.5-15.13-29.4C4876.21,3368.67,4858.61,3335.22,4857.78,3306.86Z" class="color282828 svgShape"/><path fill="#111010" d="M4929.33,3383.21c0-33.13-23.16-73.46-51.46-89.62s-51.46-2.61-51.46,30.12,23.16,73.05,51.46,89.62S4929.33,3416.34,4929.33,3383.21Z" class="color111010 svgShape"/><path fill="#666666" d="M4913,3373.78c0-22.59-15.79-50.08-35.09-61.1s-35.09-1.78-35.09,20.53,15.79,49.81,35.09,61.11S4913,3396.37,4913,3373.78Z" class="color666 svgShape"/><path fill="#282828" d="M4897.2 3364.71c0-12.45-8.7-27.6-19.33-33.67s-19.34-1-19.34 11.32 8.71 27.44 19.34 33.67S4897.2 3377.16 4897.2 3364.71zM4618.9 3164.29l-15.76-16.83 28.24-16.88a24.56 24.56 0 013.3-2.15l.2-.13v0c9.25-4.9 21.73-4.06 35.43 3.76 28.3 16.16 51.46 56.49 51.46 89.62 0 14.41-4.39 25.11-11.67 31.25h0a24.43 24.43 0 01-6.16 3.78l-28.47 17.51-15.13-29.41C4637.33 3226.1 4619.73 3192.64 4618.9 3164.29z" class="color282828 svgShape"/><path fill="#111010" d="M4690.45,3240.63c0-33.12-23.15-73.45-51.46-89.61s-51.46-2.61-51.46,30.11,23.16,73.06,51.46,89.62S4690.45,3273.76,4690.45,3240.63Z" class="color111010 svgShape"/><path fill="#666666" d="M4674.08,3231.21c0-22.59-15.79-50.09-35.09-61.11s-35.09-1.78-35.09,20.54,15.79,49.81,35.09,61.1S4674.08,3253.8,4674.08,3231.21Z" class="color666 svgShape"/><path fill="#282828" d="M4658.33,3222.14c0-12.45-8.7-27.6-19.34-33.67s-19.33-1-19.33,11.31,8.7,27.45,19.33,33.67S4658.33,3234.59,4658.33,3222.14Z" class="color282828 svgShape"/><path fill="#968f0b" d="M4543.61,2999.42l76.37-86.79,264.7,151.71,38,154.13,74.64,87.83v86.61l-53.19-30.58c-5.36-33.54-28.54-69.88-56.1-85.62s-50.85-6.11-56.14,21.09l-127.21-73.15c-2.94-35.37-27.44-75.87-57-92.73s-54.15-4.58-57,27.21l-47.13-27.1Z" class="color968f0b svgShape"/><polygon fill="#e2e20c" points="5074.22 2955.51 4808.13 2802.93 4619.98 2912.63 4884.68 3064.34 5074.22 2955.51" class="colore2e20c svgShape"/><polygon fill="#484946" points="5033.82 2996.62 5042.45 3131.5 5089.06 3104.61 5058.79 2982.28 5033.82 2996.62" class="color484946 svgShape"/><polygon fill="#484946" points="4993.86 3019.56 4999.71 3156.16 4977.03 3169.24 4970.6 3032.92 4993.86 3019.56" class="color484946 svgShape"/><polygon fill="#aaaaaa" points="5177.58 3241.96 5177.58 3266.45 5135.41 3290.85 5135.41 3265.72 5177.58 3241.96" class="coloraaa svgShape"/><polygon fill="#aaaaaa" points="5049.75 3312.26 5049.75 3336.75 5007.57 3361.15 5007.57 3336.02 5049.75 3312.26" class="coloraaa svgShape"/><polygon fill="#232323" points="4847.88 3202.71 4847.88 3216.31 4871.31 3229.87 4871.31 3215.91 4847.88 3202.71" class="color232323 svgShape"/><polygon fill="#333332" points="5127.76 3270.73 5127.76 3291.59 5057.14 3332.42 5057.14 3311.8 5127.76 3270.73" class="color333332 svgShape"/><polygon fill="#333332" points="4895.61 3198.68 4866.45 3079.96 4758.66 3019.56 4758.66 3116.93 4895.61 3198.68" class="color333332 svgShape"/><polygon fill="#484946" points="4788.85 3036.47 4812.49 3149.06 4758.66 3116.93 4758.66 3019.56 4788.85 3036.47" class="color484946 svgShape"/><polygon fill="#484946" points="4820.3 3054.1 4846.3 3169.24 4871.31 3184.17 4843.29 3066.98 4820.3 3054.1" class="color484946 svgShape"/><polygon fill="#917343" points="3659.57 4191.99 3809.63 4191.99 3749.81 4132.17 3690.63 4132.17 3659.57 4191.99" class="color917343 svgShape"/><polygon fill="#917343" points="4011.37 3814.77 4161.43 3814.77 4101.61 3754.95 4042.43 3754.95 4011.37 3814.77" class="color917343 svgShape"/><polygon fill="#917343" points="4160.88 3900.93 4310.94 3900.93 4251.12 3841.12 4191.94 3841.12 4160.88 3900.93" class="color917343 svgShape"/><polygon fill="#917343" points="3509.56 4105.83 3659.62 4105.83 3599.8 4046.01 3540.62 4046.01 3509.56 4105.83" class="color917343 svgShape"/><polygon fill="#afafaf" points="3510.05 4105.83 3509.61 3887.88 3572.62 3850.85 3572.62 4070.49 3510.05 4105.83" class="colorafafaf svgShape"/><polygon fill="#bebebf" points="3510.05 4105.83 3509.61 3887.88 3446.6 3850.85 3446.6 4070.49 3510.05 4105.83" class="colorbebebf svgShape"/><polygon fill="#9b9b9b" points="3446.6 3850.85 3510.05 3814.72 3572.62 3850.85 3509.61 3887.88 3446.6 3850.85" class="color9b9b9b svgShape"/><polygon fill="#afafaf" points="3659.57 4191.99 3659.12 3974.04 3722.13 3937.01 3722.13 4156.66 3659.57 4191.99" class="colorafafaf svgShape"/><polygon fill="#bebebf" points="3659.57 4191.99 3659.12 3974.04 3596.11 3937.01 3596.11 4156.66 3659.57 4191.99" class="colorbebebf svgShape"/><polygon fill="#9b9b9b" points="3596.11 3937.01 3659.57 3900.88 3722.13 3937.01 3659.12 3974.04 3596.11 3937.01" class="color9b9b9b svgShape"/><polygon fill="#9b9b9b" points="3509.61 3887.88 3596.11 3937.01 3659.57 3900.88 3572.62 3850.85 3509.61 3887.88" class="color9b9b9b svgShape"/><polygon fill="#bebebf" points="3509.61 3887.88 3509.61 3910.71 3596.11 3959.38 3596.11 3937.01 3509.61 3887.88" class="colorbebebf svgShape"/><polygon fill="#afafaf" points="4011.81 3814.77 4011.37 3596.82 4074.38 3559.8 4074.38 3779.44 4011.81 3814.77" class="colorafafaf svgShape"/><polygon fill="#bebebf" points="4011.81 3814.77 4011.37 3596.82 3948.36 3559.8 3948.36 3779.44 4011.81 3814.77" class="colorbebebf svgShape"/><polygon fill="#9b9b9b" points="3948.36 3559.8 4011.81 3523.67 4074.38 3559.8 4011.37 3596.82 3948.36 3559.8" class="color9b9b9b svgShape"/><polygon fill="#afafaf" points="4161.33 3900.93 4160.88 3682.98 4223.89 3645.96 4223.89 3865.6 4161.33 3900.93" class="colorafafaf svgShape"/><polygon fill="#bebebf" points="4161.33 3900.93 4160.88 3682.98 4097.87 3645.96 4097.87 3865.6 4161.33 3900.93" class="colorbebebf svgShape"/><polygon fill="#9b9b9b" points="4097.87 3645.96 4161.33 3609.83 4223.89 3645.96 4160.88 3682.98 4097.87 3645.96" class="color9b9b9b svgShape"/><polygon fill="#9b9b9b" points="4011.37 3596.82 4097.87 3645.96 4161.33 3609.83 4074.38 3559.8 4011.37 3596.82" class="color9b9b9b svgShape"/><polygon fill="#bebebf" points="4011.37 3596.82 4011.37 3619.66 4097.87 3668.33 4097.87 3645.96 4011.37 3596.82" class="colorbebebf svgShape"/><polygon fill="#d3b937" points="4052.02 3551.5 3524.6 3854.57 3489.17 3834.15 4016.59 3531.18 4052.02 3551.5" class="colord3b937 svgShape"/><polygon fill="#aa9129" points="4052.02 3551.5 4052.02 3570.42 3524.6 3873.11 3524.6 3854.57 4052.02 3551.5" class="coloraa9129 svgShape"/><polygon fill="#8e7a25" points="3524.6 3873.11 3489.17 3852.71 3489.17 3834.15 3524.6 3854.57 3524.6 3873.11" class="color8e7a25 svgShape"/><polygon fill="#d3b937" points="4096.55 3576.85 3569.13 3879.92 3533.7 3859.5 4061.12 3556.53 4096.55 3576.85" class="colord3b937 svgShape"/><polygon fill="#aa9129" points="4096.55 3576.85 4096.55 3595.78 3569.13 3898.46 3569.13 3879.92 4096.55 3576.85" class="coloraa9129 svgShape"/><polygon fill="#8e7a25" points="3569.13 3898.46 3533.7 3878.07 3533.7 3859.5 3569.13 3879.92 3569.13 3898.46" class="color8e7a25 svgShape"/><polygon fill="#d3b937" points="4141.41 3602.64 3613.99 3905.71 3578.55 3885.3 4105.97 3582.32 4141.41 3602.64" class="colord3b937 svgShape"/><polygon fill="#aa9129" points="4141.41 3602.64 4141.41 3621.57 3613.99 3924.25 3613.99 3905.71 4141.41 3602.64" class="coloraa9129 svgShape"/><polygon fill="#8e7a25" points="3613.99 3924.25 3578.55 3903.86 3578.55 3885.3 3613.99 3905.71 3613.99 3924.25" class="color8e7a25 svgShape"/><polygon fill="#d3b937" points="4185.94 3627.99 3658.52 3931.06 3623.09 3910.65 4150.5 3607.68 4185.94 3627.99" class="colord3b937 svgShape"/><polygon fill="#aa9129" points="4185.94 3627.99 4185.94 3646.92 3658.52 3949.6 3658.52 3931.06 4185.94 3627.99" class="coloraa9129 svgShape"/><polygon fill="#8e7a25" points="3658.52 3949.6 3623.09 3929.21 3623.09 3910.65 3658.52 3931.06 3658.52 3949.6" class="color8e7a25 svgShape"/><path fill="#383838" d="M4580.81 2518.85l-21.46-14.42 24.45-24.1s36.34 1.39 42.63 4.19 16.42 5.24 16.77 15.37-7.39 20.27-9.46 23.41S4580.81 2518.85 4580.81 2518.85zM4286.06 2352.75l-21.46-14.42 24.45-24.1s36.34 1.39 42.63 4.19 16.42 5.24 16.77 15.37-7.39 20.27-9.46 23.41S4286.06 2352.75 4286.06 2352.75z" class="color383838 svgShape"/><polygon fill="#b2ae12" points="4930.16 2421.4 4930.16 2492.21 4743.36 2601.21 4743.36 2529.94 4930.16 2421.4" class="colorb2ae12 svgShape"/><polygon fill="#d8d812" points="4743.36 2529.94 4619.44 2457.97 4806.01 2348.26 4930.16 2421.4 4743.36 2529.94" class="colord8d812 svgShape"/><polygon fill="#b2ae12" points="4619.44 2457.97 4555.85 2277.68 4743.36 2169.37 4806.01 2348.26 4619.44 2457.97" class="colorb2ae12 svgShape"/><polygon fill="#212321" points="4628.89 2435.8 4575.07 2283.21 4733.77 2191.54 4786.8 2342.95 4628.89 2435.8" class="color212321 svgShape"/><path fill="#282828" d="M4591.58,2530.34l-15.26-16.29,27.33-16.34a23.78,23.78,0,0,1,3.21-2.08l.18-.12h0c8.95-4.74,21-3.93,34.29,3.64,27.4,15.65,49.82,54.69,49.82,86.76,0,13.95-4.25,24.31-11.29,30.25h0a23.79,23.79,0,0,1-6,3.66l-27.56,16.95-14.65-28.47C4609.42,2590.18,4592.38,2557.79,4591.58,2530.34Z" class="color282828 svgShape"/><path fill="#111010" d="M4660.84,2604.25c0-32.07-22.41-71.11-49.81-86.76s-49.82-2.52-49.82,29.16,22.42,70.72,49.82,86.75S4660.84,2636.32,4660.84,2604.25Z" class="color111010 svgShape"/><path fill="#666666" d="M4645,2595.12c0-21.86-15.28-48.48-34-59.15s-34-1.72-34,19.88,15.29,48.22,34,59.15S4645,2617,4645,2595.12Z" class="color666 svgShape"/><path fill="#282828" d="M4629.74,2586.34c0-12.05-8.42-26.71-18.71-32.59s-18.72-.95-18.72,10.95,8.42,26.57,18.72,32.6S4629.74,2598.39,4629.74,2586.34Z" class="color282828 svgShape"/><polygon fill="#333533" points="4713.55 2203.22 4743.36 2368.49 4713.55 2386.02 4684.8 2219.82 4713.55 2203.22" class="color333533 svgShape"/><path fill="#282828" d="M4310.93,2366.84l-15.25-16.29,27.33-16.34a25.46,25.46,0,0,1,3.2-2.09l.19-.12,0,0c8.95-4.75,21-3.93,34.29,3.64,27.4,15.65,49.82,54.69,49.82,86.76,0,13.95-4.25,24.31-11.3,30.24h0a23.79,23.79,0,0,1-6,3.66l-27.56,16.94-14.65-28.46C4328.78,2426.67,4311.74,2394.29,4310.93,2366.84Z" class="color282828 svgShape"/><path fill="#111010" d="M4380.2,2440.75c0-32.07-22.41-71.11-49.81-86.76s-49.82-2.53-49.82,29.15,22.42,70.73,49.82,86.76S4380.2,2472.82,4380.2,2440.75Z" class="color111010 svgShape"/><path fill="#666666" d="M4364.35,2431.62c0-21.87-15.28-48.48-34-59.15s-34-1.72-34,19.88,15.28,48.22,34,59.15S4364.35,2453.49,4364.35,2431.62Z" class="color666 svgShape"/><path fill="#282828" d="M4349.1,2422.84c0-12.05-8.42-26.72-18.71-32.59s-18.72-.95-18.72,10.95,8.42,26.57,18.72,32.59S4349.1,2434.89,4349.1,2422.84Z" class="color282828 svgShape"/><polygon fill="#333533" points="4665.78 2230.91 4695.59 2396.18 4665.78 2413.7 4637.04 2247.51 4665.78 2230.91" class="color333533 svgShape"/><polygon fill="#d8d812" points="4743.36 2169.37 4555.85 2061.76 4369.98 2169.37 4555.85 2277.68 4743.36 2169.37" class="colord8d812 svgShape"/><polygon fill="#d8d812" points="4244.9 2240.65 4369.38 2170.43 4307.79 2277.68 4244.9 2240.65" class="colord8d812 svgShape"/><polygon fill="#c4c4c4" points="4919.45 2457.97 4919.45 2482.86 4876.5 2507.52 4876.5 2482.74 4919.45 2457.97" class="colorc4c4c4 svgShape"/><polygon fill="#c4c4c4" points="4799.37 2528.19 4799.37 2553.09 4756.43 2577.74 4756.43 2552.97 4799.37 2528.19" class="colorc4c4c4 svgShape"/><path fill="#8e8710" d="M4307.79,2277.68,4370,2169.37l185.87,108.31L4619.44,2458l123.92,72v71.27l-83.43-48.12c-8.56-22.67-24.84-44.06-43.43-54.67s-34.79-8-43.36,4.6l-191-110.2c-7.82-24.75-25.27-48.94-45.44-60.45s-37.55-7.45-45.39,8.06l-46.38-26.76v-73Z" class="color8e8710 svgShape"/><polygon fill="#30352e" points="4866.43 2492.15 4866.43 2508.63 4809.45 2541.59 4809.45 2525 4866.43 2492.15" class="color30352e svgShape"/><polygon fill="#212321" points="4583.8 2439.1 4532.79 2294.62 4467.11 2255.32 4467.11 2369.57 4583.8 2439.1" class="color212321 svgShape"/><polygon fill="#333533" points="4476.09 2260.78 4483.54 2379.42 4504.26 2391.77 4495.2 2272.21 4476.09 2260.78" class="color333533 svgShape"/><polygon fill="#333533" points="4509.98 2281.25 4517.43 2399.89 4538.15 2412.24 4529.09 2292.68 4509.98 2281.25" class="color333533 svgShape"/><polygon fill="#212321" points="4443.26 2355.86 4443.26 2244.38 4377.69 2206.39 4329.68 2290.96 4443.26 2355.86" class="color212321 svgShape"/><polygon fill="#333533" points="4438.28 2241.49 4407.02 2335.15 4388.06 2324.31 4421.1 2231.53 4438.28 2241.49" class="color333533 svgShape"/><polygon fill="#333533" points="4403.46 2221.63 4372.2 2315.29 4353.23 2304.46 4386.28 2211.68 4403.46 2221.63" class="color333533 svgShape"/><polygon fill="#7a7011" points="4930.16 2492.21 4930.16 2511.31 4743.36 2620.78 4743.36 2601.21 4930.16 2492.21" class="color7a7011 svgShape"/><path fill="#68610e" d="M4573.14 2503a37.83 37.83 0 00-5.83 15.83l-181-104.8a92.76 92.76 0 00-4.19-21.23zM4743.36 2601.21v19.57l-77.64-45a100.28 100.28 0 00-5.79-22.74zM4287.06 2356.6l-42.16-24.41v-18.52l46.38 26.76A43.36 43.36 0 004287.06 2356.6z" class="color68610e svgShape"/><path fill="#383838" d="M4059.27 2801.54l-21.47-14.42 24.46-24.1s36.34 1.39 42.63 4.19 16.42 5.24 16.77 15.37-7.39 20.27-9.46 23.41S4059.27 2801.54 4059.27 2801.54zM3764.52 2635.44L3743.05 2621l24.46-24.11s36.34 1.4 42.63 4.2 16.42 5.24 16.77 15.37-7.39 20.26-9.46 23.41S3764.52 2635.44 3764.52 2635.44z" class="color383838 svgShape"/><polygon fill="#f22525" points="4408.62 2704.09 4408.62 2774.89 4221.81 2883.9 4221.81 2812.63 4408.62 2704.09" class="colorf22525 svgShape"/><polygon fill="#d31818" points="4221.81 2812.63 4097.9 2740.66 4284.47 2630.95 4408.62 2704.09 4221.81 2812.63" class="colord31818 svgShape"/><polygon fill="#f22525" points="4097.9 2740.66 4034.31 2560.37 4221.81 2452.06 4284.47 2630.95 4097.9 2740.66" class="colorf22525 svgShape"/><polygon fill="#212321" points="4107.35 2718.49 4053.53 2565.9 4212.22 2474.23 4265.25 2625.63 4107.35 2718.49" class="color212321 svgShape"/><path fill="#282828" d="M4070,2813l-15.26-16.29,27.34-16.34a23.68,23.68,0,0,1,3.2-2.08l.19-.12h0c8.95-4.75,21-3.93,34.3,3.64,27.4,15.65,49.81,54.69,49.81,86.76,0,13.95-4.24,24.31-11.29,30.25h0a23.79,23.79,0,0,1-6,3.66l-27.57,16.95L4110.15,2891C4087.88,2872.87,4070.84,2840.48,4070,2813Z" class="color282828 svgShape"/><path fill="#111010" d="M4139.3,2886.94c0-32.07-22.42-71.11-49.82-86.76s-49.81-2.52-49.81,29.16,22.41,70.72,49.81,86.75S4139.3,2919,4139.3,2886.94Z" class="color111010 svgShape"/><path fill="#666666" d="M4123.45,2877.81c0-21.86-15.28-48.48-34-59.15s-34-1.72-34,19.88,15.28,48.22,34,59.15S4123.45,2899.68,4123.45,2877.81Z" class="color666 svgShape"/><path fill="#282828" d="M4108.2,2869c0-12.05-8.42-26.71-18.72-32.59s-18.71-1-18.71,10.95,8.42,26.57,18.71,32.6S4108.2,2881.08,4108.2,2869Z" class="color282828 svgShape"/><polygon fill="#333533" points="4192.01 2485.91 4221.81 2651.18 4192.01 2668.71 4163.26 2502.51 4192.01 2485.91" class="color333533 svgShape"/><path fill="#282828" d="M3789.39,2649.53l-15.26-16.29,27.34-16.34a24.09,24.09,0,0,1,3.2-2.09l.19-.12v0c9-4.75,21-3.93,34.3,3.64C3866.56,2634,3889,2673,3889,2705.11c0,13.95-4.24,24.3-11.29,30.24h0a23.79,23.79,0,0,1-6,3.66L3844.15,2756l-14.64-28.46C3807.24,2709.36,3790.2,2677,3789.39,2649.53Z" class="color282828 svgShape"/><path fill="#111010" d="M3858.66,2723.44c0-32.08-22.42-71.12-49.82-86.76s-49.82-2.53-49.82,29.15,22.42,70.72,49.82,86.76S3858.66,2755.51,3858.66,2723.44Z" class="color111010 svgShape"/><path fill="#666666" d="M3842.81,2714.31c0-21.87-15.29-48.49-34-59.15s-34-1.73-34,19.88,15.28,48.21,34,59.15S3842.81,2736.18,3842.81,2714.31Z" class="color666 svgShape"/><path fill="#282828" d="M3827.56,2705.53c0-12.05-8.42-26.72-18.72-32.6s-18.71-.94-18.71,11,8.42,26.57,18.71,32.59S3827.56,2717.58,3827.56,2705.53Z" class="color282828 svgShape"/><polygon fill="#333533" points="4144.24 2513.6 4174.05 2678.87 4144.24 2696.39 4115.5 2530.2 4144.24 2513.6" class="color333533 svgShape"/><polygon fill="#d31818" points="4221.81 2452.06 4034.31 2344.45 3848.44 2452.06 4034.31 2560.37 4221.81 2452.06" class="colord31818 svgShape"/><polygon fill="#d31818" points="3723.36 2523.34 3847.83 2453.11 3786.25 2560.37 3723.36 2523.34" class="colord31818 svgShape"/><polygon fill="#c4c4c4" points="4397.9 2740.66 4397.9 2765.55 4354.96 2790.2 4354.96 2765.43 4397.9 2740.66" class="colorc4c4c4 svgShape"/><polygon fill="#c4c4c4" points="4277.83 2810.88 4277.83 2835.78 4234.89 2860.43 4234.89 2835.66 4277.83 2810.88" class="colorc4c4c4 svgShape"/><path fill="#a31313" d="M3786.25,2560.37l62.19-108.31,185.87,108.31,63.59,180.29,123.91,72v71.27l-83.42-48.12c-8.56-22.67-24.84-44.06-43.44-54.67s-34.78-8-43.36,4.6l-191-110.2c-7.82-24.75-25.27-48.94-45.44-60.45s-37.55-7.45-45.39,8.06l-46.38-26.76v-73Z" class="colora31313 svgShape"/><polygon fill="#30352e" points="4344.89 2774.84 4344.89 2791.32 4287.91 2824.28 4287.91 2807.69 4344.89 2774.84" class="color30352e svgShape"/><polygon fill="#212321" points="4062.26 2721.79 4011.25 2577.31 3945.57 2538.01 3945.57 2652.26 4062.26 2721.79" class="color212321 svgShape"/><polygon fill="#333533" points="3954.55 2543.47 3961.99 2662.11 3982.72 2674.46 3973.66 2554.9 3954.55 2543.47" class="color333533 svgShape"/><polygon fill="#333533" points="3988.43 2563.94 3995.88 2682.59 4016.61 2694.93 4007.55 2575.37 3988.43 2563.94" class="color333533 svgShape"/><polygon fill="#212321" points="3921.72 2638.55 3921.72 2527.06 3856.15 2489.08 3808.14 2573.65 3921.72 2638.55" class="color212321 svgShape"/><polygon fill="#333533" points="3916.74 2524.18 3885.48 2617.84 3866.51 2607 3899.56 2514.22 3916.74 2524.18" class="color333533 svgShape"/><polygon fill="#333533" points="3881.92 2504.32 3850.65 2597.98 3831.69 2587.14 3864.73 2494.37 3881.92 2504.32" class="color333533 svgShape"/><polygon fill="#b51616" points="4408.62 2774.89 4408.62 2793.99 4221.81 2903.47 4221.81 2883.9 4408.62 2774.89" class="colorb51616 svgShape"/><path fill="#750d0d" d="M4051.59 2785.71a37.91 37.91 0 00-5.82 15.83l-181-104.8a92.76 92.76 0 00-4.19-21.23zM4221.81 2883.9v19.57l-77.64-44.95a99.72 99.72 0 00-5.78-22.74zM3765.52 2639.29l-42.16-24.41v-18.52l46.38 26.76A43.36 43.36 0 003765.52 2639.29z" class="color750d0d svgShape"/><polygon fill="#917343" points="2092.07 4331.02 2380.89 4331.02 3965.17 3433.2 3542.13 3176.97 2297.01 3888.52 2092.07 4331.02" class="color917343 svgShape"/><polygon fill="#c9a56f" points="3679.63 1521.59 2872.19 1992.2 2872.19 3888.52 3679.63 3417.9 3679.63 1521.59" class="colorc9a56f svgShape"/><polygon fill="#e8b679" points="2872.19 1992.2 2313.91 1678.46 2313.91 3565.55 2872.19 3888.52 2872.19 1992.2" class="colore8b679 svgShape"/><polygon fill="#fcd9a7" points="3679.63 1521.59 3135.19 1217.07 2313.91 1678.46 2872.19 1992.2 3679.63 1521.59" class="colorfcd9a7 svgShape"/><polygon fill="#ddb87c" points="3540.06 1538.56 3106.89 1296.28 2453.48 1663.37 2897.66 1912.99 3540.06 1538.56" class="colorddb87c svgShape"/><polygon fill="#a8885a" points="3106.89 1296.28 3106.89 1382.57 3463.31 1583.29 3540.06 1538.56 3106.89 1296.28" class="colora8885a svgShape"/><polygon fill="#775e3d" points="3106.89 1382.57 2532.63 1707.85 2453.48 1663.37 3106.89 1296.28 3106.89 1382.57" class="color775e3d svgShape"/><polygon fill="#d1d1d1" points="2805.22 2054.73 2805.22 2173.68 2380.89 1929.04 2380.89 1810.74 2805.22 2054.73" class="colord1d1d1 svgShape"/><polygon fill="#a0a0a0" points="2398.64 1820.91 2398.64 1918.63 2805.22 2153.28 2805.22 2173.68 2380.89 1929.05 2380.89 1810.74 2398.64 1820.91" class="colora0a0a0 svgShape"/><polygon fill="#8e8e8e" points="2398.64 1918.63 2380.89 1929.05 2380.89 1810.74 2398.64 1820.91 2398.64 1918.63" class="color8e8e8e svgShape"/><polygon fill="#d1d1d1" points="3154.23 1949.77 3154.23 2068.73 3578.56 1824.08 3578.56 1705.78 3154.23 1949.77" class="colord1d1d1 svgShape"/><polygon fill="#a0a0a0" points="3560.8 1715.96 3560.8 1813.67 3154.23 2048.32 3154.23 2068.73 3578.56 1824.09 3578.56 1705.79 3560.8 1715.96" class="colora0a0a0 svgShape"/><polygon fill="#8e8e8e" points="3560.8 1813.67 3578.56 1824.09 3578.56 1705.79 3560.8 1715.96 3560.8 1813.67" class="color8e8e8e svgShape"/><polygon fill="#d1d1d1" points="3154.23 2159.69 3154.23 2278.65 3578.56 2034 3578.56 1915.7 3154.23 2159.69" class="colord1d1d1 svgShape"/><polygon fill="#a0a0a0" points="3560.8 1925.88 3560.8 2023.59 3154.23 2258.24 3154.23 2278.65 3578.56 2034.01 3578.56 1915.71 3560.8 1925.88" class="colora0a0a0 svgShape"/><polygon fill="#8e8e8e" points="3560.8 2023.59 3578.56 2034.01 3578.56 1915.71 3560.8 1925.88 3560.8 2023.59" class="color8e8e8e svgShape"/><polygon fill="#d1d1d1" points="3154.23 2369.61 3154.23 2488.57 3578.56 2243.92 3578.56 2125.62 3154.23 2369.61" class="colord1d1d1 svgShape"/><polygon fill="#a0a0a0" points="3560.8 2135.79 3560.8 2233.51 3154.23 2468.16 3154.23 2488.57 3578.56 2243.93 3578.56 2125.63 3560.8 2135.79" class="colora0a0a0 svgShape"/><polygon fill="#8e8e8e" points="3560.8 2233.51 3578.56 2243.93 3578.56 2125.63 3560.8 2135.79 3560.8 2233.51" class="color8e8e8e svgShape"/><polygon fill="#d1d1d1" points="3154.23 2579.53 3154.23 2698.48 3578.56 2453.84 3578.56 2335.54 3154.23 2579.53" class="colord1d1d1 svgShape"/><polygon fill="#a0a0a0" points="3560.8 2345.71 3560.8 2443.43 3154.23 2678.08 3154.23 2698.48 3578.56 2453.85 3578.56 2335.55 3560.8 2345.71" class="colora0a0a0 svgShape"/><polygon fill="#8e8e8e" points="3560.8 2443.43 3578.56 2453.85 3578.56 2335.55 3560.8 2345.71 3560.8 2443.43" class="color8e8e8e svgShape"/><polygon fill="#d1d1d1" points="3154.23 2789.45 3154.23 2908.4 3578.56 2663.76 3578.56 2545.46 3154.23 2789.45" class="colord1d1d1 svgShape"/><polygon fill="#a0a0a0" points="3560.8 2555.63 3560.8 2653.35 3154.23 2888 3154.23 2908.4 3578.56 2663.77 3578.56 2545.47 3560.8 2555.63" class="colora0a0a0 svgShape"/><polygon fill="#8e8e8e" points="3560.8 2653.35 3578.56 2663.77 3578.56 2545.47 3560.8 2555.63 3560.8 2653.35" class="color8e8e8e svgShape"/><polygon fill="#d1d1d1" points="3154.23 2999.37 3154.23 3118.32 3578.56 2873.68 3578.56 2755.38 3154.23 2999.37" class="colord1d1d1 svgShape"/><polygon fill="#a0a0a0" points="3560.8 2765.55 3560.8 2863.27 3154.23 3097.92 3154.23 3118.32 3578.56 2873.69 3578.56 2755.38 3560.8 2765.55" class="colora0a0a0 svgShape"/><polygon fill="#8e8e8e" points="3560.8 2863.27 3578.56 2873.69 3578.56 2755.38 3560.8 2765.55 3560.8 2863.27" class="color8e8e8e svgShape"/><polygon fill="#d1d1d1" points="3154.23 3209.29 3154.23 3328.24 3578.56 3083.6 3578.56 2965.29 3154.23 3209.29" class="colord1d1d1 svgShape"/><polygon fill="#a0a0a0" points="3560.8 2975.47 3560.8 3073.18 3154.23 3307.84 3154.23 3328.24 3578.56 3083.6 3578.56 2965.3 3560.8 2975.47" class="colora0a0a0 svgShape"/><polygon fill="#8e8e8e" points="3560.8 3073.18 3578.56 3083.6 3578.56 2965.3 3560.8 2975.47 3560.8 3073.18" class="color8e8e8e svgShape"/><polygon fill="#d1d1d1" points="3154.23 3419.21 3154.23 3538.16 3578.56 3293.51 3578.56 3175.21 3154.23 3419.21" class="colord1d1d1 svgShape"/><polygon fill="#a0a0a0" points="3560.8 3185.39 3560.8 3283.1 3154.23 3517.75 3154.23 3538.16 3578.56 3293.52 3578.56 3175.22 3560.8 3185.39" class="colora0a0a0 svgShape"/><polygon fill="#8e8e8e" points="3560.8 3283.1 3578.56 3293.52 3578.56 3175.22 3560.8 3185.39 3560.8 3283.1" class="color8e8e8e svgShape"/><polygon fill="#d1d1d1" points="2805.22 2264.65 2805.22 2383.6 2380.89 2138.96 2380.89 2020.65 2805.22 2264.65" class="colord1d1d1 svgShape"/><polygon fill="#a0a0a0" points="2398.64 2030.83 2398.64 2128.55 2805.22 2363.2 2805.22 2383.6 2380.89 2138.97 2380.89 2020.66 2398.64 2030.83" class="colora0a0a0 svgShape"/><polygon fill="#8e8e8e" points="2398.64 2128.55 2380.89 2138.97 2380.89 2020.66 2398.64 2030.83 2398.64 2128.55" class="color8e8e8e svgShape"/><polygon fill="#d1d1d1" points="2805.22 2474.57 2805.22 2593.52 2380.89 2348.88 2380.89 2230.57 2805.22 2474.57" class="colord1d1d1 svgShape"/><polygon fill="#a0a0a0" points="2398.64 2240.75 2398.64 2338.47 2805.22 2573.11 2805.22 2593.52 2380.89 2348.88 2380.89 2230.58 2398.64 2240.75" class="colora0a0a0 svgShape"/><polygon fill="#8e8e8e" points="2398.64 2338.47 2380.89 2348.88 2380.89 2230.58 2398.64 2240.75 2398.64 2338.47" class="color8e8e8e svgShape"/><polygon fill="#d1d1d1" points="2805.22 2684.49 2805.22 2803.44 2380.89 2558.79 2380.89 2440.49 2805.22 2684.49" class="colord1d1d1 svgShape"/><polygon fill="#a0a0a0" points="2398.64 2450.67 2398.64 2548.38 2805.22 2783.03 2805.22 2803.44 2380.89 2558.8 2380.89 2440.5 2398.64 2450.67" class="colora0a0a0 svgShape"/><polygon fill="#8e8e8e" points="2398.64 2548.38 2380.89 2558.8 2380.89 2440.5 2398.64 2450.67 2398.64 2548.38" class="color8e8e8e svgShape"/><polygon fill="#d1d1d1" points="2805.22 2894.4 2805.22 3013.36 2380.89 2768.71 2380.89 2650.41 2805.22 2894.4" class="colord1d1d1 svgShape"/><polygon fill="#a0a0a0" points="2398.64 2660.59 2398.64 2758.3 2805.22 2992.95 2805.22 3013.36 2380.89 2768.72 2380.89 2650.42 2398.64 2660.59" class="colora0a0a0 svgShape"/><polygon fill="#8e8e8e" points="2398.64 2758.3 2380.89 2768.72 2380.89 2650.42 2398.64 2660.59 2398.64 2758.3" class="color8e8e8e svgShape"/><polygon fill="#d1d1d1" points="2805.22 3104.32 2805.22 3223.28 2380.89 2978.63 2380.89 2860.33 2805.22 3104.32" class="colord1d1d1 svgShape"/><polygon fill="#a0a0a0" points="2398.64 2870.51 2398.64 2968.22 2805.22 3202.87 2805.22 3223.28 2380.89 2978.64 2380.89 2860.34 2398.64 2870.51" class="colora0a0a0 svgShape"/><polygon fill="#8e8e8e" points="2398.64 2968.22 2380.89 2978.64 2380.89 2860.34 2398.64 2870.51 2398.64 2968.22" class="color8e8e8e svgShape"/><polygon fill="#d1d1d1" points="2805.22 3314.24 2805.22 3433.2 2380.89 3188.55 2380.89 3070.25 2805.22 3314.24" class="colord1d1d1 svgShape"/><polygon fill="#a0a0a0" points="2398.64 3080.42 2398.64 3178.14 2805.22 3412.79 2805.22 3433.2 2380.89 3188.56 2380.89 3070.26 2398.64 3080.42" class="colora0a0a0 svgShape"/><polygon fill="#8e8e8e" points="2398.64 3178.14 2380.89 3188.56 2380.89 3070.26 2398.64 3080.42 2398.64 3178.14" class="color8e8e8e svgShape"/><polygon fill="#d1d1d1" points="2805.22 3524.16 2805.22 3643.11 2380.89 3398.47 2380.89 3280.17 2805.22 3524.16" class="colord1d1d1 svgShape"/><polygon fill="#a0a0a0" points="2398.64 3290.34 2398.64 3388.06 2805.22 3622.71 2805.22 3643.11 2380.89 3398.48 2380.89 3280.18 2398.64 3290.34" class="colora0a0a0 svgShape"/><polygon fill="#8e8e8e" points="2398.64 3388.06 2380.89 3398.48 2380.89 3280.18 2398.64 3290.34 2398.64 3388.06" class="color8e8e8e svgShape"/><polygon fill="#ad8b5a" points="3153.77 1726.14 3081.48 1726.14 2925.3 1639.05 3047.89 1561.8 3153.77 1726.14" class="colorad8b5a svgShape"/><polygon fill="#d8d8d8" points="3313.4 1634.04 3313.4 1449.52 3153.77 1541.78 3153.77 1726.14 3313.4 1634.04" class="colord8d8d8 svgShape"/><polygon fill="#ededed" points="2994.15 1634.04 2994.15 1449.52 3153.77 1541.78 3153.77 1726.14 2994.15 1634.04" class="colorededed svgShape"/><polygon fill="#f9f9f9" points="3313.4 1449.52 3153.77 1356.45 2994.15 1449.52 3153.77 1541.78 3313.4 1449.52" class="colorf9f9f9 svgShape"/><polygon fill="#ad8b5a" points="2920.78 1863.3 2848.48 1863.3 2692.3 1776.22 2814.89 1698.97 2920.78 1863.3" class="colorad8b5a svgShape"/><polygon fill="#d8d8d8" points="3080.4 1771.21 3080.4 1586.69 2920.78 1678.95 2920.78 1863.3 3080.4 1771.21" class="colord8d8d8 svgShape"/><polygon fill="#ededed" points="2761.15 1771.21 2761.15 1586.69 2920.78 1678.95 2920.78 1863.3 2761.15 1771.21" class="colorededed svgShape"/><polygon fill="#f9f9f9" points="3080.4 1586.69 2920.78 1493.62 2761.15 1586.69 2920.78 1678.95 3080.4 1586.69" class="colorf9f9f9 svgShape"/><polygon fill="#ddb87c" points="1130.47 1512.15 2092.07 2072.63 2092.07 4331.02 1130.47 3770.55 1130.47 1512.15" class="colorddb87c svgShape"/><polygon fill="#f7cc8f" points="2092.07 2072.63 2756.95 1698.98 2756.95 3946.38 2092.07 4331.02 2092.07 2072.63" class="colorf7cc8f svgShape"/><polygon fill="#fcd9a7" points="1130.47 1512.15 1778.86 1149.49 2756.95 1698.98 2092.07 2072.63 1130.47 1512.15" class="colorfcd9a7 svgShape"/><polygon fill="#ddb87c" points="1296.69 1532.37 1812.56 1243.83 2590.73 1681.01 2061.74 1978.29 1296.69 1532.37" class="colorddb87c svgShape"/><polygon fill="#a8885a" points="1812.56 1243.83 1812.56 1346.6 1388.09 1585.64 1296.69 1532.37 1812.56 1243.83" class="colora8885a svgShape"/><polygon fill="#775e3d" points="1812.56 1346.6 2496.46 1733.98 2590.73 1681.01 1812.56 1243.83 1812.56 1346.6" class="color775e3d svgShape"/><polygon fill="#d1d1d1" points="2171.83 2147.09 2171.83 2288.76 2677.18 1997.4 2677.18 1856.51 2171.83 2147.09" class="colord1d1d1 svgShape"/><polygon fill="#a0a0a0" points="2656.04 1868.63 2656.04 1985 2171.83 2264.46 2171.83 2288.76 2677.18 1997.41 2677.18 1856.52 2656.04 1868.63" class="colora0a0a0 svgShape"/><polygon fill="#8e8e8e" points="2656.04 1985 2677.18 1997.41 2677.18 1856.52 2656.04 1868.63 2656.04 1985" class="color8e8e8e svgShape"/><polygon fill="#d1d1d1" points="1756.18 2022.1 1756.18 2163.76 1250.83 1872.41 1250.83 1731.52 1756.18 2022.1" class="colord1d1d1 svgShape"/><polygon fill="#a0a0a0" points="1271.98 1743.63 1271.98 1860.01 1756.18 2139.46 1756.18 2163.76 1250.83 1872.42 1250.83 1731.53 1271.98 1743.63" class="colora0a0a0 svgShape"/><polygon fill="#8e8e8e" points="1271.98 1860.01 1250.83 1872.42 1250.83 1731.53 1271.98 1743.63 1271.98 1860.01" class="color8e8e8e svgShape"/><polygon fill="#d1d1d1" points="1756.18 2272.1 1756.18 2413.76 1250.83 2122.41 1250.83 1981.52 1756.18 2272.1" class="colord1d1d1 svgShape"/><polygon fill="#a0a0a0" points="1271.98 1993.63 1271.98 2110.01 1756.18 2389.46 1756.18 2413.76 1250.83 2122.42 1250.83 1981.53 1271.98 1993.63" class="colora0a0a0 svgShape"/><polygon fill="#8e8e8e" points="1271.98 2110.01 1250.83 2122.42 1250.83 1981.53 1271.98 1993.63 1271.98 2110.01" class="color8e8e8e svgShape"/><polygon fill="#d1d1d1" points="1756.18 2522.1 1756.18 2663.76 1250.83 2372.41 1250.83 2231.52 1756.18 2522.1" class="colord1d1d1 svgShape"/><polygon fill="#a0a0a0" points="1271.98 2243.63 1271.98 2360.01 1756.18 2639.46 1756.18 2663.76 1250.83 2372.42 1250.83 2231.53 1271.98 2243.63" class="colora0a0a0 svgShape"/><polygon fill="#8e8e8e" points="1271.98 2360.01 1250.83 2372.42 1250.83 2231.53 1271.98 2243.63 1271.98 2360.01" class="color8e8e8e svgShape"/><polygon fill="#d1d1d1" points="1756.18 2772.1 1756.18 2913.76 1250.83 2622.41 1250.83 2481.52 1756.18 2772.1" class="colord1d1d1 svgShape"/><polygon fill="#a0a0a0" points="1271.98 2493.63 1271.98 2610.01 1756.18 2889.46 1756.18 2913.76 1250.83 2622.42 1250.83 2481.53 1271.98 2493.63" class="colora0a0a0 svgShape"/><polygon fill="#8e8e8e" points="1271.98 2610.01 1250.83 2622.42 1250.83 2481.53 1271.98 2493.63 1271.98 2610.01" class="color8e8e8e svgShape"/><polygon fill="#d1d1d1" points="1756.18 3022.1 1756.18 3163.76 1250.83 2872.41 1250.83 2731.52 1756.18 3022.1" class="colord1d1d1 svgShape"/><polygon fill="#a0a0a0" points="1271.98 2743.63 1271.98 2860.01 1756.18 3139.46 1756.18 3163.76 1250.83 2872.42 1250.83 2731.53 1271.98 2743.63" class="colora0a0a0 svgShape"/><polygon fill="#8e8e8e" points="1271.98 2860.01 1250.83 2872.42 1250.83 2731.53 1271.98 2743.63 1271.98 2860.01" class="color8e8e8e svgShape"/><polygon fill="#d1d1d1" points="1756.18 3272.1 1756.18 3413.76 1250.83 3122.41 1250.83 2981.52 1756.18 3272.1" class="colord1d1d1 svgShape"/><polygon fill="#a0a0a0" points="1271.98 2993.63 1271.98 3110.01 1756.18 3389.46 1756.18 3413.76 1250.83 3122.42 1250.83 2981.53 1271.98 2993.63" class="colora0a0a0 svgShape"/><polygon fill="#8e8e8e" points="1271.98 3110.01 1250.83 3122.42 1250.83 2981.53 1271.98 2993.63 1271.98 3110.01" class="color8e8e8e svgShape"/><polygon fill="#d1d1d1" points="1756.18 3522.1 1756.18 3663.76 1250.83 3372.41 1250.83 3231.52 1756.18 3522.1" class="colord1d1d1 svgShape"/><polygon fill="#a0a0a0" points="1271.98 3243.63 1271.98 3360.01 1756.18 3639.46 1756.18 3663.76 1250.83 3372.42 1250.83 3231.53 1271.98 3243.63" class="colora0a0a0 svgShape"/><polygon fill="#8e8e8e" points="1271.98 3360.01 1250.83 3372.42 1250.83 3231.53 1271.98 3243.63 1271.98 3360.01" class="color8e8e8e svgShape"/><polygon fill="#d1d1d1" points="1756.18 3772.1 1756.18 3913.76 1250.83 3622.41 1250.83 3481.52 1756.18 3772.1" class="colord1d1d1 svgShape"/><polygon fill="#a0a0a0" points="1271.98 3493.63 1271.98 3610.01 1756.18 3889.46 1756.18 3913.76 1250.83 3622.42 1250.83 3481.53 1271.98 3493.63" class="colora0a0a0 svgShape"/><polygon fill="#8e8e8e" points="1271.98 3610.01 1250.83 3622.42 1250.83 3481.53 1271.98 3493.63 1271.98 3610.01" class="color8e8e8e svgShape"/><polygon fill="#d1d1d1" points="2171.83 2397.09 2171.83 2538.76 2677.18 2247.4 2677.18 2106.51 2171.83 2397.09" class="colord1d1d1 svgShape"/><polygon fill="#a0a0a0" points="2656.04 2118.63 2656.04 2235 2171.83 2514.46 2171.83 2538.76 2677.18 2247.41 2677.18 2106.52 2656.04 2118.63" class="colora0a0a0 svgShape"/><polygon fill="#8e8e8e" points="2656.04 2235 2677.18 2247.41 2677.18 2106.52 2656.04 2118.63 2656.04 2235" class="color8e8e8e svgShape"/><polygon fill="#d1d1d1" points="2171.83 2647.09 2171.83 2788.76 2677.18 2497.4 2677.18 2356.51 2171.83 2647.09" class="colord1d1d1 svgShape"/><polygon fill="#a0a0a0" points="2656.04 2368.63 2656.04 2485 2171.83 2764.46 2171.83 2788.76 2677.18 2497.41 2677.18 2356.52 2656.04 2368.63" class="colora0a0a0 svgShape"/><polygon fill="#8e8e8e" points="2656.04 2485 2677.18 2497.41 2677.18 2356.52 2656.04 2368.63 2656.04 2485" class="color8e8e8e svgShape"/><polygon fill="#d1d1d1" points="2171.83 2897.09 2171.83 3038.76 2677.18 2747.4 2677.18 2606.51 2171.83 2897.09" class="colord1d1d1 svgShape"/><polygon fill="#a0a0a0" points="2656.04 2618.63 2656.04 2735 2171.83 3014.46 2171.83 3038.76 2677.18 2747.41 2677.18 2606.52 2656.04 2618.63" class="colora0a0a0 svgShape"/><polygon fill="#8e8e8e" points="2656.04 2735 2677.18 2747.41 2677.18 2606.52 2656.04 2618.63 2656.04 2735" class="color8e8e8e svgShape"/><polygon fill="#d1d1d1" points="2171.83 3147.09 2171.83 3288.76 2677.18 2997.4 2677.18 2856.51 2171.83 3147.09" class="colord1d1d1 svgShape"/><polygon fill="#a0a0a0" points="2656.04 2868.63 2656.04 2985 2171.83 3264.46 2171.83 3288.76 2677.18 2997.41 2677.18 2856.52 2656.04 2868.63" class="colora0a0a0 svgShape"/><polygon fill="#8e8e8e" points="2656.04 2985 2677.18 2997.41 2677.18 2856.52 2656.04 2868.63 2656.04 2985" class="color8e8e8e svgShape"/><polygon fill="#d1d1d1" points="2171.83 3397.09 2171.83 3538.76 2677.18 3247.4 2677.18 3106.51 2171.83 3397.09" class="colord1d1d1 svgShape"/><polygon fill="#a0a0a0" points="2656.04 3118.63 2656.04 3235 2171.83 3514.46 2171.83 3538.76 2677.18 3247.41 2677.18 3106.52 2656.04 3118.63" class="colora0a0a0 svgShape"/><polygon fill="#8e8e8e" points="2656.04 3235 2677.18 3247.41 2677.18 3106.52 2656.04 3118.63 2656.04 3235" class="color8e8e8e svgShape"/><polygon fill="#d1d1d1" points="2171.83 3647.09 2171.83 3788.76 2677.18 3497.4 2677.18 3356.51 2171.83 3647.09" class="colord1d1d1 svgShape"/><polygon fill="#a0a0a0" points="2656.04 3368.63 2656.04 3485 2171.83 3764.46 2171.83 3788.76 2677.18 3497.41 2677.18 3356.52 2656.04 3368.63" class="colora0a0a0 svgShape"/><polygon fill="#8e8e8e" points="2656.04 3485 2677.18 3497.41 2677.18 3356.52 2656.04 3368.63 2656.04 3485" class="color8e8e8e svgShape"/><polygon fill="#d1d1d1" points="2171.83 3897.09 2171.83 4038.76 2677.18 3747.4 2677.18 3606.51 2171.83 3897.09" class="colord1d1d1 svgShape"/><polygon fill="#a0a0a0" points="2656.04 3618.63 2656.04 3735 2171.83 4014.46 2171.83 4038.76 2677.18 3747.41 2677.18 3606.52 2656.04 3618.63" class="colora0a0a0 svgShape"/><polygon fill="#8e8e8e" points="2656.04 3735 2677.18 3747.41 2677.18 3606.52 2656.04 3618.63 2656.04 3735" class="color8e8e8e svgShape"/><polygon fill="#ad8b5a" points="1756.72 1755.76 1842.83 1755.76 2028.83 1652.04 1882.83 1560.04 1756.72 1755.76" class="colorad8b5a svgShape"/><polygon fill="#d8d8d8" points="1566.62 1646.08 1566.62 1426.33 1756.72 1536.2 1756.72 1755.76 1566.62 1646.08" class="colord8d8d8 svgShape"/><polygon fill="#ededed" points="1946.83 1646.08 1946.83 1426.33 1756.72 1536.2 1756.72 1755.76 1946.83 1646.08" class="colorededed svgShape"/><polygon fill="#f9f9f9" points="1566.62 1426.33 1756.72 1315.48 1946.83 1426.33 1756.72 1536.2 1566.62 1426.33" class="colorf9f9f9 svgShape"/><polygon fill="#ad8b5a" points="2034.21 1919.12 2120.31 1919.12 2306.31 1815.4 2160.31 1723.4 2034.21 1919.12" class="colorad8b5a svgShape"/><polygon fill="#d8d8d8" points="1844.11 1809.43 1844.11 1589.68 2034.21 1699.56 2034.21 1919.12 1844.11 1809.43" class="colord8d8d8 svgShape"/><polygon fill="#ededed" points="2224.31 1809.43 2224.31 1589.68 2034.21 1699.56 2034.21 1919.12 2224.31 1809.43" class="colorededed svgShape"/><polygon fill="#f9f9f9" points="1844.11 1589.68 2034.21 1478.84 2224.31 1589.68 2034.21 1699.56 1844.11 1589.68" class="colorf9f9f9 svgShape"/><circle cx="3774.45" cy="4543.79" r="89.23" fill="url(#a)" transform="rotate(-88.09 3774.667 4543.813)"/><path fill="#545454" d="M3604,4963.66H3455v121.93h0c0,11.14,7.21,22.3,21.76,30.79,29,16.91,76.51,16.91,105.53,0,16.07-9.37,23.22-22,21.5-34.26h.26Z" class="color545454 svgShape"/><path fill="#7f7f7f" d="M3476.73,4994.35c-29-16.92-29-44.49,0-61.27s76.51-16.78,105.53,0,29,44.35,0,61.27S3505.75,5011.26,3476.73,4994.35Z" class="color7f7f7f svgShape"/><path fill="#545454" d="M3840.94,4475.94h0v-12.66H3708v14.16h.05c.55,9.39,6.94,18.67,19.21,25.77,25.77,14.91,68.13,14.91,94.15,0C3834.41,4495.73,3840.94,4485.84,3840.94,4475.94Z" class="color545454 svgShape"/><path fill="#7f7f7f" d="M3727.44,4436.11c-25.89,15-26,39.53-.22,54.44s68.13,14.91,94.15,0,26.11-39.41.22-54.44S3753.33,4421.08,3727.44,4436.11Z" class="color7f7f7f svgShape"/><path fill="#545454" d="M3644,4234.37c-47.57-9.26-84.2-2.79-108.9,19.22-20.85,18.59-27,43.34-28.69,59h-.84v650.12c0,3.57,2.31,7.15,7,9.87,9.3,5.43,24.53,5.43,33.84,0,5.15-3,7.44-7.05,6.89-11h.09V4316.9c.89-7.65,3.79-19.74,13.14-28.07,16.33-14.55,46.25-12.46,68.13-8.2,5.38,1.16,131.67,30.14,118.18,187.54l47-.09C3817,4268.13,3646,4234.77,3644,4234.37Z" class="color545454 svgShape"/><circle cx="4408.31" cy="4178.79" r="89.23" fill="url(#c)" transform="rotate(-88.09 4408.53 4178.787)"/><path fill="#545454" d="M4237.88,4598.66H4088.83v121.93h0c0,11.14,7.2,22.3,21.76,30.79,29,16.91,76.5,16.91,105.52,0,16.07-9.37,23.22-22,21.5-34.26h.27Z" class="color545454 svgShape"/><path fill="#7f7f7f" d="M4110.59,4629.35c-29-16.92-29-44.49,0-61.27s76.51-16.78,105.52,0,29,44.35,0,61.27S4139.61,4646.26,4110.59,4629.35Z" class="color7f7f7f svgShape"/><path fill="#545454" d="M4474.79,4110.94h0v-12.66h-133v14.16h.06c.54,9.39,6.93,18.67,19.21,25.77,25.76,14.91,68.13,14.91,94.14,0C4468.27,4130.73,4474.79,4120.84,4474.79,4110.94Z" class="color545454 svgShape"/><path fill="#7f7f7f" d="M4361.3,4071.11c-25.89,15-26,39.53-.22,54.44s68.13,14.91,94.14,0,26.12-39.41.23-54.44S4387.19,4056.08,4361.3,4071.11Z" class="color7f7f7f svgShape"/><path fill="#545454" d="M4277.89,3869.37c-47.57-9.26-84.2-2.79-108.9,19.22-20.86,18.59-27,43.34-28.69,59h-.85v650.12c0,3.57,2.31,7.15,7,9.87,9.31,5.43,24.54,5.43,33.84,0,5.15-3,7.45-7.05,6.9-11h.08V3951.9c.89-7.65,3.8-19.74,13.15-28.07,16.33-14.55,46.24-12.46,68.13-8.2,5.38,1.16,131.66,30.14,118.17,187.54l47-.09C4450.87,3903.13,4279.86,3869.77,4277.89,3869.37Z" class="color545454 svgShape"/><circle cx="6039.13" cy="3248.72" r="89.23" fill="url(#d)" transform="rotate(-2.2 6037.23 3247.905)"/><path fill="#545454" d="M5868.71,3668.6H5719.66v121.92h0c-.05,11.14,7.2,22.31,21.76,30.79,29,16.92,76.5,16.92,105.52,0,16.07-9.36,23.22-22,21.5-34.25h.27Z" class="color545454 svgShape"/><path fill="#7f7f7f" d="M5741.42,3699.28c-29-16.91-29-44.48,0-61.26s76.5-16.78,105.52,0,29,44.35,0,61.26S5770.44,3716.2,5741.42,3699.28Z" class="color7f7f7f svgShape"/><path fill="#545454" d="M6105.62,3180.88h0v-12.66h-133v14.16h0c.55,9.39,6.94,18.66,19.21,25.76,25.77,14.91,68.14,14.91,94.15,0C6099.1,3200.67,6105.62,3190.78,6105.62,3180.88Z" class="color545454 svgShape"/><path fill="#7f7f7f" d="M5992.13,3141.05c-25.89,15-26,39.52-.23,54.43s68.14,14.91,94.15,0,26.11-39.4.22-54.43S6018,3126,5992.13,3141.05Z" class="color7f7f7f svgShape"/><path fill="#545454" d="M5908.71,2939.3c-47.56-9.25-84.2-2.78-108.89,19.22-20.86,18.59-27,43.34-28.69,59h-.85v650.13c0,3.57,2.31,7.15,7,9.87,9.31,5.42,24.53,5.42,33.84,0,5.15-3,7.45-7,6.89-11h.09V3021.84c.89-7.65,3.8-19.74,13.15-28.07,16.33-14.55,46.24-12.46,68.12-8.2,5.39,1.16,131.67,30.14,118.18,187.54l47-.09C6081.7,2973.07,5910.68,2939.7,5908.71,2939.3Z" class="color545454 svgShape"/><circle cx="6672.99" cy="2883.72" r="89.23" fill="url(#e)" transform="rotate(-2.2 6671 2882.87)"/><path fill="#545454" d="M6502.56,3303.6H6353.51v121.92h0c0,11.14,7.21,22.31,21.76,30.79,29,16.92,76.51,16.92,105.53,0,16.06-9.36,23.22-22,21.5-34.25h.26Z" class="color545454 svgShape"/><path fill="#7f7f7f" d="M6375.27,3334.28c-29-16.91-29-44.48,0-61.26s76.51-16.78,105.53,0,29,44.35,0,61.26S6404.29,3351.2,6375.27,3334.28Z" class="color7f7f7f svgShape"/><path fill="#545454" d="M6739.48,2815.88h0v-12.66h-133v14.16h.05c.55,9.39,6.94,18.66,19.21,25.76,25.77,14.91,68.13,14.91,94.15,0C6733,2835.67,6739.48,2825.78,6739.48,2815.88Z" class="color545454 svgShape"/><path fill="#7f7f7f" d="M6626,2776.05c-25.89,15-26,39.52-.22,54.43s68.13,14.91,94.15,0,26.11-39.4.22-54.43S6651.87,2761,6626,2776.05Z" class="color7f7f7f svgShape"/><path fill="#545454" d="M6542.57,2574.3c-47.57-9.25-84.2-2.78-108.9,19.22-20.85,18.59-27,43.34-28.69,59h-.84v650.13c0,3.57,2.31,7.15,7,9.87,9.3,5.42,24.53,5.42,33.84,0,5.15-3,7.44-7,6.89-11h.09V2656.84c.89-7.65,3.79-19.74,13.14-28.07,16.33-14.55,46.25-12.46,68.13-8.2,5.38,1.16,131.67,30.14,118.18,187.54l47-.09C6715.56,2608.07,6544.54,2574.7,6542.57,2574.3Z" class="color545454 svgShape"/><polygon fill="#917343" points="2712.26 4721.18 2862.32 4721.18 2802.51 4661.36 2743.32 4661.36 2712.26 4721.18" class="color917343 svgShape"/><polygon fill="#917343" points="3064.07 4343.97 3214.13 4343.97 3154.31 4284.15 3095.13 4284.15 3064.07 4343.97" class="color917343 svgShape"/><polygon fill="#917343" points="3213.58 4430.13 3363.64 4430.13 3303.82 4370.31 3244.64 4370.31 3213.58 4430.13" class="color917343 svgShape"/><polygon fill="#917343" points="2562.26 4635.02 2712.32 4635.02 2652.5 4575.2 2593.32 4575.2 2562.26 4635.02" class="color917343 svgShape"/><polygon fill="#afafaf" points="2562.75 4635.02 2562.31 4417.07 2625.31 4380.05 2625.31 4599.69 2562.75 4635.02" class="colorafafaf svgShape"/><polygon fill="#bebebf" points="2562.75 4635.02 2562.31 4417.07 2499.3 4380.05 2499.3 4599.69 2562.75 4635.02" class="colorbebebf svgShape"/><polygon fill="#9b9b9b" points="2499.3 4380.05 2562.75 4343.91 2625.31 4380.05 2562.31 4417.07 2499.3 4380.05" class="color9b9b9b svgShape"/><polygon fill="#afafaf" points="2712.26 4721.18 2711.82 4503.23 2774.83 4466.21 2774.83 4685.85 2712.26 4721.18" class="colorafafaf svgShape"/><polygon fill="#bebebf" points="2712.26 4721.18 2711.82 4503.23 2648.81 4466.21 2648.81 4685.85 2712.26 4721.18" class="colorbebebf svgShape"/><polygon fill="#9b9b9b" points="2648.81 4466.21 2712.26 4430.08 2774.83 4466.21 2711.82 4503.23 2648.81 4466.21" class="color9b9b9b svgShape"/><polygon fill="#9b9b9b" points="2562.31 4417.07 2648.81 4466.21 2712.26 4430.08 2625.31 4380.05 2562.31 4417.07" class="color9b9b9b svgShape"/><polygon fill="#bebebf" points="2562.31 4417.07 2562.31 4439.91 2648.81 4488.57 2648.81 4466.21 2562.31 4417.07" class="colorbebebf svgShape"/><polygon fill="#afafaf" points="3064.51 4343.97 3064.07 4126.02 3127.07 4088.99 3127.07 4308.64 3064.51 4343.97" class="colorafafaf svgShape"/><polygon fill="#bebebf" points="3064.51 4343.97 3064.07 4126.02 3001.06 4088.99 3001.06 4308.64 3064.51 4343.97" class="colorbebebf svgShape"/><polygon fill="#9b9b9b" points="3001.06 4088.99 3064.51 4052.86 3127.07 4088.99 3064.07 4126.02 3001.06 4088.99" class="color9b9b9b svgShape"/><polygon fill="#afafaf" points="3214.03 4430.13 3213.58 4212.18 3276.59 4175.16 3276.59 4394.8 3214.03 4430.13" class="colorafafaf svgShape"/><polygon fill="#bebebf" points="3214.03 4430.13 3213.58 4212.18 3150.57 4175.16 3150.57 4394.8 3214.03 4430.13" class="colorbebebf svgShape"/><polygon fill="#9b9b9b" points="3150.57 4175.16 3214.03 4139.02 3276.59 4175.16 3213.58 4212.18 3150.57 4175.16" class="color9b9b9b svgShape"/><polygon fill="#9b9b9b" points="3064.07 4126.02 3150.57 4175.16 3214.03 4139.02 3127.07 4088.99 3064.07 4126.02" class="color9b9b9b svgShape"/><polygon fill="#bebebf" points="3064.07 4126.02 3064.07 4148.85 3150.57 4197.52 3150.57 4175.16 3064.07 4126.02" class="colorbebebf svgShape"/><polygon fill="#d3b937" points="3104.72 4080.69 2577.3 4383.76 2541.86 4363.35 3069.28 4060.37 3104.72 4080.69" class="colord3b937 svgShape"/><polygon fill="#aa9129" points="3104.72 4080.69 3104.72 4099.62 2577.3 4402.3 2577.3 4383.76 3104.72 4080.69" class="coloraa9129 svgShape"/><polygon fill="#8e7a25" points="2577.3 4402.3 2541.86 4381.91 2541.86 4363.35 2577.3 4383.76 2577.3 4402.3" class="color8e7a25 svgShape"/><polygon fill="#d3b937" points="3149.25 4106.04 2621.83 4409.11 2586.4 4388.7 3113.82 4085.73 3149.25 4106.04" class="colord3b937 svgShape"/><polygon fill="#aa9129" points="3149.25 4106.04 3149.25 4124.97 2621.83 4427.65 2621.83 4409.11 3149.25 4106.04" class="coloraa9129 svgShape"/><polygon fill="#8e7a25" points="2621.83 4427.65 2586.4 4407.26 2586.4 4388.7 2621.83 4409.11 2621.83 4427.65" class="color8e7a25 svgShape"/><polygon fill="#d3b937" points="3194.11 4131.84 2666.69 4434.9 2631.25 4414.49 3158.67 4111.52 3194.11 4131.84" class="colord3b937 svgShape"/><polygon fill="#aa9129" points="3194.11 4131.84 3194.11 4150.76 2666.69 4453.45 2666.69 4434.9 3194.11 4131.84" class="coloraa9129 svgShape"/><polygon fill="#8e7a25" points="2666.69 4453.45 2631.25 4433.05 2631.25 4414.49 2666.69 4434.9 2666.69 4453.45" class="color8e7a25 svgShape"/><polygon fill="#d3b937" points="3238.64 4157.19 2711.22 4460.26 2675.78 4439.84 3203.2 4136.87 3238.64 4157.19" class="colord3b937 svgShape"/><polygon fill="#aa9129" points="3238.64 4157.19 3238.64 4176.11 2711.22 4478.8 2711.22 4460.26 3238.64 4157.19" class="coloraa9129 svgShape"/><polygon fill="#8e7a25" points="2711.22 4478.8 2675.78 4458.4 2675.78 4439.84 2711.22 4460.26 2711.22 4478.8" class="color8e7a25 svgShape"/><ellipse cx="794.37" cy="3773.89" fill="#917343" rx="104.48" ry="37.67" class="color917343 svgShape"/><rect width="71.22" height="272.85" x="689.88" y="3501.04" fill="#1f4706" class="color1f4706 svgShape"/><circle cx="725.49" cy="3439.6" r="154.27" fill="url(#b)" transform="rotate(-45 725.493 3439.61)"/><circle cx="725.49" cy="3320.78" r="132.39" fill="url(#f)"/><path fill="url(#g)" d="M837.21,3199.82a111.72,111.72,0,1,1-111.72-111.71A111.72,111.72,0,0,1,837.21,3199.82Z"/><path fill="url(#h)" d="M810.67,3097.47a85.18,85.18,0,1,1-85.18-85.18A85.17,85.17,0,0,1,810.67,3097.47Z"/><ellipse cx="1202.32" cy="4006.79" fill="#917343" rx="104.48" ry="37.67" class="color917343 svgShape"/><rect width="71.22" height="272.85" x="1097.84" y="3733.95" fill="#1f4706" class="color1f4706 svgShape"/><circle cx="1133.45" cy="3672.51" r="154.27" fill="url(#i)" transform="rotate(-45 1133.444 3672.512)"/><circle cx="1133.45" cy="3553.69" r="132.39" fill="url(#j)" transform="rotate(-88.21 1133.526 3553.733)"/><path fill="url(#k)" d="M1245.16,3432.73A111.71,111.71,0,1,1,1133.45,3321,111.7,111.7,0,0,1,1245.16,3432.73Z"/><path fill="url(#l)" d="M1218.63,3330.38a85.18,85.18,0,1,1-85.18-85.19A85.18,85.18,0,0,1,1218.63,3330.38Z"/><ellipse cx="1637.37" cy="4270.07" fill="#917343" rx="104.48" ry="37.67" class="color917343 svgShape"/><rect width="71.22" height="272.85" x="1532.89" y="3997.22" fill="#1f4706" class="color1f4706 svgShape"/><circle cx="1568.49" cy="3935.79" r="154.27" fill="url(#m)" transform="rotate(-45 1568.497 3935.787)"/><circle cx="1568.49" cy="3816.97" r="132.39" fill="url(#n)" transform="rotate(-88.21 1568.58 3817.005)"/><path fill="url(#o)" d="M1680.21,3696a111.72,111.72,0,1,1-111.72-111.72A111.71,111.71,0,0,1,1680.21,3696Z"/><path fill="url(#p)" d="M1653.68,3593.65a85.19,85.19,0,1,1-85.19-85.18A85.19,85.19,0,0,1,1653.68,3593.65Z"/><ellipse cx="4072.77" cy="1718.51" fill="#917343" rx="104.48" ry="37.67" class="color917343 svgShape"/><rect width="71.22" height="272.85" x="3968.29" y="1445.66" fill="#1f4706" class="color1f4706 svgShape"/><circle cx="4003.9" cy="1384.23" r="154.27" fill="url(#q)" transform="rotate(-45 4003.906 1384.228)"/><circle cx="4003.9" cy="1265.41" r="132.39" fill="url(#r)" transform="rotate(-2.38 4006.986 1266.324)"/><path fill="url(#s)" d="M4115.61,1144.45a111.72,111.72,0,1,1-111.71-111.72A111.7,111.7,0,0,1,4115.61,1144.45Z"/><path fill="url(#t)" d="M4089.08,1042.09a85.19,85.19,0,1,1-85.18-85.18A85.19,85.19,0,0,1,4089.08,1042.09Z"/><ellipse cx="4480.73" cy="1951.42" fill="#917343" rx="104.48" ry="37.67" class="color917343 svgShape"/><rect width="71.22" height="272.85" x="4376.25" y="1678.57" fill="#1f4706" class="color1f4706 svgShape"/><circle cx="4411.86" cy="1617.14" r="154.27" fill="url(#u)" transform="rotate(-45 4411.857 1617.13)"/><circle cx="4411.86" cy="1498.31" r="132.39" fill="url(#v)" transform="rotate(-87.96 4411.71 1498.385)"/><path fill="url(#w)" d="M4523.57,1377.35a111.72,111.72,0,1,1-111.71-111.71A111.72,111.72,0,0,1,4523.57,1377.35Z"/><path fill="url(#x)" d="M4497,1275a85.19,85.19,0,1,1-85.18-85.18A85.19,85.19,0,0,1,4497,1275Z"/><ellipse cx="4915.78" cy="2214.7" fill="#917343" rx="104.48" ry="37.67" class="color917343 svgShape"/><rect width="71.22" height="272.85" x="4811.29" y="1941.85" fill="#1f4706" class="color1f4706 svgShape"/><circle cx="4846.9" cy="1880.41" r="154.27" fill="url(#y)" transform="rotate(-45 4846.904 1880.417)"/><circle cx="4846.9" cy="1761.59" r="132.39" fill="url(#z)" transform="rotate(-87.96 4846.738 1761.664)"/><path fill="url(#A)" d="M4958.62,1640.63a111.72,111.72,0,1,1-111.72-111.71A111.72,111.72,0,0,1,4958.62,1640.63Z"/><path fill="url(#B)" d="M4932.08,1538.28a85.18,85.18,0,1,1-85.18-85.18A85.18,85.18,0,0,1,4932.08,1538.28Z"/><ellipse cx="5351.41" cy="2442.94" fill="#917343" rx="104.48" ry="37.67" class="color917343 svgShape"/><rect width="71.22" height="272.85" x="5246.92" y="2170.09" fill="#1f4706" class="color1f4706 svgShape"/><circle cx="5282.53" cy="2108.66" r="154.27" fill="url(#C)" transform="rotate(-45 5282.536 2108.662)"/><circle cx="5282.53" cy="1989.84" r="132.39" fill="url(#D)" transform="rotate(-88.21 5282.656 1989.786)"/><path fill="url(#E)" d="M5394.25,1868.88a111.72,111.72,0,1,1-111.72-111.72A111.71,111.71,0,0,1,5394.25,1868.88Z"/><path fill="url(#F)" d="M5367.72,1766.53a85.19,85.19,0,1,1-85.19-85.19A85.19,85.19,0,0,1,5367.72,1766.53Z"/><ellipse cx="5759.37" cy="2675.85" fill="#917343" rx="104.48" ry="37.67" class="color917343 svgShape"/><rect width="71.22" height="272.85" x="5654.88" y="2403" fill="#1f4706" class="color1f4706 svgShape"/><circle cx="5690.49" cy="2341.57" r="154.27" fill="url(#G)" transform="rotate(-45 5690.487 2341.563)"/><circle cx="5690.49" cy="2222.74" r="132.39" fill="url(#H)" transform="rotate(-2.04 5698.464 2225.782)"/><path fill="url(#I)" d="M5802.21,2101.79a111.72,111.72,0,1,1-111.72-111.72A111.72,111.72,0,0,1,5802.21,2101.79Z"/><path fill="url(#J)" d="M5775.67,1999.43a85.18,85.18,0,1,1-85.18-85.18A85.18,85.18,0,0,1,5775.67,1999.43Z"/><ellipse cx="6194.41" cy="2939.13" fill="#917343" rx="104.48" ry="37.67" class="color917343 svgShape"/><rect width="71.22" height="272.85" x="6089.93" y="2666.28" fill="#1f4706" class="color1f4706 svgShape"/><circle cx="6125.54" cy="2604.84" r="154.27" fill="url(#K)" transform="rotate(-45 6125.534 2604.85)"/><circle cx="6125.54" cy="2486.02" r="132.39" fill="url(#L)" transform="rotate(-2.04 6133.978 2489.174)"/><path fill="url(#M)" d="M6237.25,2365.06a111.72,111.72,0,1,1-111.71-111.71A111.72,111.72,0,0,1,6237.25,2365.06Z"/><path fill="url(#N)" d="M6210.72,2262.71a85.19,85.19,0,1,1-85.18-85.18A85.18,85.18,0,0,1,6210.72,2262.71Z"/></svg>