<svg xmlns="http://www.w3.org/2000/svg" viewBox="0 0 4680 3120"><g data-name="6" fill="#000000" class="color000 svgShape"><rect width="4680" height="3120" fill="#ffffff" data-name="6" opacity="0" class="colorfff svgShape"/><path fill="#f5f5f7" d="M3770.13,1335.58c206.44-399.21-110.93-931.35-646.51-713.06C2531.09,864,2319,762.87,2154.69,587.86c-329.39-350.75-954-307.15-1120.26,204.62-195.05,600.53,280.5,768.35-26.9,860.51-69,20.71-132.24,49.26-187.87,83.33-133.53,76.86-199.6,244.64-177,482.66,10.62,111.77,71,204,164.57,276.72,240.17,186.64,699,244.55,1096.19,173.76,551.93-98.38,732.09-125.15,951.56-22.14,214.44,100.65,667.55,37.14,924.19-151.62,81.61-60,143.35-132.68,171.24-216.78,30.89-68.52,38.43-157.91-25.5-263.58C3770.13,1759.52,3563.7,1734.81,3770.13,1335.58Z" class="colorf5f5f7 svgShape"/><path fill="#2f4171" d="M3621.92,463.48H2437.05V2483.41H3669.58V511.14A47.66,47.66,0,0,0,3621.92,463.48Z" class="color2f4171 svgShape"/><path fill="#3d5891" d="M3404.5,463.48H2267.3a47.66,47.66,0,0,0-47.66,47.66V2483.41H3452.16V511.14A47.66,47.66,0,0,0,3404.5,463.48Z" class="color3d5891 svgShape"/><rect width="1079.6" height="697.21" x="2307.12" y="527.22" fill="#243354" class="color243354 svgShape"/><rect width="1082.17" height="303.1" x="2304.56" y="1537.4" fill="#243354" class="color243354 svgShape"/><rect width="1079.6" height="219.74" x="2307.12" y="1940.58" fill="#243354" class="color243354 svgShape"/><rect width="1079.6" height="223.14" x="2307.12" y="2183.6" fill="#243354" class="color243354 svgShape"/><rect width="1079.6" height="266.68" x="2307.12" y="1247.58" fill="#243354" class="color243354 svgShape"/><rect width="1002.68" height="181.61" x="2349.13" y="1292.4" fill="#5681bf" class="color5681bf svgShape"/><rect width="509.96" height="131.81" x="2810.73" y="1317.3" fill="#535353" opacity=".3" class="color535353 svgShape"/><rect width="11.75" height="131.81" x="2766.4" y="1317.3" fill="#243354" class="color243354 svgShape"/><rect width="11.75" height="131.81" x="2717.1" y="1317.3" fill="#b5cae8" opacity=".5" class="colorb5cae8 svgShape"/><rect width="11.75" height="131.81" x="2667.8" y="1317.3" fill="#243354" class="color243354 svgShape"/><rect width="11.75" height="131.81" x="2618.49" y="1317.3" fill="#535353" class="color535353 svgShape"/><rect width="11.75" height="131.81" x="2569.19" y="1317.3" fill="#b5cae8" class="colorb5cae8 svgShape"/><rect width="11.75" height="131.81" x="2519.89" y="1317.3" fill="#3d5891" class="color3d5891 svgShape"/><rect width="11.75" height="131.81" x="2470.59" y="1317.3" fill="#b5cae8" class="colorb5cae8 svgShape"/><rect width="11.75" height="131.81" x="2421.28" y="1317.3" fill="#3d5891" class="color3d5891 svgShape"/><g opacity=".5" fill="#000000" class="color000 svgShape"><rect width="53.55" height="49.62" x="3099.67" y="1595" fill="#99b1da" class="color99b1da svgShape"/><rect width="53.55" height="49.62" x="3023.76" y="1595" fill="#99b1da" class="color99b1da svgShape"/><rect width="53.55" height="49.62" x="2947.85" y="1595" fill="#99b1da" class="color99b1da svgShape"/><rect width="53.55" height="49.62" x="2862.48" y="1595" fill="#99b1da" class="color99b1da svgShape"/><rect width="53.55" height="49.62" x="2786.57" y="1595" fill="#99b1da" class="color99b1da svgShape"/><rect width="53.55" height="49.62" x="2710.66" y="1595" fill="#99b1da" class="color99b1da svgShape"/><rect width="53.55" height="49.62" x="2625.28" y="1595" fill="#99b1da" class="color99b1da svgShape"/><rect width="53.55" height="49.62" x="2549.37" y="1595" fill="#ffffff" class="colorfff svgShape"/><rect width="53.55" height="49.62" x="2549.37" y="1715.08" fill="#99b1da" class="color99b1da svgShape"/><rect width="53.55" height="49.62" x="2549.37" y="1595" fill="#99b1da" class="color99b1da svgShape"/><rect width="53.55" height="49.62" x="2473.78" y="1715.08" fill="#99b1da" class="color99b1da svgShape"/><rect width="53.55" height="49.62" x="2473.78" y="1595" fill="#99b1da" class="color99b1da svgShape"/></g><rect width="1026.34" height="167.28" x="2333.75" y="1966.8" fill="#b5cae8" rx="16.17" class="colorb5cae8 svgShape"/><rect width="1026.34" height="167.28" x="2333.75" y="2211.53" fill="#b5cae8" rx="16.17" class="colorb5cae8 svgShape"/><circle cx="3250.9" cy="2046.01" r="35.32" fill="#5681bf" class="color5681bf svgShape"/><circle cx="2425.19" cy="2046.01" r="35.32" fill="#535353" opacity=".3" class="color535353 svgShape"/><circle cx="3250.9" cy="2288.55" r="35.32" fill="#5681bf" class="color5681bf svgShape"/><circle cx="2425.19" cy="2288.55" r="35.32" fill="#535353" opacity=".3" class="color535353 svgShape"/><rect width="705.98" height="13.09" x="2485.06" y="2039.47" fill="#5681bf" opacity=".3" class="color5681bf svgShape"/><rect width="705.98" height="13.09" x="2485.06" y="2282.01" fill="#5681bf" opacity=".3" class="color5681bf svgShape"/><path fill="#b5cae8" d="M3131.42,1615.82a4.49,4.49,0,0,0-6,2c-.25.5-25.92,50.18-66.13,53.33-26.37,2-53.62-16.08-81-53.93a4.48,4.48,0,1,0-7.26,5.25c27.76,38.38,56.06,57.81,84.18,57.81,1.61,0,3.22-.07,4.82-.19,45.23-3.58,72.26-56,73.39-58.22A4.48,4.48,0,0,0,3131.42,1615.82Z" class="colorb5cae8 svgShape"/><path fill="#ffffff" d="M3058.6,1615.82a4.49,4.49,0,0,0-6,2c-.25.5-25.67,49.69-65.47,52.81-26.08,2-53.09-15.93-80.2-53.41a4.48,4.48,0,1,0-7.27,5.25c27.51,38,55.56,57.28,83.43,57.28,1.6,0,3.19-.06,4.78-.19,44.83-3.54,71.61-55.48,72.73-57.69A4.48,4.48,0,0,0,3058.6,1615.82Z" class="colorfff svgShape"/><path fill="#b5cae8" d="M2972.66,1615.82a4.48,4.48,0,0,0-6,2c-.25.5-25.67,49.69-65.47,52.81-26.08,2-53.09-15.93-80.21-53.41a4.48,4.48,0,1,0-7.26,5.25c27.51,38,55.55,57.28,83.43,57.28,1.59,0,3.19-.06,4.78-.19,44.83-3.54,71.61-55.48,72.73-57.69A4.49,4.49,0,0,0,2972.66,1615.82Z" class="colorb5cae8 svgShape"/><path fill="#ffffff" d="M2815.37,1615.82a4.47,4.47,0,0,0-6,2c-.26.5-25.93,50.18-66.13,53.33-26.37,2-53.63-16.08-81-53.93a4.48,4.48,0,1,0-7.26,5.25c27.76,38.38,56.06,57.81,84.19,57.81,1.6,0,3.21-.07,4.81-.19,45.24-3.58,72.26-56,73.39-58.22A4.47,4.47,0,0,0,2815.37,1615.82Z" class="colorfff svgShape"/><path fill="#b5cae8" d="M2742.55,1615.82a4.47,4.47,0,0,0-6,2c-.26.5-25.68,49.69-65.48,52.81-26.09,2.05-53.09-15.93-80.2-53.41a4.48,4.48,0,1,0-7.26,5.25c27.51,38,55.55,57.28,83.43,57.28,1.59,0,3.18-.06,4.77-.19,44.83-3.54,71.61-55.48,72.73-57.69A4.47,4.47,0,0,0,2742.55,1615.82Z" class="colorb5cae8 svgShape"/><g opacity=".5" fill="#000000" class="color000 svgShape"><rect width="53.55" height="49.62" x="3099.67" y="1715.08" fill="#99b1da" class="color99b1da svgShape"/><rect width="53.55" height="49.62" x="3176.06" y="1595" fill="#99b1da" class="color99b1da svgShape"/><rect width="53.55" height="49.62" x="3176.06" y="1715.08" fill="#99b1da" class="color99b1da svgShape"/><rect width="53.55" height="49.62" x="3023.76" y="1715.08" fill="#99b1da" class="color99b1da svgShape"/><rect width="53.55" height="49.62" x="2947.85" y="1715.08" fill="#99b1da" class="color99b1da svgShape"/><rect width="53.55" height="49.62" x="2862.48" y="1715.08" fill="#99b1da" class="color99b1da svgShape"/><rect width="53.55" height="49.62" x="2786.57" y="1715.08" fill="#99b1da" class="color99b1da svgShape"/><rect width="53.55" height="49.62" x="2710.66" y="1715.08" fill="#99b1da" class="color99b1da svgShape"/><rect width="53.55" height="49.62" x="2625.28" y="1715.08" fill="#99b1da" class="color99b1da svgShape"/></g><path fill="#b5cae8" d="M3131.42,1735.9a4.49,4.49,0,0,0-6,2c-.25.5-25.92,50.18-66.13,53.33-26.37,2.06-53.62-16.08-81-53.93a4.48,4.48,0,1,0-7.26,5.25c27.76,38.38,56.06,57.81,84.18,57.81,1.61,0,3.22-.07,4.82-.19,45.23-3.58,72.26-56,73.39-58.22A4.48,4.48,0,0,0,3131.42,1735.9Z" class="colorb5cae8 svgShape"/><path fill="#ffffff" d="M3058.6,1735.9a4.49,4.49,0,0,0-6,2c-.25.49-25.67,49.69-65.47,52.8-26.08,2.07-53.09-15.92-80.2-53.4a4.48,4.48,0,1,0-7.27,5.25c27.51,38,55.56,57.28,83.43,57.28,1.6,0,3.19-.07,4.78-.19,44.83-3.54,71.61-55.48,72.73-57.69A4.48,4.48,0,0,0,3058.6,1735.9Z" class="colorfff svgShape"/><path fill="#b5cae8" d="M2972.66,1735.9a4.48,4.48,0,0,0-6,2c-.25.49-25.67,49.69-65.47,52.8-26.08,2.07-53.09-15.92-80.21-53.4a4.48,4.48,0,1,0-7.26,5.25c27.51,38,55.55,57.28,83.43,57.28,1.59,0,3.19-.07,4.78-.19,44.83-3.54,71.61-55.48,72.73-57.69A4.49,4.49,0,0,0,2972.66,1735.9Z" class="colorb5cae8 svgShape"/><path fill="#ffffff" d="M2815.37,1735.9a4.47,4.47,0,0,0-6,2c-.26.5-25.93,50.18-66.13,53.33-26.37,2.06-53.63-16.08-81-53.93a4.48,4.48,0,1,0-7.26,5.25c27.76,38.38,56.06,57.81,84.19,57.81,1.6,0,3.21-.07,4.81-.19,45.24-3.58,72.26-56,73.39-58.22A4.47,4.47,0,0,0,2815.37,1735.9Z" class="colorfff svgShape"/><path fill="#b5cae8" d="M2742.55,1735.9a4.47,4.47,0,0,0-6,2c-.26.49-25.68,49.69-65.48,52.8-26.09,2-53.09-15.92-80.2-53.4a4.48,4.48,0,1,0-7.26,5.25c27.51,38,55.55,57.28,83.43,57.28,1.59,0,3.18-.07,4.77-.19,44.83-3.54,71.61-55.48,72.73-57.69A4.47,4.47,0,0,0,2742.55,1735.9Z" class="colorb5cae8 svgShape"/><rect width="149.14" height="75.78" x="3110.94" y="1346.6" fill="#5681bf" rx="16.02" class="color5681bf svgShape"/><rect width="102.46" height="12.73" x="3135.34" y="1366.24" fill="#ffffff" class="colorfff svgShape"/><rect width="102.46" height="12.73" x="3135.34" y="1393.85" fill="#ffffff" class="colorfff svgShape"/><rect width="17.89" height="75.78" x="3073.51" y="1346.6" fill="#d1dbed" rx="2.83" class="colord1dbed svgShape"/><rect width="17.89" height="75.78" x="3023.17" y="1346.6" fill="#d1dbed" rx="2.83" class="colord1dbed svgShape"/><rect width="17.89" height="75.78" x="2972.83" y="1346.6" fill="#d1dbed" rx="2.83" class="colord1dbed svgShape"/><rect width="17.89" height="75.78" x="2922.49" y="1346.6" fill="#d1dbed" rx="2.83" class="colord1dbed svgShape"/><rect width="17.89" height="75.78" x="2872.15" y="1346.6" fill="#d1dbed" rx="2.83" class="colord1dbed svgShape"/><rect width="818.06" height="34.15" x="2450.44" y="676.81" fill="#3d5891" class="color3d5891 svgShape"/><rect width="917.25" height="191.81" x="2400.85" y="710.96" fill="#99b1da" rx="6.62" class="color99b1da svgShape"/><rect width="818.06" height="34.15" x="2450.44" y="902.77" fill="#3d5891" class="color3d5891 svgShape"/><path fill="#5681bf" d="M2514.66,755.5h119.15a18.63,18.63,0,0,1,18.63,18.63v60.5a18.64,18.64,0,0,1-18.64,18.64H2514.66A18.63,18.63,0,0,1,2496,834.63v-60.5A18.63,18.63,0,0,1,2514.66,755.5Z" class="color5681bf svgShape"/><rect width="107.45" height="16.42" x="2521.62" y="780.84" fill="#ffffff" class="colorfff svgShape"/><rect width="107.45" height="16.42" x="2521.62" y="816.47" fill="#ffffff" class="colorfff svgShape"/><rect width="18.76" height="97.77" x="2456.78" y="755.5" fill="#d1dbed" rx="3.29" class="colord1dbed svgShape"/><ellipse cx="2959.98" cy="810.87" fill="#243354" rx="18.92" ry="16.78" class="color243354 svgShape"/><ellipse cx="3030.03" cy="810.87" fill="#2f4171" rx="18.92" ry="16.78" class="color2f4171 svgShape"/><path fill="#3d5891" d="M3100.08,794.1c-10.45,0-18.92,7.51-18.92,16.77s8.47,16.78,18.92,16.78,18.91-7.51,18.91-16.78S3110.52,794.1,3100.08,794.1Z" class="color3d5891 svgShape"/><ellipse cx="3170.13" cy="810.87" fill="#d1dbed" rx="18.92" ry="16.78" class="colord1dbed svgShape"/><path fill="#ffffff" d="M3240.17,794.1c-10.44,0-18.91,7.51-18.91,16.77s8.47,16.78,18.91,16.78,18.92-7.51,18.92-16.78S3250.62,794.1,3240.17,794.1Z" class="colorfff svgShape"/><path fill="#5681bf" d="M2371.47 756.81V861.89a17 17 0 0017 17h12.37V739.8h-12.37A17 17 0 002371.47 756.81zM3330.47 739.8H3318.1V878.9h12.37a17 17 0 0017-17V756.81A17 17 0 003330.47 739.8z" class="color5681bf svgShape"/><rect width="917.25" height="191.81" x="2400.85" y="936.92" fill="#99b1da" rx="6.62" class="color99b1da svgShape"/><rect width="818.06" height="34.15" x="2450.44" y="1128.74" fill="#3d5891" class="color3d5891 svgShape"/><path fill="#5681bf" d="M2514.66,981.47h119.15a18.63,18.63,0,0,1,18.63,18.63v60.5a18.64,18.64,0,0,1-18.64,18.64H2514.66A18.63,18.63,0,0,1,2496,1060.6v-60.5A18.63,18.63,0,0,1,2514.66,981.47Z" class="color5681bf svgShape"/><rect width="107.45" height="16.42" x="2521.62" y="1006.81" fill="#ffffff" class="colorfff svgShape"/><rect width="107.45" height="16.42" x="2521.62" y="1042.43" fill="#ffffff" class="colorfff svgShape"/><rect width="18.76" height="97.77" x="2456.78" y="981.47" fill="#d1dbed" rx="3.29" class="colord1dbed svgShape"/><ellipse cx="2959.98" cy="1051.62" fill="#3d5891" rx="18.92" ry="16.39" class="color3d5891 svgShape"/><ellipse cx="3030.03" cy="1051.62" fill="#b5cae8" rx="18.92" ry="16.39" class="colorb5cae8 svgShape"/><path fill="#d1dbed" d="M3100.08,1035.23c-10.45,0-18.92,7.34-18.92,16.39s8.47,16.4,18.92,16.4,18.91-7.34,18.91-16.4S3110.52,1035.23,3100.08,1035.23Z" class="colord1dbed svgShape"/><ellipse cx="3170.13" cy="1051.62" fill="#d1dbed" rx="18.92" ry="16.39" class="colord1dbed svgShape"/><path fill="#ffffff" d="M3240.17,1035.23c-10.44,0-18.91,7.34-18.91,16.39s8.47,16.4,18.91,16.4,18.92-7.34,18.92-16.4S3250.62,1035.23,3240.17,1035.23Z" class="colorfff svgShape"/><path fill="#5681bf" d="M2371.47 982.78v105.08a17 17 0 0017 17h12.37V965.77h-12.37A17 17 0 002371.47 982.78zM3330.47 965.77H3318.1v139.1h12.37a17 17 0 0017-17V982.78A17 17 0 003330.47 965.77z" class="color5681bf svgShape"/><path fill="#2c4da2" d="M1828.76,1877.48c-17.56-53.17-37.84-99.84-61.16-138.4-112.93-15.57-231.75,1.67-346.25,5.09-43.32,76.59-71.13,137.59-96.33,218.73-8,25.55-15.65,53.1-23.47,83.77-11.87,46.4-73,207.88-151.94,416.24-34.82,91.86-73.11,192.85-112.17,297.09h454.05c39.17-124.74,71.45-230.65,90-297.09,5.56-19.87,9.88-36.23,12.8-48.48.87-3.67-.55,14.18-3.66,48.48-5.33,59-15.66,166.53-27.91,297.09h369.06c-1.23-99.93-4.49-200-10.45-297.09C1907.6,2239.07,1879.49,2031.1,1828.76,1877.48Z" class="color2c4da2 svgShape"/><path fill="#294675" d="M1421.34,1744.17c-43.32,76.58-71.11,137.59-96.32,218.73,183-14.16,431.94-69,503.74-85.41-17.57-53.18-37.84-99.85-61.16-138.41C1654.68,1723.51,1535.85,1740.75,1421.34,1744.17Z" class="color294675 svgShape"/><polygon fill="#294675" points="1594.3 2414.43 1699.23 2224.49 1629.09 2258.21 1594.3 2414.43" class="color294675 svgShape"/><path fill="#5681bf" d="M2632.48,1791.36H1905a32.76,32.76,0,0,0-31.65,24.31l-139.22,521.57s-250.62,15-279.79,16.36-35.1,27-35.1,27H2519.77a49,49,0,0,0,48.16-40.06l8.39-45.3,86.44-466.83A31,31,0,0,0,2632.48,1791.36Z" class="color5681bf svgShape"/><path fill="#99b1da" d="M2632.48,1791.36h-456c-13.58,101.05-20.85,309.61,129.21,398.2,126.91,74.92,219.45,98.48,270.67,105.66l86.44-466.83A31,31,0,0,0,2632.48,1791.36Z" opacity=".52" class="color99b1da svgShape"/><path fill="#3d5891" d="M1873.35,1815.67l-139.22,521.57H1771s117.46-444.49,135-500.34c7-22.2,14-36.44,19.85-45.54H1905A32.76,32.76,0,0,0,1873.35,1815.67Z" class="color3d5891 svgShape"/><ellipse cx="2237.36" cy="2096.53" fill="#ffffff" rx="101.42" ry="80.63" transform="rotate(-80.93 2237.3 2096.523)" class="colorfff svgShape"/><rect width="2970.44" height="297.09" x="765.54" y="2462.91" fill="#ef7c59" class="coloref7c59 svgShape"/><rect width="2970.44" height="39.39" x="765.54" y="2483.41" fill="#93493a" class="color93493a svgShape"/><path fill="#f3ce90" d="M3787.17,2380.58H714.36a102.83,102.83,0,0,0-102.83,102.83H3890A102.82,102.82,0,0,0,3787.17,2380.58Z" class="colorf3ce90 svgShape"/><path fill="#40947e" d="M1207,2325c-7.88-7.62-15.51-15.45-22.73-23.48-24.24-26.9-44-56.19-54.59-88.39-12.4-37.91-34.57-68.51-62.42-93.44q-4.71-4.2-9.63-8.2c-23.81-19.37-51.12-35-79.7-47.95-29.09-13.14-59.5-23.39-88.88-31.71-96.26-27.28-123.92-148.29-218.56-173.67-8.37-2.24-17.41-3.41-25.61-.58s-14.46,9.21-19.31,16.27c-17.29,25.13-17.63,59.36-6.12,87.62,17.26,42.33,44.7,70.92,77.41,92.93,38.76,26.07,68.5,26.2,110.27,37.22,46.68,12.3,92.1,45.53,124.88,80,36,37.88,62.18,84.4,99.16,121.35,2.94,2.93,5.93,5.8,9,8.57,23.55,21.63,50.1,38.95,78.53,53.25h121.3c-11.25-9.59-22.34-19.49-33-29.76Z" class="color40947e svgShape"/><path fill="#6fc183" d="M1145.71,2301.48a358.22,358.22,0,0,1-37.88-30c-23.7-21.69-44.29-47.51-64.2-72.46-11.69-14.66-23.56-29.53-36.19-43.76h0c-15.19-17.1-31.5-33.27-49.94-47-31.75-23.6-68.84-39.14-104.71-54.18s-73-30.6-104.25-54.13c-24.24-18.27-46.34-42.19-67.55-73.11a3.91,3.91,0,0,0-5.45-1,3.86,3.86,0,0,0-1,5.44c21.7,31.65,44.37,56.16,69.31,75,32,24.12,69.58,39.88,105.92,55.11,35.44,14.85,72.09,30.2,103.07,53.23,24.95,18.55,46.09,41.95,65.92,66.06,6.36,7.74,12.58,15.53,18.76,23.28,20.1,25.2,40.89,51.26,65,73.37a351.05,351.05,0,0,0,29.67,24.22c28,20.53,58.46,37.38,88.94,53.25h17q-8.48-4.36-17-8.8C1195.42,2332.41,1169.7,2318.14,1145.71,2301.48Z" class="color6fc183 svgShape"/><path fill="#6fc183" d="M1264.54,2332.11q-11.6-15.06-22.4-30.63c-1.08-1.55-2.15-3.12-3.21-4.68a598.79,598.79,0,0,1-50.78-89.44s0,0,0-.06c-18.61-41-31.72-84.14-37.36-129.43-7-56.34-2-113.61-8.3-170-9.18-82.44-42.32-159.9-84.69-230.51-21.85-36.42-48.86-85.57-85.72-116.62-21.62-18.2-46.61-30.18-75.93-29.71-34.88.54-64.22,31.12-71.91,65.14s2.41,69.84,18.52,100.77,38,58.41,56.37,88.08c48.58,78.64,57.4,163.15,73.23,251.71,1.55,8.63,3.4,17.6,5.55,26.82a595.22,595.22,0,0,0,29.55,91.74h0c3.53,8.52,7.31,17,11.3,25.36,23.06,48.28,53.65,92.73,91.53,120.87q6.57,4.88,13.41,9.07c23.34,14.28,46.06,29.15,68.81,44.18h90.09q-9.21-11.16-18-22.6Z" class="color6fc183 svgShape"/><path fill="#2e6857" d="M1210.75,1692.92c-13.06-4.18-27.94-5.79-40,.77-14.4,7.84-21,25.61-20.45,42s6.68,32,12,47.48a507.61,507.61,0,0,1,26.09,206c-3.42,42.19-12.12,83.95-13.07,126.27-.69,31.26,4,62,12.76,91.86,0,0,0,0,0,.06,9.63,32.67,24.2,64.24,42.06,94.12a539.25,539.25,0,0,0,36.39,53.25h32.87c-5.38-16.46-9.91-32.24-13.86-44.46-1-3-1.93-5.91-2.89-8.79-13-39-24.53-68.56-15.79-111.68,9.85-48.54,30.58-94.16,43.5-142a454.51,454.51,0,0,0,7.46-203.85C1305.61,1780.29,1272.51,1712.69,1210.75,1692.92Z" class="color2e6857 svgShape"/><path fill="#40947e" d="M1207 2325h0c-9.46-7.48-18.83-15.23-27.63-23.48l-.77-.72c-58.68-55.33-97.17-118-111.34-181.11a3 3 0 01-.07-.32c-5.83-26.06-6.16-53-6.5-79.13-.28-22.55-.59-45.86-4.4-68.65-7.16-42.93-23.84-87.6-48.26-129.22-6.87-11.71-14.2-23.39-21.31-34.68-14.51-23.08-29.51-47-41-72-23.21-50.45-44.16-105.16-40.34-163.31a3.92 3.92 0 00-7.82-.51c-4 59.89 17.39 115.71 41 167.1 11.74 25.52 26.88 49.6 41.52 72.89 7.07 11.25 14.38 22.88 21.18 34.48 23.94 40.8 40.3 84.55 47.31 126.53 3.7 22.21 3.27 42.47 3.55 64.72.3 23.34 1.34 50.13 5.51 73.9.56 3.2 1.19 6.41 1.9 9.6 14 62.89 51.49 125.15 108.48 180.43 1.72 1.68 3.45 3.33 5.2 5 14.59 13.76 30.6 26.06 46.09 38l2 1.51c3.77 2.89 7.58 5.83 11.38 8.8h12.65c-7-5.65-14.19-11.14-21.2-16.52C1218.38 2333.86 1212.66 2329.46 1207 2325zM1264.54 2332.11a283.27 283.27 0 01-15.23-30.63 248.11 248.11 0 01-17.16-59.74c-8.6-56.48 3.63-114.07 15.45-169.77 7.06-33.27 14.36-67.67 17.32-101.88 6.84-79-10-162.2-47.37-234.23a3.92 3.92 0 00-7 3.61c36.71 70.73 53.23 152.38 46.52 230-2.92 33.73-10.17 67.89-17.18 100.93-12 56.39-24.34 114.68-15.54 172.57a254.75 254.75 0 0014.54 53.88c.61 1.56 1.24 3.13 1.88 4.68a299.58 299.58 0 0028.59 53.25h9.49q-7.73-11.1-14.33-22.6zM4118 1855.91c-8.2-2.83-17.24-1.66-25.61.58-94.65 25.38-122.3 146.38-218.57 173.67-29.38 8.32-59.78 18.57-88.87 31.71-28.59 12.9-55.9 28.57-79.7 47.94q-4.92 4-9.63 8.21c-27.86 24.92-50 55.52-62.43 93.44-10.53 32.2-30.35 61.48-54.58 88.39-7.23 8-14.85 15.86-22.74 23.47h0c-10.62 10.28-21.71 20.18-33 29.77h121.3c28.44-14.31 55-31.63 78.54-53.25 3-2.77 6-5.64 9-8.57 37-37 63.13-83.47 99.16-121.35 32.78-34.45 78.19-67.68 124.87-80 41.77-11 71.51-11.14 110.28-37.21 32.71-22 60.14-50.61 77.4-92.93 11.52-28.26 11.18-62.49-6.12-87.62C4132.45 1865.12 4126.08 1858.71 4118 1855.91z" class="color40947e svgShape"/><path fill="#6fc183" d="M4087.29,1924.18a3.92,3.92,0,0,0-5.45,1c-21.22,30.93-43.31,54.85-67.55,73.11-31.24,23.54-68.36,39.1-104.25,54.14s-73,30.58-104.71,54.18c-18.44,13.71-34.75,29.88-49.95,47h0c-12.63,14.23-24.5,29.1-36.18,43.75-19.92,25-40.5,50.78-64.21,72.47a357.2,357.2,0,0,1-37.88,30c-24,16.66-49.71,30.93-75.5,44.44q-8.49,4.46-17,8.81h17.06c30.47-15.87,61-32.72,88.94-53.25a352.65,352.65,0,0,0,29.67-24.22c24.15-22.11,44.94-48.17,65-73.37,6.18-7.75,12.4-15.54,18.76-23.28,19.84-24.11,41-47.51,65.92-66.06,31-23,67.63-38.38,103.07-53.24,36.34-15.22,73.93-31,105.93-55.1,24.94-18.79,47.61-43.3,69.31-74.95A3.88,3.88,0,0,0,4087.29,1924.18Z" class="color6fc183 svgShape"/><path fill="#6fc183" d="M3866.7,1529.34c-29.32-.46-54.32,11.52-75.93,29.72-36.86,31-63.87,80.2-85.73,116.61-42.37,70.62-75.51,148.08-84.69,230.52-6.28,56.44-1.29,113.71-8.3,170-5.63,45.29-18.75,88.42-37.36,129.43,0,0,0,0,0,.06a597.91,597.91,0,0,1-50.78,89.44c-1,1.56-2.13,3.13-3.21,4.68q-10.79,15.55-22.4,30.63s0,0,0,0q-8.78,11.43-18,22.6h90.1c22.75-15,45.47-29.9,68.81-44.18q6.84-4.18,13.4-9.07c37.89-28.14,68.47-72.59,91.53-120.87,4-8.36,7.77-16.84,11.3-25.36h0a595.3,595.3,0,0,0,29.56-91.74c2.15-9.22,4-18.19,5.54-26.82,15.84-88.56,24.66-173.08,73.23-251.71,18.32-29.67,40.26-57.15,56.37-88.08s26.23-66.76,18.53-100.77S3901.57,1529.89,3866.7,1529.34Z" class="color6fc183 svgShape"/><path fill="#2e6857" d="M3592.05,1692.06c-12-6.56-26.92-5-40-.77-61.77,19.77-94.86,87.37-107.15,151a454.66,454.66,0,0,0,7.46,203.85c12.92,47.81,33.66,93.44,43.5,142,8.75,43.13-2.8,72.73-15.79,111.69-.95,2.88-1.92,5.8-2.89,8.79-3.95,12.22-8.47,28-13.86,44.46h32.87a542.26,542.26,0,0,0,36.4-53.25c17.86-29.88,32.42-61.45,42.05-94.12,0,0,0,0,0-.06,8.78-29.84,13.46-60.6,12.76-91.86-.95-42.32-9.65-84.08-13.06-126.27a507.58,507.58,0,0,1,26.08-206c5.35-15.5,11.54-31.09,12-47.48S3606.44,1699.9,3592.05,1692.06Z" class="color2e6857 svgShape"/><path fill="#40947e" d="M3861.17 1566.54a3.93 3.93 0 00-3.65 4.17c3.83 58.15-17.12 112.86-40.34 163.31-11.52 25-26.53 48.91-41 72-7.1 11.29-14.43 23-21.31 34.68-24.41 41.62-41.1 86.29-48.26 129.21-3.81 22.8-4.11 46.11-4.4 68.66-.33 26.09-.67 53.06-6.49 79.13 0 .11 0 .21-.07.32-14.18 63.16-52.66 125.77-111.34 181.11-.26.24-.52.49-.78.72-8.8 8.25-18.17 16-27.63 23.47h0c-5.69 4.5-11.41 8.9-17.06 13.25-7 5.38-14.16 10.87-21.2 16.52h12.64c3.8-3 7.61-5.91 11.38-8.81l1.95-1.5c15.49-11.9 31.51-24.21 46.09-38q2.63-2.48 5.21-5c57-55.28 94.44-117.54 108.47-180.43.72-3.2 1.34-6.41 1.91-9.61 4.17-23.76 5.21-60.54 5.5-83.88.29-22.25-.15-32.53 3.56-54.73 7-42 23.36-85.74 47.3-126.53 6.8-11.61 14.11-23.23 21.18-34.48 14.64-23.29 29.78-47.38 41.52-72.9 23.65-51.39 45-107.2 41-167.09A4 4 0 003861.17 1566.54zM3550.56 1732.55a3.92 3.92 0 00-5.29 1.68c-37.39 72-54.2 155.21-47.36 234.23 3 34.21 10.25 68.61 17.32 101.88 11.82 55.69 24 113.29 15.45 169.77a248.57 248.57 0 01-17.16 59.74 283.36 283.36 0 01-15.24 30.63s0 0 0 0q-6.59 11.48-14.32 22.6h9.49a299.86 299.86 0 0028.58-53.25c.65-1.55 1.27-3.12 1.88-4.68a253.72 253.72 0 0014.54-53.88c8.81-57.89-3.57-116.19-15.53-172.57-7-33-14.26-67.21-17.19-100.93-6.7-77.57 9.81-159.22 46.53-230A4 4 0 003550.56 1732.55z" class="color40947e svgShape"/><path fill="#99b1da" d="M3820.3,1262.52l22.17-36.31-39.26-39.56-36.48,21.88a168.35,168.35,0,0,0-51.75-21.67l-10-41.35-55.74-.22-10.32,41.27a168.52,168.52,0,0,0-51.92,21.27l-36.31-22.17-39.57,39.26L3533,1261.4a168.62,168.62,0,0,0-21.68,51.75l-41.35,10-.22,55.74,41.28,10.32a168.33,168.33,0,0,0,21.27,51.93l-22.18,36.3,39.26,39.57,36.49-21.89a168.35,168.35,0,0,0,51.75,21.67l10,41.36,55.74.22,10.32-41.28a168.6,168.6,0,0,0,51.92-21.26l36.31,22.17,39.56-39.26-21.88-36.48a168.4,168.4,0,0,0,21.67-51.76l41.36-10,.21-55.74-41.27-10.32A168.62,168.62,0,0,0,3820.3,1262.52Zm-70.36,163.53a104.55,104.55,0,1,1,.58-147.86A104.55,104.55,0,0,1,3749.94,1426.05Z" class="color99b1da svgShape"/><g opacity=".57" fill="#000000" class="color000 svgShape"><path fill="#5681bf" d="M3729.89 1262.17a104.5 104.5 0 01-84.26 189.61 104.5 104.5 0 1084.26-189.61zM3649.24 1145.29l-10.32 41.27a168.58 168.58 0 00-48.77 19.49l19.76 12.07a168.55 168.55 0 0151.93-21.26l10.31-41.28 35.3.14-2.47-10.21zM3550.69 1185.66l-39.57 39.26L3533 1261.4a168.62 168.62 0 00-21.68 51.75l-41.35 10-.22 55.74 22.94 5.74.2-51.19 41.35-10a168.4 168.4 0 0121.67-51.76L3534 1235.21l37.26-37zM3555.22 1451.43A168.58 168.58 0 013534 1399.5l-21.6-5.4a168.16 168.16 0 0020 47l-22.18 36.31 39.26 39.57 8-4.78-24.31-24.5zM3638.39 1519.93l9.24 38.22 20.44.08-7.52-31.14A167.73 167.73 0 013638.39 1519.93zM3768.18 1207.66a167.75 167.75 0 0121.47 11.17l28.51-17.11-14.95-15.07z" class="color5681bf svgShape"/></g><path fill="#99b1da" d="M3712.09,1307.23c-19-15.38-47.1-16.8-67.36-3.11a57.23,57.23,0,0,0-4.21,92.31c19,15.38,47.1,16.79,67.36,3.11A57.24,57.24,0,0,0,3712.09,1307.23Z" class="color99b1da svgShape"/><path fill="#5681bf" d="M3708.25,1304.37a57.21,57.21,0,1,0-63.89,94.92,54.47,54.47,0,0,0,10.83,5.59,57.16,57.16,0,0,1,13.54-82.65c15.47-10.45,35.59-12.12,52.69-5.34A58.54,58.54,0,0,0,3708.25,1304.37Z" opacity=".57" class="color5681bf svgShape"/><path fill="#d1dbed" d="M3921.86,942.56l-5-46.6-35.44-4.82a141.34,141.34,0,0,0-22.56-41.42l15.19-32.39-36.46-29.45-28.47,21.66a141.58,141.58,0,0,0-45.24-13.35l-12.17-33.63-46.6,5L3700.33,803a141.57,141.57,0,0,0-41.42,22.56l-32.39-15.18-29.45,36.46,21.66,28.46a141.64,141.64,0,0,0-13.35,45.25l-33.63,12.16,4.95,46.6,35.44,4.82a141.65,141.65,0,0,0,22.57,41.43l-15.19,32.39,36.46,29.44,28.47-21.65a141.76,141.76,0,0,0,45.24,13.35l12.16,33.63,46.6-5,4.82-35.44a141.27,141.27,0,0,0,41.43-22.56l32.39,15.18,29.44-36.45L3874.88,1000a141.58,141.58,0,0,0,13.35-45.24ZM3756.1,1025a87.9,87.9,0,1,1,78.11-96.7A87.91,87.91,0,0,1,3756.1,1025Z" class="colord1dbed svgShape"/><g opacity=".47" fill="#000000" class="color000 svgShape"><path fill="#99b1da" d="M3829.1 907a87.85 87.85 0 01-155 80.1 87.86 87.86 0 10155-80.1zM3809.16 809.54a141.31 141.31 0 00-42.24-12.86l6.62 18.31a141.57 141.57 0 0145.25 13.35l28.47-21.66 23.08 18.65 3.75-8-36.46-29.45zM3705.15 767.51L3700.33 803a141.57 141.57 0 00-41.42 22.56l-32.39-15.18-29.45 36.46 12 15.81 27-33.47 32.39 15.18A141.63 141.63 0 013710 821.75l4.82-35.44 43.88-4.66-6.91-19.09zM3605.38 920.5l-33.63 12.16 4.95 46.6 7.74 1-3.07-28.85L3615 939.3a141.63 141.63 0 0113.34-45.25L3617 879.16A141.44 141.44 0 003605.38 920.5zM3619.52 1057.9l13.38 10.8 11.43-24.39a141.49 141.49 0 01-10.78-16.34zM3882.88 891.34a141.43 141.43 0 018.21 18.6l27.7 3.77L3916.9 896z" class="color99b1da svgShape"/></g><path fill="#d1dbed" d="M3761.88,891.68c-42.77-12.24-77.45,30.25-57.22,69.54a44.76,44.76,0,0,0,27.07,22.32c42.78,12.24,77.44-30.24,57.22-69.53A44.78,44.78,0,0,0,3761.88,891.68Z" class="colord1dbed svgShape"/><path fill="#99b1da" d="M3751.17,889.71A48.15,48.15,0,0,0,3700.89,952a45.6,45.6,0,0,0,4.17,9.35,48.06,48.06,0,0,1,52.34-47.1c15.64,1.28,29.71,10.76,37.37,24.2a49.49,49.49,0,0,0-2.05-15.14A48.15,48.15,0,0,0,3751.17,889.71Z" opacity=".47" class="color99b1da svgShape"/><circle cx="1053.29" cy="868.33" r="155.77" fill="#ef7c59" class="coloref7c59 svgShape"/><path d="M1121.9,852.58a25.44,25.44,0,0,0-16.27,6l-68.79-39.72a26.19,26.19,0,0,0,.43-4.28,25.92,25.92,0,1,0-9.37,19.67l68.79,39.72a21.52,21.52,0,0,0,0,8.56l-68.79,39.72a25.54,25.54,0,1,0,9.37,19.66,26.31,26.31,0,0,0-.43-4.28l68.79-39.71a25.59,25.59,0,1,0,16.27-45.31Z" opacity=".3" fill="#000000" class="color000 svgShape"/><path fill="#ffffff" d="M1121.9,842.69a25.44,25.44,0,0,0-16.27,6L1036.84,809a26.31,26.31,0,0,0,.43-4.28,25.94,25.94,0,1,0-9.37,19.66l68.79,39.72a21.52,21.52,0,0,0,0,8.56l-68.79,39.72a25.39,25.39,0,0,0-16.27-6A25.64,25.64,0,1,0,1037.27,932a26.19,26.19,0,0,0-.43-4.28L1105.63,888a25.59,25.59,0,1,0,16.27-45.31Z" class="colorfff svgShape"/><rect width="678.76" height="438.99" x="1780.23" y="375.43" fill="#d1dbed" rx="29.3" class="colord1dbed svgShape"/><path fill="#3d5891" d="M2429.69,375.43H1809.53a29.3,29.3,0,0,0-29.3,29.3V435H2459V404.73A29.29,29.29,0,0,0,2429.69,375.43Z" class="color3d5891 svgShape"/><path fill="#2f4171" d="M2341.61,388.53a16.71,16.71,0,1,0,16.7,16.71A16.71,16.71,0,0,0,2341.61,388.53Z" class="color2f4171 svgShape"/><path fill="#99b1da" d="M2385.18,388.53a16.71,16.71,0,1,0,16.71,16.71A16.71,16.71,0,0,0,2385.18,388.53Z" class="color99b1da svgShape"/><path fill="#ffffff" d="M2429.87,388.53a16.71,16.71,0,1,0,16.7,16.71A16.71,16.71,0,0,0,2429.87,388.53Z" class="colorfff svgShape"/><rect width="197.8" height="21.94" x="2012.47" y="523.87" fill="#99b1da" class="color99b1da svgShape"/><rect width="151.08" height="21.94" x="1835.52" y="523.87" fill="#ffffff" class="colorfff svgShape"/><rect width="339.15" height="21.94" x="2050.07" y="562.44" fill="#5681bf" class="color5681bf svgShape"/><rect width="339.15" height="21.94" x="1957.82" y="471.93" fill="#5681bf" class="color5681bf svgShape"/><rect width="82.43" height="21.94" x="1941.04" y="562.44" fill="#99b1da" class="color99b1da svgShape"/><rect width="79.65" height="21.94" x="1835.52" y="562.44" fill="#ffffff" class="colorfff svgShape"/><rect width="96.95" height="21.94" x="1835.52" y="471.93" fill="#ffffff" class="colorfff svgShape"/><rect width="178.94" height="21.94" x="2210.28" y="601.02" fill="#5681bf" class="color5681bf svgShape"/><rect width="242.64" height="21.94" x="1941.04" y="601.02" fill="#99b1da" class="color99b1da svgShape"/><rect width="109.85" height="21.94" x="2210.28" y="639.59" fill="#99b1da" class="color99b1da svgShape"/><rect width="348.88" height="21.94" x="1835.52" y="639.59" fill="#ffffff" class="colorfff svgShape"/><rect width="152.35" height="21.94" x="2236.87" y="678.16" fill="#5681bf" class="color5681bf svgShape"/><rect width="269.23" height="21.94" x="1941.04" y="678.16" fill="#99b1da" class="color99b1da svgShape"/><rect width="79.65" height="21.94" x="1835.52" y="678.16" fill="#ffffff" class="colorfff svgShape"/><rect width="255.12" height="21.94" x="2134.1" y="716.74" fill="#5681bf" class="color5681bf svgShape"/><rect width="95.04" height="21.94" x="2012.47" y="716.74" fill="#99b1da" class="color99b1da svgShape"/><rect width="151.08" height="21.94" x="1835.52" y="716.74" fill="#ffffff" class="colorfff svgShape"/><rect width="336.58" height="21.94" x="1941.04" y="755.31" fill="#99b1da" class="color99b1da svgShape"/><rect width="79.65" height="21.94" x="1835.52" y="755.31" fill="#ffffff" class="colorfff svgShape"/><path fill="#f5b0a6" d="M2390,1239.25c-.12-4.63-.33-8.45-.63-10.86,0-.05,0-.09,0-.14a28.61,28.61,0,0,0-2.28-5.75c-2.37-3-12.42,1.92-12.42,1.92s.58-15.42-5.13-18.4-12.4.4-12.4.4-1.38-9.37-5.74-9.68-16.09-1.92-16.09-1.92,4.92-18.46,6.92-21.15,50.72-35.8,42.29-44.13c-4.58-4.52-51.82,18.73-57.15,24.79s-36.26,46.1-36.26,46.1l-21.07,1.36a12.06,12.06,0,0,0-10.34,7.28c-10.88,25.59-19.32,85.12-19.32,85.12-11.06,12-32.39,32.82-58.42,57.19,12.09,23.51,31.21,63.5,49.57,101.84,46.16-55.15,78.55-96.1,78.55-96.1s40.43-21.34,57-51.58l6.92-21.15s.21.3.57.77l0,0c1.75,2.27,6.88,8.58,10.4,9.06a2.46,2.46,0,0,0,1.45-.22c1.35-.68,2.33-8.37,2.92-18.36.69-11.45.89-25.94.63-36.38Z" class="colorf5b0a6 svgShape"/><path fill="#f18a8b" d="M2333.72,1210.59a9.07,9.07,0,0,1,.14,1l1.09.22Z" class="colorf18a8b svgShape"/><path fill="#f18a8b" d="M2335.89,1208.42a271.33,271.33,0,0,0-52.84-6q-7.5-.12-15,.19c-2.26.1-2.28,3.63,0,3.54a266.15,266.15,0,0,1,52.15,2.95c4.58.72,9.13,1.57,13.67,2.52a9.07,9.07,0,0,0-.14-1l1.23,1.23-1.09-.22c.31,4.2-3,8-6.5,9.89-4.71,2.58-10.42,2.67-15.63,3.22-2.35.25-5.19.39-6.58,2.63s-1.09,5.35-1.11,7.8c0,5.34.54,10.66.65,16,.13,5.82-.33,11.74-3.05,17-1,2,2,3.81,3.05,1.79,5.2-10,3.19-21.4,2.91-32.19,0-1.29,0-2.59,0-3.88a16.35,16.35,0,0,1,.33-4.08c.33-1.07,1.27-1.21,2.27-1.36,1.46-.22,2.95-.31,4.41-.45,5.4-.52,11.23-1.08,15.84-4.22s7.91-8.39,6.68-14.09A1.7,1.7,0,0,0,2335.89,1208.42Z" class="colorf18a8b svgShape"/><path fill="#f18a8b" d="M2350.55 1203.75q.09 26.32-1.82 52.61-.46 6.53-1.07 13.05c-.15 1.6-.11 3.45-.81 4.94-.59 1.25-1.16.65-1.74-.33a115.84 115.84 0 01-9.6-22 140.22 140.22 0 01-6.13-26.37 1.82 1.82 0 00-1.76-1.77 1.78 1.78 0 00-1.77 1.77 141 141 0 0016 49.7c.85 1.54 2 3 3.88 3.28a4.1 4.1 0 004-2.11 11 11 0 001.3-4.9q.34-3.57.64-7.14 1.22-14.16 1.82-28.37.7-16.17.64-32.37A1.77 1.77 0 002350.55 1203.75zM2369.14 1291.48c-.81-.58-1.59-1.21-2.35-1.84-.11 1.12-.21 2.24-.31 3.36z" class="colorf18a8b svgShape"/><path fill="#f18a8b" d="M2372.86,1222.37q-2.47,27.48-5,55l-1.11,12.31c.76.63,1.54,1.26,2.35,1.84l-2.66,1.52c.1-1.12.2-2.24.31-3.36a44.08,44.08,0,0,1-15.58-30.28c-.17-2.26-3.7-2.27-3.54,0a47.81,47.81,0,0,0,19.69,35.17c1.19.85,2.54-.33,2.65-1.53q2.49-27.48,5-55l1.41-15.67C2376.6,1220.1,2373.07,1220.12,2372.86,1222.37Z" class="colorf18a8b svgShape"/><path fill="#f18a8b" d="M2389 1221c-1.95-2.49-6.16-3.36-8.41-.78-1.49 1.71 1 4.21 2.5 2.5a1.74 1.74 0 012.21-.28 4 4 0 011.89 2.91c.71 2.94.57 6.21.74 9.22.39 6.7.71 13.41.74 20.13a167.11 167.11 0 01-1 20q-.57 5-1.59 9.95c-.33 1.62-.71 3.22-1.12 4.81a9.31 9.31 0 01-1.31 3.64c-.79 1-1.86-.92-2.36-1.5-1.14-1.35-2.22-2.76-3.23-4.21a63.31 63.31 0 01-5.33-9.19c-1-2.06-4-.27-3.05 1.78a64.31 64.31 0 005.58 9.56q1.6 2.26 3.39 4.39c1 1.22 2.11 2.64 3.76 3 3.42.77 5-3 5.72-5.62a107 107 0 002.39-11.49c2.4-15.69 1.75-31.6.8-47.38C2391.14 1228.67 2391.47 1224.07 2389 1221zM2349.87 1269.34c.66 2.4-2.63 5.35-5.42 4.58-3.18-.88-5-4.2-6.3-7.22a231.65 231.65 0 01-13.36-39.2c-.32-1.33-.75-2.82-1.95-3.47a4.59 4.59 0 00-2.21-.37 26.63 26.63 0 00-16.47 6.15l.91.5 1.68 32.63c.43 8.39.9 16.94 3.9 24.79s9 15 17.11 17.21c11.09 3 22.57-4 30.14-12.58a6.38 6.38 0 001.91-3.56 6.67 6.67 0 00-1.15-3.53zM2349.87 1269.34a2.61 2.61 0 00-.56-1z" class="colorf18a8b svgShape"/><path d="M1717.53,583.16c-46.39-91-168.64-53.88-168.64-53.88-125-26.43-185.65,36.6-204.58,74-31.2,61.64-32.87,159.49-23.37,228.81,3.79,27.64,9.62,79.47,15.52,134.25h395.09c-9.72-45.28-20.55-96.07-29.07-136.89C1690.26,771,1750.71,648.26,1717.53,583.16Z" fill="#000000" class="color000 svgShape"/><path d="M1392.78,465.92c-139.32-27.2-150.06,140.2-46.39,173.94,17.12,5.58,34,2.16,48.71-4.47,31.79-14.4,53.15-44.83,58.27-79.36C1458.51,521.26,1452.14,477.51,1392.78,465.92Z" fill="#000000" class="color000 svgShape"/><path fill="#6fc183" d="M1989,1400.35c-21.37-1.94-154.7-267.28-154.7-267.28l-157.76,203.76s136.12,400.48,239.28,347.65c253.93-130,382.6-269.57,382.6-269.57l-73.78-131.65S2010.4,1402.29,1989,1400.35Z" class="color6fc183 svgShape"/><path fill="#6fc183" d="M1830.59,1122.93c-15-34.89-77.49-68.77-131.42-92.42-45.27-19.84-84.44-32.48-84.44-32.48l-143-7.77S1218,1097.68,1203.1,1169.6c-9.15,44.27,19.17,138.28,78.21,268.42,44,96.91,59.77,265.61,51.61,412.67-1.69,30.53,279.54,59.17,359.28,57.62,143.82-2.8,206.47-86.3,206.47-86.3-14.07-55.57-66.51-257.22-70.58-304.25C1811.1,1321.86,1862.65,1197.62,1830.59,1122.93Z" class="color6fc183 svgShape"/><path fill="#40947e" d="M1823.31,1541.2a467.8,467.8,0,0,1-276.91,15.31c-5.41-1.36-7.69,7-2.3,8.34a476,476,0,0,0,281.51-15.31C1830.79,1547.61,1828.54,1539.26,1823.31,1541.2Z" class="color40947e svgShape"/><path fill="#2e6857" d="M1830.37 1207.71c-2.57 30.91-28.13 344.63-5.91 319.53 23.37-26.4 131.08-117.78 58.68-201.44C1830.88 1265.4 1829.79 1218.67 1830.37 1207.71zM1830.37 1207.71c.13-1.6.21-2.46.21-2.46S1830.46 1206.1 1830.37 1207.71z" class="color2e6857 svgShape"/><path fill="#40947e" d="M1836.57,1259.24c-17.81-35.58-24.75-75.36-21.24-114.89.49-5.6-8.25-5.57-8.75,0A221.72,221.72,0,0,0,1820.71,1245c13,33.11,36.11,56.8,54.94,86.17,48,74.79-36.53,146.06-49.75,217.82-1,5.5,7.41,7.86,8.43,2.32,12.62-68.49,88-132.64,58.28-206.67C1879.87,1312.91,1851.87,1289.8,1836.57,1259.24Z" class="color40947e svgShape"/><path fill="#f5b0a6" d="M1614,968.88l-14.33-59.52-10-41.67-132.43-66-17.46,229.36c44.09,21.09,230.18,132,187.37-7.67Z" class="colorf5b0a6 svgShape"/><path fill="#ffffff" d="M1337.87 1055.79s140 82.14 198.26 99.62c0 0-21.51-75.68 49.69-62.61l-146-92.32S1353.64 1013.35 1337.87 1055.79zM1618.1 985.77c8.73 36.25 19.75 67.9 9.49 95.22 74.2-14.5 79.46 52.08 79.46 52.08 5.83-49.54-7.88-102.56-7.88-102.56C1687.41 994.49 1618.1 985.77 1618.1 985.77z" class="colorfff svgShape"/><path fill="#6fc183" d="M1367.36,1583.1c-20.62-9.61,56.72-295.47,56.72-295.47s-100.38-178.49-222.67-111.09c0,0-109.32,468.81-64.51,610.14,73.75,232.56,646.26-244,650.63-290.46l-69-47.07S1388,1592.71,1367.36,1583.1Z" class="color6fc183 svgShape"/><path fill="#40947e" d="M1134.9 1732.75c-5.5-1-7.86 7.4-2.33 8.44 52 9.75 89.68 52.27 92.26 105.29.28 5.6 9 5.63 8.75 0C1230.82 1789.82 1190.8 1743.24 1134.9 1732.75zM1365 1579.77A199.18 199.18 0 001295.3 1629c-3.79 4.14 2.37 10.34 6.18 6.18a193.55 193.55 0 0168-47.9C1374.6 1585.14 1370.15 1577.61 1365 1579.77z" class="color40947e svgShape"/><path fill="#40947e" d="M1348.46 1589a279.87 279.87 0 00-57.87-22.83c-5.44-1.47-7.76 7-2.33 8.44a268.41 268.41 0 0155.79 21.94C1349 1599.15 1353.44 1591.61 1348.46 1589zM1711.8 1447.3c-121 54.38-318.11 137.61-340.38 133.54-2.1-21.43 25.28-185.13 44.66-292.44a4.37 4.37 0 00-8.61-1.55c-5.08 28.14-49.48 275.52-44.36 297.25a6.46 6.46 0 003.57 4.34 11 11 0 005.72 1.21c11.68 0 47.48-8.61 179-63.43 82.46-34.36 163.14-70.58 164-70.94a4.38 4.38 0 00-3.59-8zm-340.18 134.79h0zM1286.78 1121.65c-5.63-.11-5.63 8.63 0 8.74 54.27 1.06 107 43.35 115 97.82.81 5.55 9.24 3.19 8.43-2.32C1401.66 1167.6 1344.57 1122.77 1286.78 1121.65z" class="color40947e svgShape"/><path fill="#f5b0a6" d="M1884.81,1313.76c-8.88-8.21-48.88-.19-48.88-.19s42-16.79,65.52-23.22,27.66-31.77,14.64-26.59-144,21.65-154.34,34.31-43.2,151.08-43.2,151.08,50.55,55.67,69,47.07,37.18-49.61,55.55-54.12c19-4.66,30.57-12.1,30.57-12.1s-7.42,34.15,3.37,29.91,48.79-10.47,54-43.3S1893.69,1322,1884.81,1313.76Z" class="colorf5b0a6 svgShape"/><path fill="#f18a8b" d="M1834.84 1310.51a127 127 0 00-32.74 6.41c-3.73 1.28-2 7.16 1.75 5.88a121.36 121.36 0 0131.17-6.16C1839 1316.36 1838.78 1310.23 1834.84 1310.51zM1897.74 1330.57c-21.55-8.11-42.1.68-61.64 10.17-3.55 1.73-.27 6.92 3.25 5.21 17.2-8.36 36.32-17.18 55.53-10C1898.53 1337.38 1901.44 1332 1897.74 1330.57zM1914.17 1360.51a60.68 60.68 0 00-57.62 4.93c-3.3 2.16-.06 7.37 3.25 5.21a54.32 54.32 0 0151.51-4.71C1914.92 1367.47 1917.81 1362.06 1914.17 1360.51zM1887.67 1398a43.33 43.33 0 01-16.91 30.41c-3.11 2.37.11 7.6 3.26 5.21a49.26 49.26 0 0019.63-34.24C1894.07 1395.46 1888.09 1394 1887.67 1398z" class="colorf18a8b svgShape"/><path fill="#f18a8b" d="M1886,1411.68c-3.5,1.83-.23,7,3.25,5.21a16.5,16.5,0,0,1,18.46,2.35c3,2.61,7.12-1.89,4.15-4.52A22.84,22.84,0,0,0,1886,1411.68Z" class="colorf18a8b svgShape"/><path fill="#40947e" d="M1779.76 1502.94c-1.75 2-176.81 201-396.84 297.21a4.37 4.37 0 003.5 8c221.87-97 398.17-297.46 399.93-299.48a4.37 4.37 0 10-6.59-5.74zM1737.1 1163.55a406.19 406.19 0 01-220.95 128.07c-5.5 1.15-3.17 9.58 2.33 8.44a414.22 414.22 0 00224.8-130.32C1747 1165.54 1740.85 1159.34 1737.1 1163.55z" class="color40947e svgShape"/><path fill="#f3ce90" d="M1099.47,2066h0a11,11,0,0,1-10.38-14.3,159.09,159.09,0,0,0,6.63-55.6c-4.53-79.91-69.5-145-149.4-149.53a159,159,0,0,0-162.7,116.7c-2,7.28-10.73,10.07-16.88,5.69A101.81,101.81,0,0,0,606,2052c0,2.74.14,5.44.39,8.11a5.46,5.46,0,0,1-5.46,5.94,72.17,72.17,0,0,0-72.17,72.17v17a72.17,72.17,0,0,0,72.17,72.17h498.59a72.17,72.17,0,0,0,72.17-72.17v-17A72.17,72.17,0,0,0,1099.47,2066Z" class="colorf3ce90 svgShape"/><path fill="#ef7c59" d="M1099.47,2203H600.88a72.11,72.11,0,0,1-72-68.5c-.06,1.22-.18,2.43-.18,3.67v17a72.17,72.17,0,0,0,72.17,72.17h498.59a72.17,72.17,0,0,0,72.17-72.17v-17c0-1.24-.13-2.45-.19-3.67A72.1,72.1,0,0,1,1099.47,2203Z" class="coloref7c59 svgShape"/><path fill="#93493a" d="M823.51,1699.83C730,1711.2,656.2,1784.1,642,1875.45a14.76,14.76,0,0,0,29.17,4.58c12.21-78.5,75.6-141.13,156-150.88A14.71,14.71,0,0,0,840,1714.51h0A14.75,14.75,0,0,0,823.51,1699.83Z" class="color93493a svgShape"/><path fill="#93493a" d="M822.88,1751.86a158.47,158.47,0,0,0-128.46,122.6,14.79,14.79,0,0,0,14.44,17.9h0a14.78,14.78,0,0,0,14.43-11.72A128.89,128.89,0,0,1,827.56,1781,14.81,14.81,0,0,0,840,1766.44h0A14.74,14.74,0,0,0,822.88,1751.86Z" class="color93493a svgShape"/><path fill="#93493a" d="M821.25,1807a104.83,104.83,0,0,0-70.72,65.75,14.73,14.73,0,0,0,14,19.58h0a14.89,14.89,0,0,0,14-10,75.21,75.21,0,0,1,50.85-46.92A14.65,14.65,0,0,0,840,1821.27v0A14.78,14.78,0,0,0,821.25,1807Z" class="color93493a svgShape"/><path fill="#ef7c59" d="M798.28,1992.71H838.8v117.35a48.74,48.74,0,0,1,8.51-4.64c16.91-7.13,35.65-4.1,49.83,6.35a30.58,30.58,0,0,1,13.53-11.17c16.13-6.8,35,1.31,42.05,18.12.21.5.41,1,.59,1.5a41.22,41.22,0,0,1,10-5.95,42,42,0,0,1,31.11-.57v-121h40.52L916.59,1877.17Z" class="coloref7c59 svgShape"/><path fill="#f5b0a6" d="M1451.33,976.81c0,29.7,34.55,53.61,77.21,53.61s77.21-23.91,77.21-53.61V839.32L1452.47,827Z" class="colorf5b0a6 svgShape"/><path fill="#2a2a2a" d="M1605.75,916.1V841.55l-103.51,8C1506.39,851.5,1516.34,885.07,1605.75,916.1Z" class="color2a2a2a svgShape"/><path fill="#333333" d="M1588.12,518.81c5.43,12.59,20.9,57.12-8.32,101.53-24.89,37.84-73.45,61.39-126.74,61.47V687c55-.07,105.23-24.52,131.07-63.8,30.65-46.58,14.45-93.25,8.75-106.44Z" class="color333 svgShape"/><path fill="#f5b0a6" d="M1685.1,650.24c-14.2-90.7-74-149.22-172.9-133.73s-124,95.58-109.83,186.28c1.21,7.74,61.24,80.61,63.53,87.89,0,0,4.24,145.5,152.17,123.85,7.1-1,14.18-2.52,19-7.49,86-88,50.48-188.62,50.41-189.24C1687,713.05,1685.1,650.24,1685.1,650.24Z" class="colorf5b0a6 svgShape"/><path fill="#f5b0a6" d="M1453.58,738.34,1450.88,960l127-11.19a29,29,0,0,1-.1-3.09l3.84-204.93Z" class="colorf5b0a6 svgShape"/><path d="M1578.69,515.09c-68.86-12.63-169.78-2.57-193.83,124.47s77.28,133.92,77.28,133.92c26.19-8.84-2.59-101.07-2.59-101.07,52-14.13,173.29-23.08,173.29-23.08l2-63c15.7,20.43,23.65,66.13,23.65,66.13l57.13-1.62C1716.65,581.42,1647.56,527.73,1578.69,515.09Z" fill="#000000" class="color000 svgShape"/><path fill="#333333" d="M1524.68 681.16c-10.55 6.19-6.82 13.34-5.28 15.71.9 1.38 4.82-.75 14.54-3.2 20.73-5.23 29.64-2.31 33.49-8.73 2.28-3.79 2-9.46-.71-12.24C1560 665.7 1526.07 680.35 1524.68 681.16zM1670.23 674.09c-1.23-.48-28.76-8.69-33.34-2.13-1.82 2.61-1.34 7.26 1 10 4 4.72 10.82 1.2 28.35 2.77 8.23.74 11.69 2 12.24.72C1679.43 683.37 1679.61 677.76 1670.23 674.09z" class="color333 svgShape"/><path fill="#f18a8b" d="M1496,851.48s60.68,129.14,122.07,138.78l-12.35-74.16S1531.44,908.5,1496,851.48Z" class="colorf18a8b svgShape"/><path fill="#2b2b2b" d="M1624.81,737.34l-3.66,3.83c9.61,9.17,13.93,17.46,12.49,24-1.82,8.23-12.2,11.85-12.3,11.88l1.69,5c.54-.18,13.29-4.57,15.78-15.73C1640.71,757.77,1636,748,1624.81,737.34Z" class="color2b2b2b svgShape"/><path fill="#f5b0a6" d="M1429.85,721.13c-26.47,5.27-43.19,33.29-37.36,62.59s32,48.77,58.48,43.51,43.19-33.3,37.36-62.59S1456.31,715.86,1429.85,721.13Z" class="colorf5b0a6 svgShape"/><path fill="#2b2b2b" d="M1442,752.33c-10.51-4.75-20.49-.22-20.91,0l2.22,4.81c.08,0,8.29-3.69,16.57.08,6.15,2.8,10.92,9,14.2,18.32-6.35.77-19.6,3.41-24,12.24l4.76,2.34c3.57-7.23,17.7-9.38,22.84-9.59l3.4-.15-1-3.25C1456.37,764.42,1450.26,756.09,1442,752.33Z" class="color2b2b2b svgShape"/><path fill="#f18a8b" d="M1468.79 743.14s-2.87 24.54-.9 47.68c0 0 1.12 37.14 21.26 71.1a61.34 61.34 0 00-20.36-118.78zM1661.2 790.25a61.22 61.22 0 0021.08 47.43 192 192 0 0010-99.56A61.27 61.27 0 001661.2 790.25z" class="colorf18a8b svgShape"/><path fill="#2b2b2b" d="M1546.54 715.56c-3.79.66-5.92 6.46-4.78 13s5.14 11.2 8.92 10.54 5.91-6.47 4.77-13S1550.31 714.89 1546.54 715.56zM1656 711c-3.45.61-5.4 5.89-4.35 11.81s4.68 10.21 8.12 9.6 5.39-5.89 4.35-11.8S1659.45 710.39 1656 711z" class="color2b2b2b svgShape"/><path fill="#545454" d="M1500.73,548.36c-.56-3.16,22.93-15.61,57.94-22.41,3.63-.71-40.35-3.72-80.64,11.86-51.57,19.94-81.56,64.63-78.51,68.3,2.35,2.82,27-15.4,31.09-10.6,2.82,3.3-6.72,14.4-4.57,16.42,3.87,3.64,38.22-29.4,43.6-24.75,2.37,2.05-3.07,9.5-.75,11.71,4.38,4.15,26.89-19.19,59.79-35.63,30.07-15,54-16.91,53.62-19.23C1581.52,539.76,1501.37,552,1500.73,548.36Z" opacity=".35" class="color545454 svgShape"/><path fill="#393939" d="M1626.4,818.59a10.5,10.5,0,0,0-3.05-1,36.69,36.69,0,0,0-6,0,84.33,84.33,0,0,1-32.16-4.2,30.92,30.92,0,0,0-10.4-2.1c-3.18,0-5.8,1-7.53,3.28-3.55,4.71-2.75,11.13-.11,16.47a26.22,26.22,0,0,0,2.61,4.12c6.55,8.64,18.32,14.38,30,14.18a34.83,34.83,0,0,0,14.53-3.43c7.07-3.49,12.68-9.18,15-16C1630.57,826.06,1630.43,820.92,1626.4,818.59Z" class="color393939 svgShape"/><path fill="#ffffff" d="M1617.33,817.62a84.33,84.33,0,0,1-32.16-4.2,30.92,30.92,0,0,0-10.4-2.1c-.24,2.74,0,5.53,1.55,7.66,1.67,2.38,4.46,3.6,7.2,4.48a70.79,70.79,0,0,0,30.87,3.49c2.47-.28,5.12-.79,6.87-2.54s2.12-4.3,2.09-6.82A36.69,36.69,0,0,0,1617.33,817.62Z" class="colorfff svgShape"/><path fill="#f19a6d" d="M1597.92,834.47c-9.17-2.85-19.4-2.89-28.18.72,6.55,8.64,18.32,14.38,30,14.18a34.83,34.83,0,0,0,14.53-3.43C1610.9,840.27,1604.44,836.44,1597.92,834.47Z" class="colorf19a6d svgShape"/><path fill="#ffffff" d="M1426,805.35c.52,8.35,6.34,12.93,13.4,15.77A44.62,44.62,0,1,1,1376.54,865c-1.63-22.59,14.69-42.66,36.32-47.07-3-3.4-6.38-6.64-9.64-9.83-23.78,8.12-40.62,31.55-38.74,57.77A56.71,56.71,0,1,0,1426,805.35Z" class="colorfff svgShape"/><path fill="#b5cae8" d="M3196.43,1616.05c.17,1,17,105.65,10.81,222.7-5.65,107.32-32.29,247.41-127.11,305.25-89.56,54.63-185.89,82-288,82q-95.08,0-196.59-31.7l-2.67,8.52c29.14,9.12,97.37,30.46,185.45,32.22,3.92.08,7.82.11,11.73.11,104.72,0,203.82-28.07,294.72-83.53,43.51-26.54,76.88-71.48,99.19-133.58,17.72-49.31,28.55-109.52,32.2-179,6.19-118-10.75-223.41-10.92-224.46Z" class="colorb5cae8 svgShape"/><path fill="#ffffff" d="M3214.52,1733c.17.83,17,84,14,181.84-2.74,89.79-23.15,210.74-104.87,277-99.83,81-230.49,98.47-324.72,98.46l-6.16,0c-106.17-.86-193.56-23.82-207.49-33.43l-5.07,7.35c16.57,11.44,106.59,34.15,212.49,35l6.22,0c95.7,0,228.51-17.85,330.35-100.46,37.36-30.3,65.53-73.87,83.72-129.49,14.47-44.24,22.7-96.17,24.46-154.37,3-98.88-14-182.9-14.17-183.74Z" class="colorfff svgShape"/></g></svg>