<svg xmlns="http://www.w3.org/2000/svg" viewBox="0 0 4680 3120"><g data-name="9" fill="#000000" class="color000 svgShape"><rect width="4680" height="3120" fill="#ffffff" data-name="9" opacity="0" class="colorfff svgShape"/><path fill="#f5f5f7" d="M3800.75,1367.25c208.63-443.78-31.25-1082.65-589.53-870.2-651.44,247.9-955.6,44.79-1123.91-35.76-354.22-169.51-983.68-178.85-1151.66,390-197.13,667.56,406.87,788.45,96.2,890.92-443.73,146.34-407.62,472.24-72.43,847.86l2887.21-4.6s267-178.26,110.55-462.63S3592.11,1811,3800.75,1367.25Z" class="colorf5f5f7 svgShape"/><ellipse cx="2285.79" cy="2576.23" fill="#7a8db0" rx="1473.16" ry="183.77" class="color7a8db0 svgShape"/><path fill="#6fc183" d="M777.8,1685.07c-89.64,53.68-37.93,328.91,64.52,513.59,84.64,152.58,256.39,338,352.1,298,91-38.05,97.22-273.18,31.53-444.27C1133.53,1811.67,872.2,1628.54,777.8,1685.07Z" class="color6fc183 svgShape"/><path fill="#2e6857" d="M945.27,1915.43c-11.85-19.8-24.55-40.18-38.85-62.31-37.8-58.69-78.64-116.65-121.36-172.26l-4.57,3.51c42.64,55.48,83.38,113.31,121.1,171.87,14.26,22.08,26.93,42.4,38.75,62.15,25.48,42.19,50.5,86.55,74.36,131.88A2503.19,2503.19,0,0,1,1196.34,2495l5.51-1.66a2509.21,2509.21,0,0,0-182-445.75C995.88,2002.16,970.8,1957.69,945.27,1915.43Z" class="color2e6857 svgShape"/><polygon fill="#2e6857" points="729.5 1848.92 903.83 1857.52 904.12 1851.77 729.8 1843.17 729.5 1848.92" class="color2e6857 svgShape"/><polygon fill="#2e6857" points="739.06 1903.71 942.7 1919.92 943.14 1914.19 739.51 1897.98 739.06 1903.71" class="color2e6857 svgShape"/><polygon fill="#2e6857" points="1000.26 2003.35 1005.08 2006.51 1100.64 1860.47 1095.82 1857.31 1000.26 2003.35" class="color2e6857 svgShape"/><polygon fill="#2e6857" points="1022.81 2064.03 1027.53 2067.32 1144.48 1899.83 1139.76 1896.54 1022.81 2064.03" class="color2e6857 svgShape"/><path fill="#40947e" d="M904.48,2235.72c-143.65-78.3-345.27-59.33-367.65,6.83-21.24,62.81,116.95,174.55,242.43,221.67,103.66,38.93,262.92,57.88,292.71-.82C1100.3,2407.58,1006.6,2291.38,904.48,2235.72Z" class="color40947e svgShape"/><path fill="#2e6857" d="M712.86,2284c-13.65-4.63-28.18-9.26-44.44-14.15-42.39-12.81-86-24-129.59-33.35l-1.21,5.62c43.45,9.3,86.91,20.48,129.14,33.24,16.2,4.87,30.68,9.48,44.27,14.1,29.59,9.89,59.92,21,90.12,33.12a1585.54,1585.54,0,0,1,270.51,140.13l3.13-4.83a1592.11,1592.11,0,0,0-271.5-140.65C773,2305.1,742.55,2293.92,712.86,2284Z" class="color2e6857 svgShape"/><rect width="110.77" height="5.76" x="568.28" y="2303.5" fill="#2e6857" transform="rotate(-37.54 623.662 2306.365)" class="color2e6857 svgShape"/><polygon fill="#2e6857" points="605.29 2360.34 608.66 2364.99 713.74 2289.06 710.36 2284.41 605.29 2360.34" class="color2e6857 svgShape"/><polygon fill="#2e6857" points="773.89 2193.95 809.58 2319.07 815.95 2317.01 780.26 2191.89 773.89 2193.95" class="color2e6857 svgShape"/><polygon fill="#2e6857" points="815.73 2202.42 850.74 2340.16 856.71 2338.42 821.71 2200.67 815.73 2202.42" class="color2e6857 svgShape"/><path fill="#737373" d="M1330.28,1915.37c-49.23-26.66-139.1,125.47-146.85,296.29-5.5,121.43,29.37,277.12,74.58,291.88,47.55,15.53,97.73-127.72,114.09-239C1391.9,2129.77,1377,1940.69,1330.28,1915.37Z" class="color737373 svgShape"/><path fill="#bbbbbb" d="M1295.16,2042.27c-3.29,16.47-6.09,31.5-8.57,46-5.44,31-10.39,63.47-14.73,96.58a2348.21,2348.21,0,0,0-19.11,317.67l5.74,0a2341.54,2341.54,0,0,1,19.09-316.89c4.31-33,9.25-65.43,14.68-96.34,2.47-14.41,5.26-29.4,8.54-45.82,8.56-43.3,18.58-86.48,29.74-128.33l-5.56-1.49C1313.79,1955.55,1303.74,1998.85,1295.16,2042.27Z" class="colorbbb svgShape"/><rect width="79.79" height="5.74" x="1295.82" y="2026.97" fill="#bbbbbb" transform="rotate(-19.02 1335.724 2029.849)" class="colorbbb svgShape"/><polygon fill="#bbbbbb" points="1288.33 2086.17 1290.44 2091.51 1377.76 2057.13 1375.64 2051.77 1288.33 2086.17" class="colorbbb svgShape"/><polygon fill="#bbbbbb" points="1198.08 2098.15 1272.18 2182.39 1277 2177.49 1202.89 2093.26 1198.08 2098.15" class="colorbbb svgShape"/><polygon fill="#bbbbbb" points="1191.24 2138.09 1266.11 2231.67 1270.32 2227.7 1195.47 2134.1 1191.24 2138.09" class="colorbbb svgShape"/><path fill="#737373" d="M954.79,2264.82a408.4,408.4,0,0,0-104.35-56.31l-2,5.42A402.34,402.34,0,0,1,1064,2399.05l5-2.79A409.36,409.36,0,0,0,954.79,2264.82Z" class="color737373 svgShape"/><path fill="#6fc183" d="M3907,1772.17c-79.16-75.07-371.54,45.8-512.88,258.77-100.47,151.4-145.14,380.28-65.29,436.73,84,59.36,290.17-83,405-212.41C3872.76,2098.63,3982.15,1843.45,3907,1772.17Z" class="color6fc183 svgShape"/><path fill="#2e6857" d="M3746.27,1907.05c-18.6,18.33-35.29,35.32-51,51.93-33.81,35.38-67.67,73-100.62,111.82a2487.16,2487.16,0,0,0-272.29,392.1l5,2.79A2481.57,2481.57,0,0,1,3599,2074.48c32.86-38.71,66.64-76.25,100.4-111.58,15.69-16.56,32.33-33.5,50.9-51.78,49.13-48.54,101-95.71,154.25-140.21l-3.66-4.38C3847.53,1811.13,3795.51,1858.41,3746.27,1907.05Z" class="color2e6857 svgShape"/><polygon fill="#2e6857" points="3747.84 1911.87 3918.39 1941.14 3919.34 1935.51 3748.8 1906.24 3747.84 1911.87" class="color2e6857 svgShape"/><polygon fill="#2e6857" points="3696.77 1963.87 3897.32 1992.1 3898.12 1986.46 3697.57 1958.23 3696.77 1963.87" class="color2e6857 svgShape"/><polygon fill="#2e6857" points="3556.74 1872.28 3617.73 2034.22 3623.07 2032.2 3562.08 1870.26 3556.74 1872.28" class="color2e6857 svgShape"/><polygon fill="#2e6857" points="3505.83 1900.92 3582.89 2088.22 3588.16 2086.06 3511.1 1898.76 3505.83 1900.92" class="color2e6857 svgShape"/><path fill="#40947e" d="M3665.65,2277.72c-110.83,31.84-226.56,124.08-211.18,184.21,16.17,63.23,174.37,79.23,283.08,63.91C3869.14,2507.31,4027,2429,4020,2363.61,4012.57,2294.77,3821.55,2232.92,3665.65,2277.72Z" class="color40947e svgShape"/><path fill="#2e6857" d="M3886.72,2361.65c-16.78,1.23-31.84,2.58-46,4.12-30.87,3.19-62.73,7.45-94.68,12.65A1579.21,1579.21,0,0,0,3452.93,2456l2,5.35a1572.37,1572.37,0,0,1,292-77.27c31.83-5.19,63.58-9.43,94.36-12.62,14.15-1.54,29.15-2.88,45.87-4.1,43.62-3.24,88.09-4.69,132.15-4.31l0-5.7C3975.12,2356.94,3930.51,2358.4,3886.72,2361.65Z" class="color2e6857 svgShape"/><rect width="5.71" height="109.82" x="3919.31" y="2351.74" fill="#2e6857" transform="rotate(-39.86 3922.594 2406.736)" class="color2e6857 svgShape"/><polygon fill="#2e6857" points="3838.73 2370.47 3924.04 2466.61 3928.31 2462.84 3843 2366.7 3838.73 2370.47" class="color2e6857 svgShape"/><polygon fill="#bbbbbb" points="3733.79 2375.47 3739.51 2378.84 3801.03 2265.46 3795.31 2262.09 3733.79 2375.47" class="colorbbb svgShape"/><polygon fill="#2e6857" points="3689.72 2387.4 3695.14 2390.38 3758.72 2264.63 3753.3 2261.65 3689.72 2387.4" class="color2e6857 svgShape"/><path fill="#40947e" d="M3275.81,1877.6c-48.61,20.37-81.91,205.45-75.64,340.32,5.18,111.43,40.58,257.69,89,247.06,46.06-10.12,95.79-160.28,102.32-280.62C3400.68,2015.08,3327,1856.15,3275.81,1877.6Z" class="color40947e svgShape"/><path fill="#bbbbbb" d="M3301.89,2052.43c-1-14.5-2.31-29.61-3.93-46.18-4.19-43.68-9.84-87.39-16.75-129.9l-5.63.92c6.89,42.39,12.52,86,16.71,129.53,1.62,16.52,2.89,31.59,3.91,46,2.31,31,4,63.49,5,96.49a2320.13,2320.13,0,0,1-12.37,314.5l5.66.61a2328.39,2328.39,0,0,0,12.43-315.28C3305.89,2116.08,3304.2,2083.53,3301.89,2052.43Z" class="colorbbb svgShape"/><rect width="5.7" height="79.11" x="3256.33" y="1950.44" fill="#bbbbbb" transform="rotate(-65.33 3259.222 1989.994)" class="colorbbb svgShape"/><polygon fill="#bbbbbb" points="3215.01 2012.77 3297.77 2055.3 3300.38 2050.23 3217.63 2007.69 3215.01 2012.77" class="colorbbb svgShape"/><polygon fill="#bbbbbb" points="3302.56 2141.45 3306.83 2146.75 3388.24 2070.94 3383.97 2065.64 3302.56 2141.45" class="colorbbb svgShape"/><polygon fill="#bbbbbb" points="3304.2 2191.63 3307.97 2195.97 3391.04 2111.01 3387.26 2106.66 3304.2 2191.63" class="colorbbb svgShape"/><path fill="#737373" d="M3610.69,2295A406,406,0,0,0,3471.8,2397.6l4.27,3.78a399,399,0,0,1,248.48-132.67l-.74-5.67A404.91,404.91,0,0,0,3610.69,2295Z" class="color737373 svgShape"/><path fill="#2f4171" d="M1158.59,554.72V2535.85H2396.65v-2029H1206.46A47.88,47.88,0,0,0,1158.59,554.72Z" class="color2f4171 svgShape"/><path fill="#3d5891" d="M2567.16,506.84H1424.85A47.88,47.88,0,0,0,1377,554.72V2535.85H2615V554.72A47.88,47.88,0,0,0,2567.16,506.84Z" class="color3d5891 svgShape"/><rect width="1084.46" height="700.35" x="1442.71" y="570.87" fill="#243354" class="color243354 svgShape"/><rect width="1087.03" height="304.47" x="1442.71" y="1585.6" fill="#243354" class="color243354 svgShape"/><rect width="1084.46" height="220.73" x="1442.71" y="1990.58" fill="#243354" class="color243354 svgShape"/><rect width="1084.46" height="224.14" x="1442.71" y="2234.7" fill="#243354" class="color243354 svgShape"/><rect width="1084.46" height="267.88" x="1442.71" y="1294.47" fill="#243354" class="color243354 svgShape"/><rect width="1007.19" height="182.42" x="1477.78" y="1339.49" fill="#5681bf" class="color5681bf svgShape"/><rect width="512.26" height="132.4" x="1509.04" y="1364.5" fill="#535353" opacity=".3" class="color535353 svgShape"/><rect width="11.81" height="132.4" x="2054.01" y="1364.5" fill="#243354" opacity=".3" class="color243354 svgShape"/><rect width="11.81" height="132.4" x="2103.54" y="1364.5" fill="#b5cae8" opacity=".5" class="colorb5cae8 svgShape"/><rect width="11.81" height="132.4" x="2153.06" y="1364.5" fill="#243354" opacity=".8" class="color243354 svgShape"/><rect width="11.81" height="132.4" x="2202.59" y="1364.5" fill="#3d5891" opacity=".3" class="color3d5891 svgShape"/><rect width="11.81" height="132.4" x="2252.11" y="1364.5" fill="#b5cae8" opacity=".5" class="colorb5cae8 svgShape"/><rect width="11.81" height="132.4" x="2301.64" y="1364.5" fill="#243354" opacity=".3" class="color243354 svgShape"/><rect width="11.81" height="132.4" x="2351.16" y="1364.5" fill="#b5cae8" class="colorb5cae8 svgShape"/><rect width="11.81" height="132.4" x="2400.69" y="1364.5" fill="#3d5891" opacity=".3" class="color3d5891 svgShape"/><g opacity=".5" fill="#000000" class="color000 svgShape"><rect width="53.79" height="49.85" x="1677.26" y="1643.46" fill="#99b1da" class="color99b1da svgShape"/><rect width="53.79" height="49.85" x="1753.51" y="1643.46" fill="#99b1da" class="color99b1da svgShape"/><rect width="53.79" height="49.85" x="1829.76" y="1643.46" fill="#99b1da" class="color99b1da svgShape"/><rect width="53.79" height="49.85" x="1915.52" y="1643.46" fill="#99b1da" class="color99b1da svgShape"/><rect width="53.79" height="49.85" x="1991.77" y="1643.46" fill="#99b1da" class="color99b1da svgShape"/><rect width="53.79" height="49.85" x="2068.02" y="1643.46" fill="#99b1da" class="color99b1da svgShape"/><rect width="53.79" height="49.85" x="2153.78" y="1643.46" fill="#99b1da" class="color99b1da svgShape"/><rect width="53.79" height="49.85" x="2230.03" y="1643.46" fill="#ffffff" class="colorfff svgShape"/><rect width="53.79" height="49.85" x="2230.03" y="1764.08" fill="#99b1da" class="color99b1da svgShape"/><rect width="53.79" height="49.85" x="2230.03" y="1643.46" fill="#99b1da" class="color99b1da svgShape"/><rect width="53.79" height="49.85" x="2305.97" y="1764.08" fill="#99b1da" class="color99b1da svgShape"/><rect width="53.79" height="49.85" x="2305.97" y="1643.46" fill="#99b1da" class="color99b1da svgShape"/></g><rect width="1030.96" height="168.03" x="1469.46" y="2016.93" fill="#b5cae8" rx="16.24" class="colorb5cae8 svgShape"/><rect width="1030.96" height="168.03" x="1469.46" y="2262.76" fill="#b5cae8" rx="16.24" class="colorb5cae8 svgShape"/><circle cx="1579.14" cy="2096.49" r="35.48" fill="#5681bf" class="color5681bf svgShape"/><circle cx="2408.57" cy="2096.49" r="35.48" fill="#535353" opacity=".3" class="color535353 svgShape"/><circle cx="1579.14" cy="2340.12" r="35.48" fill="#5681bf" class="color5681bf svgShape"/><circle cx="2408.57" cy="2340.12" r="35.48" fill="#535353" opacity=".3" class="color535353 svgShape"/><rect width="709.15" height="13.15" x="1639.28" y="2089.92" fill="#5681bf" opacity=".3" class="color5681bf svgShape"/><rect width="709.15" height="13.15" x="1639.28" y="2333.55" fill="#535353" opacity=".3" class="color535353 svgShape"/><path fill="#b5cae8" d="M1859.3,1664.73a4.52,4.52,0,0,0-6.29,1c-27.5,38-54.88,56.23-81.37,54.18-40.38-3.17-66.17-53.07-66.43-53.58a4.5,4.5,0,0,0-8,4.07c1.13,2.24,28.28,54.89,73.72,58.48,1.61.13,3.22.19,4.84.19,28.25,0,56.68-19.51,84.57-58.06A4.52,4.52,0,0,0,1859.3,1664.73Z" class="colorb5cae8 svgShape"/><path fill="#ffffff" d="M1931,1664.73a4.52,4.52,0,0,0-6.29,1c-27.23,37.65-54.37,55.71-80.56,53.65-40-3.13-65.52-52.55-65.77-53.05a4.5,4.5,0,0,0-8,4.07c1.12,2.22,28,54.4,73.05,57.95,1.6.13,3.2.19,4.8.19,28,0,56.17-19.33,83.81-57.53A4.51,4.51,0,0,0,1931,1664.73Z" class="colorfff svgShape"/><path fill="#b5cae8" d="M2017.3,1664.73a4.52,4.52,0,0,0-6.29,1c-27.23,37.65-54.37,55.71-80.56,53.65-40-3.13-65.52-52.55-65.77-53.05a4.5,4.5,0,0,0-8,4.07c1.12,2.22,28,54.4,73,57.95,1.6.13,3.2.19,4.8.19,28,0,56.17-19.33,83.81-57.53A4.51,4.51,0,0,0,2017.3,1664.73Z" class="colorb5cae8 svgShape"/><path fill="#ffffff" d="M2176.77,1664.73a4.52,4.52,0,0,0-6.29,1c-27.5,38-54.89,56.23-81.37,54.18-40.38-3.17-66.17-53.07-66.43-53.58a4.5,4.5,0,0,0-8,4.07c1.13,2.24,28.28,54.89,73.72,58.48,1.61.13,3.22.19,4.84.19,28.25,0,56.68-19.51,84.57-58.06A4.52,4.52,0,0,0,2176.77,1664.73Z" class="colorfff svgShape"/><path fill="#b5cae8" d="M2248.45,1664.73a4.52,4.52,0,0,0-6.29,1c-27.23,37.65-54.35,55.72-80.56,53.65-40-3.13-65.52-52.55-65.77-53.05a4.5,4.5,0,0,0-8,4.07c1.12,2.22,28,54.4,73,57.95,1.6.13,3.2.19,4.8.19,28,0,56.17-19.33,83.81-57.53A4.52,4.52,0,0,0,2248.45,1664.73Z" class="colorb5cae8 svgShape"/><g opacity=".5" fill="#000000" class="color000 svgShape"><rect width="53.79" height="49.85" x="1677.26" y="1764.08" fill="#99b1da" class="color99b1da svgShape"/><rect width="53.79" height="49.85" x="1600.53" y="1643.46" fill="#99b1da" class="color99b1da svgShape"/><rect width="53.79" height="49.85" x="1600.53" y="1764.08" fill="#99b1da" class="color99b1da svgShape"/><rect width="53.79" height="49.85" x="1753.51" y="1764.08" fill="#99b1da" class="color99b1da svgShape"/><rect width="53.79" height="49.85" x="1829.76" y="1764.08" fill="#99b1da" class="color99b1da svgShape"/><rect width="53.79" height="49.85" x="1915.52" y="1764.08" fill="#99b1da" class="color99b1da svgShape"/><rect width="53.79" height="49.85" x="1991.77" y="1764.08" fill="#99b1da" class="color99b1da svgShape"/><rect width="53.79" height="49.85" x="2068.02" y="1764.08" fill="#99b1da" class="color99b1da svgShape"/><rect width="53.79" height="49.85" x="2153.78" y="1764.08" fill="#99b1da" class="color99b1da svgShape"/></g><path fill="#b5cae8" d="M1859.3,1785.35a4.52,4.52,0,0,0-6.29,1c-27.5,38-54.88,56.25-81.37,54.18-40.38-3.17-66.17-53.07-66.43-53.58a4.5,4.5,0,1,0-8,4.07c1.13,2.24,28.28,54.89,73.72,58.48,1.61.13,3.22.19,4.84.19,28.25,0,56.68-19.51,84.57-58.06A4.52,4.52,0,0,0,1859.3,1785.35Z" class="colorb5cae8 svgShape"/><path fill="#ffffff" d="M1931,1785.35a4.52,4.52,0,0,0-6.29,1c-27.23,37.65-54.37,55.72-80.56,53.65-40-3.13-65.52-52.55-65.77-53a4.5,4.5,0,1,0-8,4.07c1.12,2.22,28,54.39,73.05,58,1.6.13,3.2.19,4.8.19,28,0,56.17-19.33,83.81-57.53A4.51,4.51,0,0,0,1931,1785.35Z" class="colorfff svgShape"/><path fill="#b5cae8" d="M2017.3,1785.35a4.52,4.52,0,0,0-6.29,1c-27.23,37.65-54.37,55.72-80.56,53.65-40-3.13-65.52-52.55-65.77-53a4.5,4.5,0,1,0-8,4.07c1.12,2.22,28,54.39,73,58,1.6.13,3.2.19,4.8.19,28,0,56.17-19.33,83.81-57.53A4.51,4.51,0,0,0,2017.3,1785.35Z" class="colorb5cae8 svgShape"/><path fill="#ffffff" d="M2176.77,1785.35a4.52,4.52,0,0,0-6.29,1c-27.5,38-54.89,56.25-81.37,54.18-40.38-3.17-66.17-53.07-66.43-53.58a4.5,4.5,0,1,0-8,4.07c1.13,2.24,28.28,54.89,73.72,58.48,1.61.13,3.22.19,4.84.19,28.25,0,56.68-19.51,84.57-58.06A4.52,4.52,0,0,0,2176.77,1785.35Z" class="colorfff svgShape"/><path fill="#b5cae8" d="M2248.45,1785.35a4.52,4.52,0,0,0-6.29,1c-27.23,37.65-54.35,55.7-80.56,53.65-40-3.13-65.52-52.55-65.77-53a4.5,4.5,0,1,0-8,4.07c1.12,2.22,28,54.39,73,58,1.6.13,3.2.19,4.8.19,28,0,56.17-19.33,83.81-57.53A4.52,4.52,0,0,0,2248.45,1785.35Z" class="colorb5cae8 svgShape"/><rect width="149.81" height="76.12" x="1569.93" y="1393.93" fill="#5681bf" rx="16.09" class="color5681bf svgShape"/><rect width="102.92" height="12.78" x="1592.31" y="1413.67" fill="#ffffff" class="colorfff svgShape"/><rect width="102.92" height="12.78" x="1592.31" y="1441.4" fill="#ffffff" class="colorfff svgShape"/><rect width="17.97" height="76.12" x="1739.36" y="1393.93" fill="#d1dbed" rx="2.84" class="colord1dbed svgShape"/><rect width="17.97" height="76.12" x="1789.93" y="1393.93" fill="#d1dbed" rx="2.84" class="colord1dbed svgShape"/><rect width="17.97" height="76.12" x="1840.49" y="1393.93" fill="#d1dbed" rx="2.84" class="colord1dbed svgShape"/><rect width="17.97" height="76.12" x="1891.06" y="1393.93" fill="#d1dbed" rx="2.84" class="colord1dbed svgShape"/><rect width="17.97" height="76.12" x="1941.63" y="1393.93" fill="#d1dbed" rx="2.84" class="colord1dbed svgShape"/><rect width="821.74" height="34.31" x="1561.46" y="721.13" fill="#3d5891" class="color3d5891 svgShape"/><rect width="921.38" height="192.68" x="1511.64" y="755.44" fill="#99b1da" rx="6.65" class="color99b1da svgShape"/><rect width="821.74" height="34.31" x="1561.46" y="948.11" fill="#3d5891" class="color3d5891 svgShape"/><rect width="157.12" height="98.21" x="2180.29" y="800.18" fill="#5681bf" rx="18.72" class="color5681bf svgShape"/><rect width="107.94" height="16.5" x="2203.77" y="825.63" fill="#ffffff" class="colorfff svgShape"/><rect width="107.94" height="16.5" x="2203.77" y="861.42" fill="#ffffff" class="colorfff svgShape"/><rect width="18.85" height="98.21" x="2357.99" y="800.18" fill="#d1dbed" rx="3.3" class="colord1dbed svgShape"/><ellipse cx="1871.37" cy="855.8" fill="#243354" rx="19" ry="16.85" class="color243354 svgShape"/><path fill="#2f4171" d="M1801,839c-10.5,0-19,7.54-19,16.85s8.5,16.85,19,16.85,19-7.54,19-16.85S1811.5,839,1801,839Z" class="color2f4171 svgShape"/><path fill="#3d5891" d="M1730.64,839c-10.49,0-19,7.54-19,16.85s8.51,16.85,19,16.85,19-7.54,19-16.85S1741.14,839,1730.64,839Z" class="color3d5891 svgShape"/><ellipse cx="1660.28" cy="855.8" fill="#d1dbed" rx="19" ry="16.85" class="colord1dbed svgShape"/><path fill="#ffffff" d="M1589.92,839c-10.5,0-19,7.54-19,16.85s8.5,16.85,19,16.85,19-7.54,19-16.85S1600.41,839,1589.92,839Z" class="colorfff svgShape"/><path fill="#5681bf" d="M2445.44 784.41H2433V924.13h12.42a17.09 17.09 0 0017.09-17.08V801.5A17.09 17.09 0 002445.44 784.41zM1482.13 801.5V907.05a17.09 17.09 0 0017.09 17.08h12.42V784.41h-12.42A17.09 17.09 0 001482.13 801.5z" class="color5681bf svgShape"/><path fill="#99b1da" d="M1518.29,982.42h908.09a6.65,6.65,0,0,1,6.65,6.65v179.39a6.65,6.65,0,0,1-6.65,6.65H1518.29a6.65,6.65,0,0,1-6.65-6.65V989.06A6.64,6.64,0,0,1,1518.29,982.42Z" class="color99b1da svgShape"/><rect width="821.74" height="34.31" x="1561.46" y="1175.09" fill="#3d5891" class="color3d5891 svgShape"/><rect width="157.12" height="98.21" x="2180.29" y="1027.16" fill="#5681bf" rx="18.72" class="color5681bf svgShape"/><rect width="107.94" height="16.49" x="2203.77" y="1052.62" fill="#ffffff" class="colorfff svgShape"/><rect width="107.94" height="16.49" x="2203.77" y="1088.4" fill="#ffffff" class="colorfff svgShape"/><rect width="18.85" height="98.21" x="2357.99" y="1027.16" fill="#d1dbed" rx="3.3" class="colord1dbed svgShape"/><ellipse cx="1871.37" cy="1097.63" fill="#2f4171" rx="19" ry="16.47" class="color2f4171 svgShape"/><path fill="#3d5891" d="M1801,1081.17c-10.5,0-19,7.37-19,16.46s8.5,16.47,19,16.47,19-7.37,19-16.47S1811.5,1081.17,1801,1081.17Z" class="color3d5891 svgShape"/><path fill="#b5cae8" d="M1730.64,1081.17c-10.49,0-19,7.37-19,16.46s8.51,16.47,19,16.47,19-7.37,19-16.47S1741.14,1081.17,1730.64,1081.17Z" class="colorb5cae8 svgShape"/><ellipse cx="1660.28" cy="1097.63" fill="#d1dbed" rx="19" ry="16.47" class="colord1dbed svgShape"/><path fill="#ffffff" d="M1589.92,1081.17c-10.5,0-19,7.37-19,16.46s8.5,16.47,19,16.47,19-7.37,19-16.47S1600.41,1081.17,1589.92,1081.17Z" class="colorfff svgShape"/><path fill="#5681bf" d="M2445.44 1011.39H2433v139.73h12.42a17.09 17.09 0 0017.09-17.09V1028.48A17.09 17.09 0 002445.44 1011.39zM1482.13 1028.48V1134a17.09 17.09 0 0017.09 17.09h12.42V1011.39h-12.42A17.09 17.09 0 001482.13 1028.48z" class="color5681bf svgShape"/><polygon fill="#f5b0a6" points="3686 2292.66 3691.74 2387.94 3772.14 2359.07 3838.14 2469.2 3890.56 2452.75 3806.64 2255.72 3686 2292.66" class="colorf5b0a6 svgShape"/><path fill="#243354" d="M3894,2320.26s-10.56-68.79-16.47-78.73-70.87,14.19-70.87,14.19,16.65,37.8,15.78,71.59-34.12,26.84-38.59,45.34,60.53,128.74,89.13,147.27,39.14-14.11,35.33-71.16S3894,2320.26,3894,2320.26Z" class="color243354 svgShape"/><polygon fill="#f5b0a6" points="2974.98 2353.77 3003.64 2427.55 2903.21 2491.33 2919.7 2539.48 3100.2 2457.05 3063.09 2346.18 2974.98 2353.77" class="colorf5b0a6 svgShape"/><path fill="#243354" d="M3034.26,2473.37c-31.32,0-25.68-31-42.92-34.66s-117.8,59.15-134.28,86.08,14,35.92,66.76,31,118.68-16.33,118.68-16.33,63.46-11.42,72.53-17.14-14.83-65.29-14.83-65.29S3065.58,2473.37,3034.26,2473.37Z" class="color243354 svgShape"/><path fill="#f5b0a6" d="M3059.37,1236.37a41.37,41.37,0,0,0-9.94,1l-46.21-75-72.81,75.45-15.3,15.86s20.91,32.18,23.9,50.79c1.14,7-10.59,6.51-12,9.79-16,38.42,35.88,80.23,93.43,56.18S3063.61,1236.65,3059.37,1236.37Z" class="colorf5b0a6 svgShape"/><path fill="#6fc183" d="M3223.49,1213.68c-34.92-7.94-71.44-4.9-101.93,1.18a379.48,379.48,0,0,0-45.82,12.38c-16.33,5.53-26.32,10.17-26.32,10.17s5.59,63.08-22.36,98.86-84.29,27-100-22c0,0-10.36,4.82-24.62,12.66a411.82,411.82,0,0,0-35.15,21.62c-18,12.5-34.91,27.1-42,41.46-12,24.25-36,117.28-58.76,213.94-7.92,33.68-15.67,67.81-22.71,99.64,39.11,7.46,77.86,15.89,118.16,24.49l33.12-82.73,42.26-105.51,15.52-4,315.36-81.69s57.28,55.86,53.57,70.19S3214.54,1707.59,3205.52,1724s-41.69,23.3-66.88,36.17-77.1,52.5-74,61.22c3,8.51,34.43-1.31,35.93-1.76-.34.53-3.46,5.48-8,12.83-1.26,2.09-2.68,4.37-4.16,6.8-2.52,4.24-5.32,8.86-8.13,13.73-1.37,2.29-2.69,4.63-4,7-1.15,2-2.25,4-3.4,6-.34.64-.69,1.27-1,1.91s-.69,1.26-1,1.85c-.22.39-.4.78-.63,1.17-.76,1.52-1.57,3-2.38,4.5-.94,1.86-1.93,3.72-2.86,5.53-.82,1.56-1.58,3-2.29,4.55-2.12,4.37-4,8.5-5.43,12.14-.19.5-.37,1-.55,1.44-.56,1.48-1,2.81-1.44,4.05-.26.84-.47,1.69-.68,2.44s-.36,1.59-.51,2.29a4.54,4.54,0,0,0-.1.85c-.42,3.07.16,5,2,5.41,13.76,3.11,30.17-14.72,30.17-14.72s-.86,12.71,7.38,16.56,22.21-4.82,22.21-4.82,3.7,8.15,9.87,6.75,9.74-9.07,9.74-9.07,5.72,5.25,17.1-1.27c3.37-2,9.87-8.85,17.77-18.54,1.22-1.49,2.48-3,3.76-4.66,1.77-2.26,3.66-4.61,5.49-7.07s3.73-4.91,5.63-7.47c7.92-10.75,16.18-22.7,23.6-34.25a330.82,330.82,0,0,0,19-32.9,29.32,29.32,0,0,1,2.12-3.65,14.16,14.16,0,0,1,1.24-1.84c1.06-1.55,2.34-3.24,3.78-5,.67-.82,1.38-1.73,2.16-2.64,1.71-2.07,3.58-4.27,5.66-6.61,1.48-1.67,3.12-3.43,4.76-5.25,19.47-21.06,50.1-50.73,81.75-82.82l4.47-4.61,5.06-5.12c1.63-1.72,3.22-3.38,4.85-5,.54-.52,1-1,1.52-1.57,2.78-2.8,5.5-5.65,8.23-8.51,19.79-20.73,38.95-41.77,54.88-61.65,1.33-1.63,2.66-3.26,3.88-4.85a342.53,342.53,0,0,0,20.36-28.35q3-4.67,5.48-9.05c1.61-2.77,3.05-5.46,4.3-8.11.53-1.13,1.06-2.21,1.59-3.34a77,77,0,0,0,5.47-15.68c.28-1.15.46-2.3.64-3.45a30.77,30.77,0,0,0,.37-3.17l.1-1.41c.86-26.88-21.57-79.21-54.07-133.83C3346.55,1313.72,3273.41,1225,3223.49,1213.68Z" class="color6fc183 svgShape"/><path fill="#2c4da2" d="M3486.12,1652.91c-14.52-30-32.29-57-53.87-77.76-101.21-97.28-164-121-164-121s-74.76-26.8-102.39-85.3c-19.44-41.13-36.09-114.28-44.28-154a379.48,379.48,0,0,0-45.82,12.38l48.92,211.08-144.88,57-77.34-168.39a411.82,411.82,0,0,0-35.15,21.62c10,67.53,45.44,132.54,85.58,187.28,66.1,90,145.09,152.28,145.09,152.28s-154,23-246.31,65.76c-33.41,15.46-58.75,33.54-65.71,54-10,29.51-3.27,60.76,8.8,88.07,19.45,44,52.86,77.79,52.86,77.79s315.6-127.86,361-138.2c36-8.24,65.18-13.5,72.16-11,21.37,7.53,76.24,183.86,76.24,183.86s178.25-47.45,186.11-73.65c4.46-14.85.79-97.24-21.71-183.5C3512.66,1717.82,3501.09,1683.81,3486.12,1652.91Z" class="color2c4da2 svgShape"/><path fill="#f5f5f7" d="M2713.36,1856.46c1.26,17.11,81.14,40.06,81.14,40.06l.24-.54,56.91-142.1,10.32-25.79c-40.3-8.6-79-17-118.16-24.49C2726,1784,2712.87,1849.72,2713.36,1856.46Z" class="colorf5f5f7 svgShape"/><path fill="#f5b0a6" d="M2527.16,1863.74c1.27,17.1,84.76,63.21,84.76,63.21l235.79-163.23c-40.3-8.6-64.79-52.66-103.9-60.12C2661.56,1764.79,2526.68,1857,2527.16,1863.74Z" class="colorf5b0a6 svgShape"/><path fill="#f5b0a6" d="M2743.81,1703.6c39.11,7.46,66.33,48.09,106.63,56.69l44.65-114.93c-37.47-3.1-100.9-24.43-128.57-41.4C2758.6,1637.64,2750.85,1671.77,2743.81,1703.6Z" class="colorf5b0a6 svgShape"/><path fill="#243354" d="M3175 1493.4c-8.74-5.46-140.07 57.94-140.07 57.94-1.18 8.43 29.78 80.43 106.36 53.62S3183.75 1498.86 3175 1493.4zM3375.6 1734.33c1.33 6.57 66 84.46 145.78 16.9-8.72-33.41-20.29-67.42-35.26-98.32C3456.21 1700.36 3374.31 1728 3375.6 1734.33z" class="color243354 svgShape"/><rect width="172.43" height="9.61" x="3171.99" y="1934.42" fill="#727272" transform="rotate(-78.54 3258.227 1939.222)" class="color727272 svgShape"/><polygon fill="#727272" points="3236.11 1854.26 3226.56 1853.22 3213.59 1972.91 3243.49 1999.69 3249.91 1992.54 3223.68 1969.04 3236.11 1854.26" class="color727272 svgShape"/><path fill="#727272" d="M3414.92 1856.61l-9.61.13c1.33 101.07 77.85 131.77 78.63 132.07l3.46-9C3484.49 1978.71 3416.17 1951 3414.92 1856.61zM3093.08 1811.59l-6.79 6.8c1.51 1.51 34.3 33.71 81.52 33.71a103.22 103.22 0 0015.05-1.1l-1.39-9.5C3131.18 1848.83 3093.45 1812 3093.08 1811.59z" class="color727272 svgShape"/><path fill="#6f6f6f" d="M3460.08,1887.22l-9.39.6c5.32,82.86,49.32,113.11,51.19,114.35l5.23-7.81C3506.69,1994.07,3465.07,1965.12,3460.08,1887.22Z" class="color6f6f6f svgShape"/><path fill="#2c4da2" d="M3472,2353.85s60-287.41,70.27-343.16c11.72-63.73-5.18-182.85-5.46-184.53l-15.6.79-102.38-5.11-236.21-21.07h-.84c-1.12,0-3.31.17-6.52.28l-3.65.17c-57.81,2.41-326.22,15.9-372.74,59.39-28.26,26.46-59.93,44-29.4,147.77,39.63,134.76,166.28,392.54,166.28,392.54l156.19-24.8-107.15-364.4L3228.5,2024s3.43,430,8.54,481.45c4.38,43.94,34.95,83.32,78.32,85,91.25,3.49,441.41-152.34,441.41-152.34L3721.29,2268Z" class="color2c4da2 svgShape"/><path fill="#294675" d="M3418.16,1905.87l-7.56-.66c-6.86,78.86,56.66,121,57.31,121.44l4.12-6.36C3471.43,2019.9,3411.68,1980.24,3418.16,1905.87Z" class="color294675 svgShape"/><polygon fill="#294675" points="3268.81 1843.92 3225.13 1942.7 3241.26 1991.05 3248.45 1988.66 3233.25 1943.08 3275.74 1846.98 3268.81 1843.92" class="color294675 svgShape"/><path fill="#294675" d="M3257.3,1963.47l6.15,4.43a9.11,9.11,0,0,0,.71-1.19l49.15-101.09-6.82-3.32Z" class="color294675 svgShape"/><path fill="#4c4c4c" d="M3093.5,1839.2l-3.39,6.78c.28.14,14.93,7.23,37.15,7.23,20,0,46.16-5.75,73.48-27.5l-4.73-5.93C3142.28,1862.56,3095.46,1840.17,3093.5,1839.2Z" class="color4c4c4c svgShape"/><path fill="#294675" d="M3199.4,1812.69a7.58,7.58,0,0,0,4.58,8.71l242.14,99.44,2.88-7-242.1-99.61,261.12,9.51.28-7.57-261.13-9.51A7.67,7.67,0,0,0,3199.4,1812.69Z" class="color294675 svgShape"/><polygon fill="#294675" points="3442.16 2404.63 3441.56 1996.8 3434.82 1993.33 3426.26 2418.93 3724.99 2303.06 3722.25 2295.99 3442.16 2404.63" class="color294675 svgShape"/><path fill="#294675" d="M3481.64,1737.41c35.44,71.13,39.85,242,39.88,243.71l10.11-.23c-.17-7.11-4.5-174.85-41-248Z" class="color294675 svgShape"/><path d="M3018.46,1031.91a12.51,12.51,0,0,0,2.2-7.5c-.59-10.56-16.18-18.44-36-19,6.65-3.58,11.41-8.92,13-15.59,3.85-16-11.71-33.44-34.75-39-16.6-4-32.51-.68-41.58,7.44a39.89,39.89,0,0,0-60.25,24.74c-7.84-8-19-14.4-32.06-17.55-29.2-7-57.07,4.66-62.23,26.1-2.68,11.13,1.33,22.69,9.84,32.22-10,.22-21.29,5.21-30.32,14.46-15.18,15.54-18.27,37.12-6.92,48.2a22.81,22.81,0,0,0,13.19,6.17c-2.19,17.75,4.75,33.39,17,36.34.33.08.65.1,1,.16a26.79,26.79,0,0,0,16.21,28.62,47.09,47.09,0,0,0,3.56,23.3c6.51,15.29,20,25.3,34.57,27.58,1.32,11.49,31.68,16.4,43.35-5.38,4-7.47,1.17,37.53,12,39,28.51,3.79,93.69-40.51,124.63-52.61a21,21,0,0,0,10.77-29.43c-6.64-12.58-10-30.09,4.38-48.72s5.88-39.17.73-42.19c11.32-5.08,18.46-13.58,17.18-22C3036.8,1039.66,3029,1034,3018.46,1031.91Z" fill="#000000" class="color000 svgShape"/><path fill="#f5b0a6" d="M2859,1160.29l89.09,152.84c9,5.5,24.23,7.64,51.61-5.78,27.81-13.63,47.9-31.18,48.51-41.64l-78.3-159.77Z" class="colorf5b0a6 svgShape"/><path fill="#f18a8b" d="M2997.93,1191.82l-63.2,53.42s65-2.56,105.66-22.5l-31.9-51.49Z" class="colorf18a8b svgShape"/><path fill="#f5b0a6" d="M2948.17,1017.53l-148.68,72.86,73.87,129.24c16.1,28.72,51.89,39.56,80.64,25.47l21.79-10.68c28.75-14.09,42.11-49,29.27-79.34Z" class="colorf5b0a6 svgShape"/><path fill="#f5b0a6" d="M2983.63 1087.61c-12.18 2.42-18.28 17.77-11.73 32.85s18 26.21 27.19 24c11.88-2.8 15.26-19.66 8.72-34.74S2992.92 1085.76 2983.63 1087.61zM2828.5 1165.32c-6.75 6.66-2.86 21.54 8.69 33.24s26.39 15.79 33.13 9.13 2.85-21.54-8.69-33.24S2835.24 1158.67 2828.5 1165.32z" class="colorf5b0a6 svgShape"/><path fill="#2b2b2b" d="M2737.71 1053.36a1.34 1.34 0 101.94 1.86c23.71-24.73 47.51-8.75 48.51-8.06a1.34 1.34 0 101.53-2.2C2789.43 1044.78 2763.06 1027 2737.71 1053.36zM2809.73 1089c-27.23 19.44-46.83 9.1-52.19 5.46l-.42-.27a1.27 1.27 0 00-1.73.63 1.42 1.42 0 00.65 1.86c5 3.39 21.5 12.24 44.61.91a75.29 75.29 0 0010.64-6.41 1.34 1.34 0 10-1.56-2.18z" class="color2b2b2b svgShape"/><path d="M2933 1069.12c-1.12 0-26.62 3.55-28.11 10.15-.59 2.63 1.28 6.12 4 7.55 4.62 2.43 8.87-2.53 23.11-6.9 6.68-2.06 9.78-2.21 9.82-3.35C2941.89 1074.6 2941.53 1069 2933 1069.12zM2862.45 1106c-4.89-2.73-17.33 11.51-17.82 12.28-3.68 5.81-.84 10.63.46 11.71.75.62 2.16-1.43 6.32-4.88 8.85-7.36 13.84-7.48 14.23-12C2865.86 1110.31 2864.4 1107 2862.45 1106z" fill="#000000" class="color000 svgShape"/><path fill="#2b2b2b" d="M2927.75 1099.61c-2.35.74-3.29 4.32-2.13 8s4 6 6.36 5.29 3.29-4.32 2.12-8S2930.09 1098.86 2927.75 1099.61zM2864.22 1132.11c-2 1.08-2 4.68-.19 8.05s4.95 5.21 6.91 4.12 2-4.68.19-8S2866.18 1131 2864.22 1132.11zM2890 1152.24a.76.76 0 01-.48-.67c-.45-3.4 7.62-12.62 13.5-18.08l-2.24-2.41c-2.57 2.39-15.34 14.62-14.52 20.91a4 4 0 002.2 3.15c6.88 3.67 17.69 3.42 18.15 3.4l-.09-3.28C2906.41 1155.26 2896.1 1155.5 2890 1152.24z" class="color2b2b2b svgShape"/><path fill="#f18a8b" d="M2861.78 1158c-8.71 4.27-12.79 13.79-9.13 21.27s13.7 10.09 22.41 5.82 12.79-13.79 9.13-21.27S2870.49 1153.74 2861.78 1158zM2947.76 1114.12c-8.71 4.27-12.8 13.79-9.13 21.28s13.7 10.08 22.41 5.82 12.79-13.8 9.12-21.28S2956.47 1109.85 2947.76 1114.12z" class="colorf18a8b svgShape"/><path fill="#2b2b2b" d="M2999.13 1116.18c-3-.72-6.62.66-9 1.86a1.16 1.16 0 01-1.65-.73c-.88-3.5-.71-6.42.53-8.71a9.24 9.24 0 014.84-4.09 1.17 1.17 0 00.7-1.32h0a1.15 1.15 0 00-1.54-.83 11.47 11.47 0 00-6 5.11c-1.91 3.5-1.84 8 .19 13.41a1.16 1.16 0 001.74.55h0c1.7-1.18 6.45-3.77 9.66-3a1.16 1.16 0 001.29-.61h0A1.16 1.16 0 002999.13 1116.18zM2843.87 1181.82a11.48 11.48 0 00-7.72 1.61 1.15 1.15 0 00-.29 1.73h0a1.15 1.15 0 001.47.25 9.27 9.27 0 016.19-1.31c2.58.42 5 2.07 7.22 4.91a1.15 1.15 0 01-.43 1.75c-2.38 1.12-5.67 3.1-7 6a1.15 1.15 0 00.82 1.63h0a1.15 1.15 0 001.27-.65c1.34-3 6.3-5.18 8.27-5.81h0a1.15 1.15 0 00.64-1.7C2851.32 1185.27 2847.8 1182.45 2843.87 1181.82z" class="color2b2b2b svgShape"/><path d="M2960.58,1041.08l-12.5-33-14.95,13.59-27.41,6.23-9,6c-.22-.19-.37-.42-.61-.59-4.57-3.15-11.84-1.6-18.29,3.32l-33.69.75-56.51,50.15c-6.84,9.94,6.56,32.46,11.6,42.66l.12.23c8.1,16.14,6.08,31.81,20,24.83,12.63-6.34,17.62-22.39,12.36-37.37-8.89-23.7,29-53,34-58.2a9.68,9.68,0,0,0,3.89,7.39c6.08,4.2,17,0,24.3-9.27.63-.79,1.14-1.61,1.68-2.43l0,0,.09-.19a31.61,31.61,0,0,0,2.47-4.48c5.83-8.8,18-18.43,30.3-13.51,14.54,5.83,15.61,35,16,39,1.68,17.9,11.23,31.23,21.34,29.78s16.93-17.14,15.25-35C2979.35,1053.57,2970.33,1040.56,2960.58,1041.08Z" fill="#000000" class="color000 svgShape"/><path fill="#393939" d="M2948.58,1164a9.1,9.1,0,0,0-2.71.9,33.61,33.61,0,0,0-4.26,3.2,74.85,74.85,0,0,1-25.15,14,27.29,27.29,0,0,0-8.52,4c-2.24,1.71-3.63,3.75-3.63,6.31,0,5.23,3.93,9.39,8.63,11.8a24.3,24.3,0,0,0,4,1.56c9.24,2.68,20.66.55,28.85-5.75a30.89,30.89,0,0,0,8.53-10.13c3.19-6.22,4.18-13.24,2.25-19.32C2955.5,1167.07,2952.69,1163.48,2948.58,1164Z" class="color393939 svgShape"/><path fill="#ffffff" d="M2941.61,1168.06a74.85,74.85,0,0,1-25.15,14,27.29,27.29,0,0,0-8.52,4c1.28,2.07,2.93,3.93,5.15,4.63,2.46.82,5.08.21,7.51-.61a63,63,0,0,0,23.84-13.84c1.61-1.51,3.24-3.28,3.55-5.45s-.76-4.18-2.12-6A33.61,33.61,0,0,0,2941.61,1168.06Z" class="colorfff svgShape"/><path fill="#f19a6d" d="M2936.68,1190.33c-8,2.82-15.36,8.2-19.7,15.43,9.24,2.68,20.66.55,28.85-5.75a30.89,30.89,0,0,0,8.53-10.13C2949,1187.6,2942.37,1188.29,2936.68,1190.33Z" class="colorf19a6d svgShape"/><rect width="681.81" height="440.96" x="3108.26" y="607.35" fill="#b5cae8" rx="29.43" class="colorb5cae8 svgShape"/><path fill="#2f4171" d="M3760.64,607.35H3137.69a29.42,29.42,0,0,0-29.43,29.43v30.45h681.81V636.78A29.43,29.43,0,0,0,3760.64,607.35Z" class="color2f4171 svgShape"/><path fill="#3d5891" d="M3672.15,620.51a16.78,16.78,0,1,0,16.79,16.78A16.78,16.78,0,0,0,3672.15,620.51Z" class="color3d5891 svgShape"/><path fill="#5681bf" d="M3715.92,620.51a16.78,16.78,0,1,0,16.78,16.78A16.78,16.78,0,0,0,3715.92,620.51Z" class="color5681bf svgShape"/><circle cx="3760.81" cy="637.29" r="16.78" fill="#ffffff" class="colorfff svgShape"/><rect width="198.69" height="22.03" x="3341.54" y="756.46" fill="#5681bf" class="color5681bf svgShape"/><rect width="151.76" height="22.03" x="3163.79" y="756.46" fill="#ffffff" class="colorfff svgShape"/><rect width="340.67" height="22.03" x="3379.3" y="795.21" fill="#3d5891" class="color3d5891 svgShape"/><rect width="340.67" height="22.03" x="3286.64" y="704.28" fill="#3d5891" class="color3d5891 svgShape"/><rect width="82.8" height="22.03" x="3269.79" y="795.21" fill="#5681bf" class="color5681bf svgShape"/><rect width="80.01" height="22.03" x="3163.79" y="795.21" fill="#ffffff" class="colorfff svgShape"/><rect width="97.38" height="22.03" x="3163.79" y="704.28" fill="#ffffff" class="colorfff svgShape"/><rect width="179.75" height="22.04" x="3540.23" y="833.95" fill="#3d5891" class="color3d5891 svgShape"/><rect width="243.73" height="22.04" x="3269.79" y="833.95" fill="#5681bf" class="color5681bf svgShape"/><rect width="110.34" height="22.03" x="3540.23" y="872.7" fill="#5681bf" class="color5681bf svgShape"/><rect width="350.45" height="22.03" x="3163.79" y="872.7" fill="#ffffff" class="colorfff svgShape"/><rect width="153.03" height="22.03" x="3566.94" y="911.45" fill="#3d5891" class="color3d5891 svgShape"/><rect width="270.44" height="22.03" x="3269.79" y="911.45" fill="#5681bf" class="color5681bf svgShape"/><rect width="80.01" height="22.03" x="3163.79" y="911.45" fill="#ffffff" class="colorfff svgShape"/><rect width="256.26" height="22.03" x="3463.71" y="950.19" fill="#3d5891" class="color3d5891 svgShape"/><rect width="95.46" height="22.03" x="3341.54" y="950.19" fill="#5681bf" class="color5681bf svgShape"/><rect width="151.76" height="22.03" x="3163.79" y="950.19" fill="#ffffff" class="colorfff svgShape"/><rect width="338.09" height="22.04" x="3269.79" y="988.94" fill="#5681bf" class="color5681bf svgShape"/><rect width="80.01" height="22.04" x="3163.79" y="988.94" fill="#ffffff" class="colorfff svgShape"/><path fill="#5681bf" d="M3746.11,1273.63l11.49-8.11a147.38,147.38,0,0,0-10.41-26.79l-13.91,1.73a20.3,20.3,0,0,1-20.93-28.66l5.88-12.72a147.92,147.92,0,0,0-22.35-18.07l-11.22,8.49a20.3,20.3,0,0,1-32.45-14.36l-1.27-13.94q-6.95-1.77-14.11-2.89c-4.77-.74-9.55-1.25-14.31-1.54l-5.45,12.9a20.3,20.3,0,0,1-35.28,3.8l-8.11-11.49a147.34,147.34,0,0,0-26.79,10.4l1.73,13.91a20.3,20.3,0,0,1-28.66,20.94l-12.72-5.88a147.43,147.43,0,0,0-18.07,22.35l8.49,11.22a20.3,20.3,0,0,1-14.36,32.45l-13.94,1.27q-1.77,6.94-2.89,14.1t-1.54,14.32l12.9,5.45a20.3,20.3,0,0,1,3.8,35.28l-11.5,8.11a148.4,148.4,0,0,0,10.41,26.79l13.91-1.73a20.3,20.3,0,0,1,20.94,28.65l-5.88,12.73a146.76,146.76,0,0,0,22.35,18.06l11.22-8.48a20.3,20.3,0,0,1,32.45,14.36l1.27,13.94c4.62,1.18,9.33,2.14,14.1,2.89s9.55,1.25,14.32,1.54l5.45-12.9A20.3,20.3,0,0,1,3646,1438l8.11,11.49a147.66,147.66,0,0,0,26.79-10.41l-1.73-13.91a20.29,20.29,0,0,1,28.65-20.93l12.73,5.88a147.25,147.25,0,0,0,18.06-22.35l-8.48-11.22a20.3,20.3,0,0,1,14.35-32.45l14-1.27q1.77-6.94,2.89-14.11c.74-4.77,1.25-9.55,1.54-14.31l-12.9-5.45A20.3,20.3,0,0,1,3746.11,1273.63ZM3615,1228.42a77.4,77.4,0,0,1,53.08,22.17,8.45,8.45,0,0,1-1.75,13.43l-43.36,24.29a19.59,19.59,0,0,0-5.88-2l-10.38-47.69A8.42,8.42,0,0,1,3615,1228.42Zm-72.35,47.3a77.37,77.37,0,0,1,36.12-38.86,8.44,8.44,0,0,1,12.06,5.75l10.46,48.06a19.7,19.7,0,0,0-3.75,4.21l-48.41-7.54A8.44,8.44,0,0,1,3542.62,1275.72Zm24.12,91.27a77.43,77.43,0,0,1-29.87-54.41,8.45,8.45,0,0,1,9.72-9.08L3595,1311c.17.59.36,1.17.58,1.75a19.56,19.56,0,0,0,1.11,2.36Zm82.45,7.47a76.91,76.91,0,0,1-47.22,7.62,78.1,78.1,0,0,1-11.67-2.75,8.44,8.44,0,0,1-4.72-12.26l24.33-42.14a19.61,19.61,0,0,0,8.45-.12l33.14,36.51A8.42,8.42,0,0,1,3649.19,1374.46Zm41-56.85a76.88,76.88,0,0,1-13,32.4,8.44,8.44,0,0,1-13.16.81l-32.76-36.1a19.57,19.57,0,0,0,1.72-13.31l42.4-23.75a8.46,8.46,0,0,1,12.19,4.82A77,77,0,0,1,3690.24,1317.61Z" class="color5681bf svgShape"/><path fill="#2d2d2d" d="M3656.72,1216.8a98.7,98.7,0,1,0,46.06,131.76A98.8,98.8,0,0,0,3656.72,1216.8Zm28.51,123.3a79.21,79.21,0,1,1-37-105.75A79.3,79.3,0,0,1,3685.23,1340.1Z" opacity=".16" class="color2d2d2d svgShape"/><path fill="#99b1da" d="M3749.43,1259.46l11.49-8.1a147.83,147.83,0,0,0-10.41-26.79l-13.91,1.73a20.3,20.3,0,0,1-20.93-28.66l5.88-12.72a148,148,0,0,0-22.36-18.07l-11.21,8.48a20.3,20.3,0,0,1-32.46-14.35l-1.27-13.94c-4.62-1.18-9.33-2.15-14.1-2.89s-9.55-1.26-14.31-1.54l-5.45,12.89a20.3,20.3,0,0,1-35.29,3.8l-8.1-11.49a147.83,147.83,0,0,0-26.79,10.41l1.73,13.91a20.3,20.3,0,0,1-28.66,20.93l-12.73-5.88a149,149,0,0,0-18.06,22.35l8.48,11.22a20.3,20.3,0,0,1-14.35,32.46l-13.95,1.27q-1.76,6.93-2.89,14.1t-1.53,14.31l12.89,5.45a20.3,20.3,0,0,1,3.8,35.29l-11.49,8.1a147.83,147.83,0,0,0,10.41,26.79l13.91-1.73a20.3,20.3,0,0,1,20.93,28.66l-5.88,12.72a148.42,148.42,0,0,0,22.35,18.07l11.22-8.48a20.3,20.3,0,0,1,32.46,14.35l1.27,13.94q6.93,1.77,14.1,2.89c4.77.75,9.55,1.26,14.31,1.54l5.45-12.89a20.3,20.3,0,0,1,35.29-3.8l8.1,11.49a148.11,148.11,0,0,0,26.79-10.41l-1.73-13.91a20.3,20.3,0,0,1,28.66-20.93l12.72,5.88a148.42,148.42,0,0,0,18.07-22.35l-8.48-11.22a20.3,20.3,0,0,1,14.35-32.46l13.94-1.27q1.77-6.93,2.89-14.1t1.54-14.31l-12.9-5.45A20.3,20.3,0,0,1,3749.43,1259.46Zm-131.14-45.21a79.36,79.36,0,0,1,10.79.92,76.93,76.93,0,0,1,42.29,21.25,8.47,8.47,0,0,1-1.75,13.44l-43.37,24.28a19.91,19.91,0,0,0-5.87-2L3610,1224.49A8.43,8.43,0,0,1,3618.29,1214.25Zm-11.74,72.17a11.81,11.81,0,1,1,5.51,15.76A11.81,11.81,0,0,1,3606.55,1286.42Zm-60.62-24.86a77.36,77.36,0,0,1,36.13-38.87,8.44,8.44,0,0,1,12.05,5.75l10.47,48.06a19.3,19.3,0,0,0-3.76,4.22l-48.4-7.54A8.45,8.45,0,0,1,3545.93,1261.56Zm24.13,91.26a77.47,77.47,0,0,1-29.88-54.4,8.45,8.45,0,0,1,9.72-9.08l48.4,7.54c.16.58.36,1.17.58,1.74a19.61,19.61,0,0,0,1.1,2.36Zm82.44,7.48a77,77,0,0,1-47.21,7.62,79,79,0,0,1-11.67-2.75,8.44,8.44,0,0,1-4.72-12.27l24.32-42.14a19.5,19.5,0,0,0,8.46-.11l33.14,36.5A8.43,8.43,0,0,1,3652.5,1360.3Zm41.05-56.86a76.86,76.86,0,0,1-13,32.41,8.45,8.45,0,0,1-13.16.81l-32.77-36.1a19.59,19.59,0,0,0,1.72-13.31l42.41-23.75a8.44,8.44,0,0,1,12.18,4.82A76.83,76.83,0,0,1,3693.55,1303.44Z" class="color99b1da svgShape"/><path fill="#5681bf" d="M3660,1202.63a98.7,98.7,0,1,0,46.06,131.77A98.82,98.82,0,0,0,3660,1202.63Zm28.51,123.31a79.22,79.22,0,1,1-37-105.76A79.32,79.32,0,0,1,3688.55,1325.94Z" opacity=".64" class="color5681bf svgShape"/><path fill="#3d5891" d="M4097.87,1603.55,4085.71,1557l35-33.65a240.58,240.58,0,0,0-30.25-47l-45.1,17.94-37.23-30.45,8.46-47.75a239.69,239.69,0,0,0-52.06-20.19l-25.91,40.93-48-2.68-21.26-43.59a243.77,243.77,0,0,0-28.6,5.82,260.75,260.75,0,0,0-25.36,8.44l3.16,48.4-40.38,26-42.84-22.83a244.59,244.59,0,0,0-35.35,43.44l31,37.3-17.29,44.85-48.1,6.75a242.29,242.29,0,0,0-3,55.8l47.12,11.87,12.35,46.47-34.95,33.72a242.85,242.85,0,0,0,30.45,46.91l45-18.07,37.36,30.29-8.33,47.76a239.83,239.83,0,0,0,52.14,20.08l25.73-41.09,48.06,2.48,21.34,43.61a244.72,244.72,0,0,0,27.82-5.8,230.15,230.15,0,0,0,26.13-8.75l-3.29-48.36,40.29-26.18,42.88,22.6a240.79,240.79,0,0,0,35.14-43.4l-31.15-37.19,17.16-44.89,48-7a239,239,0,0,0,2.94-54.13Zm-105.73,88.71a108.3,108.3,0,1,1-176.59-125.42c34.77-48.67,102.26-60.13,150.92-25.4A108,108,0,0,1,3992.14,1692.26Z" class="color3d5891 svgShape"/><path fill="#969696" d="M3995.62,1500.33a158.5,158.5,0,0,0-221,37.54c-50.67,71.29-33.91,170.27,37.37,220.92a158.45,158.45,0,0,0,220.94-37.37C4083.62,1650.11,4066.93,1551,3995.62,1500.33Zm24.66,212.09A142.92,142.92,0,1,1,3986.62,1513,142.92,142.92,0,0,1,4020.28,1712.42Z" class="color969696 svgShape"/><path fill="#969696" d="M3821,1746.13a142.33,142.33,0,0,1-56.09-83q-10.37-14.27-19.46-28.52a158.44,158.44,0,0,0,146.64,153.08q-14.73-10.07-28.29-20.82A142.77,142.77,0,0,1,3821,1746.13Z" class="color969696 svgShape"/><path fill="#5681bf" d="M4083.67,1590l-12.16-46.52,35-33.65a240.58,240.58,0,0,0-30.25-47l-45.1,17.94L3994,1450.35l8.46-47.75a239.69,239.69,0,0,0-52.06-20.19l-25.91,40.93-48-2.68-21.26-43.59a243.2,243.2,0,0,0-28.59,5.82,260,260,0,0,0-25.37,8.44l3.16,48.4-40.38,26L3721.2,1443a244.59,244.59,0,0,0-35.35,43.44l31,37.3-17.29,44.85-48.09,6.75a241.73,241.73,0,0,0-3.05,55.8l47.11,11.87,12.36,46.47-35,33.72a243.32,243.32,0,0,0,30.45,46.91l45-18.07,37.36,30.29-8.33,47.76a240,240,0,0,0,52.14,20.08l25.73-41.09,48.06,2.48,21.34,43.61a244.72,244.72,0,0,0,27.82-5.8,228.18,228.18,0,0,0,26.13-8.75l-3.29-48.36,40.3-26.18,42.87,22.6a240.85,240.85,0,0,0,35.15-43.4L4062.58,1708l17.16-44.89,48-6.94a239.1,239.1,0,0,0,2.94-54.14Zm-105.73,88.71a108.3,108.3,0,1,1-176.59-125.42c34.77-48.66,102.26-60.13,150.92-25.4A108,108,0,0,1,3977.94,1678.75Z" class="color5681bf svgShape"/><path fill="#3d5891" d="M3981.42,1486.82a158.5,158.5,0,0,0-221,37.54c-50.67,71.29-33.91,170.27,37.37,220.92a158.45,158.45,0,0,0,220.94-37.37C4069.42,1636.6,4052.73,1537.54,3981.42,1486.82Zm24.66,212.09a142.91,142.91,0,1,1-33.66-199.42C4036.75,1545.23,4051.8,1634.59,4006.08,1698.91Z" opacity=".64" class="color3d5891 svgShape"/><path fill="#f3ce90" d="M2864.74,495.6H2681.51l-9.72-13.8c-8.23-11.7-25.19-20.51-39.47-20.51h-81.07c-14.33,0-31.31,8.83-39.52,20.51l-9.68,13.8H2484.3a31.58,31.58,0,0,0-31.55,31.52v254a31.58,31.58,0,0,0,31.55,31.51h380.44a31.56,31.56,0,0,0,31.53-31.51v-254A31.55,31.55,0,0,0,2864.74,495.6Z" class="colorf3ce90 svgShape"/><path fill="#d67347" d="M2864.72,495.72H2681.18l-9.74-13.8c-8.25-11.73-25.22-20.56-39.54-20.56h-81.23c-14.32,0-31.33,8.85-39.56,20.56l-9.7,13.8h-17.8A31.62,31.62,0,0,0,2452,527.34V781.7a31.6,31.6,0,0,0,31.59,31.59h381.11a31.61,31.61,0,0,0,31.6-31.59V527.34A31.63,31.63,0,0,0,2864.72,495.72Zm4.64,286a4.65,4.65,0,0,1-4.64,4.66H2483.61a4.67,4.67,0,0,1-4.66-4.66V527.34a4.66,4.66,0,0,1,4.66-4.66h31.79l17.76-25.28c3.21-4.58,11.9-9.08,17.51-9.08h81.23c5.61,0,14.28,4.5,17.51,9.08l17.75,25.28h197.56a4.65,4.65,0,0,1,4.64,4.66Z" class="colord67347 svgShape"/><polygon fill="#ef7c59" points="2662.17 628.57 2625.83 628.57 2625.83 641.04 2649.65 641.04 2649.65 709.82 2707.49 709.82 2707.49 793.4 2720 793.4 2720 697.33 2662.17 697.33 2662.17 628.57" class="coloref7c59 svgShape"/><polygon fill="#ef7c59" points="2567.95 793.4 2580.44 793.4 2580.44 550.84 2625.83 550.84 2625.83 538.38 2567.95 538.38 2567.95 793.4" class="coloref7c59 svgShape"/><polygon fill="#ef7c59" points="2828.37 628.57 2739.73 628.57 2739.73 549.77 2686.36 549.77 2686.36 622.17 2698.85 622.17 2698.85 562.26 2727.23 562.26 2727.23 641.04 2815.88 641.04 2815.88 673.49 2884.19 673.49 2884.19 661 2828.37 661 2828.37 628.57" class="coloref7c59 svgShape"/><rect width="12.49" height="158.6" x="2768.16" y="634.8" fill="#ef7c59" class="coloref7c59 svgShape"/><rect width="118.87" height="12.46" x="2466.54" y="655.7" fill="#ef7c59" class="coloref7c59 svgShape"/><polygon fill="#ef7c59" points="2625.83 584.7 2649.65 584.7 2649.65 634.8 2662.17 634.8 2662.17 572.21 2625.83 572.21 2625.83 584.7" class="coloref7c59 svgShape"/><rect width="85.78" height="12.49" x="2733.49" y="549.77" fill="#ef7c59" class="coloref7c59 svgShape"/><path fill="#ef7c59" d="M2625.81 532.12a12.5 12.5 0 1012.49 12.49A12.48 12.48 0 002625.81 532.12zM2625.83 566a12.49 12.49 0 1012.5 12.49A12.47 12.47 0 002625.83 566zM2625.83 622.32a12.49 12.49 0 1012.5 12.48A12.48 12.48 0 002625.83 622.32zM2692.6 609.82a12.49 12.49 0 1012.48 12.5A12.47 12.47 0 002692.6 609.82zM2692.6 642.32a12.49 12.49 0 1012.48 12.5A12.47 12.47 0 002692.6 642.32zM2819.26 543.54a12.48 12.48 0 1012.5 12.47A12.47 12.47 0 002819.26 543.54zM2774.38 622.32a12.49 12.49 0 1012.48 12.48A12.5 12.5 0 002774.38 622.32zM2574.19 649.43a12.5 12.5 0 1012.48 12.5A12.47 12.47 0 002574.19 649.43z" class="coloref7c59 svgShape"/><rect width="12.49" height="51.27" x="2686.36" y="654.82" fill="#ef7c59" class="coloref7c59 svgShape"/><path fill="#ef7c59" d="M2625.83,731.71a12.5,12.5,0,1,0,12.5,12.52A12.49,12.49,0,0,0,2625.83,731.71Z" class="coloref7c59 svgShape"/><rect width="12.49" height="50.39" x="2619.6" y="744.23" fill="#ef7c59" class="coloref7c59 svgShape"/><path fill="#ef7c59" d="M2521.1,722.26a12.49,12.49,0,1,0,12.47,12.49A12.49,12.49,0,0,0,2521.1,722.26Z" class="coloref7c59 svgShape"/><rect width="12.48" height="73.73" x="2514.85" y="661.02" fill="#ef7c59" class="coloref7c59 svgShape"/><path fill="#ef7c59" d="M2746.44,655.7a12.48,12.48,0,1,0,12.48,12.48A12.49,12.49,0,0,0,2746.44,655.7Z" class="coloref7c59 svgShape"/><rect width="28.8" height="12.49" x="2746.44" y="661.93" fill="#ef7c59" class="coloref7c59 svgShape"/><path fill="#ef7c59" d="M2827.4,725.5a12.47,12.47,0,1,0,12.48,12.44A12.46,12.46,0,0,0,2827.4,725.5Z" class="coloref7c59 svgShape"/><rect width="51.28" height="12.52" x="2776.12" y="731.71" fill="#ef7c59" class="coloref7c59 svgShape"/><path fill="#ef7c59" d="M2521.08,588.68a12.48,12.48,0,1,0,12.52,12.48A12.48,12.48,0,0,0,2521.08,588.68Z" class="coloref7c59 svgShape"/><rect width="56.86" height="12.49" x="2521.08" y="594.91" fill="#ef7c59" class="coloref7c59 svgShape"/><path fill="#ef7c59" d="M2676.15,731.71a12.5,12.5,0,1,0,12.49,12.52A12.49,12.49,0,0,0,2676.15,731.71Z" class="coloref7c59 svgShape"/><rect width="12.49" height="50.39" x="2669.92" y="744.23" fill="#ef7c59" class="coloref7c59 svgShape"/><path fill="#ffffff" d="M2625.83,737.28a6.93,6.93,0,0,0-6.91,7,6.8,6.8,0,0,0,3.52,5.77l2.71,1.62h1.38l2.71-1.62a6.78,6.78,0,0,0,3.52-5.77A7,7,0,0,0,2625.83,737.28Z" class="colorfff svgShape"/><path fill="#ffffff" d="M2864.72,512.42H2672.51l-14.72-20.92c-5.12-7.28-17-13.44-25.89-13.44h-81.23c-8.91,0-20.79,6.16-25.9,13.44l-14.71,20.92h-26.45a15,15,0,0,0-14.92,14.92V781.7a14.94,14.94,0,0,0,14.92,14.89h381.11a14.92,14.92,0,0,0,14.9-14.89V527.34A14.93,14.93,0,0,0,2864.72,512.42ZM2573.51,791.9h-89.9a10.21,10.21,0,0,1-10.21-10.2V662.61h47v64.74l-2.75,1.62a6.85,6.85,0,0,0-3.49,5.78,6.92,6.92,0,1,0,10.31-5.81l-2.72-1.61V662.61h45l1.62,2.72a7,7,0,0,0,2.38,2.38l2.73,1.61Zm301.42-10.2a10.2,10.2,0,0,1-10.21,10.2h-89.64V738.65H2820l1.63,2.72a6.81,6.81,0,0,0,5.78,3.5,6.9,6.9,0,1,0,0-13.8,6.85,6.85,0,0,0-5.81,3.49l-1.62,2.72h-44.89V642.21l2.71-1.63a6.52,6.52,0,0,0,2.38-2.37l1.62-2.74h39.65v32.46h53.49Zm0-115.13h-52.12V634.14h-41l-1.62-2.74a6.51,6.51,0,0,0-11.56,0l-1.62,2.74h-32.83V556.69h77.71l1.63,2.75a6.78,6.78,0,0,0,5.76,3.48,6.92,6.92,0,1,0,0-13.84,6.8,6.8,0,0,0-5.76,3.52l-1.61,2.75h-120v59.54l-2.73,1.64a6.82,6.82,0,0,0-3.5,5.79,6.91,6.91,0,0,0,13.82,0,6.77,6.77,0,0,0-3.52-5.79l-2.71-1.62V556.69h39.52v78.78H2767l1.61,2.74a6.6,6.6,0,0,0,2.41,2.37l2.71,1.65v25.26h-19.84l-1.64-2.71a6.86,6.86,0,0,0-5.78-3.52,6.91,6.91,0,1,0,5.8,10.3l1.62-2.71h19.84v123h-59.27v-89h-21.15V662.21l2.71-1.61a6.8,6.8,0,0,0,3.52-5.78,6.91,6.91,0,1,0-13.82,0,6.85,6.85,0,0,0,3.5,5.78l2.73,1.63v40.66h-35.33V577.77h-23.35l-1.63-2.71a6.73,6.73,0,0,0-5.78-3.52,6.93,6.93,0,0,0,0,13.85,6.75,6.75,0,0,0,5.78-3.53l1.63-2.73h22v55h-22l-1.6-2.74a6.93,6.93,0,1,0,0,6.81l1.62-2.74h22v68.78h57.84V791.9h-36.21V751.62l2.7-1.62a6.77,6.77,0,0,0,3.53-5.77,6.91,6.91,0,1,0-13.82,0,6.83,6.83,0,0,0,3.52,5.79l2.71,1.63V791.9h-49V751.62l2.71-1.62a6.78,6.78,0,0,0,3.52-5.77,6.92,6.92,0,1,0-13.84,0,6.8,6.8,0,0,0,3.52,5.77l2.71,1.62V791.9h-50.28V669.32l2.71-1.61a6.47,6.47,0,0,0,2.38-2.38l.72-1.19a6.21,6.21,0,0,0,.42-2.21,6.86,6.86,0,0,0-.73-2.91l-.41-.52a6.57,6.57,0,0,0-2.38-2.36l-2.71-1.61V545.3h43.54L2620,548a6.78,6.78,0,0,0,12.72-3.4,7,7,0,0,0-6.93-6.92,6.86,6.86,0,0,0-5.76,3.52l-1.64,2.74h-44.9v56.52h-45l-1.61-2.73a6.92,6.92,0,1,0,0,6.8l1.61-2.71h45v52.68l-2.71,1.61a6.89,6.89,0,0,0-2.4,2.4l-1.6,2.72h-93.4V527.34a10.23,10.23,0,0,1,10.21-10.23h28.89l16.12-22.92c4.26-6.08,14.57-11.44,22.05-11.44h81.23c7.44,0,17.78,5.36,22,11.44L2670,517.11h194.69a10.21,10.21,0,0,1,10.21,10.23Z" class="colorfff svgShape"/><path fill="#ffffff" d="M2676.15,737.28a6.92,6.92,0,0,0-6.89,7,6.83,6.83,0,0,0,3.52,5.79l2.71,1.63,1.36,0,2.7-1.62a6.77,6.77,0,0,0,3.53-5.77A6.94,6.94,0,0,0,2676.15,737.28Z" class="colorfff svgShape"/><polygon fill="#b5cae8" points="717.43 1021.2 717.43 1459.73 1094.3 1459.73 1094.3 1125.54 989.95 1021.2 717.43 1021.2" class="colorb5cae8 svgShape"/><polygon fill="#d1dbed" points="732.86 1005.76 732.86 1444.3 1109.73 1444.3 1109.73 1110.11 1005.39 1005.76 732.86 1005.76" class="colord1dbed svgShape"/><polygon fill="#99b1da" points="1005.39 1110.11 1109.73 1110.11 1005.39 1005.76 1005.39 1110.11" class="color99b1da svgShape"/><rect width="263" height="20.62" x="789.8" y="1125.87" fill="#99b1da" class="color99b1da svgShape"/><rect width="263" height="20.62" x="789.8" y="1177.42" fill="#99b1da" class="color99b1da svgShape"/><rect width="263" height="20.62" x="789.8" y="1228.96" fill="#99b1da" class="color99b1da svgShape"/><rect width="263" height="20.62" x="789.8" y="1280.51" fill="#99b1da" class="color99b1da svgShape"/><rect width="148.6" height="20.62" x="847" y="1332.06" fill="#99b1da" class="color99b1da svgShape"/><path fill="#f3ce90" d="M2746.7,2138.29c-5.74,0-11.45.27-17.08.63.25-5,.4-10,.4-15.1,0-179.69-151.13-325.32-337.55-325.32-133.53,0-248.92,74.74-303.67,183.17a261.17,261.17,0,0,0-113.61-25.77c-140.79,0-254.86,109.95-254.86,245.59a238.69,238.69,0,0,0,2.81,36.57c-108.14,3.64-194.7,89.24-194.7,194.39,0,107.44,90.4,194.57,201.87,194.57.94,0,1.87,0,2.79-.06v.06H2750.94v-.1c138-2.19,249.28-110.68,249.28-244.26C3000.22,2247.7,2886.71,2138.29,2746.7,2138.29Z" class="colorf3ce90 svgShape"/><path fill="#ef7c59" d="M2746.7,2138.3c-5.73,0-11.45.26-17.07.62.25-5,.39-10,.39-15.09,0-179.7-151.13-325.32-337.55-325.32a348.09,348.09,0,0,0-114.9,19.34,338.66,338.66,0,0,1,47.22-3.3c179.21,0,324.48,140,324.48,312.72,0,4.86-.14,9.68-.39,14.52,5.42-.36,10.91-.61,16.43-.61,134.59,0,243.7,105.17,243.7,234.9,0,128.41-107,232.7-239.62,234.8v.1H1691v-.06c-.9,0-1.78.06-2.7.06a200.49,200.49,0,0,1-54-7.33,207,207,0,0,0,96,23.37c1,0,1.87,0,2.8-.06v.06H2750.94v-.1c138-2.18,249.28-110.68,249.28-244.26C3000.22,2247.7,2886.72,2138.3,2746.7,2138.3Z" opacity=".43" class="coloref7c59 svgShape"/><path fill="#ffffff" d="M2219.68 2046.38c0 13.32-.29 26.64.12 39.95.17 5.74-1.58 8.14-7.33 9.59-42.53 10.79-77.25 33.63-103.69 68.73-45.56 60.51-47 143.25-3.5 202.61 14.55 19.86 32.72 35.54 55.22 45.69-1.6-1.41-3.24-2.78-4.79-4.24-41.39-39.31-58.85-86.71-43.34-142.48 13.78-49.52 47.24-80.09 98.47-89.85 8.11-1.54 8.81-.86 8.82 7.51 0 12.89 0 25.78 0 38.67a16.83 16.83 0 00.35 3.06l92.61-92.65-92.72-92.3C2219.86 2042.25 2219.69 2044.31 2219.68 2046.38zM2352.27 2140.53c.21 1 .15 1.51.37 1.73 1.52 1.52 3.1 3 4.64 4.46 33.08 32.08 49.21 70.75 45.28 117.09-4.94 58.36-47.57 103.94-105.22 113.1-6.14 1-7.62-1-7.53-6.6.19-12.45.07-24.92 0-37.38 0-1.93-.28-3.85-.54-7.17l-90.92 92.52 91.08 93.62c.17-2.92.38-5 .39-7 0-12.68.27-25.36-.1-38-.17-5.76 1.78-8.28 7.48-9.68 39.4-9.71 72.05-30.27 98.47-61.14 53.65-62.67 54.73-156.22 2.17-218.93A149.62 149.62 0 002352.27 2140.53z" class="colorfff svgShape"/><path fill="#243354" d="M2830.69,1779.89l-6.31.26a10.38,10.38,0,0,0-9.94,10.8l2.08,50.22a10.38,10.38,0,0,0,10.8,9.94l6.32-.26a10.37,10.37,0,0,0,9.93-10.8l-2.08-50.22A10.38,10.38,0,0,0,2830.69,1779.89Z" class="color243354 svgShape"/><path fill="#3d5891" d="M2844.5 1823q-16.12 5.88-32.13 12.09c-3 1.17-1.51 6 1.55 4.83q16-6.21 32.13-12.1C2849.1 1826.67 2847.58 1821.84 2844.5 1823zM2843.85 1807.05q-16.14 5.9-32.14 12.1c-3 1.17-1.5 6 1.55 4.82q16-6.21 32.13-12.09C2848.44 1810.76 2846.92 1805.93 2843.85 1807.05zM2841.69 1793.2q-16.14 5.9-32.14 12.1c-3 1.17-1.5 6 1.55 4.82q16-6.21 32.13-12.09C2846.28 1796.91 2844.76 1792.08 2841.69 1793.2z" class="color3d5891 svgShape"/><path fill="#5681bf" d="M2835,1840.7c-7.85,3.15-15.64,6.16-24,6.63-3.15.18-2.83,0-3.41-3.33-.43-2.47-.75-5-1-7.46q-.73-6.57-.9-13.21t.25-13.28a56.94,56.94,0,0,1,.67-7.52c.67-3.26.83-3,3.4-4.13,3.79-1.7,8.51-2.32,12.49-3.34q7.31-1.87,14.64-3.56c5.86-1.36,3.18-10.71-2.65-9.36q-9.43,2.19-18.81,4.65c-4.61,1.21-12,1.78-15.5,5.81-3.31,3.85-3,11-3.36,15.81a155.67,155.67,0,0,0-.23,19.91,160.92,160.92,0,0,0,2,17.68c.75,4.57,1.69,9,6.33,10.59,10.09,3.34,23.39-2.75,32.82-6.53C2843.23,1847.8,2840.62,1838.43,2835,1840.7Z" class="color5681bf svgShape"/><path fill="#243354" d="M2857.4,1779.69c-4.68.43-9.2,1.52-13.89,1.9q-1.11,0-2.19.12c-6.23.46-6.41,10.14,0,10,1.65,0,3.3-.13,4.93-.27,3.93,0,7.71.88,9.14,5.16,1.89,5.62,1.95,12.42,1.88,18.32a80.86,80.86,0,0,1-2.34,18.52c-.88,3.6-.43,4.13-3.91,5-3.11.77-6.22,1.5-9.32,2.25s-4,3.67-3.31,6.12a4.33,4.33,0,0,0,3.42,5.18c8.3,1.88,18.94,2.78,24-6,2.62-4.49,2-10.47,2.22-15.44l.72-17.9c.33-8.43,3.41-21.62-1.87-29C2864.61,1780.44,2861.19,1779.34,2857.4,1779.69Z" class="color243354 svgShape"/><path fill="#99b1da" d="M2799.06,1844.42c-.42-2.3-1-4.76-2.73-6.28-2.87-2.47-9.68,1.22-12.8,2.06-12.78,3.45-25.59,5.83-38.64,8-8.74,1.46-17.25,3.11-26.09,3.61s-17.43.73-26.12,1.52c-6.49.58-27.51.62-28.33,9.66-.5,5.47,6.32,9.27,10.3,11.48,5.91,3.28,12,6.57,18.12,9.42a234,234,0,0,0,57.28,18.37c15.65,2.86,31.81,4.1,47.48,1.62,1.81-.29,3.6-.63,5.39-1a4,4,0,0,0,2.08-.91c.8-.8.78-2.08.71-3.2A445.33,445.33,0,0,0,2799.06,1844.42Z" class="color99b1da svgShape"/><path fill="#2f4171" d="M3355.19,1887c-6-1.22-12-2.44-17.93-4.06-89.86-21-180.9-41.23-270.51-64.63q-9.54-2.49-19.07-5c-23.5-6.07-63.21-17.87-86.51-24.71-45.41-13.32-57.12-31.56-89.86-56.36-13.22-10-26-20.56-38.56-31.42l3.31,85.73,19.85-5a4.13,4.13,0,0,1,5,4.07l1.76,50.88a4.74,4.74,0,0,1-3.52,4.79l-20.84,4.73,1.87,48.29h0c.22-.82,6.26-3.2,8-4.85a40.68,40.68,0,0,1,10.13-6.64c24.73-12.47,51.74-23.79,79.8-16.3,45.14,12.05,90,25.27,134.86,38.35,45.49,13.28,90.85,27,135.87,41.82l2.71.89c22.27,7.33,44.47,14.9,66.69,22.41q17.32,5.85,34.69,11.61c12.45,4.1,21.43,9.95,33.18.64,10.48-8.31,19.13-21.35,23.25-34a68.09,68.09,0,0,0,2.35-32C3369.94,1904.69,3368.93,1889.74,3355.19,1887Z" class="color2f4171 svgShape"/><path fill="#d1dbed" d="M2833.92,1884.76a124.27,124.27,0,0,1-3.47-17.71c-.84-6.23-1.35-12.48-1.82-18.74l-17.33,3.94c-5.33,1.21-10.2-3-10.21-8.75l-.06-44.45a4.71,4.71,0,0,1,3.44-4.61l20.06-5c-1.41-31.76-1.23-63.6.53-95.34q3.83,3.39,7.69,6.74l-.15-3.86c-15.29-8.92-47-14-75.44-8.84s-81.19,62.87-95.6,76.65,2,23,2,23c3.26-.72,6.52-1.4,9.79-2.08q13.24-2.74,26.57-5.13,9.74-1.74,19.49-3.34c3.25-.54,6.5-1.09,9.76-1.59,2.61-.4,5.29,0,8-.19,3-.21,5.93-.41,8.9-.35,5.67.1,12.06.84,17.4,2.86,1.87.71,5.28,3.12,5.33,5.53,0,.29,3,132.39,3,132.39a2.3,2.3,0,0,0,3.08,2.11l65.43-23.62S2836.33,1893.22,2833.92,1884.76Z" class="colord1dbed svgShape"/><path fill="#5681bf" d="M2828.63 1848.31c.47 6.26 1 12.51 1.82 18.74a124.27 124.27 0 003.47 17.71c2.41 8.46 6.29 9.62 6.3 9.62l-1.87-48.29zM2825.06 1694.1c-1.76 31.74-1.94 63.58-.53 95.34l11.53-2.87-3.31-85.73Q2828.89 1697.48 2825.06 1694.1z" class="color5681bf svgShape"/><path fill="#99b1da" d="M3370,1888.49c-6.42-1.29-12.77-2.59-19.1-4.32-85.31-19.9-175.37-40.29-260.71-61.9L3067,1906.92l2.46.72c48.45,14.14,96.76,28.8,144.73,44.54l2.88.94c23.72,7.81,47.37,15.88,71,23.88q18.47,6.23,37,12.36c13.26,4.38,22.83,10.61,35.34.69,11.17-8.85,20.38-22.74,24.76-36.2a72.5,72.5,0,0,0,2.51-34.11C3385.68,1907.37,3384.6,1891.44,3370,1888.49Z" class="color99b1da svgShape"/><path fill="#ffffff" d="M3343.15,1917.94a20.29,20.29,0,1,0,14.22,24.93A20.29,20.29,0,0,0,3343.15,1917.94Z" class="colorfff svgShape"/><path fill="#5681bf" d="M3061.08 1838.35c-30.89-8.46-133.49-36.8-141.31-42.45-6.91-5-14-9.71-21.1-14.46-4.05-2.72-19.18-16.44-23.71-16-10.19.93-4.7 28.11-4.45 34.87.5 13.39 1.17 26.78 1.91 40.17a6.35 6.35 0 008.33 5.68c8.79-2.87 23.52-6.45 36.54-3.74 16.78 3.51 103.36 30.33 131.64 39.14a9.07 9.07 0 0011.44-6.26l7.06-25.79A9.06 9.06 0 003061.08 1838.35zM3343.17 1917.27a21.59 21.59 0 1015.13 26.53A21.61 21.61 0 003343.17 1917.27zm12.93 25.93a19.31 19.31 0 11-13.53-23.73A19.34 19.34 0 013356.1 1943.2z" class="color5681bf svgShape"/><path fill="#f5b0a6" d="M3268.23,1454.15s57.28,55.86,53.57,70.19S3214.54,1707.59,3205.52,1724s-41.69,23.3-66.88,36.17-77.1,52.5-74,61.22c3,8.51,34.43-1.31,35.93-1.76-1.54,2.47-58.23,91.46-44.66,94.51,13.76,3.11,30.17-14.72,30.17-14.72s-.86,12.71,7.38,16.56,22.21-4.82,22.21-4.82,3.58,6.08,9.87,6.75c12.33,1.3,16.75-8.36,16.75-8.36s9.3,5.67,20.68-.85,47.62-70.71,64.61-106S3448,1598.86,3450.2,1530.94c.86-26.88-21.57-79.21-54.07-133.83C3357.1,1430.41,3268.23,1454.15,3268.23,1454.15Z" class="colorf5b0a6 svgShape"/></g></svg>