<svg xmlns="http://www.w3.org/2000/svg" data-name="1" viewBox="0 0 721.71 587.47"><defs><linearGradient id="b" x1="231.87" x2="529.48" y1="514.32" y2="-64.48" gradientUnits="userSpaceOnUse"><stop offset="0" stop-color="#92fabd" class="stopColor92fabd svgShape"/><stop offset="1" stop-color="#ffffff" class="stopColorfff svgShape"/></linearGradient><linearGradient id="c" x1="387.26" x2="387.26" y1="416.45" y2="481.71" gradientUnits="userSpaceOnUse"><stop offset=".22" stop-color="#e0ccb4" class="stopColore0ccb4 svgShape"/><stop offset=".84" stop-color="#f6f0e8" class="stopColorf6f0e8 svgShape"/></linearGradient><clipPath id="a"><path fill="none" d="M586.59 533.06c60.23-45.85 117.66-91.65 77-148.41s-57.13-76-38.92-131.22S575.38 32.56 362.48 32.56s-259.7 113.68-241 186.61S146.94 301.84 83 337.58s-31.47 85.89 3.55 124.24 89.64 71.24 89.64 71.24Z"/></clipPath></defs><g data-name="68" fill="#000000" class="color000 svgShape"><path fill="#f6f0e8" d="M586.59 533.06c60.23-45.85 117.66-91.65 77-148.41s-57.13-76-38.92-131.22S575.38 32.56 362.48 32.56s-259.7 113.68-241 186.61S146.94 301.84 83 337.58s-31.47 85.89 3.55 124.24 89.64 71.24 89.64 71.24Z" class="colorf6f0e8 svgShape"/><ellipse cx="360.85" cy="541.88" fill="#f1eeee" rx="321.12" ry="13.03" class="colorf1eeee svgShape"/><g clip-path="url(#a)" fill="#000000" class="color000 svgShape"><path fill="#e8baa4" d="M604.41 431.82V-13.96h-26.66v446.04l26.66-.26z" class="colore8baa4 svgShape"/><path fill="#d0a692" d="M167.48 431.82V-13.96h31.21v446.04l-31.21-.26z" class="colord0a692 svgShape"/><path fill="#927566" d="M184.39-13.96h404.39v446.04H184.39z" class="color927566 svgShape"/><path fill="url(#b)" d="M195.42-5.24h382.33v437.32H195.42z"/><path fill="#69c892" d="M577.75-5.24v296.56a35.54 35.54 0 0 1-26.18-20.14c-1.73-3.93-2.78-8.28-5.59-11.53-2.5-2.88-6.1-4.52-9.33-6.55a41 41 0 0 1-18.43-38.63c-21.1-7.72-29.53-38.14-15.42-55.62a39.75 39.75 0 0 1-10.43-64.46c-12-3.18-19.63-16-20-28.43s5.24-24.27 12.15-34.58a36.92 36.92 0 0 1-19.74-13.72 40.48 40.48 0 0 1-8.07-21.38c0-.49-.06-1-.08-1.52Zm-383.5 0V183.1c18.22-5.21 32.4-18 32.12-31.47a4.15 4.15 0 0 1 .64-2.95c.85-1 2.56-1.56 4.13-2.08 19.5-6.51 29.25-23.87 21.06-37.49 24-7.41 36.36-28.64 26.19-45.14-1.07-1.73-2.38-3.58-1.74-5.41.52-1.47 2.2-2.61 3.76-3.7 22.23-15.58 31.1-39.08 23.94-60.1Z" class="color69c892 svgShape"/><path fill="#ffffff" d="M402.06-5.24 195.42 293.78v39.07L465.31-5.24h-63.25zM577.75-.67 195.42 381.01v33.22L577.75 93.48V-.67z" opacity=".5" class="colorfff svgShape"/><path fill="#927566" d="M383.89-13.96h10.77v452h-10.77z" class="color927566 svgShape"/><path fill="url(#c)" d="m176.81 420.1 11.31 54.28H584.9l12.82-54.28H176.81z"/><path fill="#927566" d="M618 420.1H162.69a6.75 6.75 0 0 1-6.75-6.75 6.75 6.75 0 0 1 6.75-6.74H618a6.74 6.74 0 0 1 6.74 6.74 6.75 6.75 0 0 1-6.74 6.75Z" class="color927566 svgShape"/><path fill="#be9885" d="M618 406.61H428c5.8 4.34 11.47 8.81 16.89 13.49H618a6.75 6.75 0 0 0 0-13.49Z" class="colorbe9885 svgShape"/></g><ellipse cx="342.21" cy="543.33" fill="#c7bdaa" rx="217.36" ry="6.77" class="colorc7bdaa svgShape"/><path fill="#ffffff" d="M242.34 394.51h35.06a4.61 4.61 0 0 1 4.61 4.61v3.26a4.61 4.61 0 0 1-4.61 4.62h-35.06v-12.49Z" transform="rotate(180 262.18 400.75)" class="colorfff svgShape"/><path fill="#ec7978" d="M245.54 393.48h37.58v1h-35.91c-2.69 0-4.87 2.79-4.87 6.24s2.18 6.24 4.87 6.24h35.91v1h-37.58c-3.13 0-5.67-3.25-5.67-7.27s2.54-7.21 5.67-7.21Z" class="colorec7978 svgShape"/><path fill="#ccc6c2" d="M279 397.21h-13.72a.22.22 0 0 1 0-.44H279a.22.22 0 0 1 0 .44Zm-1.3 3.79H264a.22.22 0 0 1 0-.44h13.7a.22.22 0 0 1 0 .44Zm.75 3.35H267.2a.22.22 0 0 1 0-.44h11.25a.22.22 0 0 1 0 .44Z" class="colorccc6c2 svgShape"/><path fill="#ebebeb" d="M222.52 394.51h35.06a4.61 4.61 0 0 1 4.61 4.61v3.26a4.61 4.61 0 0 1-4.61 4.61h-35.06v-12.48Z" transform="rotate(180 242.36 400.75)" class="colorebebeb svgShape"/><path fill="#d2524f" d="M225.72 393.48h37.57v1h-35.9c-2.69 0-4.87 2.79-4.87 6.24s2.18 6.24 4.87 6.24h35.9v1h-37.57c-3.13 0-5.67-3.25-5.67-7.27s2.54-7.21 5.67-7.21Z" class="colord2524f svgShape"/><path fill="#ccc6c2" d="M259.21 397.21H231a.22.22 0 0 1 0-.44h28.23a.22.22 0 0 1 0 .44Zm-2.73 3.79h-28.24a.22.22 0 0 1 0-.44h28.24a.22.22 0 0 1 0 .44Zm1.52 3.35h-23.1a.22.22 0 0 1 0-.44H258a.22.22 0 0 1 0 .44Z" class="colorccc6c2 svgShape"/><path fill="#ffffff" d="M242.34 380h35.06a4.61 4.61 0 0 1 4.61 4.61v3.26a4.61 4.61 0 0 1-4.61 4.61h-35.06V380Z" transform="rotate(180 262.18 386.21)" class="colorfff svgShape"/><path fill="#ffc280" d="M245.54 378.94h37.58v1h-35.91c-2.69 0-4.87 2.79-4.87 6.24s2.18 6.24 4.87 6.24h35.91v1h-37.58c-3.13 0-5.67-3.26-5.67-7.27s2.54-7.21 5.67-7.21Z" class="colorffc280 svgShape"/><path fill="#ccc6c2" d="M279 382.66h-12.84a.22.22 0 0 1 0-.44H279a.22.22 0 0 1 0 .44Zm-1.22 3.77h-12.87a.22.22 0 0 1 0-.44h12.87a.22.22 0 0 1 0 .44Zm.71 3.38H268a.22.22 0 0 1 0-.44h10.54a.22.22 0 0 1 0 .44Z" class="colorccc6c2 svgShape"/><path fill="#ebebeb" d="M222.52 380h35.06a4.61 4.61 0 0 1 4.61 4.61v3.26a4.61 4.61 0 0 1-4.61 4.61h-35.06V380Z" transform="rotate(180 242.36 386.21)" class="colorebebeb svgShape"/><path fill="#f2a756" d="M225.72 378.94h37.57v1h-35.9c-2.69 0-4.87 2.79-4.87 6.24s2.18 6.24 4.87 6.24h35.9v1h-37.57c-3.13 0-5.67-3.26-5.67-7.27s2.54-7.21 5.67-7.21Z" class="colorf2a756 svgShape"/><path fill="#ccc6c2" d="M259.21 382.66H231a.22.22 0 0 1 0-.44h28.23a.22.22 0 0 1 0 .44Zm-2.73 3.77h-28.24a.22.22 0 0 1 0-.44h28.24a.22.22 0 0 1 0 .44Zm1.52 3.38h-23.1a.22.22 0 0 1 0-.44H258a.22.22 0 0 1 0 .44Z" class="colorccc6c2 svgShape"/><path fill="#45403b" d="M280.85 298.82a11.14 11.14 0 0 1 4.67 0 45.66 45.66 0 0 1 4.59 1.09c1.51.42 3 .94 4.47 1.5s2.91 1.21 4.34 1.89a31.83 31.83 0 0 0-4.21-2.21 37.35 37.35 0 0 0-4.48-1.61 36.79 36.79 0 0 0-4.66-1 9.68 9.68 0 0 0-4.72.34Zm3.05 2.73a41.8 41.8 0 0 1 12.1 7.25 24 24 0 0 0-12.09-7.25Zm-2.36 1.91a46.28 46.28 0 0 1 6.88 9.69 21.55 21.55 0 0 0-6.88-9.69Zm-21.97-4.64a9.66 9.66 0 0 0-4.72-.3 35.45 35.45 0 0 0-9.13 2.61 31.22 31.22 0 0 0-4.21 2.21c1.43-.68 2.87-1.32 4.34-1.89s3-1.08 4.47-1.5a44.4 44.4 0 0 1 4.59-1.09 11.09 11.09 0 0 1 4.66-.04Zm-3.04 2.73a24 24 0 0 0-12.09 7.25 42.73 42.73 0 0 1 5.73-4.14 42.06 42.06 0 0 1 6.36-3.11Zm2.36 1.91a21.05 21.05 0 0 0-4.12 4.36 20.77 20.77 0 0 0-2.76 5.33 47.58 47.58 0 0 1 3.13-5.07 49.8 49.8 0 0 1 3.75-4.62Z" class="color45403b svgShape"/><path fill="#4e4c4b" d="M205.37 308.65a38.57 38.57 0 0 0 7.2 17.41c3.52 4.63 8.37 8.05 11.68 12.85 3.84 5.57 5.46 12.63 5.84 19.31a5.63 5.63 0 0 0 .59 2.73 1.78 1.78 0 0 0 2.41.71 40.54 40.54 0 0 0 .82-6.75 32.43 32.43 0 0 0-5.86-20.23c-4.59-6.4-10.7-11.65-14-19.05 0-.1-.09-.21-.13-.33a1.76 1.76 0 0 1-.1-.3 2.79 2.79 0 0 1-.14-.47c-.14-.53-.27-1.15-.39-1.79-.05-.26-.09-.53-.14-.78s0-.33-.08-.49c-.19-1.25-.33-2.4-.4-3 0-.24-.05-.38-.05-.38-.16 0-.78.15-1.63.28h-.22a22.73 22.73 0 0 1-5.4.28Z" class="color4e4c4b svgShape"/><path fill="#4e4c4b" d="M260.22 308.65c-8.19-4-12-13.14-8.1-21.31a21.79 21.79 0 0 1 4.05-16 35.47 35.47 0 0 0 3.82 7.45 17.38 17.38 0 0 1 8.16-2.67 13.12 13.12 0 0 1 7.77 2.15 37.25 37.25 0 0 0 3.32-6.58l.14-.35a4.16 4.16 0 0 0 .62.88c.19.3.38.6.56.91.37.61.71 1.26 1 1.9a22.09 22.09 0 0 1 1.41 4 21.49 21.49 0 0 1 .05 10.27c.53 2.06.89 4.17 1.26 6.23a16.21 16.21 0 0 1-.38 8.72c-1.44 3.74-4.47 5.66-8 6.45a12.6 12.6 0 0 1-1.28.25c.14 2 .1 4.08.07 6.05 0 1 0 2-.07 2.93q-.27 12.63-1.35 25.28a70.37 70.37 0 0 1-1.43 9.57c0 .84-.05 1.69-.08 2.53q-.24 7.18-.55 14.36a10.49 10.49 0 0 1 4.8.63 3.76 3.76 0 0 1 2.33 3.89c-.54 2.56-4 3-6.6 2.8h-.09c-1.47-.07-9.85-.15-12.92-.18a121.57 121.57 0 0 1-13.71.15c-5.55.31-12.41-.07-15.14-.08a5.68 5.68 0 0 1-2.89-.57 5.76 5.76 0 0 1-2.5-3.7c-1.75-6.8.45-14 3.67-20.13 0 .1-.09.19-.13.3 0-.11.09-.2.13-.3.68-1.29 1.4-2.54 2.13-3.73a1.1 1.1 0 0 0 .15-.31 27.18 27.18 0 0 0 3.32-5.95c8.36-12.49 20.95-21.05 26.46-35.84Z" class="color4e4c4b svgShape"/><path fill="#595655" d="M265.21 278.93a8.76 8.76 0 0 0-6.34 3 12.63 12.63 0 0 0-2.11 2.84 17.7 17.7 0 0 0-1.4 7 15.63 15.63 0 0 0 .51 3.59 15 15 0 0 0 .56 1.72c.11.29.24.58.37.87.06.13.39.59.36.71l.6-2.47a14.5 14.5 0 0 0 1.34 4.05l1.2-1.71a24.46 24.46 0 0 1 1 3.37 4.79 4.79 0 0 1 1.89-1.21l.06 2.09 4.8-4.07.06 2.1a23.87 23.87 0 0 0 4.31-4.67l-.06 2.1a16.6 16.6 0 0 0 1.45-2.81c1.65-4.15 2.43-12.17-2-15a11.74 11.74 0 0 0-6.6-1.5Z" class="color595655 svgShape"/><path fill="#6f6c6a" d="M268.36 371c0 .78.07 1.55.11 2.33a3.24 3.24 0 0 1 3.6 5.2 5.39 5.39 0 0 0-.39.43h.09c2.62.17 6.06-.24 6.6-2.8a3.76 3.76 0 0 0-2.33-3.89 10.49 10.49 0 0 0-4.8-.63q.3-7.19.55-14.36c0-.84 0-1.69.08-2.53a70.37 70.37 0 0 0 1.43-9.57q1.09-12.65 1.35-25.28a12.75 12.75 0 0 1-.29 1.82c-.12.73-.24 1.46-.37 2.19a5.43 5.43 0 0 1-.25 1.13 4.13 4.13 0 0 0-.36 1c-.19 1.31-.2 2.66-.3 4-.2 2.67-.39 5.34-.59 8l-.39 5.36a27.21 27.21 0 0 1-1 6.29 9.09 9.09 0 0 1-3.63 5.06s.66 2.17.7 2.38c.14.75.13 1.52.31 2.26a7.79 7.79 0 0 1 0 2.26 110.026 110.026 0 0 0-.12 9.35Z" class="color6f6c6a svgShape"/><path fill="#595655" d="M259.28 337a23.07 23.07 0 0 1-6.18 4.56c-3.16 1.63-9.2 3.61-10.8 7.14q1.14-2.52 2.27-5c-4.25 3-7.19 7.54-10 11.94a3.72 3.72 0 0 0 .2-1c.08-.38.17-.75.26-1.12.18-.72.37-1.44.57-2.15 2.86-9.83 9.72-17.43 16.46-24.95l.25-.29a31.5 31.5 0 0 0 6.91-11.73 22.52 22.52 0 0 1-.81 7.35 19.09 19.09 0 0 0 3.42-7 17.16 17.16 0 0 1-.68 7.63 17.65 17.65 0 0 0 4-7.47 29.48 29.48 0 0 1 .34 3.39 31.68 31.68 0 0 1-.23 3.22c-.4 6.23-2.17 11.48-5.98 15.48Zm-5.66 10.05c2.8-1.13 6.37.4 7.91 3.17a10.28 10.28 0 0 1 1 5.79c-.26 3.34-1.25 11.12-3.68 13.47 1.33-1.29 3.44-.27 4.74 1.06a5.46 5.46 0 0 1 1.88 4.27c-.21 1.67-1.56 2.84-2.81 3.82 1.34-1.05.13-3.89-.87-4.75-2.08-1.79-4.07.62-6.17-.45.61-2.91 1.5-5.89 1.82-8.85 1.14-10.45-16.62-2.35-15.74 5.25-.54-4.65 1.15-9.25 3.45-13.21 1.9-3.28 4.77-8.08 8.47-9.57Z" class="color595655 svgShape"/><path fill="#4e4c4b" d="M204.61 297.17a63.79 63.79 0 0 0 .76 11.48 16.7 16.7 0 0 0 5.38-.12 13.94 13.94 0 0 0 1.82-.49v-.12c-.11-3.2.23-7-1.42-9.85a8.57 8.57 0 0 0-3.36-3.06c-1.58-.8-3.14-.6-3.18 2.16Z" class="color4e4c4b svgShape"/><path fill="#6f6c6a" d="M209.91 302.61c.28 1.88.51 3.81.81 5.75v.17a34 34 0 0 0 3.05 10.55c.29.59.63 1.17 1 1.74a64.64 64.64 0 0 0 6.36 8.05 73.5 73.5 0 0 1 6.49 8.43 43.91 43.91 0 0 1 5.56 13.38 38.13 38.13 0 0 1 .72 4.23 32.43 32.43 0 0 0-5.86-20.23c-4.59-6.4-10.7-11.65-14-19.05l-.13-.33a1.76 1.76 0 0 1-.1-.3 2.79 2.79 0 0 1-.14-.47 15.88 15.88 0 0 1-.39-1.79c-.05-.26-.09-.53-.14-.78s0-.33-.08-.49a23.33 23.33 0 0 1-.4-3c0-.24-.05-.38-.05-.38v-.12c-.11-3.2.23-7-1.42-9.85a8.57 8.57 0 0 0-3.36-3.06 21.07 21.07 0 0 1 1.84 6Z" class="color6f6c6a svgShape"/><path fill="#635c56" d="m255.72 281.63-.35-1a25.24 25.24 0 0 1-1.84 4.43 19.52 19.52 0 0 1 0-4.83 20.57 20.57 0 0 1 1.19-4.69 15.68 15.68 0 0 1 1.16-2.45v1.29c0 .43.09 1 .14 1.48a19.49 19.49 0 0 1 .09 3.74 9 9 0 0 1-.15 1c0 .17-.06.34-.1.5a2.3 2.3 0 0 0-.14.53Z" class="color635c56 svgShape"/><path fill="#6f6c6a" d="M275.93 310.69c3.52-.79 6.55-2.71 8-6.45a16.21 16.21 0 0 0 .38-8.72c-.37-2.06-.73-4.17-1.26-6.23A21.49 21.49 0 0 0 283 279a22.09 22.09 0 0 0-1.41-4c-.31-.64-.65-1.29-1-1.9-.18-.31-.37-.61-.56-.91a4.16 4.16 0 0 1-.62-.88l-.14.35c.32.8.6 1.62.86 2.44q.56 1.65 1 3.36c.28 1.13.53 2.28.73 3.43s.35 2.3.47 3.47v.43a7.67 7.67 0 0 0-3-3 12.29 12.29 0 0 1 1.25 3.66c1 4.56 1.79 9.18 2.35 13.82a10.25 10.25 0 0 0-1.83-2.26 16.74 16.74 0 0 1 .22 6.27l-1.06-1.53a4 4 0 0 1-.65 2.65 38.2 38.2 0 0 1-3.68 6.29Z" class="color6f6c6a svgShape"/><path fill="#ba4745" d="M125.37 33h2.42v87.39h-2.42z" class="colorba4745 svgShape"/><path fill="#ba4745" d="m159.15 166.09-36.73.08-26 .06s1.38-47.85 28.12-50.23a19.61 19.61 0 0 1 2-.11c28.76-.05 32.61 50.2 32.61 50.2Z" class="colorba4745 svgShape"/><path fill="#d26563" d="M140.26 160.57h16.83s-8.73-40.19-26.36-41.74a52.65 52.65 0 0 1 7.08 13.74 53.43 53.43 0 0 1 1.79 6.48 72.42 72.42 0 0 1 .66 21.52Z" class="colord26563 svgShape"/><path fill="#973937" d="m122.42 166.17-26 .06s1.38-47.85 28.12-50.23a47.44 47.44 0 0 0-7.35 25.08 67.74 67.74 0 0 0 5.23 25.09Z" class="color973937 svgShape"/><path fill="#4c9e3e" d="m134.33 462.8-.82-.06A229.42 229.42 0 0 0 120.93 371c-5.56-15.85-13.56-30.82-21.3-45.29-6.84-12.79-13.91-26-19.28-39.82l.77-.3c5.36 13.76 12.41 27 19.24 39.73 7.75 14.5 15.77 29.49 21.35 45.4a230 230 0 0 1 12.62 92.08Z" class="color4c9e3e svgShape"/><path fill="#4c9e3e" d="M82.63 272.3c2.57 7.12-1.29 15-1.29 15s-8-3.62-10.61-10.74-2-13.85 1.3-15 8.03 3.62 10.6 10.74Zm22.93 31.4c-4.39 6.17-13.1 7.5-13.1 7.5s-1.6-8.66 2.79-14.83 10.25-9.52 13.1-7.5 1.65 8.67-2.79 14.83Zm-31.16 5.56c7.58-.27 13.49-6.79 13.49-6.79s-6.39-6.07-14-5.79-13.61 3.32-13.47 6.79 6.39 6.07 13.98 5.79ZM118 328.3c-4.39 6.17-13.1 7.5-13.1 7.5s-1.6-8.66 2.79-14.83 10.25-9.52 13.1-7.5 1.57 8.66-2.79 14.83Zm-28.26 9.86c7.59-.27 13.5-6.79 13.5-6.79s-6.4-6.07-14-5.79-13.63 3.31-13.5 6.79 6.41 6.07 14 5.79Zm44.36 25.35c-5.45 5.25-14.26 4.95-14.26 4.95s0-8.81 5.48-14.06 11.84-7.46 14.26-4.95-.03 8.81-5.48 14.06Zm-29.87 3.26c7.5 1.14 14.52-4.17 14.52-4.17s-5.16-7.15-12.67-8.29-14 .74-14.52 4.18 5.16 7.15 12.67 8.28Zm40.3 33.71c-6.22 4.31-14.87 2.61-14.87 2.61s1.44-8.69 7.66-13 12.88-5.48 14.87-2.61-1.44 8.7-7.66 13Zm-29.88.83c7.23 2.32 15-1.8 15-1.8s-4-7.88-11.18-10.2-13.94-1.52-15 1.8 3.95 7.89 11.18 10.2Z" class="color4c9e3e svgShape"/><path fill="#5ebf4e" d="M81.29 283.67c-2.3-1.46-5.93-4.29-7.4-8.34-2.52-7-1.34-11.75 0-12.23a1 1 0 0 1 .3 0c1.7 0 5.25 3.29 7.48 9.46 1.45 4.04.47 8.52-.38 11.11ZM95.49 308c-.11-2.73.14-7.32 2.64-10.84 3.35-4.7 7.22-7.16 9.3-7.16a1.1 1.1 0 0 1 .73.18c.49.35.82 1.62.43 3.66a21.72 21.72 0 0 1-3.74 8.1c-2.51 3.5-6.75 5.24-9.36 6.06Zm-21.1-1.44c-6.92 0-10.64-2.41-10.69-3.7a1.75 1.75 0 0 1 .56-1.08c1.45-1.57 5.36-3.23 10.82-3.43h.42c4.16 0 8 2.2 10.12 3.73-2.1 1.75-5.9 4.31-10.21 4.47h-1Zm33.52 25.99c-.11-2.73.14-7.32 2.64-10.83 3.35-4.7 7.21-7.16 9.3-7.16a1.1 1.1 0 0 1 .73.18c.49.35.82 1.62.43 3.66a21.72 21.72 0 0 1-3.74 8.1c-2.49 3.5-6.74 5.26-9.36 6.05Zm-18.18 2.91c-6.92 0-10.63-2.41-10.68-3.7a1.74 1.74 0 0 1 .55-1.09c1.45-1.56 5.36-3.22 10.83-3.42h.42c4.15 0 8 2.19 10.11 3.73-2.1 1.75-5.9 4.31-10.21 4.47h-1Zm33.61 30.16c.39-2.7 1.49-7.17 4.6-10.16 3.86-3.71 7.74-5.37 9.88-5.37a1.85 1.85 0 0 1 1.27.36c.42.44.5 1.74-.25 3.68a21.89 21.89 0 0 1-5.18 7.27c-3.12 3.01-7.6 3.94-10.32 4.22Zm-15.87-1.41a12.22 12.22 0 0 1-1.83-.14c-7.08-1.07-11-4.35-10.81-5.78.16-1.1 3-2.63 8-2.63a27.14 27.14 0 0 1 4 .3c4.27.65 7.77 3.64 9.67 5.61a19.42 19.42 0 0 1-9 2.64Zm27.39 36.49h-1.36c.82-2.61 2.62-6.84 6.17-9.29 3.37-2.33 7.1-3.79 9.73-3.79a2.63 2.63 0 0 1 2.07.63c.35.5.22 1.8-.84 3.59a21.82 21.82 0 0 1-6.26 6.35 17 17 0 0 1-9.51 2.51Zm-14.37-1.41a13.37 13.37 0 0 1-4.08-.6c-6.82-2.19-10.19-6.06-9.75-7.44.2-.64 1.72-1.59 5.06-1.59a23.92 23.92 0 0 1 7.17 1.22c4.11 1.32 7.09 4.83 8.64 7.08a21.34 21.34 0 0 1-7 1.33Z" class="color5ebf4e svgShape"/><path fill="#4c9e3e" d="m147.12 453.25-.82-.08c.86-9.45 4.06-18.12 7.55-26.92a207.19 207.19 0 0 0 8.86-29.3c3.82-16.36 5.1-33.28 6.34-49.64 1.09-14.46 2.23-29.42 5.1-43.95l.81.16c-2.86 14.48-4 29.41-5.09 43.85-1.24 16.39-2.52 33.35-6.35 49.77a209.27 209.27 0 0 1-8.9 29.42c-3.47 8.73-6.62 17.35-7.5 26.69Z" class="color4c9e3e svgShape"/><path fill="#4c9e3e" d="M183.38 293.1c-1.65 7.38-9.16 12-9.16 12s-4.83-7.37-3.18-14.76 5.75-12.75 9.16-12 4.8 7.37 3.18 14.76Zm2.5 38.79c-7 2.85-15.08-.7-15.08-.7s3.3-8.17 10.31-11 13.76-2.54 15.08.69-3.3 8.12-10.31 11.01Zm-29.28-12.03c6.55 3.84 15 1.52 15 1.52s-2.14-8.56-8.69-12.4-13.28-4.52-15-1.51 2.14 8.53 8.69 12.39Zm26.55 39.45c-7 2.85-15.08-.7-15.08-.7s3.31-8.16 10.32-11 13.76-2.54 15.08.7-3.3 8.15-10.32 11ZM154 352.48c6.55 3.84 15 1.52 15 1.52s-2.14-8.56-8.69-12.4-13.28-4.52-15-1.51 2.17 8.55 8.69 12.39Zm23.86 45.2c-7.42 1.5-14.69-3.48-14.69-3.48s4.76-7.41 12.18-8.92 14 .05 14.68 3.48-4.75 7.41-12.17 8.92ZM150.9 384.4c5.73 5 14.5 4.26 14.5 4.26s-.52-8.8-6.25-13.78-12.21-6.9-14.49-4.27.52 8.8 6.24 13.79Zm15.92 50.07c-7.56.3-13.95-5.78-13.95-5.78s5.89-6.56 13.45-6.86 13.81 2.29 13.94 5.78-5.88 6.56-13.44 6.86Zm-25.66-15.34c4.86 5.84 13.63 6.53 13.63 6.53s.89-8.77-4-14.6-11-8.77-13.62-6.54-.86 8.77 3.99 14.61Z" class="color4c9e3e svgShape"/><path fill="#5ebf4e" d="M176.84 301.1c-1.17-2.47-2.71-6.8-1.77-11 1.44-6.41 4.67-10.35 6.36-10.35h.18c1.36.31 3.14 4.86 1.51 12.13-.94 4.22-4.18 7.48-6.28 9.22Zm4.85 28.98a21.92 21.92 0 0 1-5.9-.87c1.36-2.36 4-6.09 8-7.71a22.33 22.33 0 0 1 8.15-1.79c2.43 0 3.81.66 4.06 1.28s-.18 1.8-1.6 3.32a22.09 22.09 0 0 1-7.51 4.83 14 14 0 0 1-5.2.94Zm-14.1-10.92a15.7 15.7 0 0 1-8-1.91c-6.19-3.63-8.63-8.14-7.9-9.39.28-.49 1.26-.79 2.57-.79 2.62 0 6.15 1.16 9.45 3.09 3.75 2.2 5.88 6.27 6.9 8.8a23.89 23.89 0 0 1-3 .2ZM179 357.5a22.38 22.38 0 0 1-5.91-.86c1.37-2.37 4.05-6.1 8-7.72a22.59 22.59 0 0 1 8.16-1.79c2.43 0 3.81.66 4.06 1.28.52 1.29-2.21 5.35-9.11 8.15a13.82 13.82 0 0 1-5.2.94Zm-14-5.72a15.71 15.71 0 0 1-8-1.91c-6.18-3.63-8.62-8.14-7.89-9.39.28-.49 1.26-.78 2.56-.78a20.37 20.37 0 0 1 9.45 3.08c3.75 2.2 5.88 6.27 6.9 8.8a23.72 23.72 0 0 1-3 .2ZM176.85 395a19.88 19.88 0 0 1-8.51-2.22c1.78-2.07 5.11-5.24 9.33-6.1a25.7 25.7 0 0 1 5.07-.53c4.47 0 6.84 1.36 7 2.29.12.59-.51 1.73-2.18 3a22 22 0 0 1-8.27 3.35 12.29 12.29 0 0 1-2.44.21Zm-12.11-9.26c-2.71-.16-7.24-.88-10.5-3.72-5.41-4.71-7-9.59-6-10.69a2.12 2.12 0 0 1 1.45-.42c2 0 5.78 1.29 9.94 4.91 3.22 2.84 4.57 7.24 5.11 9.92Zm3.43 45.82c-4.16 0-7.93-2.18-10.07-3.72 2.09-1.76 5.88-4.36 10.19-4.53h1.09c6.84 0 10.52 2.4 10.57 3.69 0 .61-.78 1.64-2.64 2.58a21.74 21.74 0 0 1-8.69 2Zm-13.65-9.2c-2.67-.6-7-2-9.78-5.35-4.58-5.51-5.35-10.59-4.24-11.52a1.44 1.44 0 0 1 .89-.23c2 0 5.93 2 9.63 6.48 2.77 3.33 3.39 7.88 3.5 10.62Z" class="color5ebf4e svgShape"/><path fill="#b4907f" d="M126.05 455.94a93.17 93.17 0 0 1-6.17-13.86h51.85a93.17 93.17 0 0 1-6.17 13.86c-5 9.53 2.31 23.14 9.89 38.58 8.71 17.77-15.73 48.75-15.73 48.75H131.9s-24.45-31-15.73-48.75c7.57-15.44 14.89-29.05 9.88-38.58Z" class="colorb4907f svgShape"/><path fill="#d0a692" d="M166.37 496.62c1.92 9.24-.7 19.44-6.15 27-1.45 2-3.86 4.38-6.49 2.89a6 6 0 0 1-2.06-2.57c-3.27-6.17-6.11-13.51-6-20.87.08-5.51 2.39-17.14 7.7-20.27 3.29-1.95 6.22-.6 8.32 2.38a32.92 32.92 0 0 1 4.68 11.44Z" class="colord0a692 svgShape"/><path fill="#907363" d="M116.17 494.52c7.57-15.44 14.89-29 9.88-38.58a93.17 93.17 0 0 1-6.17-13.86h15.67a92.74 92.74 0 0 0 6.18 13.86c5 9.53-2.31 23.14-9.89 38.58-8.72 17.77 15.73 48.75 15.73 48.75H131.9s-24.45-30.98-15.73-48.75Z" class="color907363 svgShape"/><path fill="#9f3c3a" d="m512.48 526.87-9.65.07-8.16.06c-10.42-49-21.12-84.25-20.82-119.46l-59.64.47c-4.62-.23-10.2-6.12-13.23-9.61a33.44 33.44 0 0 1-6.29-12.25 45.18 45.18 0 0 1-2.1-17.6c-4.56-4.83 18.25-17.71 30.92-11.57 5.55 2.68 84.78 20.26 84.8 28.49l.89 30.21Z" class="color9f3c3a svgShape"/><path fill="#d2524f" d="m512.48 526.87-9.65.07a331.56 331.56 0 0 1-5.05-75.29c.37-7.88 1.05-15.87 3.76-23.29a38.11 38.11 0 0 1 4.29-8.41 26.93 26.93 0 0 1 3.37-4.27Z" class="colord2524f svgShape"/><path fill="#9f3c3a" d="m472.39 526.87-9.89.07-7.92.06c-10.42-49-21.13-84.25-20.82-119.46l-48.48.47c-4.62-.23-10.2-6.12-13.24-9.61a33.42 33.42 0 0 1-6.28-12.25 45 45 0 0 1-2.1-17.6s26.09-7.38 32.2-8.19 72.34 16.88 72.36 25.11l.86 28.91Z" class="color9f3c3a svgShape"/><path fill="#d2524f" d="m472.39 526.87-9.89.07a422.9 422.9 0 0 1-4.5-93.16c.3-4.92.78-10.08 3.47-14.21a12.07 12.07 0 0 1 7.65-5.19Z" class="colord2524f svgShape"/><path fill="#4c4c4c" d="m495.42 527-4.89 13.47h48.93c0-7.6-11.8-12.3-27-14.72Z" class="color4c4c4c svgShape"/><path fill="#717171" d="M534.05 535.17c-.22 1.54-3.95 2.27-8.33 1.64s-7.75-2.41-7.53-3.95 4-2.27 8.34-1.63 7.75 2.4 7.52 3.94Z" class="color717171 svgShape"/><path fill="#4c4c4c" d="m454.58 527-4.09 13.47h40.86q0-11.4-19-15Z" class="color4c4c4c svgShape"/><path fill="#717171" d="M489 535.17c-.23 1.54-4 2.27-8.34 1.64s-7.74-2.41-7.52-3.95 4-2.27 8.33-1.63 7.79 2.4 7.53 3.94Z" class="color717171 svgShape"/><path fill="#ffbda5" d="m512.48 335.39-6.1 5L497 337l-56.65-20.33a9 9 0 0 1-5.64-3.87L424 296.69l-.79-1.2 3.95-2.11 4.91-2.62 10.58-5.66 6.54 16.09a8.84 8.84 0 0 0 4.94 4.27Z" class="colorffbda5 svgShape"/><path fill="#f0a88e" d="m497 337-56.65-20.33a9 9 0 0 1-5.64-3.87L424 296.69a12.75 12.75 0 0 1 3.16-3.31l.7-.49a15.72 15.72 0 0 1 4.21-2.13 5.42 5.42 0 0 1 1.76-.24c4.19.16 4.82 5.62 4.91 8.77a20.7 20.7 0 0 0 2.29 9l2.58-.7c3.15 4.56 8.46 7.07 13.51 9.37l38.47 17.53c.67.31 1.41.7 1.57 1.41a2 2 0 0 1-.16 1.1Z" class="colorf0a88e svgShape"/><path fill="#ffbda5" d="M517.41 336c.84-.3 1.68-.6 2.54-.87a8.49 8.49 0 0 1 2.28-.47 9.58 9.58 0 0 1 2.44.34l4.06.95a12.11 12.11 0 0 1 2.36.71 10.67 10.67 0 0 1 2.14 1.37l1 .8a4.9 4.9 0 0 1 .9.72 6 6 0 0 0 .82.77 13.61 13.61 0 0 1 2.37 2.92c0 .08.36.51.32.59-.48 1.15-2.09 1.36-3.25.9s-2.08-1.38-3.19-1.95c-2-1-4.29-.86-6.48-.68a1.74 1.74 0 0 0-1 .28 2.53 2.53 0 0 0-.6 1c-.93 2-3.37 2.61-5.41 2.75a31 31 0 0 1-5.19-.1c-.87-.09-1.74-.21-2.61-.38-.41-.08-.83-.18-1.25-.28-.22-.06-.52-.07-.68-.24a2.2 2.2 0 0 1-.7-1.84 2.39 2.39 0 0 1 .28-.58 9.66 9.66 0 0 1 6.25-5.73Z" class="colorffbda5 svgShape"/><path fill="#c2c2c2" d="M446.8 293.09c-1.34-.64-5 .58-8.68 2.71-4.72 2.69-9.54 6.83-9.93 10.46 0 0-1.48-1.75-3.58-4.74-5-7.08-13.49-21.12-14.21-35.52-1-20.49 15.44-26 15.44-26 12.69 9.9 19.46 49.35 20.96 53.09Z" class="colorc2c2c2 svgShape"/><path fill="#9c9c9c" d="M438.12 295.8c-4.72 2.69-9.54 6.83-9.93 10.46 0 0-1.48-1.75-3.58-4.74a33.3 33.3 0 0 1-1.38-7.92c-.29-4.92.26-9.82.55-14.72.27-4.74.19-9.14 1.34-13.77 1.25-5 3.43-10.31 4-15.42a15.37 15.37 0 0 1 .57 2c.36 1.3.9 2.52 1.35 3.79a77 77 0 0 1 2.72 9.6c.7 3.27 1.24 6.58 1.69 9.89s.85 6.72 1.25 10.08.78 6.67 1.28 10Z" class="color9c9c9c svgShape"/><path fill="#dedede" d="M430.83 298.78c-.42 4.85-4.12 58.14-4 58.13-13.21 1-26.13 4.85-38.57 9.56-3.82 1.44-7.6 3-11.34 4.52-4.3 1.8-8.59 3.63-12.85 5.54L363 377s-3.8-10-2.69-13.21a8.22 8.22 0 0 0-.05-2.75c-1.55-23.14-1.54-107.11 10.28-118.77 6.49-6.41 25.25-7.18 34.21-7.63a42.64 42.64 0 0 1 5.87.1 38.93 38.93 0 0 1 8.42 1.62c8.15 2.58 12.13 6.71 13.33 15.28 2.23 15.69-.21 31.49-1.54 47.14Z" class="colordedede svgShape"/><path fill="#bfbfbf" d="M382.91 256.59a60.13 60.13 0 0 0-1.39 11.49 15.44 15.44 0 0 1-.11 2.81c-.08.36-.16.73-.22 1.11a19.14 19.14 0 0 0-.08 4.54 35.39 35.39 0 0 0 2.29 9c.3.81.62 1.61 1 2.42a43.42 43.42 0 0 0 5.95 11c6.55 8.15 17.42 11.18 27.56 13.76l-16.1.95a13.48 13.48 0 0 0-5.38 1.05 4.7 4.7 0 0 0-2.82 4.36c.21 2.08 2.17 3.47 4 4.48a64.61 64.61 0 0 0 13.13 5.51 39.93 39.93 0 0 0-24.48 6.77c-2 1.36-4.11 3.79-3 5.93a5.36 5.36 0 0 0 3.15 2.1l10.79 3.89c-5.77 1.29-8.32 8.11-8.72 14-.11 1.54-.14 3.12-.2 4.69-3.82 1.44-7.6 3-11.34 4.52-4.3 1.8-8.59 3.63-12.85 5.54L363 377s-3.8-10-2.69-13.21a8.22 8.22 0 0 0-.05-2.75c-1.55-23.14-1.54-107.11 10.28-118.77 6.49-6.41 25.25-7.18 34.21-7.63a42.64 42.64 0 0 1 5.87.1 24.72 24.72 0 0 1 7.3 11.32c.36 1.29.8 2.74.26 4a26.13 26.13 0 0 0-1.22 5.1 15.64 15.64 0 0 0-3.52-8.59c-1.54-1.86-4-3.43-6.24-2.61a7.28 7.28 0 0 0-3.09 2.84c-2 2.73-4.11 5.69-4.21 9.08a21.72 21.72 0 0 0-.75-3.67 6.57 6.57 0 0 0-.4-1.49 8.34 8.34 0 0 0-1.55-2.59 6.84 6.84 0 0 0-5.19-2.45 8.32 8.32 0 0 0-6.36 3.77 19.47 19.47 0 0 0-2.74 7.14Z" class="colorbfbfbf svgShape"/><path fill="#b0b0b0" d="M410.57 245.9c.16 2 .23 4 .28 6s0 4 0 6-.05 4-.15 6l-.15 3c-.08 1-.14 2-.24 3-.09-1-.13-2-.19-3l-.1-3c-.06-2-.05-4 0-6s.06-4 .16-6 .19-3.99.39-6Z" class="colorb0b0b0 svgShape"/><path fill="#ffffff" d="M409.06 252.19c0 1.24-.51 2.24-1.05 2.22s-.93-1-.89-2.29.52-2.24 1.06-2.22.93 1.04.88 2.29Zm0 12.21c0 1.25-.45 2.25-1 2.25s-1-1-1-2.26.45-2.25 1-2.25 1.01 1.02 1 2.26Z" class="colorfff svgShape"/><path fill="#ffbda5" d="M415.44 235.57a13.33 13.33 0 0 0 2.21 4.82q-6.45 7.49-18.26 0a52.82 52.82 0 0 1-5.55-4.11c4.7-6.25 6.37-13.57 5.91-21.63l16.34 2.84 1.7.29c-.16.48-.31 1-.46 1.45-1.83 5.84-3.06 11.49-1.89 16.34Z" class="colorffbda5 svgShape"/><path fill="#f0a88e" d="M415.44 235.57a11.32 11.32 0 0 1-3.84.85c-3.17.22-7.51-.79-10.1 1.61-.76.71-1.35 1.64-2.11 2.33a52.82 52.82 0 0 1-5.55-4.11c4.7-6.25 6.37-13.57 5.91-21.63l16.34 2.84a12.08 12.08 0 0 1 1 1.35c.08.13.17.26.24.39-1.83 5.87-3.06 11.52-1.89 16.37Z" class="colorf0a88e svgShape"/><path fill="#ffffff" d="M397.5 230s-3.14 6.35 9.12 13.72L396.25 254s-9.75-13-7.89-17.2 9.14-6.8 9.14-6.8Zm21.36 25.85s-6.42-11.29-6.55-12c3.76-1.89 3-8.65 3-9.06 6.04 5.08 6.83 12.26 3.55 21.06Z" class="colorfff svgShape"/><path fill="#c95f5f" d="M440.36 200.57a6.54 6.54 0 0 1-4.32 6.11c1.64-6 3.28-12 2.75-18.18a.58.58 0 0 1 .08-.43.55.55 0 0 1 .31-.16 5 5 0 0 1 3.79.81 3.48 3.48 0 0 1 1.62 1.66c.79 2.12-.12 5-1.18 6.8a10.65 10.65 0 0 1-3.05 3.39Z" class="colorc95f5f svgShape"/><path fill="#ffbda5" d="M439.91 199.4c-1 3.12-2.62 6-3.81 9-1 2.67-1.73 5.46-2.78 8.12-2.08 5.31-5.54 10-9.17 14.48a15.11 15.11 0 0 1-4.89 4.42 10.62 10.62 0 0 1-8.35 0 13.59 13.59 0 0 1-3.08-1.65c-3.29-2.33-5.5-5.76-7.33-9.23-2.43-4.6-4.39-9.64-3.95-14.69.62-7.1 2.82-18.18 8.24-23a24.88 24.88 0 0 1 20.94-5.47 41 41 0 0 1 7.7 2.44c2.67 1.07 4.65 3.49 6 5.92l.07.14c1.56 2.98 1.35 6.45.41 9.52Z" class="colorffbda5 svgShape"/><path fill="#f0a88e" d="M439.51 189.94a.28.28 0 0 1-.12 0 9.85 9.85 0 0 1-3.82.38c-.81-.07-1.58-.28-2.39-.35a6.75 6.75 0 0 0-2.73.47 11.33 11.33 0 0 1-9.48-.79 7.15 7.15 0 0 1-.93-.62 13.94 13.94 0 0 1-5.49 5.77 4.21 4.21 0 0 0-1.48 1.12 5.09 5.09 0 0 0-.53 2.37c-.37 3.16-2.88 5.65-3.85 8.69-1.4 4.37.55 9.08.39 13.67-.07 1.88-.5 3.75-.55 5.63a20.24 20.24 0 0 0 2.38 9.16 13.59 13.59 0 0 1-3.08-1.65c-3.29-2.33-5.5-5.76-7.33-9.23-2.43-4.6-4.39-9.64-3.95-14.69.62-7.1 2.82-18.18 8.24-23a24.88 24.88 0 0 1 20.94-5.47 41 41 0 0 1 7.7 2.44c2.67 1.07 4.65 3.49 6 5.92Z" class="colorf0a88e svgShape"/><path fill="#111116" d="M430.18 210.58c-.53 1.2-.47 2.39.13 2.65s1.5-.5 2-1.7.46-2.39-.14-2.65-1.47.5-1.99 1.7ZM415.91 206c-.47 1.22-.36 2.4.25 2.64s1.48-.57 1.95-1.79.36-2.4-.25-2.64-1.48.52-1.95 1.79Z" class="color111116 svgShape"/><path fill="#c95f5f" d="M417 199.09a9.49 9.49 0 0 0-4.91 1.15 39.5 39.5 0 0 1 10.41.64c.61.12.4-.75.21-1a.86.86 0 0 0-.69-.35c-1-.08-2-.2-3.05-.29-.66-.11-1.32-.15-1.97-.15Zm18.55 5.75a5.91 5.91 0 0 1 2.25 3.43 27.92 27.92 0 0 0-7.24-5.16c-.49-.25.35-.73.71-.83a.86.86 0 0 1 .73.13c.72.49 1.47 1 2.2 1.44a15.12 15.12 0 0 1 1.35.99Z" class="colorc95f5f svgShape"/><path fill="#d29075" d="M424.79 213.53a11.47 11.47 0 0 0 .47 1.51c.08.26.17.49.24.78s.08.55.13.78a3.33 3.33 0 0 1-1.15 3.19 3.17 3.17 0 0 1-3.38.21 4 4 0 0 1-2-2.55 4.79 4.79 0 0 0 2.23 2 2.86 2.86 0 0 0 1.38.19 2.25 2.25 0 0 0 1.25-.47 2.92 2.92 0 0 0 1-2.47v-.79c0-.23-.08-.51-.11-.77a7.17 7.17 0 0 1-.06-1.61Zm-.35 12.2a3.89 3.89 0 0 1-3.19 1.39 11.2 11.2 0 0 1-3.5-.56 10.8 10.8 0 0 1-3.21-1.5 5.93 5.93 0 0 1-1.27-1.28 4.07 4.07 0 0 1-.65-1.64 5.37 5.37 0 0 0 2.26 2.4 14.37 14.37 0 0 0 3.12 1.26 14.88 14.88 0 0 0 3.28.7 4.36 4.36 0 0 0 3.16-.77Zm-4.14 3.55a5.1 5.1 0 0 1-5.54-1.91c1 .39 1.82.77 2.73 1.08s1.81.55 2.81.83Z" class="colord29075 svgShape"/><path fill="#dd7272" d="M436.87 188.92a11 11 0 0 1 .85.82 9.53 9.53 0 0 0 5.57 2.11 6.27 6.27 0 0 0 4.25-1.29 6.82 6.82 0 0 0 2.23-4.26 6.51 6.51 0 0 0-2.72-6.13 9.18 9.18 0 0 0-9.05-11.61 12 12 0 0 0-13.11-6.86 9.45 9.45 0 0 1-2.35.38 8.43 8.43 0 0 1-2.75-.84 16 16 0 0 0-10.64-.62 12.72 12.72 0 0 0-7.92 6.93 9.6 9.6 0 0 0-9.76 10.45 9.07 9.07 0 0 0-2.47 11.66 1.57 1.57 0 0 1 .35 1 1.66 1.66 0 0 1-.41.7 6.33 6.33 0 0 0-.3 7.31 7.58 7.58 0 0 1 1.21 1.92 6.43 6.43 0 0 1-.1 2.72 9.53 9.53 0 0 0 7.32 10.19c0-.45-.12-9.33.6-9.67.41-.2.62 0 .83.33a6.39 6.39 0 0 1 .26.6c.25.55.52 1.09.77 1.64.09.19.6.95.55 1.16a69.73 69.73 0 0 0 2.93-8.05 10.47 10.47 0 0 0 4.06-5.27 10.89 10.89 0 0 0 .61-3.31c0-.68.07-1.45.77-1.79a4.87 4.87 0 0 1 2.25-.15 8.28 8.28 0 0 0 3.09-.33 8.68 8.68 0 0 0 2.91-1.92 15.74 15.74 0 0 1 6.93-3.32c-.28-.18-.35.41-.15.68a13.75 13.75 0 0 0 13.39 4.82Z" class="colordd7272 svgShape"/><path fill="#f0a88e" d="M393.86 198.89a7.62 7.62 0 0 0-.81 3.26 18 18 0 0 0 1 7 6.39 6.39 0 0 0 3 3.92 2 2 0 0 0 2.52-.46 3 3 0 0 0 0-2.2c-.68-2.93.05-6 .15-9 .07-2 .05-3.75-2.17-4.36a3.26 3.26 0 0 0-3.69 1.84Z" class="colorf0a88e svgShape"/><path fill="#d29075" d="M395.07 199.7a6.33 6.33 0 0 0-.73 3.47 15.33 15.33 0 0 0 .35 3.88 3.56 3.56 0 0 0 1.66 2.46 7.09 7.09 0 0 1 .46-1.1c.06-.13.18-.28.32-.23a.34.34 0 0 1 .15.18l.27.57a5.74 5.74 0 0 0 .35-1.88 2.67 2.67 0 0 0-.19-1.12c-.12-.27-.32-.51-.46-.77a2.31 2.31 0 0 1-.3-1.08 1.08 1.08 0 0 1 .45-1c.33-.18.86.09.77.46a8.75 8.75 0 0 0 .12-2.11 7.83 7.83 0 0 0-.1-1.37 1.66 1.66 0 0 0-1.59-1.3 1.83 1.83 0 0 0-1.53.94Z" class="colord29075 svgShape"/><path fill="#ffbda5" d="m454.18 339.3-4.48 3.41-1.55 1.18-.22-.08-59.23-21.88a8.87 8.87 0 0 1-5.63-3.87l-11-18.95 4.76-6 11-14 13.07 25.77a9 9 0 0 0 4.94 4.27l45.51 28.42Z" class="colorffbda5 svgShape"/><path fill="#d29075" d="M464.62 344.79h.05a6.33 6.33 0 0 0 1.57.12.57.57 0 0 0 .37-.16c.15-.16.09-.42 0-.63a9.86 9.86 0 0 0-1-2.13 2.78 2.78 0 0 0-1.94-1.5 1.06 1.06 0 0 1-.31-.05c-.12-.05-.16-.13-.28-.16a3.22 3.22 0 0 0-1 0 14.87 14.87 0 0 0-3.92.58 6.4 6.4 0 0 0-4 3.32 13.84 13.84 0 0 0 5.54-1.18 1.69 1.69 0 0 1 1.3-.14 24.57 24.57 0 0 1 3.16 1.78 1.27 1.27 0 0 0 .46.15Z" class="colord29075 svgShape"/><path fill="#ffbda5" d="M477.79 345.05a.36.36 0 0 1-.15.08 1.45 1.45 0 0 1-.29.11 1.62 1.62 0 0 1-.62 0 1.37 1.37 0 0 1-.56-.26.84.84 0 0 1-.88.41 2.55 2.55 0 0 1-.94-.41 1 1 0 0 1-1.14.39 2.91 2.91 0 0 1-1.08-.73l-.31-.29a1 1 0 0 1-.22-.24 3.36 3.36 0 0 0-.35-.49 3.27 3.27 0 0 0-1.28-1.05 4.89 4.89 0 0 1 1 2.87 1.6 1.6 0 0 1-1.68-.41 7.61 7.61 0 0 1-1.05-1.5 5 5 0 0 0-2-1.9 4 4 0 0 0-2.45-.14 11.52 11.52 0 0 0-4 1.62c-.89.52-1.77 1.06-2.69 1.51a8.28 8.28 0 0 1-2.46.77 13.32 13.32 0 0 1-4.21-.42 4.65 4.65 0 0 1-2.28-1 1.14 1.14 0 0 1-.19-.19 1.52 1.52 0 0 1-.4-1.16 2.12 2.12 0 0 1 .11-.47 12.44 12.44 0 0 1 1.46-2.25 9.42 9.42 0 0 1 2.29-2.38l.06-.05a12.94 12.94 0 0 1 2.61-1.22c.86-.33 1.72-.66 2.59-1s1.68-.61 2.54-.88a9.06 9.06 0 0 1 2.29-.47 9.28 9.28 0 0 1 2.44.35l4.05.94a12.94 12.94 0 0 1 2.37.71 10.22 10.22 0 0 1 2.13 1.38c.44.34.88.69 1.3 1.05a23.05 23.05 0 0 1 2 1.88 9.92 9.92 0 0 1 1.51 3.2c.2.5.4 1 .57 1.5-.06.09-.04.09-.09.14Z" class="colorffbda5 svgShape"/><path fill="#f0a88e" d="M459.78 342.78a1.83 1.83 0 0 1 0 .33c-.89.52-1.77 1.06-2.69 1.51a8.28 8.28 0 0 1-2.46.77 13.32 13.32 0 0 1-4.21-.42 4.65 4.65 0 0 1-2.28-1 1.14 1.14 0 0 1-.19-.19l-59.25-21.85a8.87 8.87 0 0 1-5.63-3.87l-11-18.95 4.76-6a2.85 2.85 0 0 1 .92.19 6.08 6.08 0 0 1 2.76 3c.92 1.63 1.63 3.37 2.41 5.06 1.1 2.38 2.24 4.73 3.42 7.07a5.45 5.45 0 0 0 1.42 2c1.85 1.38 4.43 0 6.29-1.38-.51 2.54 1.24 5 3.05 6.8a65.54 65.54 0 0 0 11 8.75 135.35 135.35 0 0 0 39.52 17.68l.29.08c.59.16 1.17.31 1.77.45 3.38.68 6.88 1.11 10.1-.03Z" class="colorf0a88e svgShape"/><path fill="#c2c2c2" d="M396.72 290.84c-3.32-.1-9.26 3.18-14.23 7.08-4 3.14-7.41 6.69-8.24 9.17 0 0-13.16-21.44-13.43-42.78-.16-11.93 5.43-19 10.39-22.85a29.5 29.5 0 0 1 2.52-1.77 5.22 5.22 0 0 1 7.47 1.76c9.37 17.07 16.59 48.27 15.52 49.39Z" class="colorc2c2c2 svgShape"/><path fill="#9c9c9c" d="M382.49 297.92c-4 3.14-7.41 6.69-8.24 9.17 0 0-13.16-21.44-13.43-42.78-.16-11.93 5.43-19 10.39-22.85v.08a25.29 25.29 0 0 0-2.78 12.67 78 78 0 0 0 14.06 43.71Z" class="color9c9c9c svgShape"/><rect width="299.51" height="10.89" x="298.7" y="362.69" fill="#927566" rx="5.45" class="color927566 svgShape"/><path fill="#b4907f" d="M608.3 369h-317a6.31 6.31 0 0 1-6.31-6.3 6.31 6.31 0 0 1 6.31-6.31h317a6.31 6.31 0 0 1 6.31 6.31 6.31 6.31 0 0 1-6.31 6.3Z" class="colorb4907f svgShape"/><path fill="#daae99" d="M608.3 356.38H478c7.6 4 15.37 7.83 23.42 11.41l2.45 1.2H608.3a6.31 6.31 0 1 0 0-12.61Z" class="colordaae99 svgShape"/><path fill="#835353" d="M319.18 545.89h-2.93l-4-172.31h10.93l-4 172.31zm264.83 0h-2.93l-4-172.31h10.93l-4 172.31z" class="color835353 svgShape"/><path fill="#c3b6a6" d="m534.65 358.89-100.43.11a4.93 4.93 0 0 1-4.93-4.92l105.35-.08Z" class="colorc3b6a6 svgShape"/><path fill="#9f9a94" d="m562.19 358.86-79.27.09V354l84.2-.1a4.93 4.93 0 0 1-4.93 4.96Z" class="color9f9a94 svgShape"/><path fill="#c4bfb7" d="m564.58 353.93-84.2.1 13.53-62.25a3.81 3.81 0 0 1 3.72-3l78.48-.1a2.13 2.13 0 0 1 2.08 2.59Z" class="colorc4bfb7 svgShape"/><path fill="#9f9a94" d="m567.11 353.93-84.2.1 13.53-62.25a3.83 3.83 0 0 1 3.72-3l78.47-.09a2.13 2.13 0 0 1 2.09 2.59Z" class="color9f9a94 svgShape"/><path fill="#ffffff" d="M544.37 315.79c-1.8 4.56-5.77 7.46-8.88 6.48s-4.18-5.45-2.38-10 5.77-7.45 8.88-6.48 4.18 5.45 2.38 10Z" class="colorfff svgShape"/></g></svg>