<svg xmlns="http://www.w3.org/2000/svg" enable-background="new 0 0 1920 1080" viewBox="0 0 1920 1080"><path fill="#fff5ae" d="M249.5,477.13c2.96-32.41,15.61-62.58,30-90.65c12.95-25.26,31.27-52.04,56.75-53.16     c14.98-0.66,28.95,7.98,42.05,16.37c16.84,10.79,33.69,21.57,50.53,32.36c20.75,13.29,48.25,26.01,66.27,8.22     c8.45-8.35,11.84-21.53,11.27-34.53c-39.32-50.88-84.29-128.93-46.22-185.04c0,0,39.71-91.88,160.74-48.16     c0,0,163.28,70.4,166.46,0c0,0-22.3-96.03,130.14-84.46c0,0,255.39-23.43,504.77,107.51c1.61,0.35,219.5,173.21,239.83,225     c25.74,54.95,72.18,137.09-16.84,152.73c0,0-44.52-15.64-53.29,56.62c0,0-6.13,45.23,60.3,93.01c0,0,150.72,138.06-10.8,215.29     l-1203.48-3.69c0,0-32.16-11.51-59.16-48.97c-19.74-16.05-38.36-33.71-52.81-55.83c-20.33-31.11-31.04-68.94-40.78-106.21     c-8.74-33.44-16.98-67.04-24.72-100.8C253.35,541.47,246.57,509.28,249.5,477.13z" class="colorfff5ae svgShape"/><ellipse cx="920.36" cy="956.82" fill="#d2d3d0" rx="263.42" ry="28.44" class="colord2d3d0 svgShape"/><ellipse cx="430.47" cy="904.17" fill="#d2d3d0" rx="263.42" ry="28.44" class="colord2d3d0 svgShape"/><ellipse cx="972.42" cy="884.47" fill="#d2d3d0" rx="567.56" ry="28.44" class="colord2d3d0 svgShape"/><ellipse cx="1395.1" cy="945.59" fill="#d2d3d0" rx="321.06" ry="34.66" class="colord2d3d0 svgShape"/><rect width="327.7" height="746.76" x="481.8" y="145.58" fill="#6d6d6c" class="color6d6d6c svgShape"/><rect width="249.95" height="616.94" x="521.92" y="180.4" fill="#0b1407" class="color0b1407 svgShape"/><rect width="225.71" height="27.59" x="534.46" y="207.15" fill="#696d72" class="color696d72 svgShape"/><rect width="249.95" height="5.85" x="521.92" y="234.74" fill="#32353a" class="color32353a svgShape"/><rect width="78.58" height="17.56" x="538.64" y="217.18" fill="#086614" class="color086614 svgShape"/><rect width="29.47" height="17.56" x="587.76" y="217.18" fill="#19232a" class="color19232a svgShape"/><rect width="225.71" height="27.59" x="534.46" y="240.59" fill="#696d72" class="color696d72 svgShape"/><rect width="249.95" height="5.85" x="521.92" y="268.17" fill="#32353a" class="color32353a svgShape"/><rect width="78.58" height="17.56" x="538.64" y="250.62" fill="#086614" class="color086614 svgShape"/><rect width="29.47" height="17.56" x="587.76" y="250.62" fill="#19232a" class="color19232a svgShape"/><rect width="225.71" height="27.59" x="534.46" y="302.45" fill="#696d72" class="color696d72 svgShape"/><rect width="249.95" height="5.85" x="521.92" y="330.04" fill="#32353a" class="color32353a svgShape"/><rect width="78.58" height="17.56" x="538.64" y="312.48" fill="#086614" class="color086614 svgShape"/><rect width="29.47" height="17.56" x="587.76" y="312.48" fill="#19232a" class="color19232a svgShape"/><rect width="225.71" height="27.59" x="534.46" y="335.89" fill="#696d72" class="color696d72 svgShape"/><rect width="249.95" height="5.85" x="521.92" y="363.47" fill="#32353a" class="color32353a svgShape"/><rect width="78.58" height="17.56" x="538.64" y="345.92" fill="#086614" class="color086614 svgShape"/><rect width="29.47" height="17.56" x="587.76" y="345.92" fill="#19232a" class="color19232a svgShape"/><rect width="225.71" height="27.59" x="534.46" y="406.94" fill="#696d72" class="color696d72 svgShape"/><rect width="249.95" height="5.85" x="521.92" y="434.53" fill="#32353a" class="color32353a svgShape"/><rect width="78.58" height="17.56" x="538.64" y="416.98" fill="#086614" class="color086614 svgShape"/><rect width="29.47" height="17.56" x="587.76" y="416.98" fill="#19232a" class="color19232a svgShape"/><rect width="225.71" height="27.59" x="534.46" y="440.38" fill="#696d72" class="color696d72 svgShape"/><rect width="249.95" height="5.85" x="521.92" y="467.97" fill="#32353a" class="color32353a svgShape"/><rect width="78.58" height="17.56" x="538.64" y="450.41" fill="#086614" class="color086614 svgShape"/><rect width="29.47" height="17.56" x="587.76" y="450.41" fill="#19232a" class="color19232a svgShape"/><rect width="249.95" height="5.85" x="521.92" y="559.93" fill="#32353a" class="color32353a svgShape"/><rect width="225.71" height="27.59" x="534.46" y="595.5" fill="#696d72" class="color696d72 svgShape"/><rect width="249.95" height="5.85" x="521.92" y="623.09" fill="#32353a" class="color32353a svgShape"/><rect width="78.58" height="17.56" x="538.64" y="605.53" fill="#086614" class="color086614 svgShape"/><rect width="29.47" height="17.56" x="587.76" y="605.53" fill="#19232a" class="color19232a svgShape"/><rect width="225.71" height="27.59" x="534.46" y="628.94" fill="#696d72" class="color696d72 svgShape"/><rect width="249.95" height="5.85" x="521.92" y="656.53" fill="#32353a" class="color32353a svgShape"/><rect width="78.58" height="17.56" x="538.64" y="638.97" fill="#086614" class="color086614 svgShape"/><rect width="29.47" height="17.56" x="587.76" y="638.97" fill="#19232a" class="color19232a svgShape"/><rect width="225.71" height="27.59" x="534.46" y="689.45" fill="#696d72" class="color696d72 svgShape"/><rect width="249.95" height="5.85" x="521.92" y="717.04" fill="#32353a" class="color32353a svgShape"/><rect width="78.58" height="17.56" x="538.64" y="699.48" fill="#086614" class="color086614 svgShape"/><rect width="29.47" height="17.56" x="587.76" y="699.48" fill="#19232a" class="color19232a svgShape"/><rect width="225.71" height="27.59" x="534.46" y="722.89" fill="#696d72" class="color696d72 svgShape"/><rect width="249.95" height="5.85" x="521.92" y="750.48" fill="#32353a" class="color32353a svgShape"/><rect width="78.58" height="17.56" x="538.64" y="732.92" fill="#086614" class="color086614 svgShape"/><rect width="29.47" height="17.56" x="587.76" y="732.92" fill="#19232a" class="color19232a svgShape"/><rect width="249.95" height="51.83" x="521.92" y="797.34" fill="#4f4f4f" class="color4f4f4f svgShape"/><rect width="6.97" height="44.31" x="530.98" y="804.86" fill="#383a39" class="color383a39 svgShape"/><rect width="6.97" height="44.31" x="544.91" y="804.86" fill="#383a39" class="color383a39 svgShape"/><rect width="6.97" height="44.31" x="559.96" y="804.86" fill="#383a39" class="color383a39 svgShape"/><rect width="6.97" height="44.31" x="573.34" y="804.86" fill="#383a39" class="color383a39 svgShape"/><rect width="6.97" height="44.31" x="586.78" y="804.86" fill="#383a39" class="color383a39 svgShape"/><rect width="6.97" height="44.31" x="600.71" y="804.86" fill="#383a39" class="color383a39 svgShape"/><rect width="6.97" height="44.31" x="615.76" y="804.86" fill="#383a39" class="color383a39 svgShape"/><rect width="6.97" height="44.31" x="629.14" y="804.86" fill="#383a39" class="color383a39 svgShape"/><rect width="6.97" height="44.31" x="643.84" y="804.86" fill="#383a39" class="color383a39 svgShape"/><rect width="6.97" height="44.31" x="657.77" y="804.86" fill="#383a39" class="color383a39 svgShape"/><rect width="6.97" height="44.31" x="672.82" y="804.86" fill="#383a39" class="color383a39 svgShape"/><rect width="6.97" height="44.31" x="686.19" y="804.86" fill="#383a39" class="color383a39 svgShape"/><rect width="6.97" height="44.31" x="699.57" y="804.86" fill="#383a39" class="color383a39 svgShape"/><rect width="6.97" height="44.31" x="713.5" y="804.86" fill="#383a39" class="color383a39 svgShape"/><rect width="6.97" height="44.31" x="728.55" y="804.86" fill="#383a39" class="color383a39 svgShape"/><rect width="6.97" height="44.31" x="741.92" y="804.86" fill="#383a39" class="color383a39 svgShape"/><rect width="6.97" height="44.31" x="755.86" y="804.86" fill="#383a39" class="color383a39 svgShape"/><rect width="327.7" height="746.76" x="825.57" y="145.58" fill="#6d6d6c" class="color6d6d6c svgShape"/><rect width="249.95" height="616.94" x="865.69" y="180.4" fill="#0b1407" class="color0b1407 svgShape"/><rect width="225.71" height="27.59" x="878.23" y="207.15" fill="#696d72" class="color696d72 svgShape"/><rect width="249.95" height="5.85" x="865.69" y="234.74" fill="#32353a" class="color32353a svgShape"/><rect width="78.58" height="17.56" x="882.41" y="217.18" fill="#086614" class="color086614 svgShape"/><rect width="29.47" height="17.56" x="931.52" y="217.18" fill="#19232a" class="color19232a svgShape"/><rect width="225.71" height="27.59" x="878.23" y="240.59" fill="#696d72" class="color696d72 svgShape"/><rect width="249.95" height="5.85" x="865.69" y="268.17" fill="#32353a" class="color32353a svgShape"/><rect width="78.58" height="17.56" x="882.41" y="250.62" fill="#086614" class="color086614 svgShape"/><rect width="29.47" height="17.56" x="931.52" y="250.62" fill="#19232a" class="color19232a svgShape"/><rect width="225.71" height="27.59" x="878.23" y="302.45" fill="#696d72" class="color696d72 svgShape"/><rect width="249.95" height="5.85" x="865.69" y="330.04" fill="#32353a" class="color32353a svgShape"/><rect width="78.58" height="17.56" x="882.41" y="312.48" fill="#086614" class="color086614 svgShape"/><rect width="29.47" height="17.56" x="931.52" y="312.48" fill="#19232a" class="color19232a svgShape"/><rect width="225.71" height="27.59" x="878.23" y="335.89" fill="#696d72" class="color696d72 svgShape"/><rect width="249.95" height="5.85" x="865.69" y="363.47" fill="#32353a" class="color32353a svgShape"/><rect width="78.58" height="17.56" x="882.41" y="345.92" fill="#086614" class="color086614 svgShape"/><rect width="29.47" height="17.56" x="931.52" y="345.92" fill="#19232a" class="color19232a svgShape"/><rect width="225.71" height="27.59" x="878.23" y="406.94" fill="#696d72" class="color696d72 svgShape"/><rect width="249.95" height="5.85" x="865.69" y="434.53" fill="#32353a" class="color32353a svgShape"/><rect width="78.58" height="17.56" x="882.41" y="416.98" fill="#086614" class="color086614 svgShape"/><rect width="29.47" height="17.56" x="931.52" y="416.98" fill="#19232a" class="color19232a svgShape"/><rect width="225.71" height="27.59" x="878.23" y="440.38" fill="#696d72" class="color696d72 svgShape"/><rect width="249.95" height="5.85" x="865.69" y="467.97" fill="#32353a" class="color32353a svgShape"/><rect width="78.58" height="17.56" x="882.41" y="450.41" fill="#086614" class="color086614 svgShape"/><rect width="29.47" height="17.56" x="931.52" y="450.41" fill="#19232a" class="color19232a svgShape"/><rect width="225.71" height="27.59" x="878.23" y="498.9" fill="#696d72" class="color696d72 svgShape"/><rect width="249.95" height="5.85" x="865.69" y="526.49" fill="#32353a" class="color32353a svgShape"/><rect width="78.58" height="17.56" x="882.41" y="508.93" fill="#086614" class="color086614 svgShape"/><rect width="29.47" height="17.56" x="931.52" y="508.93" fill="#19232a" class="color19232a svgShape"/><rect width="225.71" height="27.59" x="878.23" y="532.34" fill="#696d72" class="color696d72 svgShape"/><rect width="249.95" height="5.85" x="865.69" y="559.93" fill="#32353a" class="color32353a svgShape"/><rect width="78.58" height="17.56" x="882.41" y="542.37" fill="#086614" class="color086614 svgShape"/><rect width="29.47" height="17.56" x="931.52" y="542.37" fill="#19232a" class="color19232a svgShape"/><rect width="225.71" height="27.59" x="878.23" y="595.5" fill="#696d72" class="color696d72 svgShape"/><rect width="249.95" height="5.85" x="865.69" y="623.09" fill="#32353a" class="color32353a svgShape"/><rect width="78.58" height="17.56" x="882.41" y="605.53" fill="#086614" class="color086614 svgShape"/><rect width="29.47" height="17.56" x="931.52" y="605.53" fill="#19232a" class="color19232a svgShape"/><rect width="225.71" height="27.59" x="878.23" y="628.94" fill="#696d72" class="color696d72 svgShape"/><rect width="249.95" height="5.85" x="865.69" y="656.53" fill="#32353a" class="color32353a svgShape"/><rect width="78.58" height="17.56" x="882.41" y="638.97" fill="#086614" class="color086614 svgShape"/><rect width="29.47" height="17.56" x="931.52" y="638.97" fill="#19232a" class="color19232a svgShape"/><rect width="225.71" height="27.59" x="878.23" y="689.45" fill="#696d72" class="color696d72 svgShape"/><rect width="249.95" height="5.85" x="865.69" y="717.04" fill="#32353a" class="color32353a svgShape"/><rect width="78.58" height="17.56" x="882.41" y="699.48" fill="#086614" class="color086614 svgShape"/><rect width="29.47" height="17.56" x="931.52" y="699.48" fill="#19232a" class="color19232a svgShape"/><rect width="225.71" height="27.59" x="878.23" y="722.89" fill="#696d72" class="color696d72 svgShape"/><rect width="249.95" height="5.85" x="865.69" y="750.48" fill="#32353a" class="color32353a svgShape"/><rect width="78.58" height="17.56" x="882.41" y="732.92" fill="#086614" class="color086614 svgShape"/><rect width="29.47" height="17.56" x="931.52" y="732.92" fill="#19232a" class="color19232a svgShape"/><rect width="249.95" height="51.83" x="865.69" y="797.34" fill="#4f4f4f" class="color4f4f4f svgShape"/><rect width="6.97" height="44.31" x="874.75" y="804.86" fill="#383a39" class="color383a39 svgShape"/><rect width="6.97" height="44.31" x="888.68" y="804.86" fill="#383a39" class="color383a39 svgShape"/><rect width="6.97" height="44.31" x="903.73" y="804.86" fill="#383a39" class="color383a39 svgShape"/><rect width="6.97" height="44.31" x="917.1" y="804.86" fill="#383a39" class="color383a39 svgShape"/><rect width="6.97" height="44.31" x="930.55" y="804.86" fill="#383a39" class="color383a39 svgShape"/><rect width="6.97" height="44.31" x="944.48" y="804.86" fill="#383a39" class="color383a39 svgShape"/><rect width="6.97" height="44.31" x="959.53" y="804.86" fill="#383a39" class="color383a39 svgShape"/><rect width="6.97" height="44.31" x="972.9" y="804.86" fill="#383a39" class="color383a39 svgShape"/><rect width="6.97" height="44.31" x="987.6" y="804.86" fill="#383a39" class="color383a39 svgShape"/><rect width="6.97" height="44.31" x="1001.54" y="804.86" fill="#383a39" class="color383a39 svgShape"/><rect width="6.97" height="44.31" x="1016.58" y="804.86" fill="#383a39" class="color383a39 svgShape"/><rect width="6.97" height="44.31" x="1029.96" y="804.86" fill="#383a39" class="color383a39 svgShape"/><rect width="6.97" height="44.31" x="1043.33" y="804.86" fill="#383a39" class="color383a39 svgShape"/><rect width="6.97" height="44.31" x="1057.27" y="804.86" fill="#383a39" class="color383a39 svgShape"/><rect width="6.97" height="44.31" x="1072.31" y="804.86" fill="#383a39" class="color383a39 svgShape"/><rect width="6.97" height="44.31" x="1085.69" y="804.86" fill="#383a39" class="color383a39 svgShape"/><rect width="6.97" height="44.31" x="1099.62" y="804.86" fill="#383a39" class="color383a39 svgShape"/><rect width="327.7" height="746.76" x="1168.96" y="145.58" fill="#6d6d6c" class="color6d6d6c svgShape"/><rect width="249.95" height="616.94" x="1209.09" y="180.4" fill="#0b1407" class="color0b1407 svgShape"/><rect width="225.71" height="27.59" x="1221.63" y="207.15" fill="#696d72" class="color696d72 svgShape"/><rect width="249.95" height="5.85" x="1209.09" y="234.74" fill="#32353a" class="color32353a svgShape"/><rect width="78.58" height="17.56" x="1225.81" y="217.18" fill="#086614" class="color086614 svgShape"/><rect width="29.47" height="17.56" x="1274.92" y="217.18" fill="#19232a" class="color19232a svgShape"/><rect width="225.71" height="27.59" x="1221.63" y="240.59" fill="#696d72" class="color696d72 svgShape"/><rect width="249.95" height="5.85" x="1209.09" y="268.17" fill="#32353a" class="color32353a svgShape"/><rect width="78.58" height="17.56" x="1225.81" y="250.62" fill="#086614" class="color086614 svgShape"/><rect width="29.47" height="17.56" x="1274.92" y="250.62" fill="#19232a" class="color19232a svgShape"/><rect width="225.71" height="27.59" x="1221.63" y="302.45" fill="#696d72" class="color696d72 svgShape"/><rect width="249.95" height="5.85" x="1209.09" y="330.04" fill="#32353a" class="color32353a svgShape"/><rect width="78.58" height="17.56" x="1225.81" y="312.48" fill="#086614" class="color086614 svgShape"/><rect width="29.47" height="17.56" x="1274.92" y="312.48" fill="#19232a" class="color19232a svgShape"/><rect width="225.71" height="27.59" x="1221.63" y="335.89" fill="#696d72" class="color696d72 svgShape"/><rect width="249.95" height="5.85" x="1209.09" y="363.47" fill="#32353a" class="color32353a svgShape"/><rect width="78.58" height="17.56" x="1225.81" y="345.92" fill="#086614" class="color086614 svgShape"/><rect width="29.47" height="17.56" x="1274.92" y="345.92" fill="#19232a" class="color19232a svgShape"/><rect width="225.71" height="27.59" x="1221.63" y="406.94" fill="#696d72" class="color696d72 svgShape"/><rect width="249.95" height="5.85" x="1209.09" y="434.53" fill="#32353a" class="color32353a svgShape"/><rect width="78.58" height="17.56" x="1225.81" y="416.98" fill="#086614" class="color086614 svgShape"/><rect width="29.47" height="17.56" x="1274.92" y="416.98" fill="#19232a" class="color19232a svgShape"/><rect width="225.71" height="27.59" x="1221.63" y="440.38" fill="#696d72" class="color696d72 svgShape"/><rect width="249.95" height="5.85" x="1209.09" y="467.97" fill="#32353a" class="color32353a svgShape"/><rect width="78.58" height="17.56" x="1225.81" y="450.41" fill="#086614" class="color086614 svgShape"/><rect width="29.47" height="17.56" x="1274.92" y="450.41" fill="#19232a" class="color19232a svgShape"/><rect width="225.71" height="27.59" x="1221.63" y="498.9" fill="#696d72" class="color696d72 svgShape"/><rect width="249.95" height="5.85" x="1209.09" y="526.49" fill="#32353a" class="color32353a svgShape"/><rect width="78.58" height="17.56" x="1225.81" y="508.93" fill="#086614" class="color086614 svgShape"/><rect width="29.47" height="17.56" x="1274.92" y="508.93" fill="#19232a" class="color19232a svgShape"/><rect width="225.71" height="27.59" x="1221.63" y="532.34" fill="#696d72" class="color696d72 svgShape"/><rect width="249.95" height="5.85" x="1209.09" y="559.93" fill="#32353a" class="color32353a svgShape"/><rect width="78.58" height="17.56" x="1225.81" y="542.37" fill="#086614" class="color086614 svgShape"/><rect width="29.47" height="17.56" x="1274.92" y="542.37" fill="#19232a" class="color19232a svgShape"/><rect width="225.71" height="27.59" x="1221.63" y="595.5" fill="#696d72" class="color696d72 svgShape"/><rect width="249.95" height="5.85" x="1209.09" y="623.09" fill="#32353a" class="color32353a svgShape"/><rect width="78.58" height="17.56" x="1225.81" y="605.53" fill="#086614" class="color086614 svgShape"/><rect width="29.47" height="17.56" x="1274.92" y="605.53" fill="#19232a" class="color19232a svgShape"/><rect width="225.71" height="27.59" x="1221.63" y="628.94" fill="#696d72" class="color696d72 svgShape"/><rect width="249.95" height="5.85" x="1209.09" y="656.53" fill="#32353a" class="color32353a svgShape"/><rect width="78.58" height="17.56" x="1225.81" y="638.97" fill="#086614" class="color086614 svgShape"/><rect width="29.47" height="17.56" x="1274.92" y="638.97" fill="#19232a" class="color19232a svgShape"/><rect width="225.71" height="27.59" x="1221.63" y="689.45" fill="#696d72" class="color696d72 svgShape"/><rect width="249.95" height="5.85" x="1209.09" y="717.04" fill="#32353a" class="color32353a svgShape"/><rect width="78.58" height="17.56" x="1225.81" y="699.48" fill="#086614" class="color086614 svgShape"/><rect width="29.47" height="17.56" x="1274.92" y="699.48" fill="#19232a" class="color19232a svgShape"/><rect width="225.71" height="27.59" x="1221.63" y="722.89" fill="#696d72" class="color696d72 svgShape"/><rect width="249.95" height="5.85" x="1209.09" y="750.48" fill="#32353a" class="color32353a svgShape"/><rect width="78.58" height="17.56" x="1225.81" y="732.92" fill="#086614" class="color086614 svgShape"/><rect width="29.47" height="17.56" x="1274.92" y="732.92" fill="#19232a" class="color19232a svgShape"/><rect width="249.95" height="51.83" x="1209.09" y="797.34" fill="#4f4f4f" class="color4f4f4f svgShape"/><rect width="6.97" height="44.31" x="1218.14" y="804.86" fill="#383a39" class="color383a39 svgShape"/><rect width="6.97" height="44.31" x="1232.08" y="804.86" fill="#383a39" class="color383a39 svgShape"/><rect width="6.97" height="44.31" x="1247.12" y="804.86" fill="#383a39" class="color383a39 svgShape"/><rect width="6.97" height="44.31" x="1260.5" y="804.86" fill="#383a39" class="color383a39 svgShape"/><rect width="6.97" height="44.31" x="1273.94" y="804.86" fill="#383a39" class="color383a39 svgShape"/><rect width="6.97" height="44.31" x="1287.88" y="804.86" fill="#383a39" class="color383a39 svgShape"/><rect width="6.97" height="44.31" x="1302.92" y="804.86" fill="#383a39" class="color383a39 svgShape"/><rect width="6.97" height="44.31" x="1316.3" y="804.86" fill="#383a39" class="color383a39 svgShape"/><rect width="6.97" height="44.31" x="1331" y="804.86" fill="#383a39" class="color383a39 svgShape"/><rect width="6.97" height="44.31" x="1344.93" y="804.86" fill="#383a39" class="color383a39 svgShape"/><rect width="6.97" height="44.31" x="1359.98" y="804.86" fill="#383a39" class="color383a39 svgShape"/><rect width="6.97" height="44.31" x="1373.35" y="804.86" fill="#383a39" class="color383a39 svgShape"/><rect width="6.97" height="44.31" x="1386.73" y="804.86" fill="#383a39" class="color383a39 svgShape"/><rect width="6.97" height="44.31" x="1400.66" y="804.86" fill="#383a39" class="color383a39 svgShape"/><rect width="6.97" height="44.31" x="1415.71" y="804.86" fill="#383a39" class="color383a39 svgShape"/><rect width="6.97" height="44.31" x="1429.08" y="804.86" fill="#383a39" class="color383a39 svgShape"/><rect width="6.97" height="44.31" x="1443.02" y="804.86" fill="#383a39" class="color383a39 svgShape"/><g fill="#000000" class="color000 svgShape"><path fill="#fbb553" d="M873.4,918.26c0,0,14.98,27,7.89,41.08c0,0-22.87,0.1-36.59,13.58c0,0-18.43-18.51-12.63-46.59    C832.08,926.33,860.3,928.41,873.4,918.26z" class="colorfbb553 svgShape"/><path fill="#fbb553" stroke="#25715e" stroke-miterlimit="10" d="M818.1,925.66c0,0,24.36-8.95,29.93,19.88c0,0,7.11,33.22-16.21,33.22    C831.82,978.75,805.69,955.57,818.1,925.66z" class="colorfbb553 svgShape colorStroke25715e svgStroke"/><path fill="#25715e" d="M818.1 925.3c0 0-13.36 28 13.72 53.45 0 0-.73 4.56-7.92 4.29 0 0-25.69-24.96-13.08-58.61C810.82 924.44 814.66 921.93 818.1 925.3zM847.6 937.4c4.15 3.63 4.59 9.93 3.49 14.94-.69 3.14 4.13 4.48 4.82 1.33 1.46-6.67.72-14.98-4.78-19.8C848.73 931.75 845.18 935.27 847.6 937.4L847.6 937.4z" class="color25715e svgShape"/><path fill="#25715e" d="M856.35,937.12c-0.99-0.75,0.24,0.26,0.45,0.47c0.6,0.61,1.1,1.28,1.53,2.02      c1.59,2.78,1.49,5.76,0.57,8.76c-0.95,3.08,3.87,4.4,4.82,1.33c1.89-6.12,0.42-12.95-4.85-16.9      C856.3,930.87,853.8,935.21,856.35,937.12L856.35,937.12z" class="color25715e svgShape"/><path fill="#25715e" d="M864.33,935.38c0.12,0.08,0.38,0.32-0.08-0.07c0.19,0.16,0.39,0.32,0.57,0.5      c0.54,0.54,1.04,1.08,1.46,1.72c1.55,2.37,1.43,4.93,0.5,7.52c-1.09,3.03,3.74,4.34,4.82,1.33c2.02-5.64,0.25-11.91-4.76-15.32      C864.19,929.25,861.68,933.58,864.33,935.38L864.33,935.38z" class="color25715e svgShape"/><path fill="none" stroke="#25715e" stroke-miterlimit="10" d="M867.82,961.15c0,0-0.87-12.43,15.38-13.51" class="colorStroke25715e svgStroke"/></g><g fill="#000000" class="color000 svgShape"><path fill="#182023" d="M934.13,865.74c-2.02,2.2-114.97,66-124.26,71.99c0,0-26.51,11.02-42.21-14.89c0,0-14.55-29.2,14.47-50.45    l121.16-62.81L934.13,865.74z" class="color182023 svgShape"/></g><g fill="#000000" class="color000 svgShape"><path fill="#182023" d="M920.65,804.92c2.88,0.1,121.97,45.94,132.29,49.2c0,0,25.17,13.46,17.25,43.56c0,0-10.99,31.43-45.01,22.97    l-123.8-53.01L920.65,804.92z" class="color182023 svgShape"/></g><g fill="#000000" class="color000 svgShape"><path fill="#182023" d="M1039.26,849.94l-165.74,26.22c0,0-17.09,44.86,8.75,87.55l164.56-40.58c0,0,24.84-11.4,24.77-38.6    C1071.6,884.52,1072.97,855.72,1039.26,849.94z" class="color182023 svgShape"/></g><g fill="#000000" class="color000 svgShape"><path fill="#ef9c8b" d="M924.43,669.94c0,0,1.07,15.9,7.3,19.4c0,0-4.36,16.82-20.84,16.3c0,0-15.53-2.5-18.98-17.68    c0,0,9.02-8.97,7.31-19.83C899.22,668.13,909.17,679.51,924.43,669.94z" class="coloref9c8b svgShape"/></g><g fill="#000000" class="color000 svgShape"><path fill="#fbb553" d="M1008.12,909.4c0,0-16.56,29.84-8.72,45.41c0,0,25.29,0.11,40.45,15.01c0,0,20.37-20.46,13.96-51.51    C1053.8,918.32,1022.6,920.62,1008.12,909.4z" class="colorfbb553 svgShape"/><path fill="#fbb553" stroke="#25715e" stroke-miterlimit="10" d="M1069.25,917.57c0,0-26.93-9.89-33.09,21.98c0,0-7.86,36.72,17.92,36.72    C1054.08,976.27,1082.97,950.64,1069.25,917.57z" class="colorfbb553 svgShape colorStroke25715e svgStroke"/><path fill="#25715e" d="M1069.25 917.18c0 0 14.77 30.95-15.17 59.09 0 0 .81 5.04 8.75 4.74 0 0 28.4-27.6 14.46-64.79C1077.3 916.23 1073.06 913.46 1069.25 917.18zM1032.92 926.83c-6.01 5.26-6.81 14.35-5.21 21.63.69 3.14 5.51 1.81 4.82-1.33-1.23-5.63-.73-12.69 3.93-16.77C1038.88 928.24 1035.33 924.72 1032.92 926.83L1032.92 926.83zM1024.31 925.7c-5.73 4.3-7.29 11.75-5.24 18.39.95 3.07 5.77 1.76 4.82-1.33-1.04-3.38-1.14-6.75.65-9.89.45-.79.98-1.51 1.61-2.17.22-.23 1.68-1.45.68-.69C1029.38 928.11 1026.89 923.76 1024.31 925.7L1024.31 925.7zM1015.49 923.78c-5.46 3.71-7.34 10.52-5.15 16.64 1.08 3.01 5.91 1.71 4.82-1.33-1.05-2.94-1.17-5.83.58-8.52.48-.73 1.04-1.34 1.66-1.95.54-.53.5-.45.61-.52C1020.66 926.29 1018.16 921.96 1015.49 923.78L1015.49 923.78z" class="color25715e svgShape"/><path fill="none" stroke="#25715e" stroke-miterlimit="10" d="M1014.29,956.82c0,0,0.96-13.75-17-14.93" class="colorStroke25715e svgStroke"/></g><g fill="#000000" class="color000 svgShape"><path fill="#2d3c42" d="M801.95,867.32l200.66,10.88c0,0,20.14,38.42-7.72,86.58l-204.37-25.27c0,0-30.85-4.73-27.31-39.03     C763.21,900.49,766.9,868.87,801.95,867.32z" class="color2d3c42 svgShape"/><path fill="#110808" d="M994.89,964.78c3.63-6.63,6.46-13.65,8.77-20.78c2.25-7.16,3.95-14.48,4.67-21.9      c0.23-1.85,0.32-3.71,0.44-5.56c0.04-1.86,0.12-3.71,0.04-5.56c0-1.85-0.18-3.7-0.3-5.54c-0.23-1.83-0.38-3.68-0.72-5.49      c-1.12-7.3-3.59-14.32-6.9-20.87l1.59,1.04l-33.64-2.06l-16.82-1.07l-16.82-1.13l-33.62-2.38c-11.21-0.82-22.41-1.65-33.63-2.58      c11.25-0.1,22.49,0.08,33.73,0.36c11.24,0.27,22.48,0.7,33.71,1.17l16.84,0.79l16.84,0.93c11.22,0.61,22.44,1.38,33.65,2.14      l1.11,0.07l0.48,0.97c3.45,6.95,5.83,14.44,6.87,22.1c0.32,1.91,0.45,3.84,0.61,5.76c0.06,1.93,0.19,3.85,0.12,5.78      c0.01,1.93-0.13,3.84-0.24,5.76c-0.19,1.91-0.35,3.82-0.64,5.72c-1.11,7.59-3.11,15-5.85,22.1c-1.36,3.55-2.9,7.03-4.61,10.42      C998.89,958.35,997,961.65,994.89,964.78z" class="color110808 svgShape"/></g><g fill="#000000" class="color000 svgShape"><path fill="#fbd7cb" d="M953.77,699.33c0,0,11.31-4.58,22.25,6.83c0,0,38.36,40.41,47.42,53.6c0,0,17.83,20.94,17.9,30.61     c0,0-18.31,19.89-43.51,0.75c0,0-33.67-36.61-48.32-59.72C949.51,731.41,932.26,712.42,953.77,699.33z" class="colorfbd7cb svgShape"/><path fill="#50babc" d="M1007.85,739.05c-13.8-15.53-30.51-33.4-30.51-33.4c-10.93-11.41-23.58-6.32-23.58-6.32    c-21.51,13.09-4.26,32.08-4.26,32.08c6.26,9.87,15.12,26.22,24.21,37.11C981.86,757.49,995.61,744.31,1007.85,739.05z" class="color50babc svgShape"/></g><g fill="#000000" class="color000 svgShape"><path fill="#fbd7cb" d="M879.18,699.37c0,0-9.45-7.13-22.05,4c0,0-39.82,34.56-49.45,46.24c0,0-18.64,18.15-19.32,27.47     c0,0,16.55,21.34,42.24,5.79c0,0,35.02-31.43,50.71-52.04C881.31,730.84,899.26,714.52,879.18,699.37z" class="colorfbd7cb svgShape"/><path fill="#50babc" d="M879.18,699.37c0,0-11.05-6.98-23.65,4.15c0,0-23.02,18.18-39.95,35.74c11.73,7.72,24.27,21.1,31.52,32.81    c11.31-10.87,25.53-29.83,34.21-41.23C881.31,730.84,899.26,714.52,879.18,699.37z" class="color50babc svgShape"/></g><g fill="#000000" class="color000 svgShape"><path fill="#a4f9ff" d="M966.76,699.69c0,0-33.12-9.66-42.26-8.97c0,0-4.49,7.28-13.45,7.28c0,0-11.2,2.72-19.14-10.04    c0,0-36.38,10.76-38.29,19.66c0,0,6.38,22.08,3.79,78.99c0,0,0.26,31.82-0.78,36.99c0,0-2.85,7.24,3.88,7.24    c0,0,52,6.98,110.98-5.17c0,0,4.4-0.52,0-8.54c0,0-6.73-31.3-5.95-57.17C965.56,759.97,961.76,706.68,966.76,699.69z" class="colora4f9ff svgShape"/><path fill="#267775" d="M964.42,712.59c-0.34,8.57-0.31,17.14,0.08,25.69c0.38,8.55,1.14,17.08,1.96,25.61     c0.83,8.52,1.83,17.02,2.84,25.55c0.91,8.55,1.71,17.05,3.28,25.4l-0.05-0.18c0.32,0.96,0.7,1.9,1.1,2.88     c0.4,0.99,0.79,1.96,1.15,3.07c0.18,0.61,0.32,1.31,0.24,2.08c-0.06,0.77-0.4,1.55-0.85,2.11c-0.91,1.15-1.98,1.72-2.98,2.26     l-0.08,0.04l-0.12,0.04c-8.93,2.79-18.18,4.32-27.42,5.16c-9.24,0.86-18.51,1.09-27.68,1.44c-2.28,0.04-4.55,0.3-6.86,0.44     c-2.31,0.16-4.61,0.31-6.93,0.43c-4.62,0.25-9.26,0.41-13.9,0.42c-9.28,0.04-18.59-0.55-27.78-2.08l-0.21-0.03l-0.19-0.09     c-0.44-0.22-1.02-0.44-1.61-0.69c-0.59-0.25-1.21-0.52-1.87-0.94c-0.33-0.22-0.68-0.49-1.02-0.91c-0.17-0.24-0.32-0.49-0.43-0.82     c-0.06-0.15-0.08-0.34-0.1-0.51l-0.02-0.25l0-0.12l0.05-1.85l0.2-7.39l0.5-14.75c0.35-9.83,0.7-19.66,0.91-29.49     c0.11-4.91,0.17-9.83,0.19-14.74c0.05-4.91,0.04-9.83-0.02-14.74c-0.14-9.83-0.55-19.66-1.29-29.47     c1.19,9.77,1.89,19.6,2.34,29.44c0.22,4.92,0.38,9.84,0.48,14.77c0.08,4.92,0.1,9.85,0.09,14.77     c-0.02,9.85-0.18,19.69-0.34,29.53l-0.27,14.75l-0.13,7.36l-0.03,1.84l0,0.11c0,0.02,0.01-0.02,0.01-0.02     c0.01-0.02-0.02-0.05-0.01-0.06c-0.02-0.03,0-0.03,0-0.01c0.05,0.06,0.18,0.18,0.37,0.3c0.38,0.24,0.89,0.47,1.43,0.69     c0.55,0.23,1.13,0.43,1.79,0.75l-0.39-0.13c9.03,1.39,18.18,1.91,27.34,1.86c4.58-0.03,9.16-0.2,13.75-0.46     c2.29-0.13,4.58-0.28,6.88-0.45c2.29-0.14,4.61-0.42,6.94-0.45c9.25-0.32,18.43-0.52,27.56-1.34c9.11-0.82,18.17-2.22,26.89-4.85     l-0.21,0.08c0.85-0.42,1.67-0.93,2.07-1.46c0.2-0.26,0.3-0.49,0.33-0.77c0.03-0.28-0.01-0.64-0.13-1.04     c-0.28-0.91-0.66-1.89-1.04-2.86c-0.39-0.98-0.78-1.99-1.12-3.03l-0.03-0.09l-0.02-0.08c-1.52-8.52-2.1-17.14-2.86-25.65     c-0.84-8.52-1.68-17.07-2.35-25.62c-0.71-8.55-1.11-17.14-1.25-25.72C963.43,729.73,963.68,721.14,964.42,712.59z" class="color267775 svgShape"/><path fill="#50babc" d="M911.05,698.01c0,0-13.07-8.98-16.99-13.81c0,0-1.98-2.27-4.67,1c0,0-4.48,3.83-5.41,7.65     c0,0,4.11,12.15,17.55,25.12C901.53,717.97,905.64,704.16,911.05,698.01z" class="color50babc svgShape"/><path fill="#267775" d="M911.05,698.01c-1.95-1.19-3.86-2.46-5.75-3.75c-1.89-1.3-3.77-2.61-5.59-4.02     c-1.82-1.41-3.62-2.85-5.27-4.51c-0.21-0.21-0.4-0.43-0.6-0.65l-0.3-0.33c-0.07-0.08-0.05-0.05-0.09-0.09     c-0.04-0.03-0.07-0.06-0.11-0.09c-0.33-0.24-0.71-0.36-1.08-0.33c-0.75,0.05-1.54,0.71-2.19,1.5l-0.04,0.05l-0.07,0.06     c-0.54,0.49-1.09,1.05-1.6,1.61c-0.51,0.57-1,1.15-1.45,1.76c-0.89,1.21-1.64,2.53-1.98,3.85l-0.02-0.54     c0.86,2.28,2.03,4.59,3.27,6.78c1.25,2.21,2.61,4.35,4.07,6.43c1.5,2.05,3.01,4.1,4.67,6.03c1.63,1.95,3.39,3.8,5.16,5.64     l-1.28,0.34c1.18-3.57,2.57-7.02,4.2-10.39c0.84-1.67,1.7-3.32,2.7-4.9C908.67,700.87,909.75,699.36,911.05,698.01z      M911.05,698.01c-1.12,1.46-2.06,3.09-2.91,4.71c-0.86,1.63-1.58,3.33-2.27,5.04c-0.7,1.7-1.34,3.44-1.93,5.18     c-0.59,1.74-1.17,3.5-1.66,5.26l-0.35,1.25l-0.93-0.91c-0.93-0.91-1.89-1.79-2.79-2.72c-0.88-0.95-1.81-1.87-2.65-2.86     c-1.75-1.93-3.36-3.98-4.89-6.08c-1.51-2.12-2.94-4.31-4.23-6.58c-1.27-2.3-2.43-4.59-3.37-7.14l-0.1-0.26l0.07-0.28     c0.46-1.75,1.38-3.2,2.39-4.51c0.51-0.66,1.05-1.27,1.61-1.86c0.57-0.59,1.14-1.15,1.79-1.71l-0.11,0.11     c0.42-0.47,0.85-0.94,1.43-1.32c0.56-0.38,1.26-0.68,2.03-0.7c0.78-0.03,1.53,0.27,2.1,0.73c0.07,0.06,0.14,0.12,0.21,0.19     c0.06,0.06,0.18,0.19,0.2,0.22l0.27,0.32c0.18,0.21,0.35,0.43,0.54,0.63c1.51,1.63,3.2,3.16,4.91,4.65     c1.73,1.48,3.47,2.95,5.25,4.39L911.05,698.01z" class="color267775 svgShape"/><path fill="#50babc" d="M910.89,698.01c0,0,13.07-8.98,16.99-13.81c0,0,1.63-2.27,4.67,1c0,0,4.48,3.83,5.41,7.65     c0,0-4.11,12.15-17.55,25.12C920.41,717.97,916.3,704.16,910.89,698.01z" class="color50babc svgShape"/><path fill="#267775" d="M910.89,698.01l5.38-4.25c1.78-1.43,3.52-2.91,5.25-4.38c1.71-1.49,3.4-3.02,4.91-4.65     c0.19-0.2,0.35-0.41,0.53-0.61l0.26-0.31l0.17-0.21c0.07-0.07,0.14-0.15,0.21-0.21c0.56-0.53,1.39-0.81,2.17-0.75     c0.78,0.05,1.43,0.38,1.97,0.73c0.56,0.36,1.01,0.8,1.45,1.24l-0.07-0.07c0.65,0.56,1.22,1.11,1.79,1.71     c0.56,0.59,1.11,1.21,1.61,1.86c1.01,1.31,1.92,2.76,2.39,4.51l0.07,0.28l-0.1,0.26c-0.93,2.54-2.09,4.84-3.37,7.14     c-1.29,2.27-2.71,4.46-4.23,6.58c-1.54,2.1-3.14,4.15-4.89,6.08c-0.84,0.99-1.77,1.91-2.65,2.86c-0.91,0.93-1.86,1.81-2.79,2.72     l-0.93,0.91l-0.35-1.25c-0.49-1.75-1.08-3.51-1.66-5.26c-0.59-1.74-1.23-3.48-1.93-5.18c-0.69-1.71-1.41-3.41-2.27-5.04     C912.95,701.1,912.01,699.47,910.89,698.01z M910.89,698.01c1.3,1.35,2.38,2.86,3.37,4.45c1,1.58,1.86,3.24,2.7,4.9     c1.62,3.37,3.01,6.82,4.2,10.39l-1.28-0.34c1.77-1.84,3.53-3.68,5.16-5.64c1.66-1.93,3.18-3.98,4.67-6.03     c1.46-2.08,2.82-4.23,4.07-6.43c1.24-2.19,2.42-4.49,3.27-6.78l-0.02,0.54c-0.34-1.33-1.09-2.64-1.98-3.85     c-0.45-0.61-0.94-1.19-1.45-1.76c-0.51-0.56-1.06-1.12-1.6-1.61l-0.05-0.04l-0.02-0.02c-0.7-0.76-1.54-1.45-2.3-1.54     c-0.37-0.04-0.71,0.05-1,0.29c-0.04,0.03-0.07,0.06-0.1,0.09l-0.11,0.12l-0.31,0.34c-0.21,0.22-0.41,0.45-0.62,0.66     c-1.66,1.66-3.46,3.1-5.27,4.51c-1.81,1.41-3.7,2.72-5.58,4.01C914.75,695.55,912.84,696.82,910.89,698.01z" class="color267775 svgShape"/></g><g fill="#000000" class="color000 svgShape"><path fill="#fbd7cb" d="M975.48,794.41c0,0-8.07-2.22-13.52-10.14c0,0-4.36-5.47-7.56-2.91c0,0-6.63,3.19-3.84,11.42    c0,0,1.61,9.99,10.18,10.89C960.73,803.66,981.08,801.59,975.48,794.41z" class="colorfbd7cb svgShape"/><path fill="#fbd7cb" stroke="#cd7970" stroke-miterlimit="10" d="M1005.13,820.93c0,0,1.42,11.08-16.57,14.41c0,0-7.42-0.36-12.37-4.77c0,0-3.24,15.25-9.99,13.34    c0,0-5.52-0.47-6.06-6.22c0,0-10.51,3.16-9.71-11.5c0,0-9.37-0.15-5.82-12.23c0,0,3.96-9.56,7.29-12.44c0,0,2.04-2.36,10.09-3.88    c0,0,18.67-5.28,24.78-4.59C986.76,793.05,1007.86,800.9,1005.13,820.93z" class="colorfbd7cb svgShape colorStrokecd7970 svgStroke"/><path fill="none" stroke="#cd7970" stroke-miterlimit="10" d="M971.49 815.37c0 0-8.28 3.55-11.35 22.32M960.98 807.24c0 0-5.31 4.61-10.55 18.94" class="colorStrokecd7970 svgStroke"/></g><g fill="#000000" class="color000 svgShape"><path fill="#fbd7cb" d="M1032.57,779.93c0,0-12.85-7.31-27.44-3.28c0,0-16.14,10-24.92,16.08c0,0,7.61,22.99,24.44,32.01    c0,0,27.53-9.25,33.58-18.23C1038.23,806.51,1048.55,787.94,1032.57,779.93z" class="colorfbd7cb svgShape"/></g><g fill="#000000" class="color000 svgShape"><path fill="#fbd7cb" d="M852.87,792.6c0,0,8.37,0,15.73-6.19c0,0,5.66-4.12,8.07-0.8c0,0,5.54,4.84,0.68,12.03    c0,0-4.2,9.21-12.7,7.8C864.64,805.43,845.57,798.04,852.87,792.6z" class="colorfbd7cb svgShape"/><path fill="#fbd7cb" stroke="#cd7970" stroke-miterlimit="10" d="M817.25,810.29c0,0-4.31,10.31,12.15,18.29c0,0,7.25,1.62,13.2-1.31c0,0-0.92,15.56,6.09,15.51    c0,0,5.45,1.02,7.49-4.39c0,0,9.29,5.84,12.41-8.51c0,0,9.07,2.35,8.86-10.24c0,0-1.28-10.27-3.73-13.93c0,0-1.34-2.82-8.7-6.41    c0,0-16.6-10.05-22.67-11C842.36,788.3,819.94,790.27,817.25,810.29z" class="colorfbd7cb svgShape colorStrokecd7970 svgStroke"/><path fill="none" stroke="#cd7970" stroke-miterlimit="10" d="M851.16 813.86c0 0 7.04 5.61 5.02 24.53M863.45 808.82c0 0 3.9 5.85 5.15 21.07" class="colorStrokecd7970 svgStroke"/></g><g fill="#000000" class="color000 svgShape"><path fill="#fbd7cb" d="M801.67,763.49c0,0,14.33-3.64,27.33,4.12c0,0,12.91,13.92,19.76,22.11c0,0-13.22,21.42-31.84,25.65    c0,0-24.3-17.5-27.75-27.76C789.17,787.61,784.14,766.97,801.67,763.49z" class="colorfbd7cb svgShape"/></g><g fill="#000000" class="color000 svgShape"><path fill="#fbd7cb" d="M941.09,608.49c0,0,2.92,12.98,0,34.41c0,0,0.34,27.46-15.83,36.05c0,0-7.74,5.89-14.74,5.21    c0,0-5.25,1.56-13.61-5.25c0,0-11.51-5.54-12.97-24.78c0,0-3.64-38.78,3.21-51.61c0,0,7.47-13.27,25.53-11.66    C912.68,590.85,936.42,589.83,941.09,608.49z" class="colorfbd7cb svgShape"/></g><g fill="#000000" class="color000 svgShape"><path fill="#cd7970" d="M914.98,635.64c0.36,1.58,0.68,3.15,1,4.71c0.33,1.56,0.66,3.11,1.01,4.65c0.36,1.53,0.75,3.05,1.23,4.51     c0.47,1.45,1.04,2.9,1.86,4l1.05,1.39l-1.65,0.13c-1.83,0.15-3.63,0.19-5.45,0.09c-0.91-0.05-1.82-0.13-2.72-0.29     c-0.9-0.15-1.8-0.36-2.64-0.72c0.9,0.07,1.79,0.02,2.68-0.03c0.88-0.06,1.77-0.13,2.65-0.23c1.76-0.19,3.53-0.41,5.25-0.66     l-0.6,1.52c-1.2-1.41-1.81-3.01-2.33-4.58c-0.49-1.59-0.86-3.18-1.08-4.8c-0.24-1.61-0.39-3.22-0.43-4.84     C914.77,638.87,914.8,637.25,914.98,635.64z" class="colorcd7970 svgShape"/></g><g fill="#000000" class="color000 svgShape"><path fill="#57124e" d="M903.82,636.71c0,2.31-1.09,4.18-2.43,4.18c-1.34,0-2.43-1.87-2.43-4.18c0-2.31,1.09-4.18,2.43-4.18    C902.73,632.53,903.82,634.4,903.82,636.71z" class="color57124e svgShape"/></g><g fill="#000000" class="color000 svgShape"><ellipse cx="925.88" cy="636.51" fill="#57124e" rx="2.43" ry="4.18" class="color57124e svgShape"/></g><g fill="#000000" class="color000 svgShape"><path fill="#57124e" d="M903.82,624.95c0,0,1.75-3.11-2.43-3.89c0,0-5.15-0.58-7.87,7.19c0,0-0.39,4.47,2.53,2.53    C896.04,630.78,898.76,625.73,903.82,624.95z" class="color57124e svgShape"/></g><g fill="#000000" class="color000 svgShape"><path fill="#57124e" d="M925.16,625.39c0,0-1.75-3.11,2.43-3.89c0,0,5.15-0.58,7.87,7.19c0,0,0.39,4.47-2.53,2.53    C932.93,631.22,930.21,626.17,925.16,625.39z" class="color57124e svgShape"/></g><g fill="#000000" class="color000 svgShape"><path fill="#57124e" d="M923.45,662.4c0,0-11.46,6.61-22.06-3.5c0,0-0.45,13.2,11.29,13.2C917.87,672.11,921.55,668.77,923.45,662.4    z" class="color57124e svgShape"/></g><g fill="#000000" class="color000 svgShape"><path fill="#57124e" d="M889.75,604.61c-0.62-0.41,2.57,5.4-2.81,14.86c0,0-4.44,6.42,0,20.91l-5.29-2.87c0,0-12.59-5.08-6.8-16.07    c0,0-8.48-1.64-8.01-10.76c0,0,0.83-7.72,8.01-7.72c0,0-6.72-7.48,0-16.13c0,0,3.21-3.98,8.12-2.34c0,0-1.32-9.41,9.47-11.87    c0,0,8.23-0.81,11.74,5.61c0,0,2.64-6.09,10.71-5.44c0,0,9.93,0.12,8.56,8.77c0,0,2.43-3.86,6.68-2.22c0,0,4.51,1.99,3.35,6.43    c0,0,3.33-5.67,10.33-1.75c0,0,8.85,5.85,1.13,12.86c0,0,7.72-0.47,8.18,6.78c0,0,2.13,7.95-5.36,9.59c0,0,7.89,1.17,7.45,8.65    c0,0-0.32,3.97-4.59,5.85c0,0,5.59,5.14-8.23,12.63l-5.4,1.38c0,0,3.74-7.73,1.64-17.18c0,0-6.55-12.02-1.4-17.16    c0,0-3.74,0.94-6.08-3.27c0,0-1.82,4.68-7.69,4.68c0,0-6.91,0.23-9.43-7.01c0,0,0.73,3.04-3,5.14c0,0-6,0.94-7.21-4.91    C903.82,602.04,899.58,611.16,889.75,604.61z" class="color57124e svgShape"/><path fill="#57124e" d="M950.12 630.32c1.43-1.77 2.79-3.53 3.87-5.39 1.05-1.84 1.82-3.9 1.37-5.64-.41-1.75-2.15-3.05-4.03-4.02-1.92-.97-4.04-1.65-6.18-2.44 2.28-.03 4.57.23 6.8 1.01 1.11.4 2.2.93 3.19 1.72.97.8 1.81 1.92 2.16 3.24.31 1.33.15 2.68-.26 3.85-.43 1.17-1.03 2.22-1.75 3.15C953.85 627.64 952.1 629.17 950.12 630.32zM885.15 585.01c-2.73-.96-5.71-1.19-8.09-.09-.6.26-1.12.65-1.65 1.02-.48.45-.96.87-1.34 1.43-.44.49-.75 1.1-1.1 1.66-.32.53-.56 1.21-.79 1.84-.48 1.28-.81 2.63-.96 3.97-.16 1.34-.13 2.69.15 4 .59 2.6 2.41 4.88 4.83 6.53-.66-.28-1.36-.55-2.02-.9l-.93-.63-.47-.32c-.14-.12-.27-.26-.41-.39-1.17-1-1.96-2.4-2.5-3.86-.98-3.01-.58-6.23.43-9.07.28-.71.54-1.41.97-2.12.43-.65.79-1.34 1.35-1.91 1.01-1.2 2.35-2.21 3.88-2.69 1.51-.52 3.13-.54 4.61-.24C882.58 583.54 883.97 584.14 885.15 585.01zM933.57 586.74c.27-.62.47-1.45.53-2.21.07-.78 0-1.57-.21-2.32-.21-.75-.57-1.47-1.09-2.09-.49-.65-1.16-1.15-1.85-1.63l-.03-.02c-.62-.46-1.4-.84-2.19-.96-.4-.05-.81-.03-1.21.08-.4.1-.75.35-1.08.61.29-.3.62-.6 1.03-.77.4-.17.85-.25 1.29-.25.44.01.88.09 1.31.22.43.13.83.29 1.24.53l-.03-.02c.8.41 1.6.87 2.26 1.53.69.63 1.24 1.43 1.61 2.31.38.88.58 1.84.63 2.79.03.97-.04 1.87-.32 2.9L933.57 586.74zM875.34 620.45c-1.46 2.58-2.17 5.17-2.08 7.78.09 1.3.29 2.62.69 3.93.17.66.45 1.31.65 1.99.25.66.54 1.32.75 2.06-.57-.48-1.09-1.01-1.6-1.57-.42-.61-.91-1.21-1.24-1.89-.72-1.35-1.15-2.88-1.24-4.45-.05-1.58.3-3.17 1.01-4.55C872.97 622.37 874.01 621.17 875.34 620.45zM928.36 609.14c-1.41.98-3.04 1.64-4.77 2.02-1.73.33-3.62.24-5.35-.45-1.69-.69-3.36-1.78-4.31-3.36-.51-.76-.82-1.61-1.16-2.43-.22-.86-.4-1.73-.46-2.61l.19-.07c.6.68 1.08 1.36 1.53 2.05.28.31.52.64.77.95.25.31.44.67.74.93.26.29.52.57.76.88.23.31.54.53.79.82l.39.42c.14.12.3.23.45.34.32.2.6.5.96.63 1.34.74 2.95 1.03 4.57.92 1.62-.09 3.26-.51 4.79-1.19L928.36 609.14z" class="color57124e svgShape"/></g><g fill="#000000" class="color000 svgShape"><path fill="#fbd7cb" d="M884.18,638.68c0,0-1.67-8.76-10.26-5.84c0,0-7.04,2.92-1.59,13.61c0,0,5.64,11.27,12.83,2.72L884.18,638.68    z" class="colorfbd7cb svgShape"/><path fill="#cd7970" d="M881.66,646.25c-0.27,0.07-0.54,0.15-0.82,0.21c-0.28,0.01-0.57,0.08-0.86,0.03     c-0.59,0-1.22-0.29-1.61-0.79c-0.41-0.5-0.58-1.12-0.64-1.72c-0.06-0.6-0.03-1.18,0.1-1.79l0.01-0.04l0.02-0.05     c0.17-0.35,0.36-0.69,0.61-1.02c0.27-0.31,0.59-0.62,1.02-0.8c0.43-0.18,0.93-0.21,1.37-0.09c0.44,0.12,0.79,0.33,1.15,0.64     l-0.78,0.57c-0.34-0.65-0.68-1.3-1.08-1.9c-0.41-0.59-0.86-1.15-1.42-1.54c-0.55-0.41-1.22-0.63-1.91-0.53     c-0.7,0.07-1.37,0.45-1.95,0.94c0.43-0.63,1.07-1.14,1.85-1.38c0.79-0.25,1.7-0.08,2.4,0.35c0.38,0.18,0.66,0.48,0.98,0.73     c0.26,0.3,0.56,0.58,0.78,0.9c0.49,0.63,0.86,1.31,1.23,2l1.24,2.31l-2.02-1.74c-0.18-0.16-0.48-0.32-0.72-0.39     c-0.26-0.07-0.5-0.06-0.74,0.03c-0.24,0.09-0.45,0.29-0.66,0.51c-0.2,0.24-0.37,0.51-0.54,0.8l0.03-0.09     c-0.23,0.96-0.33,2.11,0.16,2.93c0.25,0.39,0.66,0.71,1.19,0.81c0.25,0.09,0.53,0.07,0.8,0.11L881.66,646.25z" class="colorcd7970 svgShape"/></g><g fill="#000000" class="color000 svgShape"><path fill="#fbd7cb" d="M941.28,638.68c0,0,1.67-8.76,10.26-5.84c0,0,7.04,2.92,1.59,13.61c0,0-5.64,11.27-12.83,2.72L941.28,638.68    z" class="colorfbd7cb svgShape"/><path fill="#cd7970" d="M950.61,638.38c-0.57-0.49-1.25-0.87-1.95-0.94c-0.7-0.1-1.36,0.13-1.91,0.53     c-0.56,0.39-1.02,0.95-1.42,1.54c-0.4,0.6-0.74,1.25-1.08,1.9l-0.78-0.57c0.35-0.31,0.7-0.51,1.15-0.64     c0.43-0.12,0.94-0.09,1.37,0.09c0.43,0.18,0.75,0.49,1.02,0.8c0.25,0.33,0.44,0.67,0.61,1.02l0.02,0.05l0.01,0.04     c0.12,0.61,0.16,1.18,0.1,1.79c-0.06,0.59-0.23,1.22-0.64,1.72c-0.4,0.5-1.03,0.79-1.62,0.8c-0.29,0.04-0.58-0.02-0.86-0.03     c-0.28-0.06-0.55-0.14-0.82-0.21l0.83,0.02c0.27-0.04,0.55-0.02,0.8-0.11c0.52-0.11,0.94-0.42,1.18-0.81     c0.49-0.82,0.39-1.97,0.16-2.93l0.03,0.09c-0.16-0.29-0.34-0.56-0.54-0.8c-0.21-0.22-0.42-0.42-0.66-0.51     c-0.24-0.09-0.48-0.1-0.74-0.03c-0.25,0.06-0.54,0.23-0.72,0.39l-2.01,1.72l1.23-2.29c0.37-0.69,0.74-1.37,1.23-2     c0.22-0.32,0.52-0.6,0.78-0.9c0.32-0.25,0.6-0.55,0.98-0.73c0.7-0.43,1.61-0.6,2.4-0.35     C949.54,637.24,950.18,637.75,950.61,638.38z" class="colorcd7970 svgShape"/></g><g fill="#000000" class="color000 svgShape"><path fill="#6b6161" d="M1493.29,860.07c17.15,16.32,41.88,13.41,62.73,21.1c10.35,3.82,21.47,10.7,24.49,22.05      c3.59,13.52-6.08,25.84-16.62,33.05c-23.76,16.27-54.83,15.09-82.31,16.41c-28.91,1.39-57.73,4.22-86.66,5.23      c-29.81,1.03-59.89,0.02-89.02-6.92c-24.95-5.95-49.88-10.85-75.49-12.88c-25.24-2-50.52-1.56-75.81-1.39      c-18.63,0.12-37.52,2.37-52.54,14.46c-5.7,4.58-15.57,13.16-11.32,21.49c3.95,7.74,16.76,10.45,24.07,13.4      c17.72,7.14,37.25,9.22,56.18,10.24c22.86,1.24,45.81,0.48,68.65-0.9c18.58-1.13,38.66-0.99,56.66-6.15      c14.26-4.08,30.95-15.02,21.76-31.55c-8-14.38-25.84-23.89-40.13-30.67c-21.32-10.12-45.27-15.21-68.22-20.18      c-23.61-5.11-47.49-8.77-71.43-11.93c-22.96-3.03-46.31-4.94-68.89-10.24c-16.76-3.94-32.61-10.2-48.48-16.76      c-16.91-7-34.04-13-51.99-16.77c-24.04-5.04-48.9-7.45-73.44-7.95c-47.89-0.99-93.06,10.85-133.86,36.13      c-16.84,10.44-31.92,22.72-47.05,35.43c-5.95,4.99-11.61,10.33-18.48,14.05c-10.08,5.46-21.45,9.11-32.7,11.24      c-8.57,1.62-17.34,2.26-25.96,3.73c-7.41,1.26-14.78,2.72-22.2,3.94c-20.96,3.43-42.13,4.06-63.33,3.31      c-16.72-0.59-33.47-0.82-50.16-1.97c-8.14-0.56-16.31-1.29-24.33-2.8c-5.67-1.06-12.42-2.23-17.19-5.72      c-3.64-2.66-3.08-5.59-0.56-9.02c1.56-2.13,1.09-2.02,3.05-2.73c1.45-0.52,3.11-0.7,4.62-0.94c10.3-1.7,20.92-2.01,31.33-2.38      c31.78-1.12,63.72-0.45,95.44,1.81c14.86,1.06,29.74,2.45,44.43,4.98c9.36,1.61,20.11,3.19,28.42,8.11      c1.23,0.73,2.03,1.31,3.01,2.29c1.82,1.81,6.53,4.8,8.44,7.33c4.13,5.46-2.84,11.27-7.02,13.85      c-5.77,3.56-12.55,5.13-19.05,6.82c-27.84,7.26-56.68,9.59-85.38,8.91c-29.15-0.69-58.14-4.39-86.86-9.23      c-14-2.36-27.95-4.98-41.88-7.68c-13.12-2.54-27.45-4.61-38.62-12.52c-10.4-7.36-17.27-20.99-10.62-33.07      c4.58-8.32,13.27-13.83,20.56-19.52c8.16-6.37,15.1-13.15,19.35-22.75c5.05-11.4,8.09-22.68,18.66-30.34      c16.79-12.17,39.93-12.6,59.82-12.53c4.84,0.02,4.85-7.51,0-7.52c-20.62-0.07-43.83,0.74-61.72,12.28      c-8.86,5.72-14.92,13.67-18.92,23.36c-2.53,6.11-4.43,12.58-8.11,18.15c-2.86,4.33-6.8,7.89-10.77,11.18      c-14.63,12.08-35.01,24.83-27.6,47.16c8.43,25.39,37.69,29.82,60.36,34.18c56.99,10.96,115.59,20.9,173.74,14.39      c14.2-1.59,28.3-4.12,42.1-7.85c10.19-2.75,22.43-6.25,28.27-15.97c1.99-3.31,2.84-7.3,1.88-11.09      c-1.31-5.18-5.38-6.89-9.03-10.16c-2.91-2.6-4.95-5.14-8.56-6.96c-9.66-4.87-20.96-6.75-31.53-8.45      c-14.99-2.41-30.15-3.83-45.29-4.87c-32.28-2.21-64.81-2.85-97.14-1.44c-10.38,0.45-20.99,0.87-31.21,2.84      c-4.45,0.86-7.02,2.21-9.87,6.01c-2.72,3.63-4.67,8.15-3.17,12.69c3.61,10.93,21.17,12.91,30.56,14.26      c17.11,2.46,34.47,2.87,51.73,3.33c21.19,0.57,42.36,1.58,63.51-0.41c16.21-1.52,32.06-5.05,48.12-7.58      c20.45-3.23,40.98-5.71,58.88-17.21c13.59-8.73,25.19-21.05,37.92-31c39.68-31.01,87.32-49.63,137.72-51.26      c45.45-1.47,91.9,4.92,134.15,22.01c15.91,6.44,31.6,13.23,48.24,17.62c21.83,5.75,44.47,7.82,66.81,10.68      c25.28,3.23,50.5,6.87,75.45,12.08c23.9,4.99,49.23,10.02,71.38,20.62c8.74,4.18,17.32,9.05,24.97,15.02      c5.58,4.36,13.7,10.98,14.16,18.7c0.59,10.11-13.75,14.76-21.38,16.78c-9.41,2.49-19.12,3-28.79,3.77      c-22.2,1.78-44.44,3.17-66.71,3.3c-22.06,0.13-44.7-0.52-66.22-5.78c-9.85-2.41-19.93-6.09-29.01-10.58      c-1.8-0.89-4.99-2.22-5.92-4.22c-1.41-3.03,1.57-5.98,3.42-8.09c4.09-4.69,9.14-8.54,14.63-11.44      c18.82-9.95,42.36-7.7,62.94-7.83c26.44-0.17,52.91,0.6,79.12,4.38c27.93,4.04,54.92,12.67,83.04,15.43      c29.82,2.93,59.85,1.4,89.66-0.7c15.21-1.07,30.39-2.4,45.61-3.38c14.2-0.91,28.47-1.03,42.61-2.63      c22.96-2.59,50.68-9.33,63.59-30.57c11.81-19.42-0.86-38.23-19.44-46.31c-21.22-9.23-48.06-4.54-66.06-20.97      C1494.01,856.54,1491.84,858.69,1493.29,860.07L1493.29,860.07z" class="color6b6161 svgShape"/></g><g fill="#000000" class="color000 svgShape"><rect width="152.63" height="103.08" x="837.42" y="764.76" fill="#434444" class="color434444 svgShape"/><polygon fill="#7a7a7a" points="990.05 857.92 837.42 857.92 831.47 754.85 995 754.85" class="color7a7a7a svgShape"/><circle cx="913.02" cy="809.77" r="10.33" fill="none" stroke="#434444" stroke-miterlimit="10" stroke-width="2" transform="rotate(-89.152 912.999 809.762)" class="colorStroke434444 svgStroke"/></g><g fill="#000000" class="color000 svgShape"><polygon fill="#959595" points="1460.54 344.59 1464.13 332.29 1610.89 967.99 1601.05 967.99" class="color959595 svgShape"/><polygon fill="#959595" points="1316.24 928.65 1342.47 928.65 1490 331.5 1463.77 331.5" class="color959595 svgShape"/><polygon fill="#959595" points="1147.41 928.65 1173.63 928.65 1321.16 331.5 1294.93 331.5" class="color959595 svgShape"/><polygon fill="#cacaca" points="1637.52 967.99 1611.3 967.99 1463.77 331.5 1490 331.5" class="colorcacaca svgShape"/><rect width="182.77" height="21.75" x="1421.97" y="840.7" fill="#cacaca" class="colorcacaca svgShape"/><rect width="182.77" height="21.75" x="1174.45" y="847.2" fill="#959595" class="color959595 svgShape"/><rect width="182.77" height="21.75" x="1328.13" y="436.34" fill="#cacaca" class="colorcacaca svgShape"/><rect width="182.77" height="21.75" x="1361.32" y="570.71" fill="#cacaca" class="colorcacaca svgShape"/><rect width="182.77" height="21.75" x="1389.6" y="702.53" fill="#cacaca" class="colorcacaca svgShape"/></g><g fill="#000000" class="color000 svgShape"><path fill="#ee9b8a" d="M1595.89,321.06c0,0-14.29,14.06-5.9,36.21c0,0,7.82,31.78,21.29,54.94c0,0,9.3,19.74,22.18,17.29    c0,0,27.38-0.27,24.25-29.61c0,0-14.95-43-28.46-64.19C1629.26,335.7,1610.73,314,1595.89,321.06z" class="coloree9b8a svgShape"/><path fill="#3c9999" d="M1653.64,380.12c0,0-32.15,3.07-52.05,13.99c0,0-11.94-28.27-12.12-35.53c0,0-8.68-28.76,6.5-39.21    c0,0,16.4-7.23,31.87,12.17C1627.84,331.54,1650.26,364.99,1653.64,380.12z" class="color3c9999 svgShape"/></g><g fill="#000000" class="color000 svgShape"><path fill="#ee9b8a" d="M1632.66,403.66c0,0-16.25-2.55-20.43,9.19c0,0-18.64,35.48-19.8,48.69c0,0,27.95,6.06,24.6,23.98    c0,0,32.49-28.23,39.94-73.11C1656.97,412.41,1650.02,404.46,1632.66,403.66z" class="coloree9b8a svgShape"/></g><g fill="#000000" class="color000 svgShape"><path fill="#ee9b8a" stroke="#cb7970" stroke-miterlimit="10" d="M1574.84,476.27c0,0,11.47-13,17.59-14.73c0,0,12.75,3.9,21.48,12.5c0,0,4.47,3.94,1.98,10.68    c0,0-2.44,7.38-11.59,12.58C1604.3,497.3,1566.44,488.85,1574.84,476.27z" class="coloree9b8a svgShape colorStrokecb7970 svgStroke"/></g><g fill="#000000" class="color000 svgShape"><path fill="#6b6161" d="M1647.51,600.88c0.66-8.28,2.9-16.52,4.08-24.74c1.9-13.22,3.1-26.6,2.61-39.96      c-0.5-13.58-2.71-27.41-8.63-39.76c-4.85-10.1-15.88-26.25-28.79-24.71c-19.15,2.29-27.55,24.49-29.64,40.94      c-2.13,16.77,1.02,35.01,11.58,48.59c5.07,6.52,12.39,12.76,20.65,14.56c8.21,1.78,17.12-1.04,23.92-5.64      c14.66-9.92,18.66-29.37,17.39-46.05c-1.36-17.77-8.68-36.9-21.73-49.4c-6.19-5.94-14.44-10.79-23.29-10.33      c-8.71,0.46-15.69,5.97-20.69,12.75c-12.23,16.59-16.66,39.83-14.98,60.04c1.56,18.7,8.81,38.52,24.94,49.44      c15.1,10.21,34.59,10.07,48.59-1.88c13.54-11.55,18.17-30.1,19.45-47.14c1.42-19.03-0.83-40.03-13.07-55.43      c-5.81-7.31-14.26-15.3-23.28-18.35c-8.87-2.99-18.77,0.37-26.51,4.91c-37.73,22.12-35.31,73.72-20.69,109.02      c6.3,15.2,17.1,32.13,33.45,37.86c12.93,4.53,28.17,0.4,38.05-8.76c5.57-5.16,8.94-11.54,10.44-18.95      c0.37-1.84-2.18-2.54-2.81-0.77c-4.57,12.93-15.24,22.89-28.93,25.21c-15.15,2.57-27.63-6.54-36.19-18.35      c-10.14-13.99-15.72-31.56-18.4-48.48c-2.97-18.78-1.17-38.67,9.21-55c8.58-13.48,28.4-30,45.04-20.46      c16.06,9.21,25.68,25.1,28.38,43.11c2.46,16.36,1.4,34.76-4.83,50.21c-6.1,15.15-19.61,27.6-36.82,26.19      c-40.85-3.36-47.45-57.01-38.06-87.86c4.95-16.26,17.4-40.61,38.29-30.89c15.2,7.07,24.26,25.22,28.17,40.7      c3.79,15.02,3.7,33.42-5.01,46.85c-4.64,7.16-12.97,12.24-21.37,13.49c-9.2,1.37-17.14-3.54-23.3-9.99      c-10.64-11.14-14.77-27.11-14.3-42.21c0.51-16.26,6.4-39.28,24.38-44.19c12.97-3.54,24.23,13.93,28.78,23.97      c4.97,10.96,6.97,23.14,7.58,35.08c1.03,20.09-2.12,39.86-5.19,59.64c-0.35,2.23-0.73,4.48-0.86,6.74      C1645.04,602.42,1647.39,602.39,1647.51,600.88L1647.51,600.88z" class="color6b6161 svgShape"/></g><g fill="#000000" class="color000 svgShape"><path fill="#ee9b8a" stroke="#cb7970" stroke-miterlimit="10" d="M1614.91,474.92c0,0-18.29,13.38-24.38,13.62c0,0-16.4-21.51-21.81-17.43c0,0-1.55,1.92-0.28,6.43    c0,0-9.3-2.98,0.4,16.13c0,0-7.37-7.81-11.33-3.45c0,0-3.66,3.43,7.15,14.27c0,0,7.69,8.61,16.41,8.57c0,0-5.67-0.43-8.72,3.09    c0,0-13.7-12.16-17.7-7.93c0,0-6.08,4.5,13.74,17.25c0,0,4.83,3.75,20.76-4c0,0,4.8-1,26.65-35.55    C1615.79,485.91,1619.81,480.35,1614.91,474.92z" class="coloree9b8a svgShape colorStrokecb7970 svgStroke"/><path fill="none" stroke="#cb7970" stroke-miterlimit="10" d="M1568.09 476.77c0 0 13.11 22.37 20.05 19.95M1569.01 494.1c0 0 9.6 13.85 15.73 13.88" class="colorStrokecb7970 svgStroke"/></g><g fill="#000000" class="color000 svgShape"><path fill="#182023" d="M1604.16,434.28c20.25,43.75,10.29,153.83,12.91,167.38c0,0,1.28,35.78-31,41.63c0,0-20.64,8.75-40.35-20.31    l-24.18-175.68L1604.16,434.28z" class="color182023 svgShape"/></g><g fill="#000000" class="color000 svgShape"><path fill="#ed9a89" d="M1570.67,769.08c0.15,0.45-0.15,12.68-2.16,17.96c0,0,34.54,6.41,48.54,0.79l0.61-16.15L1570.67,769.08z" class="colored9a89 svgShape"/><path fill="#b53e3e" d="M1512.7,827.06c0,0,1.68-13.79,22.39-19.27c0,0,19.12-0.04,25.93-12.33c0,0,3-6.24,3.6-8.66    c0,0-0.41-4.62,6.63-3.03c0,0,38.64,2.32,48.89-2.13c0,0,4.22-1.82,4.03,4.62c0,0-0.32,30.59,0.09,36.82c0,0,1.26,5.82-1.55,5.62    c0,0-87.37,2.23-107.9,2.27C1514.82,830.98,1512.2,831.59,1512.7,827.06z" class="colorb53e3e svgShape"/><path fill="#601b1b" d="M1514.97,841.04l106.93-2.05c2.83-0.05,5.09-2.4,5.03-5.23l0,0c-0.05-2.83-2.4-5.09-5.23-5.03l-106.93,2.05    c-2.83,0.05-5.09,2.4-5.03,5.23l0,0C1509.8,838.84,1512.14,841.09,1514.97,841.04z" class="color601b1b svgShape"/><path fill="none" stroke="#601b1b" stroke-miterlimit="10" stroke-width="2" d="M1543.89 806.64c0 0 13.43.69 13.64 23.32M1624.09 797.65c0 0-6.39-2.99-14.18 2.51 0 0-15.32 15.62-16.87 29.72" class="colorStroke601b1b svgStroke"/><path fill="#601b1b" d="M1570.5 795.03L1570.5 795.03c.49-1.17-.06-2.54-1.23-3.03l-5.73-2.42c-1.17-.49-2.54.06-3.03 1.23l0 0c-.49 1.17.06 2.54 1.23 3.03l5.73 2.42C1568.64 796.76 1570 796.2 1570.5 795.03zM1564.19 803.78L1564.19 803.78c.79-1 .63-2.46-.37-3.25l-4.87-3.88c-1-.79-2.46-.63-3.25.37l0 0c-.79 1-.63 2.46.37 3.25l4.87 3.88C1561.93 804.95 1563.39 804.78 1564.19 803.78zM1558.2 809.59L1558.2 809.59c.99-.8 1.15-2.27.35-3.26l-3.91-4.84c-.8-.99-2.27-1.15-3.26-.35l0 0c-.99.8-1.15 2.27-.35 3.26l3.91 4.84C1555.75 810.24 1557.21 810.39 1558.2 809.59z" class="color601b1b svgShape"/></g><g fill="#000000" class="color000 svgShape"><path fill="#182023" d="M1544.42,607.48l9.32,158.55c0,0,41.89,21.18,85.84,1.82l-23.38-159.09c0,0-8.65-24.62-35.07-27.67    C1581.14,581.09,1553.3,576.51,1544.42,607.48z" class="color182023 svgShape"/><path fill="#110808" d="M1548.23,672.28c1.04,7.77,1.87,15.56,2.71,23.35l1.15,11.69l1.04,11.7c0.7,7.8,1.22,15.62,1.79,23.44     c0.24,3.91,0.46,7.83,0.65,11.75l0.24,5.9l0.05,2.99l0.01,0.75l-0.04,0.83l-0.11,1.67l-1.08-2.11c3.16,1.5,6.61,2.82,10.03,3.98     c3.44,1.16,6.93,2.16,10.46,3.05c7.05,1.75,14.26,2.88,21.52,3.35c7.26,0.43,14.57,0.21,21.79-0.92     c7.24-1.04,14.31-3.13,21.17-5.85c-3.27,1.7-6.61,3.35-10.11,4.58c-1.72,0.71-3.52,1.19-5.29,1.77c-1.8,0.46-3.59,1.02-5.42,1.38     c-7.28,1.61-14.79,2.29-22.27,2.1c-7.49-0.13-14.94-1.17-22.25-2.78c-3.66-0.8-7.26-1.83-10.83-2.99     c-3.58-1.18-7.04-2.47-10.56-4.1l-1.15-0.53l0.06-1.58l0.05-1.26l0.03-0.64l-0.01-0.72l-0.02-2.88l-0.19-5.83     c-0.16-3.9-0.34-7.8-0.55-11.7l-1.12-23.44c-0.38-7.82-0.71-15.64-1.03-23.46C1548.67,687.95,1548.36,680.12,1548.23,672.28z" class="color110808 svgShape"/></g><g fill="#000000" class="color000 svgShape"><path fill="#f9d5c9" d="M1441.51,631.85c0.14,0.45-0.51,12.45-2.64,17.59c0,0,33.76,7.28,47.67,2.16l1.05-15.85L1441.51,631.85z" class="colorf9d5c9 svgShape"/><path fill="#b53e3e" d="M1382.9,687.18c0,0,2.04-13.5,22.55-18.3c0,0,18.79,0.5,25.83-11.38c0,0,3.13-6.05,3.79-8.41    c0,0-0.27-4.55,6.6-2.79c0,0,37.9,3.38,48.1-0.7c0,0,4.2-1.67,3.83,4.65c0,0-1.18,30.05-0.96,36.19c0,0,1.08,5.75-1.69,5.48    c0,0-85.92-0.29-106.09-0.83C1384.87,691.09,1382.28,691.62,1382.9,687.18z" class="colorb53e3e svgShape"/><path fill="#601b1b" d="M1384.73,700.98l105.13,1.02c2.79,0.03,5.07-2.21,5.09-5l0,0c0.03-2.79-2.21-5.07-5-5.09l-105.13-1.02    c-2.79-0.03-5.07,2.21-5.09,4.99v0C1379.71,698.67,1381.95,700.95,1384.73,700.98z" class="color601b1b svgShape"/><path fill="none" stroke="#601b1b" stroke-miterlimit="10" stroke-width="2" d="M1414.13 668c0 0 13.18 1.06 12.74 23.3M1493.2 661.44c0 0-6.2-3.12-14 2.06 0 0-15.5 14.91-17.42 28.72" class="colorStroke601b1b svgStroke"/><path fill="#601b1b" d="M1440.61 657.34L1440.61 657.34c.52-1.14.01-2.5-1.13-3.02l-5.57-2.54c-1.14-.52-2.5-.01-3.02 1.13l0 0c-.52 1.14-.01 2.5 1.13 3.02l5.57 2.54C1438.73 658.99 1440.09 658.48 1440.61 657.34zM1434.16 665.77L1434.16 665.77c.81-.96.69-2.4-.27-3.21l-4.67-3.95c-.96-.81-2.4-.69-3.21.27l0 0c-.81.96-.69 2.4.27 3.21l4.67 3.95C1431.9 666.85 1433.35 666.72 1434.16 665.77zM1428.11 671.31L1428.11 671.31c1-.76 1.19-2.19.43-3.19l-3.71-4.87c-.76-1-2.19-1.19-3.19-.43l0 0c-1 .76-1.19 2.19-.43 3.19l3.71 4.87C1425.68 671.87 1427.11 672.06 1428.11 671.31z" class="color601b1b svgShape"/></g><g fill="#000000" class="color000 svgShape"><path fill="#2d3c42" d="M1477.3,492.26l27.46,154.67c0,0-35.43,22.73-90.06,10.85l-11.24-159.81c0,0,2.2-24.25,32.45-28.77    C1435.91,469.21,1468.97,465.91,1477.3,492.26z" class="color2d3c42 svgShape"/><path fill="#110808" d="M1414.7,657.79c7.62,1.42,15.33,2.15,23.03,2.46c7.7,0.27,15.41,0.09,23.02-0.8c3.81-0.4,7.59-1,11.33-1.79     c3.74-0.77,7.43-1.73,11.06-2.88c7.27-2.26,14.18-5.51,20.59-9.49l-0.88,1.98l-2.87-15.85l-2.78-15.86     c-1.87-10.57-3.61-21.16-5.38-31.75c-1.72-10.6-3.42-21.2-5.03-31.82c-1.61-10.62-3.18-21.24-4.56-31.9     c2.38,10.48,4.56,21,6.7,31.52c2.15,10.52,4.19,21.06,6.23,31.6c1.98,10.55,4,21.1,5.88,31.67l2.85,15.85l2.76,15.86l0.23,1.3     l-1.1,0.68c-6.74,4.18-14.07,7.36-21.63,9.56c-0.94,0.29-1.89,0.56-2.84,0.8c-0.95,0.24-1.9,0.5-2.86,0.73     c-1.92,0.41-3.84,0.84-5.78,1.15c-3.87,0.67-7.76,1.16-11.67,1.44c-7.81,0.57-15.64,0.44-23.39-0.31     C1429.86,661.18,1422.16,659.9,1414.7,657.79z" class="color110808 svgShape"/></g><g fill="#000000" class="color000 svgShape"><path fill="#ed9a89" d="M1574.77,274.52c0,0-2.81,27.9,4.63,30.57c0,0-7.93,10.96-25.11,11.92c0,0-19.27,0.21-27.4-9.6    c0,0,16.24-7.07,14.89-32.93C1541.78,274.48,1559.77,285.86,1574.77,274.52z" class="colored9a89 svgShape"/></g><g fill="#000000" class="color000 svgShape"><path fill="#fbd7cb" d="M1524.85,216.23c0,0-7.23,10.95-12.04,31.73c0,0-9.1,26.4-0.68,40.17c0,0,2.94,8.2,10.4,8.38    c0,0,9.09-1.82,17.18-7.79c0,0,5.53-1.09,23.28-23.82c0,0,15.53-21.08,13.7-35.31c0,0-2.25-14.85-19.47-19.69    C1557.23,209.9,1535.68,200.65,1524.85,216.23z" class="colorfbd7cb svgShape"/></g><g fill="#000000" class="color000 svgShape"><path fill="#fbd7cb" d="M1515.36,239.36c0,0-6.83,12.03-11.26,14.67c0,0,4.25,3.19,6.88,3.59" class="colorfbd7cb svgShape"/><path fill="#cd7970" d="M1515.36,239.36c-0.52,1.49-1.17,2.92-1.89,4.31c-0.72,1.39-1.51,2.75-2.37,4.06     c-0.85,1.32-1.81,2.58-2.85,3.79c-1.05,1.2-2.18,2.36-3.71,3.24l0.08-1.42c0.96,0.8,2,1.59,3.03,2.33     c0.53,0.36,1.05,0.74,1.6,1.06c0.55,0.33,1.11,0.65,1.73,0.88c-0.67,0.02-1.34-0.12-1.99-0.29c-0.64-0.19-1.28-0.41-1.89-0.69     c-0.61-0.27-1.22-0.56-1.8-0.89c-0.58-0.33-1.16-0.65-1.73-1.04l-0.91-0.62l0.99-0.8c0.27-0.22,0.55-0.41,0.81-0.65l0.78-0.76     c0.52-0.53,1.02-1.07,1.5-1.66c0.97-1.15,1.91-2.35,2.85-3.57C1511.47,244.24,1513.31,241.76,1515.36,239.36z" class="colorcd7970 svgShape"/></g><g fill="#000000" class="color000 svgShape"><path fill="#57124e" d="M1518.93,238.86c-0.81,2.13-0.46,4.24,0.78,4.7c1.24,0.47,2.9-0.88,3.7-3c0.81-2.13,0.46-4.24-0.78-4.7    C1521.4,235.38,1519.74,236.73,1518.93,238.86z" class="color57124e svgShape"/></g><g fill="#000000" class="color000 svgShape"><path fill="#57124e" d="M1524.8,230.13c0,0-0.53-3.48,3.6-2.74c0,0,4.96,1.26,4.74,9.39c0,0-1.21,4.26-3.21,1.45    C1529.93,238.22,1529.19,232.61,1524.8,230.13z" class="color57124e svgShape"/></g><g fill="#000000" class="color000 svgShape"><path fill="#57124e" d="M1591.54,234.32c0,0-0.29,5.93-23.06,1.04c0,0-27.83-2.02-40.36-19.29c0,0-8.82-5.6-5.77-12.67    c0,0,0.17-7.76,28.6-6.33c0,0,21.66,2.36,33.3,15.09C1584.25,212.16,1600.35,223.17,1591.54,234.32z" class="color57124e svgShape"/><path fill="#57124e" d="M1528.02,219.52c2.89,2.2,6.04,4.03,9.29,5.61c3.23,1.62,6.6,2.95,10.05,3.97     c3.44,1.05,6.98,1.66,10.5,2.27c3.52,0.71,7.09,0.96,10.75,1.44l0.01,0.2c-3.62,0.62-7.36,0.8-11.04,0.34     c-1.85-0.13-3.65-0.61-5.46-1.02c-0.89-0.24-1.77-0.55-2.65-0.82l-1.32-0.41l-1.3-0.48c-3.47-1.24-6.82-2.79-10.01-4.61     c-3.17-1.84-6.21-3.92-8.95-6.35L1528.02,219.52z" class="color57124e svgShape"/><path fill="#57124e" d="M1558.39,231.81c-1-0.95-2.26-1.61-3.43-1.61c-1.18-0.01-2.23,0.62-3.16,1.45     c-0.91,0.87-1.71,1.92-2.48,3.01c-0.76,1.1-1.48,2.26-2.14,3.47l0.09-0.37c-0.14,2.03-0.43,3.97-0.78,5.92     c-0.35,1.95-0.79,3.88-1.35,5.78c-0.56,1.9-1.27,3.77-2.21,5.52c-0.48,0.87-1.03,1.72-1.71,2.45c-0.68,0.73-1.51,1.36-2.48,1.65     l-0.06-0.19c1.81-0.72,2.89-2.49,3.68-4.2c0.79-1.75,1.31-3.62,1.76-5.5c0.44-1.88,0.76-3.8,1-5.72     c0.23-1.91,0.41-3.87,0.41-5.75l0-0.17l0.09-0.2c0.59-1.3,1.21-2.6,2.01-3.83c0.79-1.23,1.75-2.4,2.98-3.33     c1.2-0.93,2.88-1.64,4.53-1.29c1.63,0.35,2.8,1.52,3.44,2.8L1558.39,231.81z" class="color57124e svgShape"/><path fill="#57124e" d="M1554.32,229.69c0,0-7.55-1.69-6.92,14.34c0,0-2.27,15.61-8.82,17.54l4.17,3.14l8.35-5.63l2.71,2.64    l-11.15,7.59c0,0-3.7,12.21,8.7,20.43l1.14-1.49c0,0,1.08,2.12,5.64,4.92c0,0,7.08,3.96,14.07-11.95c0,0-1.73,8.18-6.6,12.66    c0,0,12.95-0.36,14.54-16.86c0,0,4.24-10.36,8.24-13c0,0,16.08-19.9,5.46-29.6c0,0-5.48-8.67-17.77-10.83    C1576.07,223.6,1563.07,219.24,1554.32,229.69z" class="color57124e svgShape"/></g><g fill="#000000" class="color000 svgShape"><path fill="#fbd7cb" d="M1545.52,256.8c0,0,4.61-7.49,11.51-1.8c0,0,5.47,5.15-3.29,13.11c0,0-9.14,8.43-12.78-1.98L1545.52,256.8z" class="colorfbd7cb svgShape"/><path fill="#cd7970" d="M1554.23,259.78c-0.36-0.65-0.85-1.24-1.47-1.55c-0.61-0.33-1.3-0.36-1.95-0.17     c-0.65,0.17-1.27,0.53-1.85,0.93c-0.58,0.41-1.12,0.89-1.66,1.38l-0.53-0.81c0.44-0.16,0.83-0.23,1.28-0.19     c0.44,0.04,0.9,0.24,1.24,0.56c0.34,0.32,0.52,0.72,0.66,1.1c0.12,0.39,0.17,0.77,0.2,1.15l0.01,0.06l-0.01,0.04     c-0.1,0.61-0.27,1.15-0.54,1.68c-0.27,0.52-0.64,1.04-1.19,1.36c-0.54,0.32-1.23,0.37-1.77,0.17c-0.29-0.06-0.53-0.23-0.78-0.33     c-0.24-0.15-0.46-0.32-0.68-0.48l0.76,0.31c0.26,0.06,0.51,0.17,0.77,0.17c0.52,0.08,1.01-0.06,1.37-0.34     c0.73-0.59,1.04-1.68,1.17-2.64l0,0.09c-0.05-0.32-0.11-0.64-0.22-0.92c-0.11-0.27-0.24-0.53-0.43-0.7     c-0.18-0.16-0.41-0.26-0.67-0.28c-0.25-0.03-0.58,0.02-0.8,0.1l-2.49,0.89l1.96-1.7c0.58-0.5,1.16-1.01,1.83-1.42     c0.32-0.22,0.69-0.37,1.04-0.56c0.39-0.12,0.75-0.3,1.16-0.33c0.79-0.15,1.7,0.01,2.34,0.52     C1553.64,258.36,1554.05,259.05,1554.23,259.78z" class="colorcd7970 svgShape"/></g><g fill="#000000" class="color000 svgShape"><path fill="#57124e" d="M1510.07,265.05c0,0,3.82,8.42,13.02,1.25C1523.1,266.3,1511.12,283.91,1510.07,265.05z" class="color57124e svgShape"/></g><g fill="#000000" class="color000 svgShape"><path fill="#2d3c42" d="M1581.48,473.49c-7.86,37.71-26.11,44.21-127.57,64.32c0,0-34.31,9.44-48.21-18.99    c0,0-11.88-31.93,27.19-53.9l83.4-32.56L1581.48,473.49z" class="color2d3c42 svgShape"/></g><g fill="#000000" class="color000 svgShape"><path fill="#50babc" d="M1586.08,307.25c0,0-4.1-10.41-23.04-11.5c0,0-29.24-3.07-38.59,14.74l2.44,0.1l60.11-0.1L1586.08,307.25z" class="color50babc svgShape"/><path fill="#a4f9ff" d="M1497.88,316.3c0,0,21.17-9.39,57.04-12.5c0,0,44.74-0.16,59.54,17.3c0,0,9.85,15.99-0.54,127.3    c0,0,3.55,6.6-1.71,11.42c0,0-39.12,50.28-128.51-16.3c0,0,3.04-3.16,3.82-8.41c0,0,8.42-13.19,2.95-43.19    C1490.47,391.94,1483.05,330.38,1497.88,316.3z" class="colora4f9ff svgShape"/><path fill="#267775" d="M1615.44,323.82c1.16,5.08,1.89,10.26,2.47,15.44c0.3,2.59,0.51,5.19,0.75,7.79      c0.17,2.6,0.39,5.2,0.52,7.81c0.59,10.42,0.71,20.86,0.49,31.29c-0.18,10.44-0.81,20.85-1.53,31.27l-1.34,15.6l-1.67,15.56      l-0.14-0.73c0.56,1.12,0.88,2.14,1.12,3.29c0.22,1.12,0.3,2.3,0.17,3.47c-0.13,1.17-0.48,2.34-1.04,3.4      c-0.56,1.06-1.32,1.99-2.17,2.78l0.16-0.18c-1.01,1.3-2.04,2.35-3.15,3.41c-1.1,1.05-2.26,2.03-3.46,2.96      c-2.39,1.86-4.95,3.48-7.61,4.9c-5.34,2.83-11.11,4.79-17.02,5.91c-11.86,2.27-24.08,1.27-35.66-1.52      c-11.61-2.81-22.73-7.31-33.25-12.81c-10.54-5.49-20.56-11.88-30.19-18.77l-0.92-0.66l0.44-1.02c1.23-2.86,2.47-5.67,3.9-8.48      l0.01-0.02l0.05-0.09c0.24-0.41,0.54-0.99,0.78-1.52c0.25-0.54,0.48-1.11,0.69-1.68c0.43-1.14,0.81-2.31,1.13-3.5      c0.64-2.38,1.14-4.82,1.44-7.29c0.65-4.93,0.73-9.96,0.44-14.96c-0.1-1.25-0.11-2.5-0.26-3.75l-0.39-3.75      c-0.15-1.25-0.36-2.5-0.54-3.75l-0.28-1.87c-0.1-0.69-0.16-1.29-0.23-1.93c-0.56-5.07-0.99-10.15-1.31-15.23      c-0.61-10.17-0.83-20.38-0.12-30.57c0.38-5.09,0.99-10.18,2.2-15.18c0.62-2.49,1.37-4.96,2.42-7.33      c1.06-2.35,2.39-4.65,4.33-6.47l0.08-0.08l0.09-0.03c5.94-2,11.94-3.67,18-5.16c6.06-1.49,12.18-2.7,18.33-3.71      c-6.12,1.19-12.18,2.63-18.19,4.25c-6,1.63-11.97,3.44-17.8,5.56l0.17-0.11c-1.75,1.71-2.97,3.92-3.94,6.21      c-0.95,2.3-1.64,4.72-2.18,7.17c-1.06,4.91-1.59,9.94-1.9,14.98c-0.57,10.09-0.21,20.23,0.55,30.32      c0.39,5.05,0.88,10.09,1.51,15.1c0.08,0.61,0.16,1.28,0.25,1.84l0.32,1.89c0.2,1.26,0.44,2.51,0.62,3.78      c0.32,2.55,0.66,5.09,0.8,7.66c0.33,5.13,0.28,10.31-0.36,15.45c-0.3,2.57-0.8,5.13-1.46,7.65c-0.33,1.26-0.73,2.51-1.19,3.75      c-0.23,0.62-0.47,1.23-0.75,1.84c-0.28,0.62-0.55,1.19-0.95,1.87l0.07-0.12c-1.34,2.69-2.57,5.52-3.75,8.33l-0.48-1.68      c9.58,6.78,19.51,13.06,29.92,18.42c5.21,2.67,10.52,5.12,15.94,7.28c5.43,2.12,10.97,3.99,16.63,5.35      c11.28,2.77,23.1,3.77,34.48,1.65c5.67-1.05,11.2-2.9,16.29-5.57c2.54-1.34,4.99-2.88,7.26-4.63c1.14-0.87,2.23-1.8,3.27-2.78      c1.03-0.96,2.06-2.03,2.87-3.06l0.09-0.12l0.07-0.07c1.35-1.22,2.23-2.81,2.43-4.59c0.11-0.88,0.07-1.8-0.1-2.71      c-0.16-0.89-0.47-1.86-0.83-2.59l-0.18-0.37l0.04-0.36l1.89-15.49l1.56-15.53c0.86-10.37,1.65-20.75,1.97-31.15      c0.4-10.4,0.57-20.81,0.21-31.21c-0.07-2.6-0.23-5.2-0.34-7.8c-0.17-2.6-0.33-5.19-0.56-7.79      C1616.99,334.12,1616.44,328.93,1615.44,323.82z" class="color267775 svgShape"/></g><g fill="#000000" class="color000 svgShape"><path fill="#fad6ca" d="M1517.81,318.21c0,0,12.58,9.36,9.86,26.58c0,0-3.88,30.05-18.3,57.54c0,0-13.21,24.12-21.8,27.64     c0,0-29.08,1.54-20.85-33.49c0,0,7.74-39.36,18.04-64.95C1484.76,331.52,1495.45,304.55,1517.81,318.21z" class="colorfad6ca svgShape"/><path fill="#50babc" d="M1469.71,373.6c0,0,44.87,18.65,47.07,25.88c0,0,12-37.86,13.03-52.35c0,0,3.84-24.08-15.03-31.25    c0,0-17.67-8.39-29.38,12.48C1485.4,328.35,1474.25,357.84,1469.71,373.6z" class="color50babc svgShape"/></g><g fill="#000000" class="color000 svgShape"><path fill="#fad6ca" stroke="#cc7970" stroke-miterlimit="10" d="M1352.7,464.95c-15.59-7.14-6.22-12.65-6.22-12.65c-5.62-3.38-2.89-7.39-2.89-7.39      c1.96-5.61,25.04,0.57,25.04,0.57c2.54,0.37,4.71-2.9,6.36-6.77c0,0-1.89-4.3-14.11-4.73c0,0-7.3,0.17-6.17-5.13      c0,0-0.6-4.01,7.26-5.26c0,0,16.42-3.43,28.23-2.59c1.29-0.22,1.64,0.15,1.64,0.15c22.24,8.63,16.15,36.36,16.15,36.36      c-2.84,4.53-19.14,14.51-19.14,14.51c-6.24,4.7-9.86,4.85-9.86,4.85c-4.9,0.76-17.07-1.54-17.07-1.54      C1347.4,471.42,1352.7,464.95,1352.7,464.95z" class="colorfad6ca svgShape colorStrokecc7970 svgStroke"/><path fill="none" stroke="#cc7970" stroke-miterlimit="10" d="M1376.1 456.24c0 0-8.47 3.79-29.62-3.94M1378.38 467.67c0 0-7.84 1.21-25.68-2.72" class="colorStrokecc7970 svgStroke"/></g><g fill="#000000" class="color000 svgShape"><path fill="#fad6ca" d="M1482.08,398.62c0,0-11.85-6.04-45.01,8.72c0,0-26.81,8.6-41.61,15.52c0,0-3.72,23.73,12.53,34.66    c0,0,67.56-14.64,81.91-23.7C1489.9,433.81,1510.39,416.59,1482.08,398.62z" class="colorfad6ca svgShape"/></g><g fill="#000000" class="color000 svgShape"><polygon fill="#cacaca" points="1468.69 967.99 1442.46 967.99 1294.93 331.5 1321.16 331.5" class="colorcacaca svgShape"/><polygon fill="#959595" points="1286.98 334.1 1296.81 334.1 1442.46 967.99 1432.62 967.99" class="color959595 svgShape"/></g><g fill="#000000" class="color000 svgShape"><path fill="#f9d5c9" d="M473.21,849.27c-0.13,0.42,0.37,11.55,2.29,16.34c0,0-31.37,6.46-44.24,1.59l-0.84-14.71L473.21,849.27z" class="colorf9d5c9 svgShape"/><path fill="#b53e3e" d="M527.09,901.1c0,0-1.78-12.54-20.76-17.17c0,0-17.43,0.3-23.86-10.78c0,0-2.85-5.64-3.44-7.83    c0,0,0.29-4.22-6.1-2.64c0,0-35.19,2.81-44.61-1.07c0,0-3.88-1.58-3.6,4.28c0,0,0.84,27.88,0.57,33.57c0,0-1.05,5.33,1.52,5.1    c0,0,79.7,0.47,98.41,0.15C525.23,904.71,527.62,905.22,527.09,901.1z" class="colorb53e3e svgShape"/><path fill="#601b1b" d="M525.27,913.88l-97.52,0.04c-2.58,0-4.68-2.09-4.68-4.68l0,0c0-2.58,2.09-4.68,4.68-4.68l97.52-0.04    c2.58,0,4.68,2.09,4.68,4.68v0C529.95,911.79,527.86,913.88,525.27,913.88z" class="color601b1b svgShape"/><path fill="none" stroke="#601b1b" stroke-miterlimit="10" stroke-width="2" d="M498.29 883.04c0 0-12.23.87-12.02 21.5M425.01 876.27c0 0 5.78-2.84 12.97 2.03 0 0 14.25 13.96 15.91 26.79" class="colorStroke601b1b svgStroke"/><path fill="#601b1b" d="M473.82 872.93L473.82 872.93c-.47-1.06.01-2.32 1.07-2.79l5.18-2.3c1.06-.47 2.32.01 2.79 1.07l0 0c.47 1.06-.01 2.32-1.07 2.79l-5.18 2.3C475.55 874.47 474.3 873.99 473.82 872.93zM479.74 880.8L479.74 880.8c-.74-.89-.62-2.23.28-2.97l4.37-3.62c.89-.74 2.23-.62 2.97.28l0 0c.74.89.62 2.23-.28 2.97l-4.37 3.62C481.82 881.81 480.48 881.69 479.74 880.8zM485.29 885.98L485.29 885.98c-.92-.71-1.09-2.05-.37-2.96l3.48-4.48c.71-.92 2.05-1.09 2.96-.37l0 0c.92.71 1.09 2.05.37 2.96l-3.48 4.48C487.55 886.53 486.21 886.7 485.29 885.98z" class="color601b1b svgShape"/></g><g fill="#000000" class="color000 svgShape"><path fill="#ed9a89" d="M315.49,832.75c-0.33,0.29-5.76,10.25-6.6,15.43c0,0-30.71-10.88-39.35-21.89l7.01-13.25L315.49,832.75z" class="colored9a89 svgShape"/><path fill="#b53e3e" d="M335.13,906.22c0,0,5.05-11.85-9.04-25.87c0,0-15.33-8.91-15.1-21.94c0,0,0.49-6.41,1.13-8.63    c0,0,2.47-3.52-3.92-5.51c0,0-32.11-16.07-38.28-24.4c0,0-2.55-3.42-5.38,1.84c0,0-13.94,24.71-17.16,29.53    c0,0-3.72,4.09-1.36,5.24c0,0,69.14,42.34,85.6,51.9C331.61,908.38,333.42,910.09,335.13,906.22z" class="colorb53e3e svgShape"/><path fill="#601b1b" d="M326.82,916.39l-84.92-51.28c-2.25-1.36-2.97-4.28-1.61-6.53l0,0c1.36-2.25,4.28-2.97,6.53-1.61l84.92,51.28    c2.25,1.36,2.97,4.28,1.61,6.53v0C331.99,917.03,329.07,917.75,326.82,916.39z" class="color601b1b svgShape"/><path fill="none" stroke="#601b1b" stroke-miterlimit="10" stroke-width="2" d="M319.56 875.34c0 0-11.11-5.68-21.78 12.4M259.32 830.9c0 0 6.52.57 10.22 8.59 0 0 5.06 19.65-.24 31.7" class="colorStroke601b1b svgStroke"/><path fill="#601b1b" d="M303.58 853.67L303.58 853.67c.15-1.17 1.23-2.01 2.4-1.86l5.73.72c1.17.15 2.01 1.23 1.86 2.4l0 0c-.15 1.17-1.23 2.01-2.4 1.86l-5.73-.72C304.27 855.92 303.43 854.84 303.58 853.67zM304.58 863.63L304.58 863.63c-.17-1.17.64-2.27 1.81-2.44l5.71-.85c1.17-.17 2.27.64 2.44 1.81v0c.17 1.17-.64 2.27-1.81 2.44l-5.71.85C305.86 865.61 304.76 864.8 304.58 863.63zM306.69 871.07L306.69 871.07c-.42-1.1.13-2.35 1.23-2.78l5.39-2.07c1.1-.42 2.35.13 2.78 1.23l0 0c.42 1.1-.13 2.35-1.23 2.78l-5.39 2.07C308.37 872.73 307.12 872.17 306.69 871.07z" class="color601b1b svgShape"/></g><g fill="#000000" class="color000 svgShape"><path fill="#ee9b8a" stroke="#cb7970" stroke-miterlimit="10" d="M542.08,517.53c0,0-10.96-6.98-16.91-4.58c0,0-7.12,3.71-9.25,17.7c0,0-1.36,6.72,4.53,11.5    c0,0,31.34,9.83,41.74,8.72C562.19,550.88,572.23,534.38,542.08,517.53z" class="coloree9b8a svgShape colorStrokecb7970 svgStroke"/></g><g fill="#000000" class="color000 svgShape"><path fill="#ee9b8a" d="M446.86,504.91c0,0,4.11-15.18,17.42-13.18c0,0,55.11,13.63,68.65,18.92c0,0,4.92,23.79-10.65,35.33    c0,0-64.12-12.61-73.16-16.85C449.11,529.13,440.57,520.2,446.86,504.91z" class="coloree9b8a svgShape"/></g><g fill="#000000" class="color000 svgShape"><path fill="#ee9b8a" d="M425.53,415.28c0,0,18.2-9.54,31.88,23.48c0,0,14.76,23.2,19.22,50.35c0,0,10.7,27.7-1.23,34.23    c0,0-22.11,17.78-38.94-7.46c0,0-16.35-43.81-19.47-69.43C416.99,446.45,408.99,419.45,425.53,415.28z" class="coloree9b8a svgShape"/><path fill="#3c9999" d="M425.92,502.13c9.44-5.39,20.61-12.82,31.1-15.74c4.52-1.26,14-6.24,19.58-6.93     c-6.25-18.15-15.89-43.68-15.89-43.68c-14.9-28.96-35.18-20.51-35.18-20.51c-16.55,4.17-8.54,31.17-8.54,31.17     C418.6,459.61,421.35,487.77,425.92,502.13z" class="color3c9999 svgShape"/></g><g fill="#000000" class="color000 svgShape"><rect width="225.71" height="27.59" x="493.86" y="503.78" fill="#696d72" transform="rotate(-2.807 606.563 517.317)" class="color696d72 svgShape"/><rect width="78.58" height="17.56" x="498.37" y="517.21" fill="#086614" transform="rotate(-2.807 537.532 525.736)" class="color086614 svgShape"/><rect width="29.47" height="17.56" x="547.46" y="516" fill="#19232a" transform="rotate(-2.807 562.078 524.554)" class="color19232a svgShape"/></g><g fill="#000000" class="color000 svgShape"><path fill="#182023" d="M401.2,693.99l3.98,162.14c0,0,33.35,15.57,76.65-7.88l-20.4-174.93c0,0-12.28-16.63-29.86-11.3    C431.57,662.02,403.55,665.6,401.2,693.99z" class="color182023 svgShape"/><path fill="#110808" d="M481.83,848.25c-5.64,3.55-11.71,6.43-17.97,8.79c-6.26,2.37-12.77,4.16-19.43,5.24     c-3.33,0.57-6.7,0.87-10.08,1.01c-3.38,0.15-6.79,0.05-10.18-0.28c-6.78-0.65-13.47-2.43-19.77-5.15l-1.07-0.46l-0.04-1.21     l-0.48-16.62c-0.16-5.54-0.32-11.08-0.42-16.62l-0.35-16.62l-0.24-16.62c-0.09-5.54-0.12-11.08-0.16-16.63     c-0.05-5.54-0.06-11.09-0.05-16.63c0-11.09,0.07-22.17,0.33-33.27c0.8,11.07,1.42,22.14,1.96,33.21     c0.28,5.54,0.54,11.07,0.76,16.61c0.23,5.54,0.48,11.07,0.66,16.61l0.57,16.62l0.47,16.62c0.17,5.54,0.28,11.08,0.39,16.62     l0.33,16.62l-1.1-1.67c5.85,2.69,12.13,4.49,18.58,5.27c3.22,0.42,6.47,0.64,9.74,0.61c3.26-0.01,6.53-0.22,9.79-0.6     c6.52-0.74,12.97-2.19,19.29-4.11C469.67,853.61,475.89,851.25,481.83,848.25z" class="color110808 svgShape"/></g><g fill="#000000" class="color000 svgShape"><path fill="#182023" d="M357.3,553.84c0.19,3.42,36.1,122.65,39.58,135.18c0,0,13.79,31.05,42.63,24.37c0,0,30.03-10.21,20.79-51.32    l-26.42-113.61l-46.96-28.23L357.3,553.84z" class="color182023 svgShape"/></g><g fill="#000000" class="color000 svgShape"><path fill="#2d3c42" d="M392.76,714.31l-62.53,137.93c0,0-46.61,4.58-81.43-27.62l81.02-129.8c0,0,11.42-22.78,37.33-16.5    C367.15,678.32,394.9,683.72,392.76,714.31z" class="color2d3c42 svgShape"/><path fill="#110808" d="M367.2,770.68c-2.79,6.94-5.74,13.8-8.66,20.67c-2.96,6.85-5.92,13.71-8.93,20.54l-9.01,20.48l-4.47,10.23     l-2.16,5.13l-1,2.55l-0.25,0.64c-0.07,0.2-0.12,0.38-0.18,0.57l-0.37,1.12l-0.5,1.53l-1.29,0.08c-3.86,0.25-7.55,0.22-11.3,0.05     c-3.74-0.18-7.46-0.49-11.16-1.01c-3.7-0.52-7.38-1.19-11.02-2.03c-3.64-0.82-7.25-1.83-10.78-3.05     c-7.08-2.38-13.91-5.52-20.24-9.45c-6.34-3.9-12.12-8.69-17.11-14.12c5.61,4.79,11.6,9.07,18.08,12.43     c3.2,1.74,6.53,3.25,9.9,4.6c3.37,1.37,6.82,2.54,10.3,3.57c6.98,2.03,14.12,3.47,21.34,4.3c3.61,0.41,7.23,0.72,10.85,0.85     c3.6,0.14,7.3,0.13,10.79-0.13l-1.78,1.61l0.48-1.55c0.08-0.25,0.16-0.52,0.25-0.76l0.26-0.66l1.06-2.65l2.23-5.18     c1.52-3.43,3.03-6.85,4.61-10.23c3.18-6.77,6.32-13.54,9.63-20.24c3.26-6.72,6.61-13.4,9.99-20.06     C360.19,783.88,363.61,777.24,367.2,770.68z" class="color110808 svgShape"/></g><g fill="#000000" class="color000 svgShape"><path fill="#2d3c42" d="M324.9,569.37c-7.9,38.36,8.33,109.2,4.92,125.45c0,0,1.21,31.38,29.84,34.4c0,0,23.72,2.31,33.99-20.38    c6.62-14.63,0.4-94.88,3.32-123.05c2.91-28.03-3.56-56.45-3.56-56.45S335.13,519.71,324.9,569.37z" class="color2d3c42 svgShape"/><path fill="#110808" d="M373.61,528.9c-3.39,0.1-6.75,0.63-10.02,1.37c-3.27,0.76-6.48,1.75-9.53,3.1     c-6.12,2.61-11.62,6.49-15.94,11.4c-2.14,2.47-4.04,5.14-5.58,8.02c-1.53,2.88-2.83,5.9-3.78,9.04     c-0.29,0.77-0.43,1.58-0.67,2.37c-0.2,0.8-0.47,1.57-0.62,2.39c-0.33,1.63-0.72,3.21-0.94,4.84c-0.47,3.28-0.82,6.62-1.05,9.97     c-0.56,6.69-0.76,13.43-0.79,20.16c-0.13,6.74,0.18,13.48,0.37,20.24c0.59,13.5,1.77,26.99,3.1,40.51     c-2.97-13.26-5.04-26.74-6.21-40.31c-0.25-3.4-0.58-6.79-0.69-10.2l-0.23-5.11l-0.12-5.12c-0.08-6.82,0.09-13.66,0.6-20.49     c0.27-3.42,0.66-6.82,1.18-10.25c0.58-3.48,1.38-6.84,2.5-10.17c2.28-6.6,5.72-12.96,10.67-17.99c2.44-2.53,5.16-4.78,8.13-6.63     c2.96-1.85,6.12-3.35,9.39-4.49c3.27-1.13,6.64-1.92,10.04-2.37C366.78,528.74,370.22,528.58,373.61,528.9z" class="color110808 svgShape"/></g><g fill="#000000" class="color000 svgShape"><path fill="#ee9b8a" d="M416.52,365.52c0,0-5.65,29.77-19.45,36.25c0,0,21.19,20.25,36.61,24.02c0,0,5.2-3.14,6.22-18.74    c0,0-0.97-12.68,3.42-22.32C443.31,384.73,428.21,378.34,416.52,365.52z" class="coloree9b8a svgShape"/></g><g fill="#000000" class="color000 svgShape"><path fill="#a4f9ff" d="M378.12,410.56c0,0,11.52-11.09,22.66-10.68c0,0,19.74,19.84,31.52,20.95c0,0,6.06-2.86,7.24-12.86    c0,0,9.46,7.01,14.02,13.25c0,0,19.56,21.42-0.23,74.33c-2.83,7.54-5.7,24.94-8.93,46.35c0,0-2.43,26.15,0.43,33.6    c0,0-46.07,24.88-121.15-17.12c0,0,8.35-26.24,12.16-38.12c0,0,9.53-39.42,17.91-66.32C353.75,453.93,356.04,428.34,378.12,410.56    z" class="colora4f9ff svgShape"/><path fill="#267775" d="M453.56,421.22c2.08,2.49,3.68,5.35,5.05,8.3c1.36,2.95,2.4,6.06,3.19,9.22      c1.56,6.33,2.14,12.9,1.83,19.41c-0.03,1.63-0.21,3.26-0.33,4.88c-0.22,1.62-0.35,3.25-0.64,4.85l-0.4,2.42l-0.49,2.4      c-0.3,1.61-0.73,3.18-1.12,4.77c-1.65,6.32-3.88,12.48-6.48,18.46l0.06-0.16c-1.72,7.66-3.3,15.37-4.77,23.08      c-1.45,7.72-2.78,15.46-3.81,23.23l0.01-0.09c-0.31,5.57-0.51,11.18-0.57,16.76c-0.02,2.79-0.01,5.58,0.1,8.36      c0.13,2.74,0.27,5.59,0.88,8.06l0.26,1.04l-0.89,0.45c-2.52,1.27-5,2.17-7.56,3.02c-2.56,0.82-5.14,1.53-7.76,2.09      c-5.22,1.16-10.54,1.85-15.86,2.2c-10.66,0.66-21.37-0.07-31.85-2c-10.49-1.85-20.75-4.88-30.66-8.71      c-9.92-3.82-19.51-8.44-28.75-13.64l-0.97-0.54l0.31-1.06c2.12-7.22,4.26-14.43,6.44-21.63c2.2-7.2,4.36-14.39,6.81-21.56      l-0.03,0.12c2.07-8.05,4.26-16.04,6.48-24.03c1.13-3.99,2.23-7.99,3.41-11.96l3.54-11.92l-0.03,0.11      c0.98-4.67,2.18-9.24,3.52-13.78c1.35-4.54,2.86-9.03,4.61-13.44c1.75-4.4,3.7-8.75,6.07-12.87c2.36-4.12,5.14-8.06,8.62-11.36      l-0.04,0.04c1.56-1.71,3.23-3.23,4.98-4.68c1.75-1.44,3.57-2.8,5.46-4.04c1.89-1.24,3.84-2.4,5.86-3.41      c2-1.05,4.09-1.92,6.18-2.75c-2.06,0.92-4.1,1.88-6.04,3.01c-1.97,1.09-3.85,2.33-5.69,3.61c-1.84,1.29-3.59,2.69-5.27,4.17      c-1.67,1.48-3.3,3.05-4.72,4.73l-0.01,0.02l-0.02,0.02c-3.27,3.3-5.86,7.23-8.05,11.34c-2.2,4.11-4.07,8.41-5.71,12.8      c-1.64,4.39-3.05,8.86-4.3,13.37c-1.24,4.51-2.35,9.09-3.21,13.66l-0.01,0.05l-0.02,0.06l-6.65,23.93      c-2.18,7.98-4.32,15.99-6.34,24l-0.01,0.05l-0.02,0.06c-2.4,7.07-4.56,14.28-6.74,21.46c-2.17,7.19-4.3,14.4-6.4,21.61      l-0.66-1.6c9.17,5.1,18.66,9.61,28.45,13.33c9.79,3.68,19.84,6.74,30.12,8.61c10.26,1.94,20.75,2.71,31.16,2.11      c5.2-0.32,10.38-0.96,15.46-2.06c2.54-0.53,5.05-1.21,7.52-1.99c2.45-0.78,4.94-1.7,7.14-2.79l-0.63,1.48      c-0.39-1.51-0.56-2.94-0.7-4.38c-0.13-1.43-0.21-2.85-0.27-4.27c-0.1-2.84-0.11-5.66-0.09-8.48c0.07-5.64,0.28-11.26,0.61-16.89      l0-0.05l0.01-0.04c1.15-7.83,2.59-15.58,4.16-23.31c1.58-7.72,3.28-15.41,5.12-23.08l0.02-0.09l0.03-0.07      c2.66-5.86,4.96-11.9,6.67-18.11c1.7-6.2,3-12.54,3.38-18.97c0.46-6.42,0.05-12.92-1.33-19.22c-0.71-3.14-1.65-6.24-2.9-9.23      C457.05,426.68,455.56,423.78,453.56,421.22z" class="color267775 svgShape"/><path fill="#50babc" d="M404.49,395.37c0,0,8.28,14.78,27.79,25.47c0,0-12.68,5.6-18.59,15.88c0,0-20.1-22.67-19.47-35.9     C394.23,400.82,397.05,392.79,404.49,395.37z" class="color50babc svgShape"/><path fill="#267775" d="M404.49,395.37c1.75,2.65,3.77,5.1,5.9,7.44c2.15,2.32,4.41,4.52,6.8,6.58c2.41,2.03,4.87,4.01,7.48,5.76     c2.58,1.8,5.3,3.38,8.04,4.91l1.5,0.84l-1.57,0.75c-1.79,0.85-3.58,1.89-5.27,2.98c-1.7,1.11-3.35,2.29-4.91,3.58     c-1.57,1.27-3.01,2.7-4.36,4.18c-1.34,1.5-2.5,3.13-3.54,4.82l-0.72,1.18l-0.87-1.01c-2.29-2.66-4.45-5.38-6.52-8.19     c-2.05-2.82-4.01-5.7-5.82-8.69c-1.79-3-3.43-6.1-4.74-9.36c-0.64-1.64-1.2-3.31-1.6-5.04c-0.4-1.72-0.63-3.51-0.49-5.3     l0.01-0.08l0.02-0.04c0.45-1.07,1.04-2.01,1.74-2.88c0.71-0.86,1.56-1.62,2.54-2.17c0.97-0.56,2.09-0.86,3.19-0.86     C402.4,394.7,403.48,395.03,404.49,395.37z M404.49,395.37c-1.06-0.26-2.12-0.48-3.19-0.34c-1.06,0.09-2.09,0.42-2.96,1     c-0.88,0.57-1.63,1.32-2.25,2.17c-0.61,0.85-1.12,1.81-1.45,2.76l0.02-0.12c-0.02,3.36,1.12,6.66,2.48,9.76     c1.38,3.12,3.08,6.11,4.92,9c1.83,2.9,3.82,5.71,5.89,8.45c2.07,2.74,4.22,5.45,6.47,8.01l-1.59,0.16     c1.11-1.84,2.33-3.59,3.77-5.16c1.44-1.56,2.96-3.04,4.61-4.36c1.64-1.33,3.35-2.56,5.13-3.67c1.8-1.11,3.61-2.12,5.57-3.01     l-0.07,1.59c-1.37-0.83-2.78-1.61-4.12-2.48c-1.33-0.9-2.68-1.76-3.95-2.74c-2.61-1.86-5.04-3.96-7.38-6.13     c-2.34-2.18-4.5-4.55-6.51-7.02C407.89,400.76,406.01,398.17,404.49,395.37z" class="color267775 svgShape"/><path fill="#50babc" d="M432.29,420.83c0,0,5.78-5.51,5.48-14.63l5.33,2.88c0,0,7.6,11.44,3.53,23.23     C446.63,432.3,444.07,421.73,432.29,420.83z" class="color50babc svgShape"/><path fill="#267775" d="M432.29,420.83c0.86-1.03,1.57-2.15,2.21-3.31c0.63-1.16,1.15-2.38,1.53-3.63c0.39-1.25,0.71-2.51,0.84-3.8     c0.18-1.28,0.18-2.58,0.14-3.86l-0.05-1.28l1.17,0.59c1.81,0.9,3.6,1.83,5.39,2.76l0.2,0.1l0.12,0.19     c1.17,1.8,2.07,3.64,2.83,5.58c0.75,1.94,1.34,3.94,1.7,6c0.38,2.05,0.47,4.17,0.36,6.26c-0.09,2.11-0.65,4.16-1.28,6.16     l-0.88,2.77l-0.76-2.85c-0.38-1.41-1.02-2.91-1.83-4.22c-0.82-1.33-1.82-2.55-3.01-3.58c-1.19-1.02-2.51-1.94-4-2.54     c-0.72-0.36-1.5-0.55-2.28-0.8C433.87,421.14,433.02,420.97,432.29,420.83z M432.29,420.83c0.88,0.11,1.67,0.05,2.46,0.19     c0.81,0.17,1.64,0.27,2.42,0.57c1.6,0.46,3.13,1.24,4.48,2.25c1.36,1.01,2.57,2.24,3.53,3.64c0.97,1.42,1.76,2.89,2.28,4.62     l-1.65-0.08c0.52-1.87,0.96-3.76,0.99-5.71c0.08-1.93-0.02-3.89-0.4-5.8c-0.36-1.92-0.86-3.82-1.56-5.65     c-0.7-1.82-1.54-3.65-2.51-5.28l0.32,0.29c-1.76-0.99-3.52-1.98-5.26-3l1.13-0.7c-0.03,1.38-0.1,2.77-0.41,4.12     c-0.26,1.35-0.68,2.67-1.21,3.93c-0.54,1.26-1.21,2.45-1.98,3.57C434.18,418.91,433.3,419.95,432.29,420.83z" class="color267775 svgShape"/></g><g fill="#000000" class="color000 svgShape"><path fill="#ee9b8a" d="M525.5,535.37c0,0,5.28-6.29,17.96-8.82c0,0-2.2-26.77,4.5-27.36c0,0,2.42,0.38,4.49,4.56    c0,0,4.88-8.38,10.43,12.17c0,0,0.25-10.67,6.06-10.08c0,0,4.98,0.1,4.22,15.28c0,0,0.16,13.22-6.41,17.23    c0,0,6.56-4.02,11.15-3.44c0,0,1.73-16.79,7.49-16.34c0,0,7.64,1.67-1.23,23.23c0,0-2.47,2.18-17.78,8.12    c0,0-7.45,4.52-42.95-4.32C523.43,545.6,522.05,546.27,525.5,535.37z" class="coloree9b8a svgShape"/><path fill="#cb7970" d="M523.01,545.1c0.52,0.01,1.05,0.02,1.6,0.04c-0.02,0.03-0.04,0.06-0.06,0.08    c33.71,8.28,41.43,4.19,41.59,4.11c13.44-5.22,16.88-7.48,17.48-7.92c5.07-12.37,4.63-17.96,3.37-20.47    c-0.74-1.46-1.71-1.73-1.66-1.72c-4.21-0.33-6.34,11.27-6.8,15.76l-0.07,0.65l-0.65-0.08c-4.36-0.55-10.67,3.31-10.74,3.35    l-0.67-1.09c6.17-3.78,6.1-16.55,6.1-16.72c0.7-14-3.5-14.6-3.64-14.61l-0.01,0c-0.98-0.1-1.81,0.17-2.53,0.81    c-2.63,2.32-2.81,8.59-2.82,8.65l-0.11,4.42l-1.15-4.27c-3.03-11.21-5.7-13.19-7.02-13.37c-1.36-0.22-2.23,1.34-2.24,1.36    l-0.6,1.02l-0.52-1.06c-1.68-3.4-3.58-4.09-3.95-4.19c-4.33,0.61-4.65,16.63-3.82,26.66l0.05,0.62l-0.62,0.07    c-3.52,0.4-10.56,3.07-18.03,8.18c-0.95-0.01-1.47,0.05-2.35,0.12c1.26-0.2,5.84-7.44,19.61-9.5c-0.35-4.72-1.62-26.84,5.13-27.44    l0.08-0.01l0.08,0.01c0.1,0.02,2.41,0.42,4.49,4.02c0.59-0.61,1.59-1.33,2.85-1.14c2.6,0.35,4.96,4.02,7.19,11.19    c0.39-2.15,1.2-4.83,2.89-6.31c1-0.88,2.23-1.29,3.47-1.12c0.1,0,1.08,0.05,2.13,1.18c1.49,1.6,3.18,5.47,2.71,14.73    c0,0.46,0.06,9.34-3.68,14.81c2.13-0.92,4.84-1.8,7.22-1.7c0.41-3.41,2.37-16.74,8.19-16.27c0.06,0.01,1.54,0.36,2.56,2.32    c1.44,2.74,2.02,8.75-3.34,21.79l-0.06,0.14l-0.11,0.1c-0.1,0.09-2.73,2.32-17.87,8.19c-0.21,0.13-3.69,2.09-16.31,0.83    c-6.42-0.64-15.21-2.11-27.13-5.08l-1-0.25l0.67-0.79C522.94,545.19,522.97,545.15,523.01,545.1z" class="colorcb7970 svgShape"/><path fill="none" stroke="#cb7970" stroke-miterlimit="10" d="M552.19 502.95c0 0 5.2 25.22-1.53 28.06M563.04 516.35c0 0 2.12 16.6-2.38 20.7" class="colorStrokecb7970 svgStroke"/></g><g fill="#000000" class="color000 svgShape"><path fill="#fbd7cb" d="M469.56,357.17c0,0,2.42,11.71,5.73,16.19c0,0-7.77,1.89-12.28-0.78" class="colorfbd7cb svgShape"/><path fill="#cd7970" d="M469.56,357.17c0.56,1.35,1.08,2.7,1.57,4.05l1.49,4.02c0.5,1.33,1,2.66,1.56,3.94     c0.55,1.28,1.13,2.55,1.86,3.64l0.8,1.2l-1.33,0.25c-1.1,0.21-2.15,0.35-3.23,0.41c-1.08,0.05-2.16,0.07-3.23-0.04     c-2.13-0.19-4.35-0.73-6.04-2.06c0.98,0.4,1.99,0.61,3.01,0.72c1.02,0.1,2.04,0.12,3.05,0.07c1.02-0.06,2.03-0.15,3.04-0.32     c1-0.16,2.03-0.34,2.96-0.59l-0.53,1.45c-0.97-1.25-1.61-2.6-2.2-3.96c-0.56-1.37-1.04-2.76-1.41-4.17     c-0.39-1.41-0.7-2.83-0.93-4.26C469.77,360.08,469.59,358.64,469.56,357.17z" class="colorcd7970 svgShape"/></g><g fill="#000000" class="color000 svgShape"><path fill="#fbd7cb" d="M469.7,334.27c0,0,4.15,16.28-1.91,37.14c0,0-5.46,25.2-15.05,33.08c0,0-9.31,7.18-32.62-12.58    c0,0-24.83-22.09-23.01-42.4c0,0-3.13-29,16.23-38.03c0,0,13.49-7.56,31.63,0.22C444.97,311.7,460.29,313.42,469.7,334.27z" class="colorfbd7cb svgShape"/></g><g fill="#000000" class="color000 svgShape"><path fill="#57124e" d="M461.54,357.61c-0.19,1.66-1.12,2.91-2.08,2.8c-0.96-0.11-1.59-1.54-1.4-3.19c0.19-1.65,1.12-2.91,2.08-2.8    C461.1,354.52,461.73,355.95,461.54,357.61z" class="color57124e svgShape"/></g><g fill="#000000" class="color000 svgShape"><path fill="#57124e" d="M462.18,349.2c0,0,1.8-2.26-1.78-3.28c0,0-4.45-0.97-7.52,4.85c0,0-0.74,3.46,1.98,2.23    C454.86,352.99,457.69,349.31,462.18,349.2z" class="color57124e svgShape"/></g><g fill="#000000" class="color000 svgShape"><path fill="#57124e" d="M462.58,381.14c-0.39,0.9-1.02,1.68-1.73,2.38c-0.72,0.69-1.59,1.26-2.53,1.68     c-0.94,0.42-1.98,0.71-3.03,0.78c-1.06,0.12-2.11-0.01-3.14-0.21l0.15,0.03c-0.67-0.09-1.19-0.22-1.75-0.39     c-0.55-0.16-1.09-0.38-1.62-0.62c-1.05-0.49-2.03-1.15-2.88-1.97c-0.86-0.8-1.51-1.84-1.92-2.91c-0.43-1.08-0.5-2.24-0.36-3.31     c0.56,0.96,1,1.85,1.69,2.54c0.65,0.71,1.33,1.32,2.12,1.79c0.78,0.48,1.61,0.88,2.47,1.2c0.84,0.31,1.82,0.58,2.61,0.72     l0.15,0.03l0,0c0.79,0.16,1.57,0.32,2.37,0.34c0.8,0.05,1.61-0.02,2.42-0.16C459.25,382.76,460.91,382.11,462.58,381.14z" class="color57124e svgShape"/></g><g fill="#000000" class="color000 svgShape"><path fill="#57124e" d="M425.03,362.98c0,0-8.81,19.78-2.94,30.57c0,0,5.29,6.52,10.28,9.55c0,0,10.28,9.44,20.07,3.61    c0,0,4.51-2.13,6.63-9.84c0,0,1.15-2.29,2.46-5.87c0,0-3.08,0.7-5.84,0.06c0,0-1.25,6.98-8.26,3.92c0,0-8.41-7.61-6.14-14.59    c0,0,0.37-9.86,8.65-2.37c0,0,7.17,6.58,16.14,2.26l0.58-4.36c0,0-16.38-9.56-26.33-3.38c0,0-3.38,2.81-3.81,9.93    c0,0-3.46,7.8-7.24,2.2c-3.78-5.6-1.85-15.87-0.45-21.97L425.03,362.98z" class="color57124e svgShape"/></g><g fill="#000000" class="color000 svgShape"><path fill="#57124e" d="M436.87,328.89c0,0,4.24,4.61,3.21,11.19c0,0-1.89,10.83-9.79,10.96c0,0,1.25,14.84-5.97,15.25    c0,0,1.41-6.15-5.84-7.29c0,0,2.18,17.66-6.44,19.06c0,0-1.87,5.37-9.49-4.68c0,0-17.52-12.12-12.74-33.41    c0,0,1.59-28.87,22.78-31.85c0,0,30.91-22.16,52.62,14.46c0,0,18.76,7.11,5,18.68c0,0-3.3,5.08-15.01-5.44    C455.2,335.82,443.81,320.99,436.87,328.89z" class="color57124e svgShape"/><path fill="#57124e" d="M433.86,325.45c1.7,0.7,3.25,1.79,4.6,3.08c1.36,1.3,2.48,2.88,3.28,4.64c0.75,1.78,1.16,3.73,1.1,5.68     c-0.04,1.95-0.48,3.85-1.17,5.63l-0.04,0.1l-0.03,0.05c-0.85,1.31-1.86,2.26-2.98,3.15c-1.12,0.88-2.38,1.56-3.69,2.07     c-1.32,0.5-2.69,0.82-4.07,0.92c-1.38,0.11-2.76,0.03-4.09-0.23c2.7-0.19,5.31-0.78,7.58-1.98c1.15-0.57,2.19-1.33,3.15-2.14     c0.94-0.81,1.82-1.83,2.43-2.78l-0.07,0.15c0.58-1.63,0.94-3.32,1.03-5.01c0.05-1.69-0.16-3.39-0.73-5     c-0.56-1.61-1.43-3.14-2.5-4.54C436.57,327.87,435.3,326.58,433.86,325.45z" class="color57124e svgShape"/><path fill="#57124e" d="M434.89,330.26c0.93-1.29,2.08-2.42,3.48-3.3c0.71-0.42,1.49-0.79,2.38-0.93c0.88-0.15,1.87-0.02,2.73,0.41     l-0.27-0.09c1.07,0.16,1.93,0.5,2.82,0.93c0.87,0.43,1.7,0.93,2.45,1.52c0.74,0.61,1.46,1.25,2.09,1.97     c0.65,0.7,1.2,1.48,1.72,2.28l-0.04-0.06c0.8,1.02,1.73,2.04,2.67,2.99c0.95,0.95,1.97,1.83,3.05,2.61     c1.09,0.76,2.23,1.47,3.5,1.83c1.26,0.39,2.62,0.47,3.99,0.12c-1.21,0.72-2.73,0.96-4.18,0.76c-1.47-0.18-2.85-0.75-4.1-1.47     c-1.27-0.71-2.44-1.57-3.5-2.53c-1.09-0.95-2.06-1.97-2.99-3.12l-0.01-0.01l-0.04-0.05c-0.49-0.71-1-1.39-1.55-2.03     c-0.55-0.65-1.17-1.23-1.81-1.78c-0.66-0.52-1.34-1.03-2.07-1.44c-0.71-0.4-1.54-0.76-2.24-0.95l-0.21-0.06l-0.06-0.03     c-0.52-0.32-1.14-0.48-1.81-0.46c-0.68,0-1.39,0.21-2.07,0.5c-0.69,0.27-1.37,0.64-2.02,1.05     C436.15,329.31,435.5,329.76,434.89,330.26z" class="color57124e svgShape"/></g><g fill="#000000" class="color000 svgShape"><path fill="#fbd7cb" d="M424.53,356.18c0,0-0.65-8.54-9.16-6.69c0,0-7.03,2.02-3,12.81c0,0,4.16,11.37,11.95,3.99L424.53,356.18z" class="colorfbd7cb svgShape"/><path fill="#cd7970" d="M421.3,363.13c-0.26,0.04-0.53,0.09-0.8,0.12c-0.27-0.02-0.55,0.01-0.83-0.06     c-0.56-0.06-1.14-0.41-1.46-0.93c-0.34-0.52-0.43-1.14-0.43-1.71c0-0.59,0.1-1.13,0.28-1.7l0.01-0.03l0.03-0.05     c0.2-0.31,0.42-0.62,0.69-0.91c0.3-0.27,0.63-0.53,1.07-0.66c0.43-0.13,0.92-0.1,1.33,0.06c0.41,0.17,0.72,0.4,1.03,0.74     l-0.84,0.48c-0.25-0.66-0.5-1.31-0.82-1.93c-0.32-0.61-0.7-1.19-1.18-1.63c-0.48-0.45-1.08-0.73-1.76-0.72     c-0.68-0.01-1.36,0.28-1.96,0.68c0.48-0.56,1.14-0.98,1.92-1.13c0.78-0.15,1.64,0.1,2.26,0.59c0.35,0.22,0.58,0.53,0.86,0.8     c0.22,0.31,0.47,0.62,0.65,0.95c0.4,0.65,0.68,1.35,0.96,2.04l0.97,2.43l-1.81-1.95c-0.16-0.17-0.42-0.35-0.64-0.44     c-0.23-0.09-0.46-0.11-0.7-0.05c-0.23,0.06-0.46,0.23-0.68,0.41c-0.22,0.2-0.41,0.44-0.6,0.7l0.04-0.08     c-0.32,0.89-0.54,1.97-0.17,2.8c0.19,0.4,0.55,0.75,1.03,0.9c0.23,0.11,0.49,0.13,0.75,0.2L421.3,363.13z" class="colorcd7970 svgShape"/></g><g fill="#000000" class="color000 svgShape"><path fill="#fad6ca" stroke="#cc7970" stroke-miterlimit="10" d="M518.55,472c2.93-15.63-6.26-11.48-6.26-11.48c0.45-6.07-4.06-6.14-4.06-6.14    c-5.29-1.52-12.96,19.29-12.96,19.29c-1.08,2.12-4.72,2.02-8.53,1.2c0,0-2.25-3.73,3.96-13.22c0,0,4.04-5.44-0.59-7.42    c0,0-2.72-2.6-7.87,2.69c0,0-11.38,10.61-17.06,20.02c-0.86,0.86-0.77,1.32-0.77,1.32c-5.35,21.47,18.92,31.69,18.92,31.69    c4.95,0.27,21.23-6.75,21.23-6.75c6.9-2.22,8.95-4.88,8.95-4.88c3.2-3.31,7.96-13.76,7.96-13.76    C526.29,471.44,518.55,472,518.55,472z" class="colorfad6ca svgShape colorStrokecc7970 svgStroke"/><path fill="none" stroke="#cc7970" stroke-miterlimit="10" d="M499.44 485.08c0 0 7.4-4.39 12.85-24.56M506.88 492.91c0 0 5.11-5.3 11.67-20.92" class="colorStrokecc7970 svgStroke"/></g><g fill="#000000" class="color000 svgShape"><path fill="#fad6ca" d="M373.39,516.21c0,0,4.06-17.49,41.2-25.11c0,0,30.74-6.96,49.87-13.98c0,0,24.76,7.97,18.88,32.8    c0,0-63.82,27.31-83.31,30.46C400.03,540.38,369.66,549.52,373.39,516.21z" class="colorfad6ca svgShape"/><path fill="none" d="M447.33 479.27"/></g><g fill="#000000" class="color000 svgShape"><path fill="#fad6ca" d="M375,424.55c0,0-12.5,6.69-12.38,23.49c0,0-3.3,33.67,5.9,62.24c0,0,3.91,19.84,11.12,24.67      c0,0,33.19,7.31,30.53-27.33c0,0-1.64-38.66-7.41-64.71C402.76,442.9,396.82,415.48,375,424.55z" class="colorfad6ca svgShape"/><path fill="#50babc" d="M365.75,499.91c11.62-7.3,27.85-13.9,42.96-13.99c-1.12-13.06-2.99-29.68-5.94-43.01       c0,0-5.94-27.42-27.76-18.35c0,0-12.5,6.69-12.38,23.49C362.62,448.04,360.07,474.16,365.75,499.91z" class="color50babc svgShape"/><path fill="#267775" d="M384.65,422.72c-3.73-0.17-7.39,1.08-10.33,3.16c-2.95,2.12-5.14,5.1-6.72,8.33     c-1.54,3.27-2.56,6.78-3.19,10.38c-0.18,0.9-0.3,1.79-0.41,2.68c-0.06,0.45-0.14,0.9-0.14,1.31l-0.06,1.38     c-0.08,1.85-0.12,3.7-0.15,5.55c-0.13,7.41-0.06,14.82,0.34,22.2c0.38,7.38,1.14,14.74,2.58,21.98l-1.28-0.48     c3.28-2.12,6.64-3.99,10.1-5.71c3.46-1.71,7-3.28,10.64-4.58c3.64-1.3,7.37-2.36,11.18-2.97c3.8-0.62,7.72-0.74,11.5-0.04     c-3.81-0.52-7.67-0.2-11.41,0.57c-3.75,0.75-7.39,1.95-10.93,3.36c-3.55,1.4-7,3.06-10.36,4.86c-3.35,1.82-6.66,3.77-9.78,5.9     l-0.95,0.65l-0.34-1.13c-2.15-7.24-3.23-14.73-3.83-22.21c-0.25-3.75-0.44-7.49-0.47-11.24c0-3.75,0.02-7.5,0.21-11.24     c0.1-1.87,0.21-3.74,0.36-5.61l0.11-1.41c0.03-0.52,0.14-0.99,0.22-1.46c0.17-0.95,0.34-1.9,0.56-2.82     c0.82-3.71,2.02-7.38,3.89-10.75c0.94-1.67,2.04-3.27,3.32-4.71c1.3-1.43,2.78-2.68,4.42-3.68     C377.02,423.01,380.96,422.12,384.65,422.72z" class="color267775 svgShape"/></g></svg>