<?xml version="1.0" encoding="UTF-8" standalone="no"?>
<!DOCTYPE svg PUBLIC "-//W3C//DTD SVG 1.1//EN" "http://www.w3.org/Graphics/SVG/1.1/DTD/svg11.dtd">
<svg xmlns="http://www.w3.org/2000/svg" version="1.1" viewBox="0 0 256 256">
<g stroke-width="2.00" fill="none" stroke-linecap="butt">
<path stroke="#c4aebf" vector-effect="non-scaling-stroke" d="
  M 76.58 33.35
  C 43.47 51.47 22.10 85.12 20.39 122.96
  A 1.00 1.00 0.0 0 0 21.39 124.00
  L 51.01 124.00
  A 1.00 0.99 -87.8 0 0 52.00 123.08
  Q 54.82 89.87 79.69 69.20
  Q 98.10 53.90 123.08 52.01
  A 1.00 0.99 -2.2 0 0 124.00 51.02
  L 124.00 21.28
  A 0.99 0.99 0.0 0 0 122.95 20.29
  Q 98.23 21.50 76.58 33.35"
/>
<path stroke="#899ccc" vector-effect="non-scaling-stroke" d="
  M 120.04 203.72
  C 86.79 199.87 61.04 176.37 53.69 144.22
  Q 52.42 138.67 52.20 132.96
  A 1.00 1.00 0.0 0 0 51.20 132.00
  L 21.43 132.00
  A 1.00 1.00 0.0 0 0 20.43 133.05
  Q 21.31 150.33 27.14 166.01
  C 42.15 206.38 81.72 234.92 124.98 235.87
  C 177.32 237.03 222.87 201.29 233.49 150.00
  C 246.86 85.36 199.51 23.56 133.06 20.30
  A 1.00 1.00 0.0 0 0 132.01 21.30
  L 131.98 50.95
  A 1.00 0.99 2.2 0 0 132.90 51.94
  Q 159.67 54.18 178.20 70.76
  Q 206.15 95.78 203.87 133.06
  C 201.55 170.92 170.42 202.21 132.32 203.75
  Q 123.41 204.11 120.04 203.72"
/>
<path stroke="#c4aebf" vector-effect="non-scaling-stroke" d="
  M 116.0563 32.6141
  A 3.72 3.72 0.0 0 0 111.7681 29.5666
  L 111.3737 29.6333
  A 3.72 3.72 0.0 0 0 108.3261 33.9216
  L 109.7037 42.0659
  A 3.72 3.72 0.0 0 0 113.9919 45.1134
  L 114.3863 45.0467
  A 3.72 3.72 0.0 0 0 117.4339 40.7584
  L 116.0563 32.6141"
/>
<path stroke="#c4aebf" vector-effect="non-scaling-stroke" d="
  M 96.6833 37.0982
  A 3.75 3.75 0.0 0 0 91.8089 35.0090
  L 91.4932 35.1352
  A 3.75 3.75 0.0 0 0 89.4040 40.0097
  L 92.4567 47.6418
  A 3.75 3.75 0.0 0 0 97.3311 49.7310
  L 97.6468 49.6048
  A 3.75 3.75 0.0 0 0 99.7360 44.7303
  L 96.6833 37.0982"
/>
<path stroke="#c4aebf" vector-effect="non-scaling-stroke" d="
  M 78.7097 45.4279
  A 3.77 3.77 0.0 0 0 73.4815 44.3832
  L 73.1986 44.5718
  A 3.77 3.77 0.0 0 0 72.1539 49.8000
  L 76.6703 56.5721
  A 3.77 3.77 0.0 0 0 81.8985 57.6168
  L 82.1814 57.4282
  A 3.77 3.77 0.0 0 0 83.2261 52.2000
  L 78.7097 45.4279"
/>
<path stroke="#c4aebf" vector-effect="non-scaling-stroke" d="
  M 68.6486 68.3596
  A 3.77 3.77 0.0 0 0 68.6300 63.0281
  L 62.8825 57.3205
  A 3.77 3.77 0.0 0 0 57.5509 57.3391
  L 57.3114 57.5804
  A 3.77 3.77 0.0 0 0 57.3300 62.9119
  L 63.0775 68.6195
  A 3.77 3.77 0.0 0 0 68.4091 68.6009
  L 68.6486 68.3596"
/>
<path stroke="#c4aebf" vector-effect="non-scaling-stroke" d="
  M 57.6030 81.9487
  A 3.78 3.78 0.0 0 0 56.5830 76.7012
  L 49.8346 72.1494
  A 3.78 3.78 0.0 0 0 44.5871 73.1694
  L 44.3970 73.4513
  A 3.78 3.78 0.0 0 0 45.4170 78.6988
  L 52.1654 83.2506
  A 3.78 3.78 0.0 0 0 57.4129 82.2306
  L 57.6030 81.9487"
/>
<path stroke="#c4aebf" vector-effect="non-scaling-stroke" d="
  M 49.6782 97.3977
  A 3.75 3.75 0.0 0 0 47.6316 92.5052
  L 40.0634 89.4012
  A 3.75 3.75 0.0 0 0 35.1709 91.4478
  L 35.0418 91.7623
  A 3.75 3.75 0.0 0 0 37.0884 96.6548
  L 44.6566 99.7588
  A 3.75 3.75 0.0 0 0 49.5491 97.7122
  L 49.6782 97.3977"
/>
<path stroke="#c4aebf" vector-effect="non-scaling-stroke" d="
  M 45.1156 113.9547
  A 3.71 3.71 0.0 0 0 42.0614 109.6885
  L 33.8926 108.3362
  A 3.71 3.71 0.0 0 0 29.6264 111.3904
  L 29.5644 111.7653
  A 3.71 3.71 0.0 0 0 32.6186 116.0315
  L 40.7874 117.3838
  A 3.71 3.71 0.0 0 0 45.0536 114.3296
  L 45.1156 113.9547"
/>
<path stroke="#899ccc" vector-effect="non-scaling-stroke" d="
  M 208.24 187.59
  C 212.71 181.61 206.07 177.19 202.16 182.47
  Q 192.53 195.49 179.08 204.50
  C 175.01 207.23 174.47 211.92 180.71 212.61
  A 0.98 0.95 31.1 0 0 181.35 212.46
  Q 197.15 202.47 208.24 187.59"
/>
<path stroke="#899ccc" vector-effect="non-scaling-stroke" d="
  M 169.9790 214.4143
  A 3.74 3.74 0.0 0 0 165.1248 212.3137
  L 158.4491 214.9568
  A 3.74 3.74 0.0 0 0 156.3485 219.8110
  L 156.4810 220.1457
  A 3.74 3.74 0.0 0 0 161.3352 222.2463
  L 168.0109 219.6032
  A 3.74 3.74 0.0 0 0 170.1115 214.7490
  L 169.9790 214.4143"
/>
<path stroke="#899ccc" vector-effect="non-scaling-stroke" d="
  M 147.8349 222.3056
  A 3.81 3.81 0.0 0 0 143.7195 218.8278
  L 127.6161 220.1800
  A 3.81 3.81 0.0 0 0 124.1383 224.2955
  L 124.1651 224.6144
  A 3.81 3.81 0.0 0 0 128.2805 228.0922
  L 144.3839 226.7400
  A 3.81 3.81 0.0 0 0 147.8617 222.6245
  L 147.8349 222.3056"
/>
</g>
<path fill="#8d6c9f" d="
  M 243.91 128.00
  A 115.91 115.91 0.0 0 1 128.00 243.91
  A 115.91 115.91 0.0 0 1 12.09 128.00
  A 115.91 115.91 0.0 0 1 128.00 12.09
  A 115.91 115.91 0.0 0 1 243.91 128.00
  Z
  M 76.58 33.35
  C 43.47 51.47 22.10 85.12 20.39 122.96
  A 1.00 1.00 0.0 0 0 21.39 124.00
  L 51.01 124.00
  A 1.00 0.99 -87.8 0 0 52.00 123.08
  Q 54.82 89.87 79.69 69.20
  Q 98.10 53.90 123.08 52.01
  A 1.00 0.99 -2.2 0 0 124.00 51.02
  L 124.00 21.28
  A 0.99 0.99 0.0 0 0 122.95 20.29
  Q 98.23 21.50 76.58 33.35
  Z
  M 120.04 203.72
  C 86.79 199.87 61.04 176.37 53.69 144.22
  Q 52.42 138.67 52.20 132.96
  A 1.00 1.00 0.0 0 0 51.20 132.00
  L 21.43 132.00
  A 1.00 1.00 0.0 0 0 20.43 133.05
  Q 21.31 150.33 27.14 166.01
  C 42.15 206.38 81.72 234.92 124.98 235.87
  C 177.32 237.03 222.87 201.29 233.49 150.00
  C 246.86 85.36 199.51 23.56 133.06 20.30
  A 1.00 1.00 0.0 0 0 132.01 21.30
  L 131.98 50.95
  A 1.00 0.99 2.2 0 0 132.90 51.94
  Q 159.67 54.18 178.20 70.76
  Q 206.15 95.78 203.87 133.06
  C 201.55 170.92 170.42 202.21 132.32 203.75
  Q 123.41 204.11 120.04 203.72
  Z
  M 195.94 128.00
  A 67.94 67.94 0.0 0 0 128.00 60.06
  A 67.94 67.94 0.0 0 0 60.06 128.00
  A 67.94 67.94 0.0 0 0 128.00 195.94
  A 67.94 67.94 0.0 0 0 195.94 128.00
  Z"
/>
<path fill="#faefde" d="
  M 20.39 122.96
  C 22.10 85.12 43.47 51.47 76.58 33.35
  Q 98.23 21.50 122.95 20.29
  A 0.99 0.99 0.0 0 1 124.00 21.28
  L 124.00 51.02
  A 1.00 0.99 -2.2 0 1 123.08 52.01
  Q 98.10 53.90 79.69 69.20
  Q 54.82 89.87 52.00 123.08
  A 1.00 0.99 -87.8 0 1 51.01 124.00
  L 21.39 124.00
  A 1.00 1.00 0.0 0 1 20.39 122.96
  Z
  M 116.0563 32.6141
  A 3.72 3.72 0.0 0 0 111.7681 29.5666
  L 111.3737 29.6333
  A 3.72 3.72 0.0 0 0 108.3261 33.9216
  L 109.7037 42.0659
  A 3.72 3.72 0.0 0 0 113.9919 45.1134
  L 114.3863 45.0467
  A 3.72 3.72 0.0 0 0 117.4339 40.7584
  L 116.0563 32.6141
  Z
  M 96.6833 37.0982
  A 3.75 3.75 0.0 0 0 91.8089 35.0090
  L 91.4932 35.1352
  A 3.75 3.75 0.0 0 0 89.4040 40.0097
  L 92.4567 47.6418
  A 3.75 3.75 0.0 0 0 97.3311 49.7310
  L 97.6468 49.6048
  A 3.75 3.75 0.0 0 0 99.7360 44.7303
  L 96.6833 37.0982
  Z
  M 78.7097 45.4279
  A 3.77 3.77 0.0 0 0 73.4815 44.3832
  L 73.1986 44.5718
  A 3.77 3.77 0.0 0 0 72.1539 49.8000
  L 76.6703 56.5721
  A 3.77 3.77 0.0 0 0 81.8985 57.6168
  L 82.1814 57.4282
  A 3.77 3.77 0.0 0 0 83.2261 52.2000
  L 78.7097 45.4279
  Z
  M 68.6486 68.3596
  A 3.77 3.77 0.0 0 0 68.6300 63.0281
  L 62.8825 57.3205
  A 3.77 3.77 0.0 0 0 57.5509 57.3391
  L 57.3114 57.5804
  A 3.77 3.77 0.0 0 0 57.3300 62.9119
  L 63.0775 68.6195
  A 3.77 3.77 0.0 0 0 68.4091 68.6009
  L 68.6486 68.3596
  Z
  M 57.6030 81.9487
  A 3.78 3.78 0.0 0 0 56.5830 76.7012
  L 49.8346 72.1494
  A 3.78 3.78 0.0 0 0 44.5871 73.1694
  L 44.3970 73.4513
  A 3.78 3.78 0.0 0 0 45.4170 78.6988
  L 52.1654 83.2506
  A 3.78 3.78 0.0 0 0 57.4129 82.2306
  L 57.6030 81.9487
  Z
  M 49.6782 97.3977
  A 3.75 3.75 0.0 0 0 47.6316 92.5052
  L 40.0634 89.4012
  A 3.75 3.75 0.0 0 0 35.1709 91.4478
  L 35.0418 91.7623
  A 3.75 3.75 0.0 0 0 37.0884 96.6548
  L 44.6566 99.7588
  A 3.75 3.75 0.0 0 0 49.5491 97.7122
  L 49.6782 97.3977
  Z
  M 45.1156 113.9547
  A 3.71 3.71 0.0 0 0 42.0614 109.6885
  L 33.8926 108.3362
  A 3.71 3.71 0.0 0 0 29.6264 111.3904
  L 29.5644 111.7653
  A 3.71 3.71 0.0 0 0 32.6186 116.0315
  L 40.7874 117.3838
  A 3.71 3.71 0.0 0 0 45.0536 114.3296
  L 45.1156 113.9547
  Z"
/>
<path fill="#85cbf8" d="
  M 53.69 144.22
  C 61.04 176.37 86.79 199.87 120.04 203.72
  Q 123.41 204.11 132.32 203.75
  C 170.42 202.21 201.55 170.92 203.87 133.06
  Q 206.15 95.78 178.20 70.76
  Q 159.67 54.18 132.90 51.94
  A 1.00 0.99 2.2 0 1 131.98 50.95
  L 132.01 21.30
  A 1.00 1.00 0.0 0 1 133.06 20.30
  C 199.51 23.56 246.86 85.36 233.49 150.00
  C 222.87 201.29 177.32 237.03 124.98 235.87
  C 81.72 234.92 42.15 206.38 27.14 166.01
  Q 21.31 150.33 20.43 133.05
  A 1.00 1.00 0.0 0 1 21.43 132.00
  L 51.20 132.00
  A 1.00 1.00 0.0 0 1 52.20 132.96
  Q 52.42 138.67 53.69 144.22
  Z
  M 208.24 187.59
  C 212.71 181.61 206.07 177.19 202.16 182.47
  Q 192.53 195.49 179.08 204.50
  C 175.01 207.23 174.47 211.92 180.71 212.61
  A 0.98 0.95 31.1 0 0 181.35 212.46
  Q 197.15 202.47 208.24 187.59
  Z
  M 169.9790 214.4143
  A 3.74 3.74 0.0 0 0 165.1248 212.3137
  L 158.4491 214.9568
  A 3.74 3.74 0.0 0 0 156.3485 219.8110
  L 156.4810 220.1457
  A 3.74 3.74 0.0 0 0 161.3352 222.2463
  L 168.0109 219.6032
  A 3.74 3.74 0.0 0 0 170.1115 214.7490
  L 169.9790 214.4143
  Z
  M 147.8349 222.3056
  A 3.81 3.81 0.0 0 0 143.7195 218.8278
  L 127.6161 220.1800
  A 3.81 3.81 0.0 0 0 124.1383 224.2955
  L 124.1651 224.6144
  A 3.81 3.81 0.0 0 0 128.2805 228.0922
  L 144.3839 226.7400
  A 3.81 3.81 0.0 0 0 147.8617 222.6245
  L 147.8349 222.3056
  Z"
/>
<rect fill="#8d6c9f" x="-3.92" y="-7.85" transform="translate(112.88,37.34) rotate(-9.6)" width="7.84" height="15.70" rx="3.72"/>
<rect fill="#8d6c9f" x="-3.92" y="-7.86" transform="translate(94.57,42.37) rotate(-21.8)" width="7.84" height="15.72" rx="3.75"/>
<rect fill="#8d6c9f" x="-3.94" y="-7.84" transform="translate(77.69,51.00) rotate(-33.7)" width="7.88" height="15.68" rx="3.77"/>
<rect fill="#8d6c9f" x="-7.82" y="-3.94" transform="translate(62.98,62.97) rotate(44.8)" width="15.64" height="7.88" rx="3.77"/>
<rect fill="#8d6c9f" x="-7.85" y="-3.95" transform="translate(51.00,77.70) rotate(34.0)" width="15.70" height="7.90" rx="3.78"/>
<rect fill="#8d6c9f" x="-7.84" y="-3.92" transform="translate(42.36,94.58) rotate(22.3)" width="15.68" height="7.84" rx="3.75"/>
<rect fill="#8d6c9f" x="-7.85" y="-3.90" transform="translate(37.34,112.86) rotate(9.4)" width="15.70" height="7.80" rx="3.71"/>
<path fill="#8d6c9f" d="
  M 202.16 182.47
  C 206.07 177.19 212.71 181.61 208.24 187.59
  Q 197.15 202.47 181.35 212.46
  A 0.98 0.95 31.1 0 1 180.71 212.61
  C 174.47 211.92 175.01 207.23 179.08 204.50
  Q 192.53 195.49 202.16 182.47
  Z"
/>
<rect fill="#8d6c9f" x="-7.33" y="-3.92" transform="translate(163.23,217.28) rotate(-21.6)" width="14.66" height="7.84" rx="3.74"/>
<rect fill="#8d6c9f" x="-11.89" y="-3.97" transform="translate(136.00,223.46) rotate(-4.8)" width="23.78" height="7.94" rx="3.81"/>
</svg>
